<svg xmlns="http://www.w3.org/2000/svg" xmlns:xlink="http://www.w3.org/1999/xlink" width="1200" zoomAndPan="magnify" viewBox="0 0 900 899.99999" height="1200" preserveAspectRatio="xMidYMid meet" version="1.0"><defs><clipPath id="cc25d91912"><path d="M 235 90 L 803.890625 90 L 803.890625 676 L 235 676 Z M 235 90 " clip-rule="nonzero"/></clipPath></defs><path fill="#000000" d="M 441.691406 130.742188 C 251.246094 130.742188 96.1875 285.808594 96.1875 476.265625 C 96.1875 666.722656 251.246094 821.792969 441.691406 821.792969 C 632.140625 821.792969 787.199219 666.722656 787.199219 476.265625 C 787.199219 393.925781 759.339844 320.292969 712.027344 259.96875 L 679.496094 298.53125 C 720.738281 349.316406 736.882812 405.703125 736.882812 476.265625 C 736.882812 639.480469 604.898438 771.394531 441.691406 771.394531 C 278.484375 771.394531 146.496094 639.480469 146.496094 476.265625 C 146.496094 313.050781 278.484375 181.054688 441.691406 181.054688 C 493.40625 181.054688 532.089844 188.492188 574.316406 211.8125 L 605.222656 171.222656 C 555.78125 143.914062 502.039062 130.738281 441.691406 130.738281 Z M 441.691406 130.742188 " fill-opacity="1" fill-rule="evenodd"/><g clip-path="url(#cc25d91912)"><path fill="#000000" d="M 313.820312 430.824219 C 327.75 430.824219 338.289062 442.257812 345.433594 465.121094 C 359.722656 507.992188 369.90625 529.425781 375.980469 529.425781 C 380.621094 529.425781 385.445312 525.855469 390.449219 518.710938 C 490.832031 357.945312 583.714844 227.898438 669.09375 128.582031 C 691.242188 102.859375 726.433594 89.996094 774.660156 89.996094 C 786.09375 89.996094 793.773438 91.070312 797.703125 93.210938 C 801.632812 95.355469 803.597656 98.035156 803.597656 101.25 C 803.597656 106.253906 797.703125 116.078125 785.914062 130.722656 C 648.019531 296.496094 520.125 471.550781 402.238281 655.898438 C 394.019531 668.761719 377.230469 675.191406 351.867188 675.191406 C 326.144531 675.191406 310.960938 674.121094 306.316406 671.976562 C 294.171875 666.617188 279.878906 639.289062 263.449219 589.984375 C 244.871094 535.324219 235.582031 501.023438 235.582031 487.089844 C 235.582031 472.085938 248.085938 457.617188 273.09375 443.683594 C 288.453125 435.109375 302.03125 430.824219 313.820312 430.820312 " fill-opacity="1" fill-rule="nonzero"/></g></svg>