<svg xmlns="http://www.w3.org/2000/svg" xmlns:xlink="http://www.w3.org/1999/xlink" width="1200" zoomAndPan="magnify" viewBox="0 0 900 899.99999" height="1200" preserveAspectRatio="xMidYMid meet" version="1.0"><path fill="#000000" d="M 442 186 C 442 194.800781 434.878906 202 426 202 L 266 202 C 257.199219 202 250 194.800781 250 186 C 250 177.121094 257.199219 170 266 170 L 426 170 C 434.878906 170 442 177.121094 442 186 Z M 442 186 " fill-opacity="1" fill-rule="nonzero"/><path fill="#000000" d="M 442 266 C 442 274.800781 434.878906 282 426 282 L 266 282 C 257.199219 282 250 274.800781 250 266 C 250 257.121094 257.199219 250 266 250 L 426 250 C 434.878906 250 442 257.121094 442 266 Z M 442 266 " fill-opacity="1" fill-rule="nonzero"/><path fill="#000000" d="M 458 634 C 458 642.800781 450.878906 650 442 650 L 266 650 C 257.199219 650 250 642.800781 250 634 C 250 625.121094 257.199219 618 266 618 L 442 618 C 450.878906 618 458 625.121094 458 634 Z M 458 634 " fill-opacity="1" fill-rule="nonzero"/><path fill="#000000" d="M 412.398438 444 C 420.960938 432.160156 426 417.679688 426 402 C 426 362.320312 393.761719 330 354 330 C 314.320312 330 282 362.320312 282 402 C 282 417.679688 287.121094 432.160156 295.679688 444 C 268.160156 462.71875 250 494.238281 250 530 L 250 554 C 250 562.800781 257.199219 570 266 570 L 442 570 C 450.878906 570 458 562.800781 458 554 L 458 530 C 458 494.238281 439.921875 462.71875 412.398438 444 Z M 354 362 C 376.078125 362 394 379.921875 394 402 C 394 424.078125 376.078125 442 354 442 C 332 442 314 424.078125 314 402 C 314 379.921875 332 362 354 362 Z M 426 538 L 282 538 L 282 530 C 282 502.078125 298 477.921875 321.199219 466 C 331.039062 471.039062 342.238281 474 354 474 C 365.839844 474 377.039062 471.039062 386.878906 466 C 410.078125 477.921875 426 502.078125 426 530 Z M 426 538 " fill-opacity="1" fill-rule="nonzero"/><path fill="#000000" d="M 682 508.078125 L 682 266 C 682 261.761719 680.320312 257.679688 677.359375 254.640625 L 517.359375 94.640625 C 514.320312 91.679688 510.238281 90 506 90 L 218 90 C 191.601562 90 170 111.519531 170 138 L 170 170 L 138 170 C 111.601562 170 90 191.519531 90 218 L 90 762 C 90 788.480469 111.601562 810 138 810 L 658 810 C 741.839844 810 810 741.761719 810 658 C 810 582.320312 754.480469 519.601562 682 508.078125 Z M 522 144.640625 L 627.359375 250 L 538 250 C 529.199219 250 522 242.800781 522 234 Z M 202 138 C 202 129.199219 209.199219 122 218 122 L 490 122 L 490 234 C 490 260.480469 511.519531 282 538 282 L 650 282 L 650 506.398438 C 569.921875 510.558594 506 576.878906 506 658 C 506 671.839844 508.078125 685.199219 511.519531 698 L 218 698 C 209.199219 698 202 690.800781 202 682 Z M 138 778 C 129.199219 778 122 770.800781 122 762 L 122 218 C 122 209.199219 129.199219 202 138 202 L 170 202 L 170 682 C 170 708.480469 191.601562 730 218 730 L 524.238281 730 C 534.320312 748.71875 548.320312 765.039062 565.039062 778 Z M 658 778 C 591.839844 778 538 724.160156 538 658 C 538 591.839844 591.839844 538 658 538 C 724.160156 538 778 591.839844 778 658 C 778 724.160156 724.160156 778 658 778 Z M 658 778 " fill-opacity="1" fill-rule="nonzero"/><path fill="#000000" d="M 715.921875 637.28125 L 651.921875 701.28125 C 648.800781 704.398438 644.640625 706 640.558594 706 C 636.480469 706 632.398438 704.398438 629.28125 701.28125 L 600.160156 672.238281 C 593.921875 666 593.921875 655.839844 600.160156 649.601562 C 606.398438 643.359375 616.558594 643.359375 622.800781 649.601562 L 640.558594 667.359375 L 693.28125 614.640625 C 699.519531 608.398438 709.601562 608.398438 715.921875 614.640625 C 722.160156 620.878906 722.160156 631.039062 715.921875 637.28125 Z M 715.921875 637.28125 " fill-opacity="1" fill-rule="nonzero"/></svg>