<svg xmlns="http://www.w3.org/2000/svg" xmlns:xlink="http://www.w3.org/1999/xlink" width="1200" zoomAndPan="magnify" viewBox="0 0 900 899.99999" height="1200" preserveAspectRatio="xMidYMid meet" version="1.0"><path fill="#000000" d="M 450 275.804688 C 353.949219 275.804688 275.804688 353.949219 275.804688 450 C 275.804688 506.820312 303.269531 557.210938 345.484375 589.03125 L 345.484375 589.355469 L 345.925781 589.355469 C 375.003906 611.128906 410.957031 624.195312 450 624.195312 C 489.042969 624.195312 524.996094 611.128906 554.074219 589.355469 L 554.515625 589.355469 L 554.515625 589.03125 C 596.730469 557.210938 624.195312 506.820312 624.195312 450 C 624.195312 353.949219 546.050781 275.804688 450 275.804688 Z M 403.546875 593.582031 L 403.546875 496.453125 L 380.324219 496.453125 L 380.324219 583.792969 C 376.339844 581.703125 372.472656 579.425781 368.710938 577.011719 L 368.710938 496.453125 C 368.710938 477.242188 384.339844 461.613281 403.546875 461.613281 L 496.453125 461.613281 C 515.660156 461.613281 531.289062 477.242188 531.289062 496.453125 L 531.289062 577.011719 C 527.527344 579.425781 523.660156 581.714844 519.675781 583.792969 L 519.675781 496.453125 L 496.453125 496.453125 L 496.453125 593.582031 C 481.808594 598.332031 466.210938 600.96875 450 600.96875 C 433.789062 600.96875 418.191406 598.332031 403.546875 593.582031 Z M 415.160156 403.546875 C 415.160156 384.339844 430.792969 368.710938 450 368.710938 C 469.207031 368.710938 484.839844 384.339844 484.839844 403.546875 C 484.839844 422.757812 469.207031 438.386719 450 438.386719 C 430.792969 438.386719 415.160156 422.757812 415.160156 403.546875 Z M 554.515625 558.683594 L 554.515625 496.453125 C 554.515625 464.433594 528.46875 438.386719 496.453125 438.386719 L 496.148438 438.386719 C 503.523438 428.65625 508.066406 416.671875 508.066406 403.546875 C 508.066406 371.53125 482.015625 345.484375 450 345.484375 C 417.984375 345.484375 391.933594 371.53125 391.933594 403.546875 C 391.933594 416.671875 396.476562 428.65625 403.851562 438.386719 L 403.546875 438.386719 C 371.53125 438.386719 345.484375 464.433594 345.484375 496.453125 L 345.484375 558.683594 C 316.917969 531.199219 299.03125 492.675781 299.03125 450 C 299.03125 366.757812 366.757812 299.03125 450 299.03125 C 533.242188 299.03125 600.96875 366.757812 600.96875 450 C 600.96875 492.675781 583.082031 531.199219 554.515625 558.683594 Z M 554.515625 558.683594 " fill-opacity="1" fill-rule="nonzero"/><path fill="#000000" d="M 206.128906 322.257812 C 270.164062 322.257812 322.257812 270.164062 322.257812 206.128906 C 322.257812 142.09375 270.164062 90 206.128906 90 C 142.09375 90 90 142.09375 90 206.128906 C 90 270.164062 142.09375 322.257812 206.128906 322.257812 Z M 206.128906 113.226562 C 257.355469 113.226562 299.03125 154.90625 299.03125 206.128906 C 299.03125 257.355469 257.355469 299.03125 206.128906 299.03125 C 154.90625 299.03125 113.226562 257.355469 113.226562 206.128906 C 113.226562 154.90625 154.90625 113.226562 206.128906 113.226562 Z M 206.128906 113.226562 " fill-opacity="1" fill-rule="nonzero"/><path fill="#000000" d="M 693.871094 90 C 629.835938 90 577.742188 142.09375 577.742188 206.128906 C 577.742188 270.164062 629.835938 322.257812 693.871094 322.257812 C 757.90625 322.257812 810 270.164062 810 206.128906 C 810 142.09375 757.90625 90 693.871094 90 Z M 693.871094 299.03125 C 642.644531 299.03125 600.96875 257.355469 600.96875 206.128906 C 600.96875 154.90625 642.644531 113.226562 693.871094 113.226562 C 745.09375 113.226562 786.773438 154.90625 786.773438 206.128906 C 786.773438 257.355469 745.09375 299.03125 693.871094 299.03125 Z M 693.871094 299.03125 " fill-opacity="1" fill-rule="nonzero"/><path fill="#000000" d="M 206.128906 577.742188 C 142.09375 577.742188 90 629.835938 90 693.871094 C 90 757.90625 142.09375 810 206.128906 810 C 270.164062 810 322.257812 757.90625 322.257812 693.871094 C 322.257812 629.835938 270.164062 577.742188 206.128906 577.742188 Z M 206.128906 786.773438 C 154.90625 786.773438 113.226562 745.09375 113.226562 693.871094 C 113.226562 642.644531 154.90625 600.96875 206.128906 600.96875 C 257.355469 600.96875 299.03125 642.644531 299.03125 693.871094 C 299.03125 745.09375 257.355469 786.773438 206.128906 786.773438 Z M 206.128906 786.773438 " fill-opacity="1" fill-rule="nonzero"/><path fill="#000000" d="M 693.871094 577.742188 C 629.835938 577.742188 577.742188 629.835938 577.742188 693.871094 C 577.742188 757.90625 629.835938 810 693.871094 810 C 757.90625 810 810 757.90625 810 693.871094 C 810 629.835938 757.90625 577.742188 693.871094 577.742188 Z M 693.871094 786.773438 C 642.644531 786.773438 600.96875 745.09375 600.96875 693.871094 C 600.96875 642.644531 642.644531 600.96875 693.871094 600.96875 C 745.09375 600.96875 786.773438 642.644531 786.773438 693.871094 C 786.773438 745.09375 745.09375 786.773438 693.871094 786.773438 Z M 693.871094 786.773438 " fill-opacity="1" fill-rule="nonzero"/><path fill="#000000" d="M 206.128906 240.96875 C 199.71875 240.96875 194.515625 235.765625 194.515625 229.355469 L 171.289062 229.355469 C 171.289062 244.476562 181.035156 257.25 194.515625 262.058594 L 194.515625 275.804688 L 217.742188 275.804688 L 217.742188 262.058594 C 231.222656 257.25 240.96875 244.476562 240.96875 229.355469 C 240.96875 210.148438 225.335938 194.515625 206.128906 194.515625 C 199.71875 194.515625 194.515625 189.3125 194.515625 182.902344 C 194.515625 176.492188 199.71875 171.289062 206.128906 171.289062 C 212.539062 171.289062 217.742188 176.492188 217.742188 182.902344 L 240.96875 182.902344 C 240.96875 167.785156 231.222656 155.007812 217.742188 150.203125 L 217.742188 136.453125 L 194.515625 136.453125 L 194.515625 150.203125 C 181.035156 155.007812 171.289062 167.785156 171.289062 182.902344 C 171.289062 202.109375 186.921875 217.742188 206.128906 217.742188 C 212.539062 217.742188 217.742188 222.945312 217.742188 229.355469 C 217.742188 235.765625 212.539062 240.96875 206.128906 240.96875 Z M 206.128906 240.96875 " fill-opacity="1" fill-rule="nonzero"/><path fill="#000000" d="M 727.363281 146.695312 C 717.933594 142.699219 709.410156 136.519531 702.695312 128.820312 C 700.480469 126.289062 697.296875 124.839844 693.941406 124.839844 C 693.941406 124.839844 693.941406 124.839844 693.929688 124.839844 C 690.574219 124.839844 687.390625 126.300781 685.171875 128.832031 C 678.496094 136.519531 669.960938 142.699219 660.519531 146.695312 C 652.644531 150.027344 644.261719 151.875 635.804688 152.164062 C 629.417969 152.164062 624.226562 157.320312 624.195312 163.71875 C 624.195312 164.195312 624.03125 211.867188 632.648438 231.515625 C 647.582031 265.355469 677.195312 281.207031 689.238281 286.457031 C 690.710938 287.105469 692.292969 287.417969 693.871094 287.417969 C 695.449219 287.417969 697.03125 287.105469 698.503906 286.457031 C 710.546875 281.207031 740.160156 265.355469 755.105469 231.492188 C 763.710938 211.855469 763.546875 164.195312 763.546875 163.71875 C 763.511719 157.484375 758.554688 152.371094 752.332031 152.175781 C 743.632812 151.875 735.234375 150.027344 727.363281 146.695312 Z M 653.910156 222.167969 C 650.160156 213.597656 648.140625 191.554688 647.582031 174.332031 C 655.152344 173.160156 662.527344 171.082031 669.589844 168.085938 C 673.976562 166.226562 678.214844 164.007812 682.269531 161.476562 L 682.269531 255.902344 C 672.269531 248.875 660.9375 238.085938 653.910156 222.167969 Z M 733.84375 222.144531 C 726.804688 238.085938 715.472656 248.875 705.484375 255.902344 L 705.484375 161.394531 C 709.570312 163.960938 713.855469 166.203125 718.304688 168.085938 C 725.320312 171.058594 732.636719 173.148438 740.171875 174.308594 C 739.601562 191.53125 737.59375 213.585938 733.84375 222.144531 Z M 733.84375 222.144531 " fill-opacity="1" fill-rule="nonzero"/><path fill="#000000" d="M 240.96875 659.03125 L 240.96875 635.804688 C 240.96875 629.382812 235.777344 624.195312 229.355469 624.195312 L 182.902344 624.195312 C 176.480469 624.195312 171.289062 629.382812 171.289062 635.804688 L 171.289062 659.03125 L 148.066406 659.03125 C 141.644531 659.03125 136.453125 664.222656 136.453125 670.644531 L 136.453125 717.097656 C 136.453125 723.519531 141.644531 728.710938 148.066406 728.710938 L 171.289062 728.710938 L 171.289062 751.933594 C 171.289062 758.355469 176.480469 763.546875 182.902344 763.546875 L 229.355469 763.546875 C 235.777344 763.546875 240.96875 758.355469 240.96875 751.933594 L 240.96875 728.710938 L 264.195312 728.710938 C 270.617188 728.710938 275.804688 723.519531 275.804688 717.097656 L 275.804688 670.644531 C 275.804688 664.222656 270.617188 659.03125 264.195312 659.03125 Z M 252.582031 705.484375 L 229.355469 705.484375 C 222.933594 705.484375 217.742188 710.675781 217.742188 717.097656 L 217.742188 740.324219 L 194.515625 740.324219 L 194.515625 717.097656 C 194.515625 710.675781 189.324219 705.484375 182.902344 705.484375 L 159.675781 705.484375 L 159.675781 682.257812 L 182.902344 682.257812 C 189.324219 682.257812 194.515625 677.066406 194.515625 670.644531 L 194.515625 647.417969 L 217.742188 647.417969 L 217.742188 670.644531 C 217.742188 677.066406 222.933594 682.257812 229.355469 682.257812 L 252.582031 682.257812 Z M 252.582031 705.484375 " fill-opacity="1" fill-rule="nonzero"/><path fill="#000000" d="M 685.660156 627.597656 L 627.597656 685.660156 C 624.273438 688.980469 623.277344 693.976562 625.074219 698.320312 C 626.863281 702.660156 631.113281 705.484375 635.804688 705.484375 L 647.417969 705.484375 L 647.417969 751.933594 C 647.417969 758.355469 652.609375 763.546875 659.03125 763.546875 L 728.710938 763.546875 C 735.132812 763.546875 740.324219 758.355469 740.324219 751.933594 L 740.324219 705.484375 L 751.933594 705.484375 C 756.628906 705.484375 760.878906 702.660156 762.664062 698.320312 C 764.464844 693.976562 763.46875 688.980469 760.144531 685.660156 L 702.082031 627.597656 C 697.539062 623.054688 690.203125 623.054688 685.660156 627.597656 Z M 717.097656 740.324219 L 670.644531 740.324219 L 670.644531 705.484375 L 717.097656 705.484375 Z M 663.839844 682.257812 L 693.871094 652.226562 L 723.902344 682.257812 Z M 663.839844 682.257812 " fill-opacity="1" fill-rule="nonzero"/><path fill="#000000" d="M 438.015625 763.339844 L 437.144531 786.566406 C 444.9375 786.84375 452.890625 786.867188 460.789062 786.613281 L 461.136719 786.601562 L 460.046875 763.398438 C 452.695312 763.617188 445.273438 763.605469 438.015625 763.339844 Z M 438.015625 763.339844 " fill-opacity="1" fill-rule="nonzero"/><path fill="#000000" d="M 482.738281 761.851562 L 485.128906 784.949219 C 493.0625 784.125 501.050781 783.011719 508.914062 781.628906 L 504.882812 758.753906 C 497.578125 760.042969 490.121094 761.085938 482.738281 761.851562 Z M 482.738281 761.851562 " fill-opacity="1" fill-rule="nonzero"/><path fill="#000000" d="M 389.4375 781.351562 C 397.324219 782.78125 405.3125 783.941406 413.210938 784.800781 L 415.71875 761.714844 C 408.378906 760.914062 400.933594 759.84375 393.574219 758.507812 Z M 389.4375 781.351562 " fill-opacity="1" fill-rule="nonzero"/><path fill="#000000" d="M 526.761719 754.070312 L 532.429688 776.601562 C 540.21875 774.636719 547.988281 772.375 555.515625 769.890625 L 548.222656 747.835938 C 541.242188 750.160156 534.007812 752.25 526.761719 754.070312 Z M 526.761719 754.070312 " fill-opacity="1" fill-rule="nonzero"/><path fill="#000000" d="M 342.917969 769.378906 C 350.523438 771.921875 358.269531 774.21875 365.957031 776.195312 L 371.753906 753.699219 C 364.597656 751.855469 357.375 749.730469 350.292969 747.347656 Z M 342.917969 769.378906 " fill-opacity="1" fill-rule="nonzero"/><path fill="#000000" d="M 769.273438 557.441406 C 771.828125 549.90625 774.128906 542.148438 776.125 534.390625 L 753.632812 528.597656 C 751.773438 535.808594 749.636719 543.007812 747.265625 550.023438 Z M 769.273438 557.441406 " fill-opacity="1" fill-rule="nonzero"/><path fill="#000000" d="M 152.269531 548.570312 C 149.945312 541.53125 147.84375 534.296875 146.007812 527.085938 L 123.492188 532.800781 C 125.453125 540.535156 127.707031 548.292969 130.214844 555.851562 Z M 152.269531 548.570312 " fill-opacity="1" fill-rule="nonzero"/><path fill="#000000" d="M 758.449219 506.753906 L 781.304688 510.921875 C 782.722656 503.128906 783.894531 495.128906 784.777344 487.160156 L 761.679688 484.605469 C 760.867188 492.039062 759.773438 499.496094 758.449219 506.753906 Z M 758.449219 506.753906 " fill-opacity="1" fill-rule="nonzero"/><path fill="#000000" d="M 141.304688 505.21875 C 140.003906 497.867188 138.960938 490.414062 138.195312 483.085938 L 115.09375 485.476562 C 115.910156 493.363281 117.035156 501.363281 118.453125 509.285156 Z M 141.304688 505.21875 " fill-opacity="1" fill-rule="nonzero"/><path fill="#000000" d="M 786.601562 439.199219 L 786.554688 437.773438 L 763.339844 438.515625 L 763.386719 439.941406 C 763.628906 447.421875 763.605469 454.957031 763.316406 462.308594 L 786.519531 463.214844 C 786.832031 455.320312 786.855469 447.234375 786.601562 439.199219 Z M 786.601562 439.199219 " fill-opacity="1" fill-rule="nonzero"/><path fill="#000000" d="M 113.398438 460.800781 L 113.421875 461.519531 L 136.613281 460.058594 C 136.382812 452.765625 136.394531 445.527344 136.660156 438.363281 L 113.445312 437.539062 C 113.167969 445.308594 113.15625 453.125 113.398438 460.800781 Z M 113.398438 460.800781 " fill-opacity="1" fill-rule="nonzero"/><path fill="#000000" d="M 758.566406 394.082031 C 759.867188 401.386719 760.933594 408.84375 761.726562 416.230469 L 784.8125 413.769531 C 783.964844 405.824219 782.824219 397.835938 781.421875 389.996094 Z M 758.566406 394.082031 " fill-opacity="1" fill-rule="nonzero"/><path fill="#000000" d="M 141.433594 393.921875 L 118.578125 389.796875 C 117.175781 397.636719 116.011719 405.640625 115.164062 413.582031 L 138.25 416.066406 C 139.054688 408.667969 140.109375 401.226562 141.433594 393.921875 Z M 141.433594 393.921875 " fill-opacity="1" fill-rule="nonzero"/><path fill="#000000" d="M 747.535156 350.789062 C 749.867188 357.804688 751.980469 365.027344 753.828125 372.25 L 776.335938 366.515625 C 774.347656 358.746094 772.070312 350.988281 769.5625 343.464844 Z M 747.535156 350.789062 " fill-opacity="1" fill-rule="nonzero"/><path fill="#000000" d="M 130.503906 343.230469 C 127.972656 350.800781 125.6875 358.570312 123.710938 366.304688 L 146.207031 372.054688 C 148.054688 364.867188 150.179688 357.652344 152.535156 350.617188 Z M 130.503906 343.230469 " fill-opacity="1" fill-rule="nonzero"/><path fill="#000000" d="M 556.410156 130.390625 C 548.871094 127.871094 541.113281 125.59375 533.324219 123.609375 L 527.597656 146.125 C 534.832031 147.960938 542.042969 150.074219 549.023438 152.417969 Z M 556.410156 130.390625 " fill-opacity="1" fill-rule="nonzero"/><path fill="#000000" d="M 343.800781 130.308594 L 351.117188 152.359375 C 358.199219 150.015625 365.421875 147.902344 372.589844 146.078125 L 366.875 123.574219 C 359.1875 125.523438 351.417969 127.789062 343.800781 130.308594 Z M 343.800781 130.308594 " fill-opacity="1" fill-rule="nonzero"/><path fill="#000000" d="M 483.609375 138.214844 C 490.992188 139.007812 498.4375 140.0625 505.730469 141.375 L 509.828125 118.507812 C 501.992188 117.105469 493.988281 115.964844 486.046875 115.128906 Z M 483.609375 138.214844 " fill-opacity="1" fill-rule="nonzero"/><path fill="#000000" d="M 416.554688 138.226562 L 414.164062 115.128906 C 406.3125 115.941406 398.3125 117.082031 390.355469 118.507812 L 394.445312 141.363281 C 401.828125 140.039062 409.273438 138.984375 416.554688 138.226562 Z M 416.554688 138.226562 " fill-opacity="1" fill-rule="nonzero"/><path fill="#000000" d="M 439.558594 113.398438 L 438.132812 113.421875 L 439.941406 136.613281 C 447.109375 136.382812 454.214844 136.394531 461.300781 136.648438 L 462.101562 113.433594 C 454.597656 113.179688 447.050781 113.15625 439.804688 113.386719 C 439.722656 113.375 439.640625 113.386719 439.558594 113.398438 Z M 439.558594 113.398438 " fill-opacity="1" fill-rule="nonzero"/></svg>