<svg xmlns="http://www.w3.org/2000/svg" xmlns:xlink="http://www.w3.org/1999/xlink" width="64" zoomAndPan="magnify" viewBox="0 0 48 48" height="64" preserveAspectRatio="xMidYMid meet" version="1.0"><defs><clipPath id="c81b8108a8"><path d="M 4.675781 4.1875 L 43.617188 4.1875 L 43.617188 43.125 L 4.675781 43.125 Z M 4.675781 4.1875 " clip-rule="nonzero"/></clipPath><clipPath id="382811b4e5"><path d="M 9 26 L 39 26 L 39 43.125 L 9 43.125 Z M 9 26 " clip-rule="nonzero"/></clipPath></defs><g clip-path="url(#c81b8108a8)"><path fill="#b3b3b3" d="M 43.617188 23.65625 C 43.617188 28.640625 41.75 33.183594 38.671875 36.625 C 35.105469 40.617188 29.921875 43.128906 24.148438 43.128906 C 18.375 43.128906 13.1875 40.617188 9.625 36.625 C 6.546875 33.183594 4.679688 28.640625 4.679688 23.65625 C 4.679688 12.90625 13.394531 4.1875 24.148438 4.1875 C 34.898438 4.1875 43.617188 12.90625 43.617188 23.65625 " fill-opacity="1" fill-rule="nonzero"/></g><path fill="#f2f2f2" d="M 24.148438 27.246094 C 27.675781 27.246094 30.890625 23.253906 30.890625 18.867188 C 30.890625 14.726562 30.089844 10.628906 24.148438 10.628906 C 18.207031 10.628906 17.402344 14.726562 17.402344 18.867188 C 17.402344 23.253906 20.617188 27.246094 24.148438 27.246094 " fill-opacity="1" fill-rule="nonzero"/><g clip-path="url(#382811b4e5)"><path fill="#f2f2f2" d="M 38.671875 36.625 C 35.105469 40.617188 29.921875 43.128906 24.148438 43.128906 C 18.375 43.128906 13.1875 40.617188 9.625 36.625 C 9.5625 34.21875 11.164062 28.648438 19.332031 26.933594 C 20.730469 28.359375 22.449219 29.167969 24.148438 29.167969 C 25.847656 29.167969 27.566406 28.359375 28.960938 26.933594 C 37.132812 28.648438 38.730469 34.21875 38.671875 36.625 " fill-opacity="1" fill-rule="nonzero"/></g></svg>