<svg xmlns="http://www.w3.org/2000/svg" xmlns:xlink="http://www.w3.org/1999/xlink" width="2000" zoomAndPan="magnify" viewBox="0 0 1500 149.999998" height="200" preserveAspectRatio="xMidYMid meet" version="1.0"><defs><clipPath id="e59a081c3b"><path d="M 0 6.546875 L 136.175781 6.546875 L 136.175781 143.644531 L 0 143.644531 Z M 0 6.546875 " clip-rule="nonzero"/></clipPath><clipPath id="31c61ec42f"><path d="M 339 6.546875 L 475.574219 6.546875 L 475.574219 143.644531 L 339 143.644531 Z M 339 6.546875 " clip-rule="nonzero"/></clipPath><clipPath id="48e6753fd1"><path d="M 131.453125 70 L 345 70 L 345 80 L 131.453125 80 Z M 131.453125 70 " clip-rule="nonzero"/></clipPath><clipPath id="aae7e9035b"><path d="M 680 6.546875 L 816.949219 6.546875 L 816.949219 143.644531 L 680 143.644531 Z M 680 6.546875 " clip-rule="nonzero"/></clipPath><clipPath id="6b53cf7776"><path d="M 472.828125 70 L 687 70 L 687 80 L 472.828125 80 Z M 472.828125 70 " clip-rule="nonzero"/></clipPath><clipPath id="890c4979f7"><path d="M 1022 6.546875 L 1158.328125 6.546875 L 1158.328125 143.644531 L 1022 143.644531 Z M 1022 6.546875 " clip-rule="nonzero"/></clipPath><clipPath id="47e07030f4"><path d="M 814.207031 70 L 1028 70 L 1028 80 L 814.207031 80 Z M 814.207031 70 " clip-rule="nonzero"/></clipPath><clipPath id="b13fec7afc"><path d="M 1363 6.546875 L 1499.707031 6.546875 L 1499.707031 143.644531 L 1363 143.644531 Z M 1363 6.546875 " clip-rule="nonzero"/></clipPath><clipPath id="6155de772a"><path d="M 1155.585938 70 L 1369 70 L 1369 80 L 1155.585938 80 Z M 1155.585938 70 " clip-rule="nonzero"/></clipPath></defs><path fill="#233dff" d="M 100.089844 74.917969 C 100.089844 75.949219 100.039062 76.980469 99.9375 78.003906 C 99.835938 79.03125 99.683594 80.050781 99.484375 81.0625 C 99.285156 82.074219 99.035156 83.070312 98.734375 84.058594 C 98.4375 85.046875 98.089844 86.015625 97.695312 86.96875 C 97.304688 87.921875 96.863281 88.851562 96.378906 89.761719 C 95.894531 90.671875 95.367188 91.554688 94.792969 92.410156 C 94.222656 93.269531 93.609375 94.09375 92.957031 94.890625 C 92.304688 95.691406 91.617188 96.453125 90.886719 97.183594 C 90.160156 97.910156 89.398438 98.601562 88.605469 99.257812 C 87.808594 99.910156 86.984375 100.523438 86.128906 101.097656 C 85.273438 101.671875 84.390625 102.199219 83.484375 102.6875 C 82.578125 103.171875 81.648438 103.613281 80.695312 104.007812 C 79.746094 104.402344 78.777344 104.75 77.792969 105.046875 C 76.808594 105.347656 75.8125 105.597656 74.804688 105.796875 C 73.796875 106 72.777344 106.152344 71.753906 106.25 C 70.730469 106.351562 69.703125 106.402344 68.675781 106.402344 C 67.648438 106.402344 66.621094 106.351562 65.597656 106.25 C 64.574219 106.152344 63.558594 106 62.546875 105.796875 C 61.539062 105.597656 60.542969 105.347656 59.558594 105.046875 C 58.574219 104.75 57.605469 104.402344 56.65625 104.007812 C 55.703125 103.613281 54.777344 103.171875 53.867188 102.6875 C 52.960938 102.199219 52.078125 101.671875 51.222656 101.097656 C 50.367188 100.523438 49.542969 99.910156 48.75 99.257812 C 47.953125 98.601562 47.191406 97.910156 46.464844 97.183594 C 45.738281 96.453125 45.046875 95.691406 44.394531 94.890625 C 43.742188 94.09375 43.128906 93.269531 42.558594 92.410156 C 41.984375 91.554688 41.457031 90.671875 40.972656 89.761719 C 40.488281 88.851562 40.046875 87.921875 39.65625 86.96875 C 39.261719 86.015625 38.914062 85.046875 38.617188 84.058594 C 38.316406 83.070312 38.066406 82.074219 37.867188 81.0625 C 37.667969 80.050781 37.515625 79.03125 37.414062 78.003906 C 37.3125 76.980469 37.265625 75.949219 37.265625 74.917969 C 37.265625 73.886719 37.3125 72.859375 37.414062 71.832031 C 37.515625 70.808594 37.667969 69.789062 37.867188 68.777344 C 38.066406 67.765625 38.316406 66.765625 38.617188 65.78125 C 38.914062 64.792969 39.261719 63.824219 39.65625 62.871094 C 40.046875 61.917969 40.488281 60.988281 40.972656 60.078125 C 41.457031 59.167969 41.984375 58.285156 42.558594 57.425781 C 43.128906 56.570312 43.742188 55.742188 44.394531 54.945312 C 45.046875 54.148438 45.738281 53.386719 46.464844 52.65625 C 47.191406 51.925781 47.953125 51.234375 48.75 50.582031 C 49.542969 49.925781 50.367188 49.3125 51.222656 48.742188 C 52.078125 48.167969 52.960938 47.636719 53.867188 47.152344 C 54.777344 46.664062 55.703125 46.226562 56.65625 45.832031 C 57.605469 45.4375 58.574219 45.089844 59.558594 44.789062 C 60.542969 44.492188 61.539062 44.242188 62.546875 44.039062 C 63.558594 43.839844 64.574219 43.6875 65.597656 43.585938 C 66.621094 43.484375 67.648438 43.433594 68.675781 43.433594 C 69.703125 43.433594 70.730469 43.484375 71.753906 43.585938 C 72.777344 43.6875 73.796875 43.839844 74.804688 44.039062 C 75.8125 44.242188 76.808594 44.492188 77.792969 44.789062 C 78.777344 45.089844 79.746094 45.4375 80.695312 45.832031 C 81.648438 46.226562 82.578125 46.664062 83.484375 47.152344 C 84.390625 47.636719 85.273438 48.167969 86.128906 48.742188 C 86.984375 49.3125 87.808594 49.925781 88.605469 50.582031 C 89.398438 51.234375 90.160156 51.925781 90.886719 52.65625 C 91.617188 53.386719 92.304688 54.148438 92.957031 54.945312 C 93.609375 55.742188 94.222656 56.570312 94.792969 57.425781 C 95.367188 58.285156 95.894531 59.167969 96.378906 60.078125 C 96.863281 60.988281 97.304688 61.917969 97.695312 62.871094 C 98.089844 63.824219 98.4375 64.792969 98.734375 65.78125 C 99.035156 66.765625 99.285156 67.765625 99.484375 68.777344 C 99.683594 69.789062 99.835938 70.808594 99.9375 71.832031 C 100.039062 72.859375 100.089844 73.886719 100.089844 74.917969 Z M 100.089844 74.917969 " fill-opacity="1" fill-rule="nonzero"/><g clip-path="url(#e59a081c3b)"><path fill="#1d1d1b" d="M 67.96875 143.195312 C 66.855469 143.191406 65.742188 143.164062 64.628906 143.105469 C 63.515625 143.050781 62.40625 142.964844 61.296875 142.851562 C 60.1875 142.742188 59.082031 142.601562 57.980469 142.4375 C 56.878906 142.269531 55.78125 142.078125 54.6875 141.859375 C 53.597656 141.636719 52.511719 141.390625 51.429688 141.117188 C 50.347656 140.84375 49.277344 140.542969 48.210938 140.21875 C 47.144531 139.890625 46.085938 139.539062 45.039062 139.160156 C 43.988281 138.785156 42.953125 138.378906 41.921875 137.949219 C 40.894531 137.523438 39.875 137.066406 38.871094 136.589844 C 37.863281 136.109375 36.867188 135.605469 35.886719 135.078125 C 34.90625 134.546875 33.9375 133.996094 32.980469 133.421875 C 32.027344 132.84375 31.085938 132.246094 30.160156 131.625 C 29.234375 131 28.328125 130.355469 27.433594 129.691406 C 26.539062 129.023438 25.660156 128.335938 24.800781 127.625 C 23.941406 126.914062 23.097656 126.183594 22.273438 125.433594 C 21.449219 124.679688 20.644531 123.910156 19.859375 123.117188 C 19.070312 122.328125 18.304688 121.519531 17.558594 120.6875 C 16.808594 119.859375 16.082031 119.015625 15.378906 118.148438 C 14.671875 117.285156 13.988281 116.402344 13.324219 115.503906 C 12.664062 114.605469 12.023438 113.691406 11.40625 112.761719 C 10.789062 111.832031 10.195312 110.890625 9.621094 109.929688 C 9.050781 108.972656 8.503906 108 7.980469 107.015625 C 7.457031 106.027344 6.957031 105.03125 6.480469 104.019531 C 6.007812 103.007812 5.554688 101.988281 5.132812 100.953125 C 4.707031 99.921875 4.308594 98.878906 3.933594 97.828125 C 3.558594 96.777344 3.210938 95.714844 2.890625 94.644531 C 2.566406 93.578125 2.273438 92.5 2.003906 91.417969 C 1.734375 90.332031 1.492188 89.242188 1.273438 88.148438 C 1.058594 87.050781 0.871094 85.949219 0.707031 84.84375 C 0.546875 83.742188 0.410156 82.632812 0.304688 81.519531 C 0.195312 80.410156 0.113281 79.296875 0.0625 78.179688 C 0.0078125 77.0625 -0.015625 75.949219 -0.015625 74.832031 C -0.015625 73.714844 0.015625 72.597656 0.0703125 71.480469 C 0.125 70.367188 0.210938 69.253906 0.320312 68.140625 C 0.429688 67.03125 0.570312 65.921875 0.734375 64.816406 C 0.898438 63.714844 1.089844 62.613281 1.308594 61.519531 C 1.527344 60.421875 1.773438 59.332031 2.046875 58.25 C 2.316406 57.167969 2.617188 56.089844 2.941406 55.023438 C 3.265625 53.953125 3.617188 52.894531 3.992188 51.84375 C 4.367188 50.792969 4.769531 49.75 5.199219 48.71875 C 5.625 47.6875 6.078125 46.667969 6.554688 45.660156 C 7.035156 44.648438 7.535156 43.652344 8.0625 42.667969 C 8.589844 41.683594 9.140625 40.714844 9.714844 39.753906 C 10.285156 38.796875 10.882812 37.855469 11.503906 36.925781 C 12.125 36 12.765625 35.085938 13.429688 34.191406 C 14.097656 33.292969 14.78125 32.414062 15.488281 31.550781 C 16.199219 30.6875 16.925781 29.84375 17.675781 29.019531 C 18.425781 28.191406 19.195312 27.382812 19.980469 26.59375 C 20.769531 25.804688 21.578125 25.035156 22.40625 24.285156 C 23.230469 23.539062 24.074219 22.808594 24.9375 22.101562 C 25.800781 21.394531 26.679688 20.707031 27.574219 20.042969 C 28.46875 19.378906 29.382812 18.734375 30.308594 18.117188 C 31.234375 17.496094 32.175781 16.898438 33.132812 16.328125 C 34.089844 15.753906 35.058594 15.203125 36.042969 14.679688 C 37.027344 14.152344 38.019531 13.652344 39.027344 13.175781 C 40.035156 12.699219 41.054688 12.246094 42.085938 11.820312 C 43.117188 11.394531 44.15625 10.992188 45.203125 10.617188 C 46.253906 10.242188 47.3125 9.890625 48.378906 9.566406 C 49.445312 9.246094 50.519531 8.949219 51.601562 8.675781 C 52.679688 8.40625 53.769531 8.164062 54.863281 7.945312 C 55.953125 7.730469 57.050781 7.539062 58.15625 7.375 C 59.257812 7.210938 60.363281 7.078125 61.472656 6.96875 C 62.582031 6.859375 63.691406 6.777344 64.804688 6.722656 C 65.917969 6.667969 67.03125 6.644531 68.148438 6.644531 C 69.261719 6.644531 70.375 6.671875 71.488281 6.726562 C 72.601562 6.785156 73.710938 6.867188 74.820312 6.976562 C 75.929688 7.085938 77.035156 7.222656 78.136719 7.386719 C 79.238281 7.554688 80.335938 7.746094 81.429688 7.960938 C 82.523438 8.179688 83.609375 8.425781 84.691406 8.699219 C 85.769531 8.96875 86.84375 9.269531 87.910156 9.59375 C 88.976562 9.917969 90.035156 10.269531 91.082031 10.644531 C 92.132812 11.023438 93.171875 11.425781 94.199219 11.851562 C 95.230469 12.28125 96.25 12.734375 97.253906 13.210938 C 98.261719 13.691406 99.257812 14.191406 100.238281 14.71875 C 101.222656 15.246094 102.191406 15.796875 103.148438 16.371094 C 104.101562 16.945312 105.042969 17.542969 105.96875 18.164062 C 106.894531 18.785156 107.808594 19.429688 108.703125 20.09375 C 109.597656 20.761719 110.472656 21.449219 111.335938 22.15625 C 112.195312 22.867188 113.039062 23.59375 113.867188 24.347656 C 114.691406 25.097656 115.496094 25.867188 116.285156 26.65625 C 117.074219 27.445312 117.839844 28.253906 118.589844 29.082031 C 119.335938 29.910156 120.0625 30.757812 120.769531 31.621094 C 121.476562 32.484375 122.164062 33.363281 122.828125 34.261719 C 123.488281 35.160156 124.132812 36.070312 124.75 37 C 125.367188 37.929688 125.964844 38.875 126.539062 39.832031 C 127.109375 40.789062 127.660156 41.761719 128.183594 42.746094 C 128.710938 43.730469 129.210938 44.730469 129.6875 45.738281 C 130.164062 46.75 130.613281 47.769531 131.039062 48.800781 C 131.464844 49.832031 131.867188 50.875 132.242188 51.925781 C 132.617188 52.976562 132.96875 54.039062 133.289062 55.109375 C 133.613281 56.175781 133.910156 57.253906 134.179688 58.335938 C 134.453125 59.417969 134.695312 60.507812 134.914062 61.605469 C 135.128906 62.699219 135.320312 63.800781 135.484375 64.90625 C 135.648438 66.007812 135.785156 67.117188 135.894531 68.230469 C 136.003906 69.339844 136.085938 70.453125 136.140625 71.570312 C 136.195312 72.6875 136.222656 73.800781 136.222656 74.917969 C 136.21875 76.039062 136.191406 77.15625 136.132812 78.273438 C 136.078125 79.390625 135.996094 80.503906 135.882812 81.617188 C 135.773438 82.730469 135.636719 83.839844 135.46875 84.945312 C 135.304688 86.050781 135.113281 87.152344 134.894531 88.25 C 134.675781 89.34375 134.429688 90.4375 134.15625 91.519531 C 133.882812 92.605469 133.585938 93.683594 133.261719 94.753906 C 132.9375 95.820312 132.585938 96.882812 132.207031 97.9375 C 131.832031 98.988281 131.425781 100.03125 131 101.0625 C 130.570312 102.097656 130.117188 103.117188 129.640625 104.128906 C 129.160156 105.140625 128.660156 106.136719 128.132812 107.121094 C 127.605469 108.109375 127.054688 109.082031 126.480469 110.039062 C 125.90625 111 125.308594 111.941406 124.6875 112.871094 C 124.066406 113.800781 123.421875 114.714844 122.757812 115.613281 C 122.089844 116.507812 121.402344 117.390625 120.695312 118.253906 C 119.988281 119.117188 119.257812 119.964844 118.507812 120.792969 C 117.757812 121.617188 116.988281 122.429688 116.195312 123.21875 C 115.40625 124.007812 114.597656 124.777344 113.769531 125.527344 C 112.945312 126.277344 112.097656 127.007812 111.234375 127.71875 C 110.371094 128.425781 109.492188 129.113281 108.59375 129.777344 C 107.699219 130.445312 106.785156 131.085938 105.859375 131.707031 C 104.929688 132.328125 103.984375 132.925781 103.027344 133.5 C 102.070312 134.074219 101.101562 134.625 100.117188 135.148438 C 99.132812 135.675781 98.132812 136.175781 97.125 136.65625 C 96.117188 137.132812 95.097656 137.585938 94.066406 138.011719 C 93.035156 138.4375 91.992188 138.839844 90.941406 139.214844 C 89.890625 139.59375 88.832031 139.941406 87.761719 140.265625 C 86.695312 140.589844 85.621094 140.886719 84.539062 141.15625 C 83.457031 141.429688 82.367188 141.671875 81.273438 141.890625 C 80.175781 142.109375 79.078125 142.296875 77.972656 142.460938 C 76.871094 142.625 75.761719 142.761719 74.652344 142.871094 C 73.542969 142.980469 72.429688 143.058594 71.316406 143.113281 C 70.199219 143.167969 69.085938 143.195312 67.96875 143.195312 Z M 67.96875 15.488281 C 66.027344 15.492188 64.09375 15.589844 62.160156 15.785156 C 60.230469 15.980469 58.3125 16.269531 56.410156 16.652344 C 54.507812 17.039062 52.628906 17.515625 50.769531 18.082031 C 48.914062 18.652344 47.089844 19.308594 45.300781 20.058594 C 43.507812 20.804688 41.757812 21.640625 40.046875 22.5625 C 38.335938 23.480469 36.675781 24.484375 35.0625 25.566406 C 33.453125 26.652344 31.898438 27.8125 30.398438 29.050781 C 28.902344 30.285156 27.46875 31.59375 26.097656 32.972656 C 24.726562 34.351562 23.425781 35.792969 22.199219 37.300781 C 20.96875 38.804688 19.816406 40.367188 18.742188 41.988281 C 17.667969 43.605469 16.671875 45.277344 15.761719 46.992188 C 14.847656 48.710938 14.023438 50.46875 13.285156 52.265625 C 12.542969 54.066406 11.894531 55.898438 11.332031 57.757812 C 10.773438 59.621094 10.304688 61.507812 9.929688 63.417969 C 9.554688 65.324219 9.273438 67.246094 9.085938 69.183594 C 8.898438 71.121094 8.804688 73.0625 8.808594 75.007812 C 8.8125 76.953125 8.910156 78.894531 9.101562 80.828125 C 9.292969 82.765625 9.582031 84.6875 9.964844 86.59375 C 10.34375 88.503906 10.816406 90.386719 11.382812 92.246094 C 11.949219 94.109375 12.605469 95.9375 13.351562 97.734375 C 14.097656 99.53125 14.925781 101.285156 15.84375 103 C 16.761719 104.714844 17.761719 106.378906 18.839844 107.996094 C 19.921875 109.613281 21.078125 111.171875 22.3125 112.675781 C 23.542969 114.175781 24.847656 115.617188 26.222656 116.988281 C 27.59375 118.363281 29.035156 119.667969 30.535156 120.898438 C 32.035156 122.132812 33.59375 123.289062 35.210938 124.367188 C 36.824219 125.445312 38.488281 126.445312 40.203125 127.359375 C 41.914062 128.277344 43.667969 129.105469 45.460938 129.847656 C 47.257812 130.589844 49.082031 131.242188 50.941406 131.804688 C 52.796875 132.371094 54.679688 132.839844 56.582031 133.21875 C 58.488281 133.597656 60.40625 133.878906 62.335938 134.070312 C 64.269531 134.257812 66.207031 134.351562 68.148438 134.351562 C 70.085938 134.347656 72.023438 134.253906 73.957031 134.058594 C 75.886719 133.867188 77.804688 133.582031 79.707031 133.199219 C 81.613281 132.820312 83.492188 132.347656 85.347656 131.78125 C 87.207031 131.214844 89.03125 130.558594 90.824219 129.8125 C 92.617188 129.066406 94.371094 128.238281 96.082031 127.320312 C 97.792969 126.402344 99.453125 125.402344 101.066406 124.320312 C 102.679688 123.238281 104.238281 122.078125 105.738281 120.84375 C 107.238281 119.609375 108.671875 118.304688 110.046875 116.925781 C 111.417969 115.550781 112.71875 114.109375 113.949219 112.605469 C 115.179688 111.101562 116.335938 109.542969 117.414062 107.921875 C 118.492188 106.304688 119.488281 104.636719 120.402344 102.921875 C 121.316406 101.207031 122.144531 99.449219 122.886719 97.652344 C 123.628906 95.855469 124.285156 94.023438 124.847656 92.164062 C 125.410156 90.300781 125.878906 88.417969 126.257812 86.507812 C 126.636719 84.601562 126.921875 82.675781 127.113281 80.742188 C 127.300781 78.804688 127.398438 76.863281 127.398438 74.917969 C 127.394531 72.96875 127.296875 71.027344 127.101562 69.089844 C 126.910156 67.148438 126.621094 65.226562 126.238281 63.3125 C 125.859375 61.402344 125.382812 59.515625 124.816406 57.652344 C 124.25 55.789062 123.59375 53.957031 122.847656 52.160156 C 122.101562 50.359375 121.269531 48.601562 120.351562 46.882812 C 119.433594 45.167969 118.433594 43.5 117.351562 41.878906 C 116.269531 40.261719 115.109375 38.699219 113.875 37.195312 C 112.640625 35.691406 111.332031 34.25 109.957031 32.875 C 108.582031 31.496094 107.140625 30.191406 105.636719 28.957031 C 104.132812 27.722656 102.574219 26.566406 100.957031 25.484375 C 99.339844 24.402344 97.671875 23.40625 95.957031 22.488281 C 94.242188 21.570312 92.484375 20.742188 90.6875 19.996094 C 88.890625 19.253906 87.0625 18.597656 85.203125 18.035156 C 83.339844 17.472656 81.457031 17 79.550781 16.621094 C 77.644531 16.242188 75.722656 15.957031 73.789062 15.769531 C 71.855469 15.578125 69.914062 15.484375 67.96875 15.488281 Z M 67.96875 15.488281 " fill-opacity="1" fill-rule="nonzero"/></g><path fill="#1d1d1b" d="M 1 79.339844 L -203.488281 79.339844 C -203.777344 79.339844 -204.066406 79.3125 -204.347656 79.257812 C -204.632812 79.199219 -204.910156 79.117188 -205.175781 79.003906 C -205.445312 78.894531 -205.699219 78.757812 -205.941406 78.59375 C -206.179688 78.433594 -206.402344 78.25 -206.609375 78.046875 C -206.8125 77.839844 -206.996094 77.617188 -207.15625 77.375 C -207.316406 77.132812 -207.453125 76.878906 -207.566406 76.609375 C -207.675781 76.34375 -207.757812 76.066406 -207.816406 75.78125 C -207.871094 75.496094 -207.902344 75.210938 -207.902344 74.917969 C -207.902344 74.628906 -207.871094 74.339844 -207.816406 74.054688 C -207.757812 73.769531 -207.675781 73.496094 -207.566406 73.226562 C -207.453125 72.957031 -207.316406 72.703125 -207.15625 72.460938 C -206.996094 72.222656 -206.8125 71.996094 -206.609375 71.792969 C -206.402344 71.585938 -206.179688 71.402344 -205.941406 71.242188 C -205.699219 71.082031 -205.445312 70.945312 -205.175781 70.832031 C -204.910156 70.722656 -204.632812 70.636719 -204.347656 70.582031 C -204.066406 70.523438 -203.777344 70.496094 -203.488281 70.496094 L 1 70.496094 C 1.289062 70.496094 1.574219 70.523438 1.859375 70.582031 C 2.144531 70.636719 2.417969 70.722656 2.6875 70.832031 C 2.953125 70.945312 3.210938 71.082031 3.449219 71.242188 C 3.691406 71.402344 3.914062 71.585938 4.117188 71.792969 C 4.324219 71.996094 4.507812 72.222656 4.667969 72.460938 C 4.828125 72.703125 4.964844 72.957031 5.074219 73.226562 C 5.1875 73.496094 5.269531 73.769531 5.324219 74.054688 C 5.382812 74.339844 5.410156 74.628906 5.410156 74.917969 C 5.410156 75.210938 5.382812 75.496094 5.324219 75.78125 C 5.269531 76.066406 5.1875 76.34375 5.074219 76.609375 C 4.964844 76.878906 4.828125 77.132812 4.667969 77.375 C 4.507812 77.617188 4.324219 77.839844 4.117188 78.046875 C 3.914062 78.25 3.691406 78.433594 3.449219 78.59375 C 3.207031 78.757812 2.953125 78.894531 2.6875 79.003906 C 2.417969 79.117188 2.144531 79.199219 1.859375 79.257812 C 1.574219 79.3125 1.289062 79.339844 1 79.339844 Z M 1 79.339844 " fill-opacity="1" fill-rule="nonzero"/><path fill="#5eb229" d="M 439.441406 74.917969 C 439.441406 75.949219 439.390625 76.980469 439.289062 78.003906 C 439.1875 79.03125 439.039062 80.050781 438.835938 81.0625 C 438.636719 82.074219 438.386719 83.070312 438.089844 84.058594 C 437.789062 85.046875 437.441406 86.015625 437.050781 86.96875 C 436.65625 87.921875 436.214844 88.851562 435.730469 89.761719 C 435.246094 90.671875 434.71875 91.554688 434.148438 92.410156 C 433.574219 93.269531 432.964844 94.09375 432.308594 94.890625 C 431.65625 95.691406 430.96875 96.453125 430.242188 97.183594 C 429.511719 97.910156 428.75 98.601562 427.957031 99.257812 C 427.160156 99.910156 426.335938 100.523438 425.480469 101.097656 C 424.625 101.671875 423.742188 102.199219 422.835938 102.6875 C 421.929688 103.171875 421 103.613281 420.050781 104.007812 C 419.097656 104.402344 418.132812 104.75 417.148438 105.046875 C 416.164062 105.347656 415.164062 105.597656 414.15625 105.796875 C 413.148438 106 412.132812 106.152344 411.109375 106.25 C 410.082031 106.351562 409.058594 106.402344 408.027344 106.402344 C 407 106.402344 405.972656 106.351562 404.949219 106.25 C 403.925781 106.152344 402.910156 106 401.898438 105.796875 C 400.890625 105.597656 399.894531 105.347656 398.910156 105.046875 C 397.925781 104.75 396.957031 104.402344 396.007812 104.007812 C 395.058594 103.613281 394.128906 103.171875 393.222656 102.6875 C 392.3125 102.199219 391.433594 101.671875 390.578125 101.097656 C 389.722656 100.523438 388.894531 99.910156 388.101562 99.257812 C 387.304688 98.601562 386.542969 97.910156 385.816406 97.183594 C 385.089844 96.453125 384.398438 95.691406 383.746094 94.890625 C 383.09375 94.09375 382.480469 93.269531 381.910156 92.410156 C 381.339844 91.554688 380.808594 90.671875 380.324219 89.761719 C 379.839844 88.851562 379.402344 87.921875 379.007812 86.96875 C 378.613281 86.015625 378.269531 85.046875 377.96875 84.058594 C 377.671875 83.070312 377.421875 82.074219 377.21875 81.0625 C 377.019531 80.050781 376.867188 79.03125 376.769531 78.003906 C 376.667969 76.980469 376.617188 75.949219 376.617188 74.917969 C 376.617188 73.886719 376.667969 72.859375 376.769531 71.832031 C 376.867188 70.808594 377.019531 69.789062 377.21875 68.777344 C 377.421875 67.765625 377.671875 66.765625 377.96875 65.78125 C 378.269531 64.792969 378.613281 63.824219 379.007812 62.871094 C 379.402344 61.917969 379.839844 60.988281 380.324219 60.078125 C 380.808594 59.167969 381.339844 58.285156 381.910156 57.425781 C 382.480469 56.570312 383.09375 55.742188 383.746094 54.945312 C 384.398438 54.148438 385.089844 53.386719 385.816406 52.65625 C 386.542969 51.925781 387.304688 51.234375 388.101562 50.582031 C 388.894531 49.925781 389.722656 49.3125 390.578125 48.742188 C 391.433594 48.167969 392.3125 47.636719 393.222656 47.152344 C 394.128906 46.664062 395.058594 46.226562 396.007812 45.832031 C 396.957031 45.4375 397.925781 45.089844 398.910156 44.789062 C 399.894531 44.492188 400.890625 44.242188 401.898438 44.039062 C 402.910156 43.839844 403.925781 43.6875 404.949219 43.585938 C 405.972656 43.484375 407 43.433594 408.027344 43.433594 C 409.058594 43.433594 410.082031 43.484375 411.109375 43.585938 C 412.132812 43.6875 413.148438 43.839844 414.15625 44.039062 C 415.164062 44.242188 416.164062 44.492188 417.148438 44.789062 C 418.132812 45.089844 419.097656 45.4375 420.050781 45.832031 C 421 46.226562 421.929688 46.664062 422.835938 47.152344 C 423.742188 47.636719 424.625 48.167969 425.480469 48.742188 C 426.335938 49.3125 427.160156 49.925781 427.957031 50.582031 C 428.75 51.234375 429.511719 51.925781 430.242188 52.65625 C 430.96875 53.386719 431.65625 54.148438 432.308594 54.945312 C 432.964844 55.742188 433.574219 56.570312 434.148438 57.425781 C 434.71875 58.285156 435.246094 59.167969 435.730469 60.078125 C 436.214844 60.988281 436.65625 61.917969 437.050781 62.871094 C 437.441406 63.824219 437.789062 64.792969 438.089844 65.78125 C 438.386719 66.765625 438.636719 67.765625 438.835938 68.777344 C 439.039062 69.789062 439.1875 70.808594 439.289062 71.832031 C 439.390625 72.859375 439.441406 73.886719 439.441406 74.917969 Z M 439.441406 74.917969 " fill-opacity="1" fill-rule="nonzero"/><g clip-path="url(#31c61ec42f)"><path fill="#1d1d1b" d="M 407.324219 143.195312 C 406.207031 143.191406 405.09375 143.164062 403.980469 143.105469 C 402.867188 143.050781 401.757812 142.964844 400.648438 142.851562 C 399.539062 142.742188 398.433594 142.601562 397.332031 142.4375 C 396.230469 142.269531 395.132812 142.078125 394.042969 141.859375 C 392.949219 141.636719 391.863281 141.390625 390.78125 141.117188 C 389.703125 140.84375 388.628906 140.542969 387.5625 140.21875 C 386.496094 139.890625 385.441406 139.539062 384.390625 139.160156 C 383.34375 138.785156 382.304688 138.378906 381.273438 137.949219 C 380.246094 137.523438 379.230469 137.066406 378.222656 136.589844 C 377.214844 136.109375 376.222656 135.605469 375.238281 135.078125 C 374.257812 134.546875 373.289062 133.996094 372.335938 133.421875 C 371.378906 132.84375 370.441406 132.246094 369.515625 131.625 C 368.589844 131 367.679688 130.355469 366.785156 129.691406 C 365.890625 129.023438 365.015625 128.335938 364.152344 127.625 C 363.292969 126.914062 362.453125 126.183594 361.625 125.433594 C 360.800781 124.679688 359.996094 123.910156 359.210938 123.117188 C 358.421875 122.328125 357.65625 121.519531 356.910156 120.6875 C 356.164062 119.859375 355.4375 119.015625 354.730469 118.148438 C 354.023438 117.285156 353.339844 116.402344 352.679688 115.503906 C 352.015625 114.605469 351.375 113.691406 350.757812 112.761719 C 350.140625 111.832031 349.546875 110.890625 348.976562 109.929688 C 348.402344 108.972656 347.855469 108 347.332031 107.015625 C 346.808594 106.027344 346.308594 105.03125 345.832031 104.019531 C 345.359375 103.007812 344.910156 101.988281 344.484375 100.953125 C 344.058594 99.921875 343.660156 98.878906 343.285156 97.828125 C 342.910156 96.777344 342.5625 95.714844 342.242188 94.644531 C 341.917969 93.578125 341.625 92.5 341.355469 91.417969 C 341.085938 90.332031 340.84375 89.242188 340.628906 88.148438 C 340.410156 87.050781 340.222656 85.949219 340.058594 84.84375 C 339.898438 83.742188 339.761719 82.632812 339.65625 81.519531 C 339.546875 80.410156 339.46875 79.296875 339.414062 78.179688 C 339.359375 77.0625 339.335938 75.949219 339.335938 74.832031 C 339.339844 73.714844 339.367188 72.597656 339.421875 71.480469 C 339.480469 70.367188 339.5625 69.253906 339.671875 68.140625 C 339.785156 67.03125 339.921875 65.921875 340.085938 64.816406 C 340.25 63.714844 340.441406 62.613281 340.660156 61.519531 C 340.878906 60.421875 341.125 59.332031 341.398438 58.25 C 341.667969 57.167969 341.96875 56.089844 342.292969 55.023438 C 342.617188 53.953125 342.96875 52.894531 343.34375 51.84375 C 343.722656 50.792969 344.125 49.75 344.550781 48.71875 C 344.980469 47.6875 345.429688 46.667969 345.910156 45.660156 C 346.386719 44.648438 346.886719 43.652344 347.414062 42.667969 C 347.941406 41.683594 348.492188 40.714844 349.066406 39.753906 C 349.640625 38.796875 350.234375 37.855469 350.855469 36.925781 C 351.476562 36 352.117188 35.085938 352.785156 34.191406 C 353.449219 33.292969 354.132812 32.414062 354.84375 31.550781 C 355.550781 30.6875 356.277344 29.84375 357.027344 29.019531 C 357.777344 28.191406 358.546875 27.382812 359.335938 26.59375 C 360.125 25.804688 360.929688 25.035156 361.757812 24.285156 C 362.582031 23.539062 363.429688 22.808594 364.289062 22.101562 C 365.152344 21.394531 366.03125 20.707031 366.925781 20.042969 C 367.824219 19.378906 368.734375 18.734375 369.660156 18.117188 C 370.585938 17.496094 371.53125 16.898438 372.484375 16.328125 C 373.441406 15.753906 374.410156 15.203125 375.394531 14.679688 C 376.378906 14.152344 377.375 13.652344 378.382812 13.175781 C 379.390625 12.699219 380.40625 12.246094 381.4375 11.820312 C 382.46875 11.394531 383.507812 10.992188 384.558594 10.617188 C 385.605469 10.242188 386.664062 9.890625 387.730469 9.566406 C 388.796875 9.246094 389.871094 8.949219 390.953125 8.675781 C 392.035156 8.40625 393.121094 8.164062 394.214844 7.945312 C 395.308594 7.730469 396.40625 7.539062 397.507812 7.375 C 398.609375 7.210938 399.714844 7.078125 400.824219 6.96875 C 401.933594 6.859375 403.042969 6.777344 404.15625 6.722656 C 405.269531 6.667969 406.382812 6.644531 407.5 6.644531 C 408.613281 6.644531 409.726562 6.671875 410.839844 6.726562 C 411.953125 6.785156 413.0625 6.867188 414.171875 6.976562 C 415.28125 7.085938 416.386719 7.222656 417.488281 7.386719 C 418.589844 7.554688 419.6875 7.746094 420.78125 7.960938 C 421.875 8.179688 422.960938 8.425781 424.042969 8.699219 C 425.125 8.96875 426.195312 9.269531 427.261719 9.59375 C 428.328125 9.917969 429.386719 10.269531 430.4375 10.644531 C 431.484375 11.023438 432.523438 11.425781 433.554688 11.851562 C 434.582031 12.28125 435.601562 12.734375 436.609375 13.210938 C 437.613281 13.691406 438.609375 14.191406 439.59375 14.71875 C 440.574219 15.246094 441.542969 15.796875 442.5 16.371094 C 443.457031 16.945312 444.394531 17.542969 445.324219 18.164062 C 446.25 18.785156 447.160156 19.429688 448.054688 20.09375 C 448.949219 20.761719 449.828125 21.449219 450.6875 22.15625 C 451.550781 22.867188 452.390625 23.59375 453.21875 24.347656 C 454.042969 25.097656 454.851562 25.867188 455.636719 26.65625 C 456.425781 27.445312 457.191406 28.253906 457.941406 29.082031 C 458.6875 29.910156 459.417969 30.757812 460.125 31.621094 C 460.832031 32.484375 461.515625 33.363281 462.179688 34.261719 C 462.84375 35.160156 463.484375 36.070312 464.101562 37 C 464.722656 37.929688 465.316406 38.875 465.890625 39.832031 C 466.460938 40.789062 467.011719 41.761719 467.535156 42.746094 C 468.0625 43.730469 468.5625 44.730469 469.039062 45.738281 C 469.515625 46.75 469.964844 47.769531 470.390625 48.800781 C 470.820312 49.832031 471.21875 50.875 471.59375 51.925781 C 471.96875 52.976562 472.320312 54.039062 472.644531 55.109375 C 472.964844 56.175781 473.261719 57.253906 473.535156 58.335938 C 473.804688 59.417969 474.046875 60.507812 474.265625 61.605469 C 474.484375 62.699219 474.671875 63.800781 474.835938 64.90625 C 475 66.007812 475.136719 67.117188 475.246094 68.230469 C 475.355469 69.339844 475.4375 70.453125 475.492188 71.570312 C 475.546875 72.6875 475.574219 73.800781 475.574219 74.917969 C 475.570312 76.039062 475.542969 77.15625 475.488281 78.273438 C 475.429688 79.390625 475.347656 80.503906 475.238281 81.617188 C 475.125 82.730469 474.988281 83.839844 474.824219 84.945312 C 474.65625 86.050781 474.464844 87.152344 474.246094 88.25 C 474.027344 89.34375 473.78125 90.4375 473.507812 91.519531 C 473.238281 92.605469 472.9375 93.683594 472.613281 94.753906 C 472.289062 95.820312 471.9375 96.882812 471.558594 97.9375 C 471.183594 98.988281 470.78125 100.03125 470.351562 101.0625 C 469.925781 102.097656 469.46875 103.117188 468.992188 104.128906 C 468.515625 105.140625 468.011719 106.136719 467.484375 107.121094 C 466.957031 108.109375 466.40625 109.082031 465.832031 110.039062 C 465.257812 111 464.660156 111.941406 464.039062 112.871094 C 463.417969 113.800781 462.773438 114.714844 462.109375 115.613281 C 461.445312 116.507812 460.757812 117.390625 460.046875 118.253906 C 459.339844 119.117188 458.609375 119.964844 457.859375 120.792969 C 457.109375 121.617188 456.339844 122.429688 455.550781 123.21875 C 454.757812 124.007812 453.949219 124.777344 453.125 125.527344 C 452.296875 126.277344 451.449219 127.007812 450.585938 127.71875 C 449.722656 128.425781 448.84375 129.113281 447.949219 129.777344 C 447.050781 130.445312 446.136719 131.085938 445.210938 131.707031 C 444.28125 132.328125 443.339844 132.925781 442.382812 133.5 C 441.421875 134.074219 440.453125 134.625 439.46875 135.148438 C 438.484375 135.675781 437.488281 136.175781 436.476562 136.65625 C 435.46875 137.132812 434.449219 137.585938 433.417969 138.011719 C 432.386719 138.4375 431.34375 138.839844 430.292969 139.214844 C 429.242188 139.59375 428.183594 139.941406 427.117188 140.265625 C 426.046875 140.589844 424.972656 140.886719 423.890625 141.15625 C 422.808594 141.429688 421.71875 141.671875 420.625 141.890625 C 419.53125 142.109375 418.429688 142.296875 417.328125 142.460938 C 416.222656 142.625 415.117188 142.761719 414.003906 142.871094 C 412.894531 142.980469 411.78125 143.058594 410.667969 143.113281 C 409.554688 143.167969 408.4375 143.195312 407.324219 143.195312 Z M 407.324219 15.488281 C 405.382812 15.492188 403.445312 15.589844 401.515625 15.785156 C 399.582031 15.980469 397.664062 16.269531 395.761719 16.652344 C 393.859375 17.039062 391.980469 17.515625 390.125 18.082031 C 388.269531 18.652344 386.445312 19.308594 384.652344 20.058594 C 382.859375 20.804688 381.109375 21.640625 379.398438 22.5625 C 377.6875 23.480469 376.027344 24.484375 374.417969 25.566406 C 372.804688 26.652344 371.25 27.8125 369.75 29.050781 C 368.253906 30.285156 366.820312 31.59375 365.449219 32.972656 C 364.078125 34.351562 362.78125 35.792969 361.550781 37.300781 C 360.324219 38.804688 359.171875 40.367188 358.09375 41.988281 C 357.019531 43.605469 356.027344 45.277344 355.113281 46.992188 C 354.203125 48.710938 353.375 50.46875 352.636719 52.265625 C 351.894531 54.066406 351.246094 55.898438 350.683594 57.757812 C 350.125 59.621094 349.65625 61.507812 349.28125 63.417969 C 348.90625 65.324219 348.625 67.246094 348.4375 69.183594 C 348.25 71.121094 348.15625 73.0625 348.160156 75.007812 C 348.164062 76.953125 348.261719 78.894531 348.453125 80.828125 C 348.648438 82.765625 348.933594 84.6875 349.316406 86.59375 C 349.695312 88.503906 350.171875 90.386719 350.738281 92.246094 C 351.300781 94.109375 351.957031 95.9375 352.703125 97.734375 C 353.449219 99.53125 354.28125 101.285156 355.195312 103 C 356.113281 104.714844 357.113281 106.378906 358.191406 107.996094 C 359.273438 109.613281 360.429688 111.171875 361.664062 112.675781 C 362.894531 114.175781 364.199219 115.617188 365.574219 116.988281 C 366.949219 118.363281 368.386719 119.667969 369.886719 120.898438 C 371.390625 122.132812 372.949219 123.289062 374.5625 124.367188 C 376.179688 125.445312 377.84375 126.445312 379.554688 127.359375 C 381.265625 128.277344 383.019531 129.105469 384.816406 129.847656 C 386.609375 130.589844 388.433594 131.242188 390.292969 131.804688 C 392.152344 132.371094 394.03125 132.839844 395.9375 133.21875 C 397.839844 133.597656 399.757812 133.878906 401.691406 134.070312 C 403.621094 134.257812 405.558594 134.351562 407.5 134.351562 C 409.441406 134.347656 411.375 134.253906 413.308594 134.058594 C 415.238281 133.867188 417.15625 133.582031 419.0625 133.199219 C 420.964844 132.820312 422.84375 132.347656 424.703125 131.78125 C 426.558594 131.214844 428.382812 130.558594 430.175781 129.8125 C 431.96875 129.066406 433.722656 128.238281 435.433594 127.320312 C 437.144531 126.402344 438.808594 125.402344 440.421875 124.320312 C 442.035156 123.238281 443.589844 122.078125 445.089844 120.84375 C 446.589844 119.609375 448.027344 118.304688 449.398438 116.925781 C 450.769531 115.550781 452.070312 114.109375 453.300781 112.605469 C 454.535156 111.101562 455.6875 109.542969 456.765625 107.921875 C 457.84375 106.304688 458.839844 104.636719 459.753906 102.921875 C 460.667969 101.207031 461.496094 99.449219 462.242188 97.652344 C 462.984375 95.855469 463.636719 94.023438 464.199219 92.164062 C 464.761719 90.300781 465.234375 88.417969 465.613281 86.507812 C 465.988281 84.601562 466.273438 82.675781 466.464844 80.742188 C 466.65625 78.804688 466.75 76.863281 466.75 74.917969 C 466.746094 72.96875 466.648438 71.027344 466.457031 69.089844 C 466.261719 67.148438 465.972656 65.226562 465.59375 63.3125 C 465.210938 61.402344 464.738281 59.515625 464.167969 57.652344 C 463.601562 55.789062 462.945312 53.957031 462.199219 52.160156 C 461.453125 50.359375 460.621094 48.601562 459.703125 46.882812 C 458.785156 45.167969 457.785156 43.5 456.703125 41.878906 C 455.621094 40.261719 454.460938 38.699219 453.226562 37.195312 C 451.992188 35.691406 450.6875 34.25 449.308594 32.875 C 447.933594 31.496094 446.492188 30.191406 444.988281 28.957031 C 443.484375 27.722656 441.925781 26.566406 440.308594 25.484375 C 438.691406 24.402344 437.023438 23.40625 435.308594 22.488281 C 433.59375 21.570312 431.835938 20.742188 430.039062 19.996094 C 428.242188 19.253906 426.414062 18.597656 424.554688 18.035156 C 422.695312 17.472656 420.808594 17 418.902344 16.621094 C 416.996094 16.242188 415.074219 15.957031 413.140625 15.769531 C 411.207031 15.578125 409.265625 15.484375 407.324219 15.488281 Z M 407.324219 15.488281 " fill-opacity="1" fill-rule="nonzero"/></g><g clip-path="url(#48e6753fd1)"><path fill="#1d1d1b" d="M 340.351562 79.339844 L 135.863281 79.339844 C 135.574219 79.339844 135.285156 79.3125 135.003906 79.257812 C 134.71875 79.199219 134.441406 79.117188 134.175781 79.003906 C 133.90625 78.894531 133.652344 78.757812 133.414062 78.59375 C 133.171875 78.433594 132.949219 78.25 132.742188 78.046875 C 132.539062 77.839844 132.355469 77.617188 132.195312 77.375 C 132.035156 77.132812 131.898438 76.878906 131.789062 76.609375 C 131.675781 76.34375 131.59375 76.066406 131.535156 75.78125 C 131.480469 75.496094 131.453125 75.210938 131.453125 74.917969 C 131.453125 74.628906 131.480469 74.339844 131.535156 74.054688 C 131.59375 73.769531 131.675781 73.496094 131.789062 73.226562 C 131.898438 72.957031 132.035156 72.703125 132.195312 72.460938 C 132.355469 72.222656 132.539062 71.996094 132.742188 71.792969 C 132.949219 71.585938 133.171875 71.402344 133.414062 71.242188 C 133.652344 71.082031 133.90625 70.945312 134.175781 70.832031 C 134.441406 70.722656 134.71875 70.636719 135.003906 70.582031 C 135.285156 70.523438 135.574219 70.496094 135.863281 70.496094 L 340.351562 70.496094 C 340.640625 70.496094 340.929688 70.523438 341.210938 70.582031 C 341.496094 70.636719 341.773438 70.722656 342.039062 70.832031 C 342.308594 70.945312 342.5625 71.082031 342.800781 71.242188 C 343.042969 71.402344 343.265625 71.585938 343.472656 71.792969 C 343.675781 71.996094 343.859375 72.222656 344.019531 72.460938 C 344.179688 72.703125 344.316406 72.957031 344.425781 73.226562 C 344.539062 73.496094 344.621094 73.769531 344.679688 74.054688 C 344.734375 74.339844 344.761719 74.628906 344.761719 74.917969 C 344.761719 75.210938 344.734375 75.496094 344.679688 75.78125 C 344.621094 76.066406 344.539062 76.34375 344.425781 76.609375 C 344.316406 76.878906 344.179688 77.132812 344.019531 77.375 C 343.859375 77.617188 343.675781 77.839844 343.472656 78.046875 C 343.265625 78.25 343.042969 78.433594 342.800781 78.59375 C 342.5625 78.757812 342.308594 78.894531 342.039062 79.003906 C 341.773438 79.117188 341.496094 79.199219 341.210938 79.257812 C 340.929688 79.3125 340.640625 79.339844 340.351562 79.339844 Z M 340.351562 79.339844 " fill-opacity="1" fill-rule="nonzero"/></g><path fill="#233dff" d="M 780.816406 74.917969 C 780.816406 75.949219 780.769531 76.980469 780.667969 78.003906 C 780.566406 79.03125 780.414062 80.050781 780.214844 81.0625 C 780.015625 82.074219 779.765625 83.070312 779.464844 84.058594 C 779.167969 85.046875 778.820312 86.015625 778.425781 86.96875 C 778.035156 87.921875 777.59375 88.851562 777.109375 89.761719 C 776.625 90.671875 776.097656 91.554688 775.523438 92.410156 C 774.953125 93.269531 774.339844 94.09375 773.6875 94.890625 C 773.035156 95.691406 772.34375 96.453125 771.617188 97.183594 C 770.890625 97.910156 770.128906 98.601562 769.332031 99.257812 C 768.539062 99.910156 767.714844 100.523438 766.859375 101.097656 C 766.003906 101.671875 765.121094 102.199219 764.214844 102.6875 C 763.304688 103.171875 762.378906 103.613281 761.425781 104.007812 C 760.476562 104.402344 759.507812 104.75 758.523438 105.046875 C 757.539062 105.347656 756.542969 105.597656 755.535156 105.796875 C 754.523438 106 753.507812 106.152344 752.484375 106.25 C 751.460938 106.351562 750.433594 106.402344 749.40625 106.402344 C 748.378906 106.402344 747.351562 106.351562 746.328125 106.25 C 745.304688 106.152344 744.285156 106 743.277344 105.796875 C 742.269531 105.597656 741.273438 105.347656 740.289062 105.046875 C 739.304688 104.75 738.335938 104.402344 737.386719 104.007812 C 736.433594 103.613281 735.507812 103.171875 734.597656 102.6875 C 733.691406 102.199219 732.808594 101.671875 731.953125 101.097656 C 731.097656 100.523438 730.273438 99.910156 729.476562 99.257812 C 728.683594 98.601562 727.921875 97.910156 727.195312 97.183594 C 726.46875 96.453125 725.777344 95.691406 725.125 94.890625 C 724.472656 94.09375 723.859375 93.269531 723.289062 92.410156 C 722.714844 91.554688 722.1875 90.671875 721.703125 89.761719 C 721.21875 88.851562 720.777344 87.921875 720.386719 86.96875 C 719.992188 86.015625 719.644531 85.046875 719.347656 84.058594 C 719.046875 83.070312 718.796875 82.074219 718.597656 81.0625 C 718.398438 80.050781 718.246094 79.03125 718.144531 78.003906 C 718.042969 76.980469 717.992188 75.949219 717.992188 74.917969 C 717.992188 73.886719 718.042969 72.859375 718.144531 71.832031 C 718.246094 70.808594 718.398438 69.789062 718.597656 68.777344 C 718.796875 67.765625 719.046875 66.765625 719.347656 65.78125 C 719.644531 64.792969 719.992188 63.824219 720.386719 62.871094 C 720.777344 61.917969 721.21875 60.988281 721.703125 60.078125 C 722.1875 59.167969 722.714844 58.285156 723.289062 57.425781 C 723.859375 56.570312 724.472656 55.742188 725.125 54.945312 C 725.777344 54.148438 726.46875 53.386719 727.195312 52.65625 C 727.921875 51.925781 728.683594 51.234375 729.476562 50.582031 C 730.273438 49.925781 731.097656 49.3125 731.953125 48.742188 C 732.808594 48.167969 733.691406 47.636719 734.597656 47.152344 C 735.507812 46.664062 736.433594 46.226562 737.386719 45.832031 C 738.335938 45.4375 739.304688 45.089844 740.289062 44.789062 C 741.273438 44.492188 742.269531 44.242188 743.277344 44.039062 C 744.285156 43.839844 745.304688 43.6875 746.328125 43.585938 C 747.351562 43.484375 748.378906 43.433594 749.40625 43.433594 C 750.433594 43.433594 751.460938 43.484375 752.484375 43.585938 C 753.507812 43.6875 754.523438 43.839844 755.535156 44.039062 C 756.542969 44.242188 757.539062 44.492188 758.523438 44.789062 C 759.507812 45.089844 760.476562 45.4375 761.425781 45.832031 C 762.378906 46.226562 763.304688 46.664062 764.214844 47.152344 C 765.121094 47.636719 766.003906 48.167969 766.859375 48.742188 C 767.714844 49.3125 768.539062 49.925781 769.332031 50.582031 C 770.128906 51.234375 770.890625 51.925781 771.617188 52.65625 C 772.34375 53.386719 773.035156 54.148438 773.6875 54.945312 C 774.339844 55.742188 774.953125 56.570312 775.523438 57.425781 C 776.097656 58.285156 776.625 59.167969 777.109375 60.078125 C 777.59375 60.988281 778.035156 61.917969 778.425781 62.871094 C 778.820312 63.824219 779.167969 64.792969 779.464844 65.78125 C 779.765625 66.765625 780.015625 67.765625 780.214844 68.777344 C 780.414062 69.789062 780.566406 70.808594 780.667969 71.832031 C 780.769531 72.859375 780.816406 73.886719 780.816406 74.917969 Z M 780.816406 74.917969 " fill-opacity="1" fill-rule="nonzero"/><g clip-path="url(#aae7e9035b)"><path fill="#1d1d1b" d="M 748.699219 143.195312 C 747.585938 143.191406 746.472656 143.164062 745.359375 143.105469 C 744.246094 143.050781 743.136719 142.964844 742.027344 142.851562 C 740.917969 142.742188 739.8125 142.601562 738.710938 142.4375 C 737.609375 142.269531 736.511719 142.078125 735.417969 141.859375 C 734.328125 141.636719 733.238281 141.390625 732.160156 141.117188 C 731.078125 140.84375 730.007812 140.542969 728.941406 140.21875 C 727.875 139.890625 726.816406 139.539062 725.769531 139.160156 C 724.71875 138.785156 723.679688 138.378906 722.652344 137.949219 C 721.625 137.523438 720.605469 137.066406 719.601562 136.589844 C 718.59375 136.109375 717.597656 135.605469 716.617188 135.078125 C 715.636719 134.546875 714.667969 133.996094 713.710938 133.421875 C 712.757812 132.84375 711.816406 132.246094 710.890625 131.625 C 709.964844 131 709.054688 130.355469 708.164062 129.691406 C 707.269531 129.023438 706.390625 128.335938 705.53125 127.625 C 704.671875 126.914062 703.828125 126.183594 703.003906 125.433594 C 702.179688 124.679688 701.375 123.910156 700.585938 123.117188 C 699.800781 122.328125 699.035156 121.519531 698.285156 120.6875 C 697.539062 119.859375 696.8125 119.015625 696.109375 118.148438 C 695.402344 117.285156 694.71875 116.402344 694.054688 115.503906 C 693.394531 114.605469 692.753906 113.691406 692.136719 112.761719 C 691.519531 111.832031 690.921875 110.890625 690.351562 109.929688 C 689.78125 108.972656 689.234375 108 688.710938 107.015625 C 688.1875 106.027344 687.6875 105.03125 687.210938 104.019531 C 686.734375 103.007812 686.285156 101.988281 685.863281 100.953125 C 685.4375 99.921875 685.035156 98.878906 684.664062 97.828125 C 684.289062 96.777344 683.941406 95.714844 683.621094 94.644531 C 683.296875 93.578125 683 92.5 682.734375 91.417969 C 682.464844 90.332031 682.21875 89.242188 682.003906 88.148438 C 681.789062 87.050781 681.601562 85.949219 681.4375 84.84375 C 681.277344 83.742188 681.140625 82.632812 681.035156 81.519531 C 680.925781 80.410156 680.84375 79.296875 680.792969 78.179688 C 680.738281 77.0625 680.710938 75.949219 680.714844 74.832031 C 680.714844 73.714844 680.746094 72.597656 680.800781 71.480469 C 680.855469 70.367188 680.941406 69.253906 681.050781 68.140625 C 681.160156 67.03125 681.300781 65.921875 681.464844 64.816406 C 681.628906 63.714844 681.820312 62.613281 682.039062 61.519531 C 682.257812 60.421875 682.503906 59.332031 682.773438 58.25 C 683.046875 57.167969 683.347656 56.089844 683.671875 55.023438 C 683.996094 53.953125 684.347656 52.894531 684.722656 51.84375 C 685.097656 50.792969 685.5 49.75 685.929688 48.71875 C 686.355469 47.6875 686.808594 46.667969 687.285156 45.660156 C 687.765625 44.648438 688.265625 43.652344 688.792969 42.667969 C 689.320312 41.683594 689.867188 40.714844 690.441406 39.753906 C 691.015625 38.796875 691.613281 37.855469 692.234375 36.925781 C 692.855469 36 693.496094 35.085938 694.160156 34.191406 C 694.824219 33.292969 695.511719 32.414062 696.21875 31.550781 C 696.929688 30.6875 697.65625 29.84375 698.40625 29.019531 C 699.15625 28.191406 699.921875 27.382812 700.710938 26.59375 C 701.5 25.804688 702.308594 25.035156 703.136719 24.285156 C 703.960938 23.539062 704.804688 22.808594 705.667969 22.101562 C 706.53125 21.394531 707.410156 20.707031 708.304688 20.042969 C 709.199219 19.378906 710.109375 18.734375 711.039062 18.117188 C 711.964844 17.496094 712.90625 16.898438 713.863281 16.328125 C 714.820312 15.753906 715.789062 15.203125 716.773438 14.679688 C 717.757812 14.152344 718.75 13.652344 719.757812 13.175781 C 720.765625 12.699219 721.785156 12.246094 722.816406 11.820312 C 723.84375 11.394531 724.886719 10.992188 725.933594 10.617188 C 726.984375 10.242188 728.042969 9.890625 729.109375 9.566406 C 730.175781 9.246094 731.25 8.949219 732.332031 8.675781 C 733.410156 8.40625 734.5 8.164062 735.59375 7.945312 C 736.683594 7.730469 737.78125 7.539062 738.886719 7.375 C 739.988281 7.210938 741.09375 7.078125 742.203125 6.96875 C 743.3125 6.859375 744.421875 6.777344 745.535156 6.722656 C 746.648438 6.667969 747.761719 6.644531 748.875 6.644531 C 749.992188 6.644531 751.105469 6.671875 752.21875 6.726562 C 753.332031 6.785156 754.441406 6.867188 755.550781 6.976562 C 756.660156 7.085938 757.765625 7.222656 758.867188 7.386719 C 759.96875 7.554688 761.066406 7.746094 762.160156 7.960938 C 763.253906 8.179688 764.339844 8.425781 765.421875 8.699219 C 766.5 8.96875 767.574219 9.269531 768.640625 9.59375 C 769.707031 9.917969 770.765625 10.269531 771.8125 10.644531 C 772.863281 11.023438 773.902344 11.425781 774.929688 11.851562 C 775.960938 12.28125 776.976562 12.734375 777.984375 13.210938 C 778.992188 13.691406 779.988281 14.191406 780.96875 14.71875 C 781.953125 15.246094 782.921875 15.796875 783.878906 16.371094 C 784.832031 16.945312 785.773438 17.542969 786.699219 18.164062 C 787.625 18.785156 788.535156 19.429688 789.433594 20.09375 C 790.328125 20.761719 791.203125 21.449219 792.066406 22.15625 C 792.925781 22.867188 793.769531 23.59375 794.59375 24.347656 C 795.421875 25.097656 796.226562 25.867188 797.015625 26.65625 C 797.804688 27.445312 798.570312 28.253906 799.320312 29.082031 C 800.066406 29.910156 800.792969 30.757812 801.5 31.621094 C 802.207031 32.484375 802.894531 33.363281 803.554688 34.261719 C 804.21875 35.160156 804.859375 36.070312 805.480469 37 C 806.097656 37.929688 806.695312 38.875 807.265625 39.832031 C 807.839844 40.789062 808.390625 41.761719 808.914062 42.746094 C 809.4375 43.730469 809.941406 44.730469 810.417969 45.738281 C 810.890625 46.75 811.34375 47.769531 811.769531 48.800781 C 812.195312 49.832031 812.597656 50.875 812.972656 51.925781 C 813.347656 52.976562 813.695312 54.039062 814.019531 55.109375 C 814.34375 56.175781 814.640625 57.253906 814.910156 58.335938 C 815.183594 59.417969 815.425781 60.507812 815.644531 61.605469 C 815.859375 62.699219 816.050781 63.800781 816.214844 64.90625 C 816.378906 66.007812 816.515625 67.117188 816.625 68.230469 C 816.734375 69.339844 816.8125 70.453125 816.867188 71.570312 C 816.921875 72.6875 816.949219 73.800781 816.949219 74.917969 C 816.949219 76.039062 816.921875 77.15625 816.863281 78.273438 C 816.808594 79.390625 816.726562 80.503906 816.613281 81.617188 C 816.503906 82.730469 816.367188 83.839844 816.199219 84.945312 C 816.035156 86.050781 815.84375 87.152344 815.625 88.25 C 815.40625 89.34375 815.160156 90.4375 814.886719 91.519531 C 814.613281 92.605469 814.316406 93.683594 813.992188 94.753906 C 813.664062 95.820312 813.316406 96.882812 812.9375 97.9375 C 812.558594 98.988281 812.15625 100.03125 811.730469 101.0625 C 811.300781 102.097656 810.847656 103.117188 810.371094 104.128906 C 809.890625 105.140625 809.390625 106.136719 808.863281 107.121094 C 808.335938 108.109375 807.785156 109.082031 807.210938 110.039062 C 806.636719 111 806.039062 111.941406 805.417969 112.871094 C 804.796875 113.800781 804.152344 114.714844 803.488281 115.613281 C 802.820312 116.507812 802.132812 117.390625 801.425781 118.253906 C 800.714844 119.117188 799.988281 119.964844 799.238281 120.792969 C 798.488281 121.617188 797.714844 122.429688 796.925781 123.21875 C 796.136719 124.007812 795.328125 124.777344 794.5 125.527344 C 793.671875 126.277344 792.828125 127.007812 791.964844 127.71875 C 791.101562 128.425781 790.222656 129.113281 789.324219 129.777344 C 788.429688 130.445312 787.515625 131.085938 786.585938 131.707031 C 785.660156 132.328125 784.714844 132.925781 783.757812 133.5 C 782.800781 134.074219 781.832031 134.625 780.84375 135.148438 C 779.859375 135.675781 778.863281 136.175781 777.855469 136.65625 C 776.847656 137.132812 775.828125 137.585938 774.796875 138.011719 C 773.765625 138.4375 772.722656 138.839844 771.671875 139.214844 C 770.621094 139.59375 769.5625 139.941406 768.492188 140.265625 C 767.425781 140.589844 766.351562 140.886719 765.269531 141.15625 C 764.183594 141.429688 763.097656 141.671875 762.003906 141.890625 C 760.90625 142.109375 759.808594 142.296875 758.703125 142.460938 C 757.601562 142.625 756.492188 142.761719 755.382812 142.871094 C 754.273438 142.980469 753.160156 143.058594 752.046875 143.113281 C 750.929688 143.167969 749.816406 143.195312 748.699219 143.195312 Z M 748.699219 15.488281 C 746.757812 15.492188 744.824219 15.589844 742.890625 15.785156 C 740.960938 15.980469 739.042969 16.269531 737.140625 16.652344 C 735.238281 17.039062 733.359375 17.515625 731.5 18.082031 C 729.644531 18.652344 727.820312 19.308594 726.03125 20.058594 C 724.238281 20.804688 722.488281 21.640625 720.777344 22.5625 C 719.066406 23.480469 717.40625 24.484375 715.792969 25.566406 C 714.183594 26.652344 712.628906 27.8125 711.128906 29.050781 C 709.632812 30.285156 708.195312 31.59375 706.828125 32.972656 C 705.457031 34.351562 704.15625 35.792969 702.929688 37.300781 C 701.699219 38.804688 700.546875 40.367188 699.472656 41.988281 C 698.398438 43.605469 697.402344 45.277344 696.492188 46.992188 C 695.578125 48.710938 694.753906 50.46875 694.011719 52.265625 C 693.273438 54.066406 692.625 55.898438 692.0625 57.757812 C 691.503906 59.621094 691.035156 61.507812 690.660156 63.417969 C 690.28125 65.324219 690 67.246094 689.8125 69.183594 C 689.628906 71.121094 689.535156 73.0625 689.539062 75.007812 C 689.539062 76.953125 689.636719 78.894531 689.832031 80.828125 C 690.023438 82.765625 690.3125 84.6875 690.691406 86.59375 C 691.074219 88.503906 691.546875 90.386719 692.113281 92.246094 C 692.679688 94.109375 693.335938 95.9375 694.082031 97.734375 C 694.824219 99.53125 695.65625 101.285156 696.574219 103 C 697.492188 104.714844 698.488281 106.378906 699.570312 107.996094 C 700.652344 109.613281 701.808594 111.171875 703.039062 112.675781 C 704.273438 114.175781 705.578125 115.617188 706.953125 116.988281 C 708.324219 118.363281 709.761719 119.667969 711.265625 120.898438 C 712.765625 122.132812 714.324219 123.289062 715.941406 124.367188 C 717.554688 125.445312 719.21875 126.445312 720.933594 127.359375 C 722.644531 128.277344 724.398438 129.105469 726.191406 129.847656 C 727.984375 130.589844 729.8125 131.242188 731.671875 131.804688 C 733.527344 132.371094 735.410156 132.839844 737.3125 133.21875 C 739.21875 133.597656 741.136719 133.878906 743.066406 134.070312 C 745 134.257812 746.933594 134.351562 748.875 134.351562 C 750.816406 134.347656 752.753906 134.253906 754.683594 134.058594 C 756.617188 133.867188 758.535156 133.582031 760.4375 133.199219 C 762.339844 132.820312 764.222656 132.347656 766.078125 131.78125 C 767.9375 131.214844 769.761719 130.558594 771.554688 129.8125 C 773.347656 129.066406 775.097656 128.238281 776.8125 127.320312 C 778.523438 126.402344 780.183594 125.402344 781.796875 124.320312 C 783.410156 123.238281 784.96875 122.078125 786.46875 120.84375 C 787.96875 119.609375 789.402344 118.304688 790.777344 116.925781 C 792.148438 115.550781 793.449219 114.109375 794.679688 112.605469 C 795.910156 111.101562 797.066406 109.542969 798.144531 107.921875 C 799.222656 106.304688 800.21875 104.636719 801.132812 102.921875 C 802.046875 101.207031 802.875 99.449219 803.617188 97.652344 C 804.359375 95.855469 805.011719 94.023438 805.578125 92.164062 C 806.140625 90.300781 806.609375 88.417969 806.988281 86.507812 C 807.367188 84.601562 807.652344 82.675781 807.84375 80.742188 C 808.03125 78.804688 808.128906 76.863281 808.128906 74.917969 C 808.125 72.96875 808.027344 71.027344 807.832031 69.089844 C 807.640625 67.148438 807.351562 65.226562 806.96875 63.3125 C 806.589844 61.402344 806.113281 59.515625 805.546875 57.652344 C 804.980469 55.789062 804.324219 53.957031 803.578125 52.160156 C 802.832031 50.359375 802 48.601562 801.082031 46.882812 C 800.160156 45.167969 799.160156 43.5 798.078125 41.878906 C 796.996094 40.261719 795.839844 38.699219 794.605469 37.195312 C 793.371094 35.691406 792.0625 34.25 790.6875 32.875 C 789.3125 31.496094 787.871094 30.191406 786.367188 28.957031 C 784.863281 27.722656 783.304688 26.566406 781.683594 25.484375 C 780.066406 24.402344 778.402344 23.40625 776.6875 22.488281 C 774.972656 21.570312 773.214844 20.742188 771.417969 19.996094 C 769.621094 19.253906 767.792969 18.597656 765.933594 18.035156 C 764.070312 17.472656 762.1875 17 760.28125 16.621094 C 758.375 16.242188 756.453125 15.957031 754.519531 15.769531 C 752.582031 15.578125 750.644531 15.484375 748.699219 15.488281 Z M 748.699219 15.488281 " fill-opacity="1" fill-rule="nonzero"/></g><g clip-path="url(#6b53cf7776)"><path fill="#1d1d1b" d="M 681.730469 79.339844 L 477.242188 79.339844 C 476.953125 79.339844 476.664062 79.3125 476.378906 79.257812 C 476.097656 79.199219 475.820312 79.117188 475.554688 79.003906 C 475.285156 78.894531 475.03125 78.757812 474.789062 78.59375 C 474.550781 78.433594 474.328125 78.25 474.121094 78.046875 C 473.917969 77.839844 473.734375 77.617188 473.574219 77.375 C 473.410156 77.132812 473.277344 76.878906 473.164062 76.609375 C 473.054688 76.34375 472.96875 76.066406 472.914062 75.78125 C 472.859375 75.496094 472.828125 75.210938 472.828125 74.917969 C 472.828125 74.628906 472.859375 74.339844 472.914062 74.054688 C 472.96875 73.769531 473.054688 73.496094 473.164062 73.226562 C 473.277344 72.957031 473.410156 72.703125 473.574219 72.460938 C 473.734375 72.222656 473.917969 71.996094 474.121094 71.792969 C 474.328125 71.585938 474.550781 71.402344 474.789062 71.242188 C 475.03125 71.082031 475.285156 70.945312 475.554688 70.832031 C 475.820312 70.722656 476.097656 70.636719 476.378906 70.582031 C 476.664062 70.523438 476.953125 70.496094 477.242188 70.496094 L 681.730469 70.496094 C 682.019531 70.496094 682.304688 70.523438 682.589844 70.582031 C 682.875 70.636719 683.148438 70.722656 683.417969 70.832031 C 683.683594 70.945312 683.9375 71.082031 684.179688 71.242188 C 684.421875 71.402344 684.644531 71.585938 684.847656 71.792969 C 685.054688 71.996094 685.234375 72.222656 685.398438 72.460938 C 685.558594 72.703125 685.695312 72.957031 685.804688 73.226562 C 685.914062 73.496094 686 73.769531 686.054688 74.054688 C 686.113281 74.339844 686.140625 74.628906 686.140625 74.917969 C 686.140625 75.210938 686.113281 75.496094 686.054688 75.78125 C 686 76.066406 685.914062 76.34375 685.804688 76.609375 C 685.695312 76.878906 685.558594 77.132812 685.398438 77.375 C 685.234375 77.617188 685.054688 77.839844 684.847656 78.046875 C 684.644531 78.25 684.421875 78.433594 684.179688 78.59375 C 683.9375 78.757812 683.683594 78.894531 683.417969 79.003906 C 683.148438 79.117188 682.875 79.199219 682.589844 79.257812 C 682.304688 79.3125 682.019531 79.339844 681.730469 79.339844 Z M 681.730469 79.339844 " fill-opacity="1" fill-rule="nonzero"/></g><path fill="#5eb229" d="M 1122.195312 74.917969 C 1122.195312 75.949219 1122.144531 76.980469 1122.042969 78.003906 C 1121.945312 79.03125 1121.792969 80.050781 1121.59375 81.0625 C 1121.390625 82.074219 1121.140625 83.070312 1120.84375 84.058594 C 1120.542969 85.046875 1120.199219 86.015625 1119.804688 86.96875 C 1119.410156 87.921875 1118.972656 88.851562 1118.488281 89.761719 C 1118 90.671875 1117.472656 91.554688 1116.902344 92.410156 C 1116.332031 93.269531 1115.71875 94.09375 1115.066406 94.890625 C 1114.414062 95.691406 1113.722656 96.453125 1112.996094 97.183594 C 1112.269531 97.910156 1111.507812 98.601562 1110.710938 99.257812 C 1109.917969 99.910156 1109.089844 100.523438 1108.234375 101.097656 C 1107.378906 101.671875 1106.5 102.199219 1105.589844 102.6875 C 1104.683594 103.171875 1103.753906 103.613281 1102.804688 104.007812 C 1101.855469 104.402344 1100.886719 104.75 1099.902344 105.046875 C 1098.917969 105.347656 1097.921875 105.597656 1096.910156 105.796875 C 1095.902344 106 1094.886719 106.152344 1093.863281 106.25 C 1092.839844 106.351562 1091.8125 106.402344 1090.785156 106.402344 C 1089.753906 106.402344 1088.730469 106.351562 1087.703125 106.25 C 1086.679688 106.152344 1085.664062 106 1084.65625 105.796875 C 1083.648438 105.597656 1082.648438 105.347656 1081.664062 105.046875 C 1080.679688 104.75 1079.714844 104.402344 1078.761719 104.007812 C 1077.8125 103.613281 1076.882812 103.171875 1075.976562 102.6875 C 1075.070312 102.199219 1074.1875 101.671875 1073.332031 101.097656 C 1072.476562 100.523438 1071.652344 99.910156 1070.855469 99.257812 C 1070.0625 98.601562 1069.300781 97.910156 1068.570312 97.183594 C 1067.84375 96.453125 1067.15625 95.691406 1066.5 94.890625 C 1065.847656 94.09375 1065.238281 93.269531 1064.664062 92.410156 C 1064.09375 91.554688 1063.566406 90.671875 1063.082031 89.761719 C 1062.597656 88.851562 1062.15625 87.921875 1061.761719 86.96875 C 1061.367188 86.015625 1061.023438 85.046875 1060.722656 84.058594 C 1060.425781 83.070312 1060.175781 82.074219 1059.976562 81.0625 C 1059.773438 80.050781 1059.625 79.03125 1059.523438 78.003906 C 1059.421875 76.980469 1059.371094 75.949219 1059.371094 74.917969 C 1059.371094 73.886719 1059.421875 72.859375 1059.523438 71.832031 C 1059.625 70.808594 1059.773438 69.789062 1059.976562 68.777344 C 1060.175781 67.765625 1060.425781 66.765625 1060.722656 65.78125 C 1061.023438 64.792969 1061.367188 63.824219 1061.761719 62.871094 C 1062.15625 61.917969 1062.597656 60.988281 1063.082031 60.078125 C 1063.566406 59.167969 1064.09375 58.285156 1064.664062 57.425781 C 1065.238281 56.570312 1065.847656 55.742188 1066.5 54.945312 C 1067.15625 54.148438 1067.84375 53.386719 1068.570312 52.65625 C 1069.300781 51.925781 1070.0625 51.234375 1070.855469 50.582031 C 1071.652344 49.925781 1072.476562 49.3125 1073.332031 48.742188 C 1074.1875 48.167969 1075.070312 47.636719 1075.976562 47.152344 C 1076.882812 46.664062 1077.8125 46.226562 1078.761719 45.832031 C 1079.714844 45.4375 1080.679688 45.089844 1081.664062 44.789062 C 1082.648438 44.492188 1083.648438 44.242188 1084.65625 44.039062 C 1085.664062 43.839844 1086.679688 43.6875 1087.703125 43.585938 C 1088.730469 43.484375 1089.753906 43.433594 1090.785156 43.433594 C 1091.8125 43.433594 1092.839844 43.484375 1093.863281 43.585938 C 1094.886719 43.6875 1095.902344 43.839844 1096.910156 44.039062 C 1097.921875 44.242188 1098.917969 44.492188 1099.902344 44.789062 C 1100.886719 45.089844 1101.855469 45.4375 1102.804688 45.832031 C 1103.753906 46.226562 1104.683594 46.664062 1105.589844 47.152344 C 1106.5 47.636719 1107.378906 48.167969 1108.234375 48.742188 C 1109.089844 49.3125 1109.917969 49.925781 1110.710938 50.582031 C 1111.507812 51.234375 1112.269531 51.925781 1112.996094 52.65625 C 1113.722656 53.386719 1114.414062 54.148438 1115.066406 54.945312 C 1115.71875 55.742188 1116.332031 56.570312 1116.902344 57.425781 C 1117.472656 58.285156 1118 59.167969 1118.488281 60.078125 C 1118.972656 60.988281 1119.410156 61.917969 1119.804688 62.871094 C 1120.199219 63.824219 1120.542969 64.792969 1120.84375 65.78125 C 1121.140625 66.765625 1121.390625 67.765625 1121.59375 68.777344 C 1121.792969 69.789062 1121.945312 70.808594 1122.042969 71.832031 C 1122.144531 72.859375 1122.195312 73.886719 1122.195312 74.917969 Z M 1122.195312 74.917969 " fill-opacity="1" fill-rule="nonzero"/><g clip-path="url(#890c4979f7)"><path fill="#1d1d1b" d="M 1090.078125 143.195312 C 1088.964844 143.191406 1087.851562 143.164062 1086.738281 143.105469 C 1085.625 143.050781 1084.511719 142.964844 1083.40625 142.851562 C 1082.296875 142.742188 1081.191406 142.601562 1080.089844 142.4375 C 1078.988281 142.269531 1077.890625 142.078125 1076.796875 141.859375 C 1075.703125 141.636719 1074.617188 141.390625 1073.539062 141.117188 C 1072.457031 140.84375 1071.382812 140.542969 1070.316406 140.21875 C 1069.253906 139.890625 1068.195312 139.539062 1067.144531 139.160156 C 1066.097656 138.785156 1065.058594 138.378906 1064.03125 137.949219 C 1063 137.523438 1061.984375 137.066406 1060.976562 136.589844 C 1059.972656 136.109375 1058.976562 135.605469 1057.996094 135.078125 C 1057.011719 134.546875 1056.042969 133.996094 1055.089844 133.421875 C 1054.136719 132.84375 1053.195312 132.246094 1052.269531 131.625 C 1051.34375 131 1050.433594 130.355469 1049.539062 129.691406 C 1048.644531 129.023438 1047.769531 128.335938 1046.910156 127.625 C 1046.046875 126.914062 1045.207031 126.183594 1044.382812 125.433594 C 1043.558594 124.679688 1042.753906 123.910156 1041.964844 123.117188 C 1041.179688 122.328125 1040.410156 121.519531 1039.664062 120.6875 C 1038.917969 119.859375 1038.191406 119.015625 1037.484375 118.148438 C 1036.78125 117.285156 1036.097656 116.402344 1035.433594 115.503906 C 1034.769531 114.605469 1034.132812 113.691406 1033.515625 112.761719 C 1032.894531 111.832031 1032.300781 110.890625 1031.730469 109.929688 C 1031.160156 108.972656 1030.609375 108 1030.085938 107.015625 C 1029.5625 106.027344 1029.0625 105.03125 1028.589844 104.019531 C 1028.113281 103.007812 1027.664062 101.988281 1027.238281 100.953125 C 1026.8125 99.921875 1026.414062 98.878906 1026.039062 97.828125 C 1025.667969 96.777344 1025.320312 95.714844 1024.996094 94.644531 C 1024.675781 93.578125 1024.378906 92.5 1024.109375 91.417969 C 1023.839844 90.332031 1023.597656 89.242188 1023.382812 88.148438 C 1023.167969 87.050781 1022.976562 85.949219 1022.816406 84.84375 C 1022.652344 83.742188 1022.519531 82.632812 1022.410156 81.519531 C 1022.304688 80.410156 1022.222656 79.296875 1022.167969 78.179688 C 1022.117188 77.0625 1022.089844 75.949219 1022.09375 74.832031 C 1022.09375 73.714844 1022.121094 72.597656 1022.179688 71.480469 C 1022.234375 70.367188 1022.316406 69.253906 1022.429688 68.140625 C 1022.539062 67.03125 1022.675781 65.921875 1022.839844 64.816406 C 1023.007812 63.714844 1023.199219 62.613281 1023.417969 61.519531 C 1023.636719 60.421875 1023.882812 59.332031 1024.152344 58.25 C 1024.425781 57.167969 1024.722656 56.089844 1025.046875 55.023438 C 1025.371094 53.953125 1025.722656 52.894531 1026.101562 51.84375 C 1026.476562 50.792969 1026.878906 49.75 1027.304688 48.71875 C 1027.734375 47.6875 1028.1875 46.667969 1028.664062 45.660156 C 1029.140625 44.648438 1029.644531 43.652344 1030.171875 42.667969 C 1030.695312 41.683594 1031.246094 40.714844 1031.820312 39.753906 C 1032.394531 38.796875 1032.992188 37.855469 1033.613281 36.925781 C 1034.230469 36 1034.875 35.085938 1035.539062 34.191406 C 1036.203125 33.292969 1036.890625 32.414062 1037.597656 31.550781 C 1038.304688 30.6875 1039.035156 29.84375 1039.78125 29.019531 C 1040.53125 28.191406 1041.300781 27.382812 1042.089844 26.59375 C 1042.878906 25.804688 1043.6875 25.035156 1044.511719 24.285156 C 1045.339844 23.539062 1046.183594 22.808594 1047.046875 22.101562 C 1047.90625 21.394531 1048.785156 20.707031 1049.683594 20.042969 C 1050.578125 19.378906 1051.488281 18.734375 1052.417969 18.117188 C 1053.34375 17.496094 1054.285156 16.898438 1055.242188 16.328125 C 1056.199219 15.753906 1057.167969 15.203125 1058.152344 14.679688 C 1059.132812 14.152344 1060.128906 13.652344 1061.136719 13.175781 C 1062.144531 12.699219 1063.164062 12.246094 1064.191406 11.820312 C 1065.222656 11.394531 1066.261719 10.992188 1067.3125 10.617188 C 1068.363281 10.242188 1069.417969 9.890625 1070.488281 9.566406 C 1071.554688 9.246094 1072.628906 8.949219 1073.707031 8.675781 C 1074.789062 8.40625 1075.875 8.164062 1076.96875 7.945312 C 1078.0625 7.730469 1079.160156 7.539062 1080.261719 7.375 C 1081.363281 7.210938 1082.472656 7.078125 1083.578125 6.96875 C 1084.6875 6.859375 1085.800781 6.777344 1086.914062 6.722656 C 1088.027344 6.667969 1089.140625 6.644531 1090.253906 6.644531 C 1091.367188 6.644531 1092.480469 6.671875 1093.59375 6.726562 C 1094.707031 6.785156 1095.820312 6.867188 1096.929688 6.976562 C 1098.035156 7.085938 1099.140625 7.222656 1100.246094 7.386719 C 1101.347656 7.554688 1102.445312 7.746094 1103.539062 7.960938 C 1104.628906 8.179688 1105.71875 8.425781 1106.796875 8.699219 C 1107.878906 8.96875 1108.953125 9.269531 1110.019531 9.59375 C 1111.085938 9.917969 1112.140625 10.269531 1113.191406 10.644531 C 1114.238281 11.023438 1115.277344 11.425781 1116.308594 11.851562 C 1117.335938 12.28125 1118.355469 12.734375 1119.363281 13.210938 C 1120.371094 13.691406 1121.363281 14.191406 1122.347656 14.71875 C 1123.332031 15.246094 1124.300781 15.796875 1125.253906 16.371094 C 1126.210938 16.945312 1127.152344 17.542969 1128.078125 18.164062 C 1129.003906 18.785156 1129.914062 19.429688 1130.808594 20.09375 C 1131.703125 20.761719 1132.582031 21.449219 1133.441406 22.15625 C 1134.304688 22.867188 1135.148438 23.59375 1135.972656 24.347656 C 1136.796875 25.097656 1137.605469 25.867188 1138.394531 26.65625 C 1139.179688 27.445312 1139.949219 28.253906 1140.695312 29.082031 C 1141.445312 29.910156 1142.171875 30.757812 1142.878906 31.621094 C 1143.585938 32.484375 1144.269531 33.363281 1144.933594 34.261719 C 1145.597656 35.160156 1146.238281 36.070312 1146.859375 37 C 1147.476562 37.929688 1148.074219 38.875 1148.644531 39.832031 C 1149.21875 40.789062 1149.765625 41.761719 1150.292969 42.746094 C 1150.816406 43.730469 1151.316406 44.730469 1151.792969 45.738281 C 1152.269531 46.75 1152.722656 47.769531 1153.148438 48.800781 C 1153.574219 49.832031 1153.976562 50.875 1154.351562 51.925781 C 1154.726562 52.976562 1155.074219 54.039062 1155.398438 55.109375 C 1155.722656 56.175781 1156.019531 57.253906 1156.289062 58.335938 C 1156.558594 59.417969 1156.804688 60.507812 1157.019531 61.605469 C 1157.238281 62.699219 1157.429688 63.800781 1157.59375 64.90625 C 1157.753906 66.007812 1157.890625 67.117188 1158 68.230469 C 1158.109375 69.339844 1158.191406 70.453125 1158.246094 71.570312 C 1158.300781 72.6875 1158.328125 73.800781 1158.328125 74.917969 C 1158.328125 76.039062 1158.296875 77.15625 1158.242188 78.273438 C 1158.1875 79.390625 1158.101562 80.503906 1157.992188 81.617188 C 1157.882812 82.730469 1157.742188 83.839844 1157.578125 84.945312 C 1157.414062 86.050781 1157.222656 87.152344 1157.003906 88.25 C 1156.78125 89.34375 1156.539062 90.4375 1156.265625 91.519531 C 1155.992188 92.605469 1155.695312 93.683594 1155.367188 94.753906 C 1155.042969 95.820312 1154.691406 96.882812 1154.316406 97.9375 C 1153.9375 98.988281 1153.535156 100.03125 1153.105469 101.0625 C 1152.679688 102.097656 1152.226562 103.117188 1151.746094 104.128906 C 1151.269531 105.140625 1150.765625 106.136719 1150.238281 107.121094 C 1149.710938 108.109375 1149.160156 109.082031 1148.585938 110.039062 C 1148.011719 111 1147.414062 111.941406 1146.792969 112.871094 C 1146.171875 113.800781 1145.53125 114.714844 1144.863281 115.613281 C 1144.199219 116.507812 1143.511719 117.390625 1142.804688 118.253906 C 1142.09375 119.117188 1141.363281 119.964844 1140.613281 120.792969 C 1139.863281 121.617188 1139.09375 122.429688 1138.304688 123.21875 C 1137.515625 124.007812 1136.707031 124.777344 1135.878906 125.527344 C 1135.050781 126.277344 1134.207031 127.007812 1133.34375 127.71875 C 1132.480469 128.425781 1131.601562 129.113281 1130.703125 129.777344 C 1129.804688 130.445312 1128.894531 131.085938 1127.964844 131.707031 C 1127.035156 132.328125 1126.09375 132.925781 1125.136719 133.5 C 1124.179688 134.074219 1123.207031 134.625 1122.222656 135.148438 C 1121.238281 135.675781 1120.242188 136.175781 1119.234375 136.65625 C 1118.222656 137.132812 1117.203125 137.585938 1116.171875 138.011719 C 1115.140625 138.4375 1114.101562 138.839844 1113.050781 139.214844 C 1112 139.59375 1110.9375 139.941406 1109.871094 140.265625 C 1108.804688 140.589844 1107.726562 140.886719 1106.644531 141.15625 C 1105.5625 141.429688 1104.472656 141.671875 1103.378906 141.890625 C 1102.285156 142.109375 1101.1875 142.296875 1100.082031 142.460938 C 1098.976562 142.625 1097.871094 142.761719 1096.761719 142.871094 C 1095.648438 142.980469 1094.539062 143.058594 1093.421875 143.113281 C 1092.308594 143.167969 1091.195312 143.195312 1090.078125 143.195312 Z M 1090.078125 15.488281 C 1088.136719 15.492188 1086.199219 15.589844 1084.269531 15.785156 C 1082.339844 15.980469 1080.421875 16.269531 1078.519531 16.652344 C 1076.613281 17.039062 1074.734375 17.515625 1072.878906 18.082031 C 1071.023438 18.652344 1069.199219 19.308594 1067.40625 20.058594 C 1065.617188 20.804688 1063.863281 21.640625 1062.15625 22.5625 C 1060.445312 23.480469 1058.785156 24.484375 1057.171875 25.566406 C 1055.558594 26.652344 1054.003906 27.8125 1052.507812 29.050781 C 1051.007812 30.285156 1049.574219 31.59375 1048.203125 32.972656 C 1046.835938 34.351562 1045.535156 35.792969 1044.304688 37.300781 C 1043.078125 38.804688 1041.925781 40.367188 1040.851562 41.988281 C 1039.773438 43.605469 1038.78125 45.277344 1037.867188 46.992188 C 1036.957031 48.710938 1036.132812 50.46875 1035.390625 52.265625 C 1034.652344 54.066406 1034 55.898438 1033.441406 57.757812 C 1032.878906 59.621094 1032.414062 61.507812 1032.035156 63.417969 C 1031.660156 65.324219 1031.378906 67.246094 1031.191406 69.183594 C 1031.003906 71.121094 1030.914062 73.0625 1030.914062 75.007812 C 1030.917969 76.953125 1031.015625 78.894531 1031.210938 80.828125 C 1031.402344 82.765625 1031.691406 84.6875 1032.070312 86.59375 C 1032.453125 88.503906 1032.925781 90.386719 1033.492188 92.246094 C 1034.058594 94.109375 1034.714844 95.9375 1035.457031 97.734375 C 1036.203125 99.53125 1037.035156 101.285156 1037.953125 103 C 1038.867188 104.714844 1039.867188 106.378906 1040.949219 107.996094 C 1042.027344 109.613281 1043.183594 111.171875 1044.417969 112.675781 C 1045.652344 114.175781 1046.957031 115.617188 1048.328125 116.988281 C 1049.703125 118.363281 1051.140625 119.667969 1052.644531 120.898438 C 1054.144531 122.132812 1055.703125 123.289062 1057.316406 124.367188 C 1058.933594 125.445312 1060.597656 126.445312 1062.308594 127.359375 C 1064.023438 128.277344 1065.777344 129.105469 1067.570312 129.847656 C 1069.363281 130.589844 1071.191406 131.242188 1073.046875 131.804688 C 1074.90625 132.371094 1076.785156 132.839844 1078.691406 133.21875 C 1080.59375 133.597656 1082.511719 133.878906 1084.445312 134.070312 C 1086.375 134.257812 1088.3125 134.351562 1090.253906 134.351562 C 1092.195312 134.347656 1094.132812 134.253906 1096.0625 134.058594 C 1097.996094 133.867188 1099.914062 133.582031 1101.816406 133.199219 C 1103.71875 132.820312 1105.601562 132.347656 1107.457031 131.78125 C 1109.3125 131.214844 1111.140625 130.558594 1112.933594 129.8125 C 1114.726562 129.066406 1116.476562 128.238281 1118.1875 127.320312 C 1119.898438 126.402344 1121.5625 125.402344 1123.175781 124.320312 C 1124.789062 123.238281 1126.34375 122.078125 1127.84375 120.84375 C 1129.34375 119.609375 1130.78125 118.304688 1132.152344 116.925781 C 1133.527344 115.550781 1134.828125 114.109375 1136.058594 112.605469 C 1137.289062 111.101562 1138.441406 109.542969 1139.519531 107.921875 C 1140.597656 106.304688 1141.59375 104.636719 1142.511719 102.921875 C 1143.425781 101.207031 1144.253906 99.449219 1144.996094 97.652344 C 1145.738281 95.855469 1146.390625 94.023438 1146.953125 92.164062 C 1147.515625 90.300781 1147.988281 88.417969 1148.367188 86.507812 C 1148.746094 84.601562 1149.03125 82.675781 1149.21875 80.742188 C 1149.410156 78.804688 1149.503906 76.863281 1149.503906 74.917969 C 1149.503906 72.96875 1149.402344 71.027344 1149.210938 69.089844 C 1149.015625 67.148438 1148.730469 65.226562 1148.347656 63.3125 C 1147.964844 61.402344 1147.492188 59.515625 1146.925781 57.652344 C 1146.359375 55.789062 1145.703125 53.957031 1144.957031 52.160156 C 1144.210938 50.359375 1143.375 48.601562 1142.457031 46.882812 C 1141.539062 45.167969 1140.539062 43.5 1139.457031 41.878906 C 1138.375 40.261719 1137.21875 38.699219 1135.980469 37.195312 C 1134.746094 35.691406 1133.441406 34.25 1132.066406 32.875 C 1130.6875 31.496094 1129.25 30.191406 1127.746094 28.957031 C 1126.242188 27.722656 1124.679688 26.566406 1123.0625 25.484375 C 1121.445312 24.402344 1119.78125 23.40625 1118.0625 22.488281 C 1116.347656 21.570312 1114.59375 20.742188 1112.796875 19.996094 C 1111 19.253906 1109.171875 18.597656 1107.308594 18.035156 C 1105.449219 17.472656 1103.566406 17 1101.660156 16.621094 C 1099.75 16.242188 1097.832031 15.957031 1095.894531 15.769531 C 1093.960938 15.578125 1092.023438 15.484375 1090.078125 15.488281 Z M 1090.078125 15.488281 " fill-opacity="1" fill-rule="nonzero"/></g><g clip-path="url(#47e07030f4)"><path fill="#1d1d1b" d="M 1023.105469 79.339844 L 818.617188 79.339844 C 818.328125 79.339844 818.042969 79.3125 817.757812 79.257812 C 817.472656 79.199219 817.199219 79.117188 816.929688 79.003906 C 816.664062 78.894531 816.410156 78.757812 816.167969 78.59375 C 815.925781 78.433594 815.703125 78.25 815.5 78.046875 C 815.292969 77.839844 815.113281 77.617188 814.949219 77.375 C 814.789062 77.132812 814.652344 76.878906 814.542969 76.609375 C 814.433594 76.34375 814.347656 76.066406 814.292969 75.78125 C 814.234375 75.496094 814.207031 75.210938 814.207031 74.917969 C 814.207031 74.628906 814.234375 74.339844 814.292969 74.054688 C 814.347656 73.769531 814.433594 73.496094 814.542969 73.226562 C 814.652344 72.957031 814.789062 72.703125 814.949219 72.460938 C 815.113281 72.222656 815.292969 71.996094 815.5 71.792969 C 815.703125 71.585938 815.925781 71.402344 816.167969 71.242188 C 816.410156 71.082031 816.664062 70.945312 816.929688 70.832031 C 817.199219 70.722656 817.472656 70.636719 817.757812 70.582031 C 818.042969 70.523438 818.328125 70.496094 818.617188 70.496094 L 1023.105469 70.496094 C 1023.394531 70.496094 1023.683594 70.523438 1023.96875 70.582031 C 1024.25 70.636719 1024.527344 70.722656 1024.792969 70.832031 C 1025.0625 70.945312 1025.316406 71.082031 1025.558594 71.242188 C 1025.796875 71.402344 1026.019531 71.585938 1026.226562 71.792969 C 1026.429688 71.996094 1026.613281 72.222656 1026.773438 72.460938 C 1026.9375 72.703125 1027.070312 72.957031 1027.183594 73.226562 C 1027.292969 73.496094 1027.378906 73.769531 1027.433594 74.054688 C 1027.488281 74.339844 1027.519531 74.628906 1027.519531 74.917969 C 1027.519531 75.210938 1027.488281 75.496094 1027.433594 75.78125 C 1027.378906 76.066406 1027.292969 76.34375 1027.183594 76.609375 C 1027.070312 76.878906 1026.9375 77.132812 1026.773438 77.375 C 1026.613281 77.617188 1026.429688 77.839844 1026.226562 78.046875 C 1026.019531 78.25 1025.796875 78.433594 1025.558594 78.59375 C 1025.316406 78.757812 1025.0625 78.894531 1024.792969 79.003906 C 1024.527344 79.117188 1024.25 79.199219 1023.96875 79.257812 C 1023.683594 79.3125 1023.394531 79.339844 1023.105469 79.339844 Z M 1023.105469 79.339844 " fill-opacity="1" fill-rule="nonzero"/></g><path fill="#233dff" d="M 1463.574219 74.917969 C 1463.574219 75.949219 1463.523438 76.980469 1463.421875 78.003906 C 1463.320312 79.03125 1463.171875 80.050781 1462.96875 81.0625 C 1462.769531 82.074219 1462.519531 83.070312 1462.222656 84.058594 C 1461.921875 85.046875 1461.574219 86.015625 1461.183594 86.96875 C 1460.789062 87.921875 1460.347656 88.851562 1459.863281 89.761719 C 1459.378906 90.671875 1458.851562 91.554688 1458.28125 92.410156 C 1457.707031 93.269531 1457.097656 94.09375 1456.441406 94.890625 C 1455.789062 95.691406 1455.101562 96.453125 1454.375 97.183594 C 1453.644531 97.910156 1452.882812 98.601562 1452.089844 99.257812 C 1451.292969 99.910156 1450.46875 100.523438 1449.613281 101.097656 C 1448.757812 101.671875 1447.875 102.199219 1446.96875 102.6875 C 1446.0625 103.171875 1445.132812 103.613281 1444.183594 104.007812 C 1443.230469 104.402344 1442.265625 104.75 1441.28125 105.046875 C 1440.296875 105.347656 1439.296875 105.597656 1438.289062 105.796875 C 1437.28125 106 1436.265625 106.152344 1435.242188 106.25 C 1434.214844 106.351562 1433.191406 106.402344 1432.160156 106.402344 C 1431.132812 106.402344 1430.105469 106.351562 1429.082031 106.25 C 1428.058594 106.152344 1427.042969 106 1426.03125 105.796875 C 1425.023438 105.597656 1424.027344 105.347656 1423.042969 105.046875 C 1422.058594 104.75 1421.089844 104.402344 1420.140625 104.007812 C 1419.191406 103.613281 1418.261719 103.171875 1417.355469 102.6875 C 1416.445312 102.199219 1415.566406 101.671875 1414.710938 101.097656 C 1413.855469 100.523438 1413.027344 99.910156 1412.234375 99.257812 C 1411.4375 98.601562 1410.675781 97.910156 1409.949219 97.183594 C 1409.222656 96.453125 1408.53125 95.691406 1407.878906 94.890625 C 1407.226562 94.09375 1406.613281 93.269531 1406.042969 92.410156 C 1405.472656 91.554688 1404.941406 90.671875 1404.457031 89.761719 C 1403.972656 88.851562 1403.535156 87.921875 1403.140625 86.96875 C 1402.746094 86.015625 1402.402344 85.046875 1402.101562 84.058594 C 1401.804688 83.070312 1401.554688 82.074219 1401.351562 81.0625 C 1401.152344 80.050781 1401 79.03125 1400.902344 78.003906 C 1400.800781 76.980469 1400.75 75.949219 1400.75 74.917969 C 1400.75 73.886719 1400.800781 72.859375 1400.902344 71.832031 C 1401 70.808594 1401.152344 69.789062 1401.351562 68.777344 C 1401.554688 67.765625 1401.804688 66.765625 1402.101562 65.78125 C 1402.402344 64.792969 1402.746094 63.824219 1403.140625 62.871094 C 1403.535156 61.917969 1403.972656 60.988281 1404.457031 60.078125 C 1404.941406 59.167969 1405.472656 58.285156 1406.042969 57.425781 C 1406.613281 56.570312 1407.226562 55.742188 1407.878906 54.945312 C 1408.53125 54.148438 1409.222656 53.386719 1409.949219 52.65625 C 1410.675781 51.925781 1411.4375 51.234375 1412.234375 50.582031 C 1413.027344 49.925781 1413.855469 49.3125 1414.710938 48.742188 C 1415.566406 48.167969 1416.445312 47.636719 1417.355469 47.152344 C 1418.261719 46.664062 1419.191406 46.226562 1420.140625 45.832031 C 1421.089844 45.4375 1422.058594 45.089844 1423.042969 44.789062 C 1424.027344 44.492188 1425.023438 44.242188 1426.03125 44.039062 C 1427.042969 43.839844 1428.058594 43.6875 1429.082031 43.585938 C 1430.105469 43.484375 1431.132812 43.433594 1432.160156 43.433594 C 1433.191406 43.433594 1434.214844 43.484375 1435.242188 43.585938 C 1436.265625 43.6875 1437.28125 43.839844 1438.289062 44.039062 C 1439.296875 44.242188 1440.296875 44.492188 1441.28125 44.789062 C 1442.265625 45.089844 1443.230469 45.4375 1444.183594 45.832031 C 1445.132812 46.226562 1446.0625 46.664062 1446.96875 47.152344 C 1447.875 47.636719 1448.757812 48.167969 1449.613281 48.742188 C 1450.46875 49.3125 1451.292969 49.925781 1452.089844 50.582031 C 1452.882812 51.234375 1453.644531 51.925781 1454.375 52.65625 C 1455.101562 53.386719 1455.789062 54.148438 1456.441406 54.945312 C 1457.097656 55.742188 1457.707031 56.570312 1458.28125 57.425781 C 1458.851562 58.285156 1459.378906 59.167969 1459.863281 60.078125 C 1460.347656 60.988281 1460.789062 61.917969 1461.183594 62.871094 C 1461.574219 63.824219 1461.921875 64.792969 1462.222656 65.78125 C 1462.519531 66.765625 1462.769531 67.765625 1462.96875 68.777344 C 1463.171875 69.789062 1463.320312 70.808594 1463.421875 71.832031 C 1463.523438 72.859375 1463.574219 73.886719 1463.574219 74.917969 Z M 1463.574219 74.917969 " fill-opacity="1" fill-rule="nonzero"/><g clip-path="url(#b13fec7afc)"><path fill="#1d1d1b" d="M 1431.457031 143.195312 C 1430.339844 143.191406 1429.226562 143.164062 1428.113281 143.105469 C 1427 143.050781 1425.890625 142.964844 1424.78125 142.851562 C 1423.671875 142.742188 1422.566406 142.601562 1421.464844 142.4375 C 1420.363281 142.269531 1419.265625 142.078125 1418.175781 141.859375 C 1417.082031 141.636719 1415.996094 141.390625 1414.914062 141.117188 C 1413.835938 140.84375 1412.761719 140.542969 1411.695312 140.21875 C 1410.628906 139.890625 1409.574219 139.539062 1408.523438 139.160156 C 1407.476562 138.785156 1406.4375 138.378906 1405.40625 137.949219 C 1404.378906 137.523438 1403.363281 137.066406 1402.355469 136.589844 C 1401.347656 136.109375 1400.355469 135.605469 1399.371094 135.078125 C 1398.390625 134.546875 1397.421875 133.996094 1396.46875 133.421875 C 1395.511719 132.84375 1394.574219 132.246094 1393.648438 131.625 C 1392.722656 131 1391.8125 130.355469 1390.917969 129.691406 C 1390.023438 129.023438 1389.148438 128.335938 1388.285156 127.625 C 1387.425781 126.914062 1386.585938 126.183594 1385.757812 125.433594 C 1384.933594 124.679688 1384.128906 123.910156 1383.34375 123.117188 C 1382.554688 122.328125 1381.789062 121.519531 1381.042969 120.6875 C 1380.296875 119.859375 1379.570312 119.015625 1378.863281 118.148438 C 1378.15625 117.285156 1377.472656 116.402344 1376.8125 115.503906 C 1376.148438 114.605469 1375.507812 113.691406 1374.890625 112.761719 C 1374.273438 111.832031 1373.679688 110.890625 1373.109375 109.929688 C 1372.535156 108.972656 1371.988281 108 1371.464844 107.015625 C 1370.941406 106.027344 1370.441406 105.03125 1369.964844 104.019531 C 1369.492188 103.007812 1369.042969 101.988281 1368.617188 100.953125 C 1368.191406 99.921875 1367.792969 98.878906 1367.417969 97.828125 C 1367.042969 96.777344 1366.695312 95.714844 1366.375 94.644531 C 1366.050781 93.578125 1365.757812 92.5 1365.488281 91.417969 C 1365.21875 90.332031 1364.976562 89.242188 1364.761719 88.148438 C 1364.542969 87.050781 1364.355469 85.949219 1364.191406 84.84375 C 1364.03125 83.742188 1363.894531 82.632812 1363.789062 81.519531 C 1363.679688 80.410156 1363.601562 79.296875 1363.546875 78.179688 C 1363.492188 77.0625 1363.46875 75.949219 1363.46875 74.832031 C 1363.472656 73.714844 1363.5 72.597656 1363.554688 71.480469 C 1363.613281 70.367188 1363.695312 69.253906 1363.804688 68.140625 C 1363.917969 67.03125 1364.054688 65.921875 1364.21875 64.816406 C 1364.382812 63.714844 1364.574219 62.613281 1364.792969 61.519531 C 1365.011719 60.421875 1365.257812 59.332031 1365.53125 58.25 C 1365.800781 57.167969 1366.101562 56.089844 1366.425781 55.023438 C 1366.75 53.953125 1367.101562 52.894531 1367.476562 51.84375 C 1367.855469 50.792969 1368.257812 49.75 1368.683594 48.71875 C 1369.113281 47.6875 1369.5625 46.667969 1370.042969 45.660156 C 1370.519531 44.648438 1371.019531 43.652344 1371.546875 42.667969 C 1372.074219 41.683594 1372.625 40.714844 1373.199219 39.753906 C 1373.773438 38.796875 1374.367188 37.855469 1374.988281 36.925781 C 1375.609375 36 1376.25 35.085938 1376.917969 34.191406 C 1377.582031 33.292969 1378.265625 32.414062 1378.976562 31.550781 C 1379.683594 30.6875 1380.410156 29.84375 1381.160156 29.019531 C 1381.910156 28.191406 1382.679688 27.382812 1383.46875 26.59375 C 1384.257812 25.804688 1385.0625 25.035156 1385.890625 24.285156 C 1386.714844 23.539062 1387.5625 22.808594 1388.421875 22.101562 C 1389.285156 21.394531 1390.164062 20.707031 1391.058594 20.042969 C 1391.957031 19.378906 1392.867188 18.734375 1393.792969 18.117188 C 1394.71875 17.496094 1395.664062 16.898438 1396.617188 16.328125 C 1397.574219 15.753906 1398.542969 15.203125 1399.527344 14.679688 C 1400.511719 14.152344 1401.507812 13.652344 1402.515625 13.175781 C 1403.523438 12.699219 1404.539062 12.246094 1405.570312 11.820312 C 1406.601562 11.394531 1407.640625 10.992188 1408.691406 10.617188 C 1409.738281 10.242188 1410.796875 9.890625 1411.863281 9.566406 C 1412.929688 9.246094 1414.003906 8.949219 1415.085938 8.675781 C 1416.167969 8.40625 1417.253906 8.164062 1418.347656 7.945312 C 1419.441406 7.730469 1420.539062 7.539062 1421.640625 7.375 C 1422.742188 7.210938 1423.847656 7.078125 1424.957031 6.96875 C 1426.066406 6.859375 1427.175781 6.777344 1428.289062 6.722656 C 1429.402344 6.667969 1430.515625 6.644531 1431.632812 6.644531 C 1432.746094 6.644531 1433.859375 6.671875 1434.972656 6.726562 C 1436.085938 6.785156 1437.195312 6.867188 1438.304688 6.976562 C 1439.414062 7.085938 1440.519531 7.222656 1441.621094 7.386719 C 1442.722656 7.554688 1443.820312 7.746094 1444.914062 7.960938 C 1446.007812 8.179688 1447.09375 8.425781 1448.175781 8.699219 C 1449.257812 8.96875 1450.328125 9.269531 1451.394531 9.59375 C 1452.460938 9.917969 1453.519531 10.269531 1454.570312 10.644531 C 1455.617188 11.023438 1456.65625 11.425781 1457.6875 11.851562 C 1458.714844 12.28125 1459.734375 12.734375 1460.742188 13.210938 C 1461.746094 13.691406 1462.742188 14.191406 1463.726562 14.71875 C 1464.707031 15.246094 1465.675781 15.796875 1466.632812 16.371094 C 1467.589844 16.945312 1468.527344 17.542969 1469.457031 18.164062 C 1470.382812 18.785156 1471.292969 19.429688 1472.1875 20.09375 C 1473.082031 20.761719 1473.960938 21.449219 1474.820312 22.15625 C 1475.683594 22.867188 1476.523438 23.59375 1477.351562 24.347656 C 1478.175781 25.097656 1478.984375 25.867188 1479.769531 26.65625 C 1480.558594 27.445312 1481.324219 28.253906 1482.074219 29.082031 C 1482.820312 29.910156 1483.550781 30.757812 1484.257812 31.621094 C 1484.964844 32.484375 1485.648438 33.363281 1486.3125 34.261719 C 1486.976562 35.160156 1487.617188 36.070312 1488.234375 37 C 1488.855469 37.929688 1489.449219 38.875 1490.023438 39.832031 C 1490.59375 40.789062 1491.144531 41.761719 1491.667969 42.746094 C 1492.195312 43.730469 1492.695312 44.730469 1493.171875 45.738281 C 1493.648438 46.75 1494.097656 47.769531 1494.523438 48.800781 C 1494.953125 49.832031 1495.351562 50.875 1495.726562 51.925781 C 1496.101562 52.976562 1496.453125 54.039062 1496.777344 55.109375 C 1497.097656 56.175781 1497.394531 57.253906 1497.667969 58.335938 C 1497.9375 59.417969 1498.179688 60.507812 1498.398438 61.605469 C 1498.617188 62.699219 1498.804688 63.800781 1498.96875 64.90625 C 1499.132812 66.007812 1499.269531 67.117188 1499.378906 68.230469 C 1499.488281 69.339844 1499.570312 70.453125 1499.625 71.570312 C 1499.679688 72.6875 1499.707031 73.800781 1499.707031 74.917969 C 1499.703125 76.039062 1499.675781 77.15625 1499.621094 78.273438 C 1499.5625 79.390625 1499.480469 80.503906 1499.371094 81.617188 C 1499.257812 82.730469 1499.121094 83.839844 1498.957031 84.945312 C 1498.789062 86.050781 1498.597656 87.152344 1498.378906 88.25 C 1498.160156 89.34375 1497.914062 90.4375 1497.640625 91.519531 C 1497.371094 92.605469 1497.070312 93.683594 1496.746094 94.753906 C 1496.421875 95.820312 1496.070312 96.882812 1495.691406 97.9375 C 1495.316406 98.988281 1494.914062 100.03125 1494.484375 101.0625 C 1494.058594 102.097656 1493.601562 103.117188 1493.125 104.128906 C 1492.648438 105.140625 1492.144531 106.136719 1491.617188 107.121094 C 1491.089844 108.109375 1490.539062 109.082031 1489.964844 110.039062 C 1489.390625 111 1488.792969 111.941406 1488.171875 112.871094 C 1487.550781 113.800781 1486.90625 114.714844 1486.242188 115.613281 C 1485.578125 116.507812 1484.890625 117.390625 1484.179688 118.253906 C 1483.472656 119.117188 1482.742188 119.964844 1481.992188 120.792969 C 1481.242188 121.617188 1480.472656 122.429688 1479.683594 123.21875 C 1478.890625 124.007812 1478.082031 124.777344 1477.257812 125.527344 C 1476.429688 126.277344 1475.582031 127.007812 1474.71875 127.71875 C 1473.855469 128.425781 1472.976562 129.113281 1472.082031 129.777344 C 1471.183594 130.445312 1470.269531 131.085938 1469.34375 131.707031 C 1468.414062 132.328125 1467.472656 132.925781 1466.515625 133.5 C 1465.554688 134.074219 1464.585938 134.625 1463.601562 135.148438 C 1462.617188 135.675781 1461.621094 136.175781 1460.609375 136.65625 C 1459.601562 137.132812 1458.582031 137.585938 1457.550781 138.011719 C 1456.519531 138.4375 1455.476562 138.839844 1454.425781 139.214844 C 1453.375 139.59375 1452.316406 139.941406 1451.25 140.265625 C 1450.179688 140.589844 1449.105469 140.886719 1448.023438 141.15625 C 1446.941406 141.429688 1445.851562 141.671875 1444.757812 141.890625 C 1443.664062 142.109375 1442.5625 142.296875 1441.460938 142.460938 C 1440.355469 142.625 1439.25 142.761719 1438.136719 142.871094 C 1437.027344 142.980469 1435.914062 143.058594 1434.800781 143.113281 C 1433.6875 143.167969 1432.570312 143.195312 1431.457031 143.195312 Z M 1431.457031 15.488281 C 1429.515625 15.492188 1427.578125 15.589844 1425.648438 15.785156 C 1423.714844 15.980469 1421.796875 16.269531 1419.894531 16.652344 C 1417.992188 17.039062 1416.113281 17.515625 1414.257812 18.082031 C 1412.402344 18.652344 1410.578125 19.308594 1408.785156 20.058594 C 1406.992188 20.804688 1405.242188 21.640625 1403.53125 22.5625 C 1401.820312 23.480469 1400.160156 24.484375 1398.550781 25.566406 C 1396.9375 26.652344 1395.382812 27.8125 1393.882812 29.050781 C 1392.386719 30.285156 1390.953125 31.59375 1389.582031 32.972656 C 1388.210938 34.351562 1386.914062 35.792969 1385.683594 37.300781 C 1384.457031 38.804688 1383.304688 40.367188 1382.226562 41.988281 C 1381.152344 43.605469 1380.160156 45.277344 1379.246094 46.992188 C 1378.335938 48.710938 1377.507812 50.46875 1376.769531 52.265625 C 1376.027344 54.066406 1375.378906 55.898438 1374.816406 57.757812 C 1374.257812 59.621094 1373.789062 61.507812 1373.414062 63.417969 C 1373.039062 65.324219 1372.757812 67.246094 1372.570312 69.183594 C 1372.382812 71.121094 1372.289062 73.0625 1372.292969 75.007812 C 1372.296875 76.953125 1372.394531 78.894531 1372.585938 80.828125 C 1372.78125 82.765625 1373.066406 84.6875 1373.449219 86.59375 C 1373.828125 88.503906 1374.304688 90.386719 1374.871094 92.246094 C 1375.433594 94.109375 1376.089844 95.9375 1376.835938 97.734375 C 1377.582031 99.53125 1378.414062 101.285156 1379.328125 103 C 1380.246094 104.714844 1381.246094 106.378906 1382.324219 107.996094 C 1383.40625 109.613281 1384.5625 111.171875 1385.796875 112.675781 C 1387.027344 114.175781 1388.332031 115.617188 1389.707031 116.988281 C 1391.082031 118.363281 1392.519531 119.667969 1394.019531 120.898438 C 1395.523438 122.132812 1397.082031 123.289062 1398.695312 124.367188 C 1400.3125 125.445312 1401.972656 126.445312 1403.6875 127.359375 C 1405.398438 128.277344 1407.152344 129.105469 1408.949219 129.847656 C 1410.742188 130.589844 1412.566406 131.242188 1414.425781 131.804688 C 1416.285156 132.371094 1418.164062 132.839844 1420.070312 133.21875 C 1421.972656 133.597656 1423.890625 133.878906 1425.824219 134.070312 C 1427.753906 134.257812 1429.691406 134.351562 1431.632812 134.351562 C 1433.574219 134.347656 1435.507812 134.253906 1437.441406 134.058594 C 1439.371094 133.867188 1441.289062 133.582031 1443.191406 133.199219 C 1445.097656 132.820312 1446.976562 132.347656 1448.835938 131.78125 C 1450.691406 131.214844 1452.515625 130.558594 1454.308594 129.8125 C 1456.101562 129.066406 1457.855469 128.238281 1459.566406 127.320312 C 1461.277344 126.402344 1462.941406 125.402344 1464.554688 124.320312 C 1466.167969 123.238281 1467.722656 122.078125 1469.222656 120.84375 C 1470.722656 119.609375 1472.160156 118.304688 1473.53125 116.925781 C 1474.902344 115.550781 1476.203125 114.109375 1477.433594 112.605469 C 1478.667969 111.101562 1479.820312 109.542969 1480.898438 107.921875 C 1481.976562 106.304688 1482.972656 104.636719 1483.886719 102.921875 C 1484.800781 101.207031 1485.628906 99.449219 1486.375 97.652344 C 1487.117188 95.855469 1487.769531 94.023438 1488.332031 92.164062 C 1488.894531 90.300781 1489.367188 88.417969 1489.746094 86.507812 C 1490.121094 84.601562 1490.40625 82.675781 1490.597656 80.742188 C 1490.789062 78.804688 1490.882812 76.863281 1490.882812 74.917969 C 1490.878906 72.96875 1490.78125 71.027344 1490.589844 69.089844 C 1490.394531 67.148438 1490.105469 65.226562 1489.726562 63.3125 C 1489.34375 61.402344 1488.871094 59.515625 1488.300781 57.652344 C 1487.734375 55.789062 1487.078125 53.957031 1486.332031 52.160156 C 1485.585938 50.359375 1484.753906 48.601562 1483.835938 46.882812 C 1482.917969 45.167969 1481.917969 43.5 1480.835938 41.878906 C 1479.753906 40.261719 1478.59375 38.699219 1477.359375 37.195312 C 1476.125 35.691406 1474.820312 34.25 1473.441406 32.875 C 1472.066406 31.496094 1470.625 30.191406 1469.121094 28.957031 C 1467.617188 27.722656 1466.058594 26.566406 1464.441406 25.484375 C 1462.824219 24.402344 1461.15625 23.40625 1459.441406 22.488281 C 1457.726562 21.570312 1455.96875 20.742188 1454.171875 19.996094 C 1452.375 19.253906 1450.546875 18.597656 1448.6875 18.035156 C 1446.828125 17.472656 1444.941406 17 1443.035156 16.621094 C 1441.128906 16.242188 1439.207031 15.957031 1437.273438 15.769531 C 1435.339844 15.578125 1433.398438 15.484375 1431.457031 15.488281 Z M 1431.457031 15.488281 " fill-opacity="1" fill-rule="nonzero"/></g><g clip-path="url(#6155de772a)"><path fill="#1d1d1b" d="M 1364.484375 79.339844 L 1159.996094 79.339844 C 1159.707031 79.339844 1159.417969 79.3125 1159.136719 79.257812 C 1158.851562 79.199219 1158.574219 79.117188 1158.308594 79.003906 C 1158.039062 78.894531 1157.785156 78.757812 1157.546875 78.59375 C 1157.304688 78.433594 1157.082031 78.25 1156.875 78.046875 C 1156.671875 77.839844 1156.488281 77.617188 1156.328125 77.375 C 1156.167969 77.132812 1156.03125 76.878906 1155.921875 76.609375 C 1155.808594 76.34375 1155.726562 76.066406 1155.667969 75.78125 C 1155.613281 75.496094 1155.585938 75.210938 1155.585938 74.917969 C 1155.585938 74.628906 1155.613281 74.339844 1155.667969 74.054688 C 1155.726562 73.769531 1155.808594 73.496094 1155.921875 73.226562 C 1156.03125 72.957031 1156.167969 72.703125 1156.328125 72.460938 C 1156.488281 72.222656 1156.671875 71.996094 1156.875 71.792969 C 1157.082031 71.585938 1157.304688 71.402344 1157.546875 71.242188 C 1157.785156 71.082031 1158.039062 70.945312 1158.308594 70.832031 C 1158.574219 70.722656 1158.851562 70.636719 1159.136719 70.582031 C 1159.417969 70.523438 1159.707031 70.496094 1159.996094 70.496094 L 1364.484375 70.496094 C 1364.773438 70.496094 1365.0625 70.523438 1365.34375 70.582031 C 1365.628906 70.636719 1365.90625 70.722656 1366.171875 70.832031 C 1366.441406 70.945312 1366.695312 71.082031 1366.933594 71.242188 C 1367.175781 71.402344 1367.398438 71.585938 1367.605469 71.792969 C 1367.808594 71.996094 1367.992188 72.222656 1368.152344 72.460938 C 1368.3125 72.703125 1368.449219 72.957031 1368.558594 73.226562 C 1368.671875 73.496094 1368.753906 73.769531 1368.8125 74.054688 C 1368.867188 74.339844 1368.894531 74.628906 1368.894531 74.917969 C 1368.894531 75.210938 1368.867188 75.496094 1368.8125 75.78125 C 1368.753906 76.066406 1368.671875 76.34375 1368.558594 76.609375 C 1368.449219 76.878906 1368.3125 77.132812 1368.152344 77.375 C 1367.992188 77.617188 1367.808594 77.839844 1367.605469 78.046875 C 1367.398438 78.25 1367.175781 78.433594 1366.933594 78.59375 C 1366.695312 78.757812 1366.441406 78.894531 1366.171875 79.003906 C 1365.90625 79.117188 1365.628906 79.199219 1365.34375 79.257812 C 1365.0625 79.3125 1364.773438 79.339844 1364.484375 79.339844 Z M 1364.484375 79.339844 " fill-opacity="1" fill-rule="nonzero"/></g></svg>