<svg xmlns="http://www.w3.org/2000/svg" xmlns:xlink="http://www.w3.org/1999/xlink" width="1200" zoomAndPan="magnify" viewBox="0 0 900 899.99999" height="1200" preserveAspectRatio="xMidYMid meet" version="1.0"><path fill="#100f0d" d="M 447.144531 782.074219 C 444.605469 784.613281 441.234375 786.007812 437.648438 786.007812 C 434.0625 786.007812 430.6875 784.613281 428.148438 782.074219 L 424.640625 778.566406 L 440.128906 763.082031 C 441.320312 761.894531 442.402344 760.636719 443.394531 759.335938 L 447.144531 763.082031 C 452.378906 768.316406 452.378906 776.839844 447.144531 782.074219 Z M 399.234375 770.097656 C 396.695312 772.636719 393.320312 774.035156 389.738281 774.035156 C 386.152344 774.035156 382.777344 772.636719 380.238281 770.097656 C 375.003906 764.867188 375.003906 756.339844 380.238281 751.105469 L 404.195312 727.15625 C 406.734375 724.621094 410.105469 723.222656 413.691406 723.222656 C 417.277344 723.222656 420.652344 724.621094 423.191406 727.15625 C 428.425781 732.390625 428.425781 740.914062 423.191406 746.148438 Z M 351.324219 746.148438 C 348.785156 748.6875 345.410156 750.082031 341.828125 750.082031 C 338.242188 750.082031 334.867188 748.6875 332.328125 746.148438 C 327.09375 740.914062 327.09375 732.390625 332.328125 727.15625 L 368.261719 691.230469 C 370.800781 688.695312 374.175781 687.296875 377.757812 687.296875 C 381.34375 687.296875 384.71875 688.695312 387.257812 691.230469 C 392.492188 696.464844 392.492188 704.992188 387.257812 710.222656 Z M 305.894531 714.160156 C 302.308594 714.160156 298.933594 712.761719 296.394531 710.222656 C 291.160156 704.992188 291.160156 696.464844 296.394531 691.230469 L 332.328125 655.304688 C 334.867188 652.769531 338.242188 651.371094 341.828125 651.371094 C 345.410156 651.371094 348.785156 652.769531 351.324219 655.304688 C 356.558594 660.539062 356.558594 669.066406 351.324219 674.296875 L 315.390625 710.222656 C 312.855469 712.761719 309.480469 714.160156 305.894531 714.160156 Z M 269.960938 678.234375 C 266.375 678.234375 263 676.835938 260.464844 674.296875 C 255.230469 669.066406 255.230469 660.539062 260.464844 655.304688 L 284.417969 631.355469 C 286.957031 628.820312 290.332031 627.421875 293.917969 627.421875 C 297.5 627.421875 300.875 628.820312 303.414062 631.355469 C 308.648438 636.589844 308.648438 645.113281 303.414062 650.347656 L 279.460938 674.296875 C 276.921875 676.835938 273.546875 678.234375 269.960938 678.234375 Z M 393.625 473.203125 C 389.753906 473.203125 385.929688 473.820312 382.261719 475.042969 L 281.84375 508.511719 C 280.621094 508.917969 279.347656 509.121094 278.0625 509.121094 C 278.054688 509.121094 278.054688 509.121094 278.050781 509.121094 L 186.117188 509.050781 L 186.117188 125.925781 C 186.117188 119.324219 191.492188 113.949219 198.09375 113.949219 L 701.15625 113.949219 C 707.757812 113.949219 713.132812 119.324219 713.132812 125.925781 L 713.132812 509.125 L 657.460938 509.125 C 656.0625 509.125 654.6875 508.886719 653.371094 508.40625 L 572.5 479.003906 C 559.839844 474.40625 546.558594 472.539062 533.46875 473.25 L 533.46875 473.203125 Z M 413.808594 578.503906 L 490.808594 514.355469 C 511.199219 497.363281 539.363281 492.4375 564.3125 501.515625 L 645.183594 530.914062 C 649.132812 532.351562 653.265625 533.078125 657.460938 533.078125 L 808.953125 533.078125 L 808.953125 509.125 L 737.085938 509.125 L 737.085938 125.925781 C 737.085938 106.113281 720.96875 90 701.15625 90 L 198.09375 90 C 178.28125 90 162.164062 106.113281 162.164062 125.925781 L 162.164062 509.035156 L 90.308594 508.980469 L 90.285156 532.929688 L 278.03125 533.070312 C 278.042969 533.070312 278.050781 533.070312 278.0625 533.070312 C 281.933594 533.070312 285.757812 532.453125 289.417969 531.230469 L 389.835938 497.765625 C 391.066406 497.355469 392.332031 497.152344 393.625 497.152344 L 474.035156 497.152344 L 398.472656 560.109375 C 388.632812 568.304688 382.65625 580.351562 382.070312 593.144531 C 381.492188 605.945312 386.351562 618.480469 395.410156 627.539062 C 404.351562 636.472656 416.015625 641.003906 427.722656 641.003906 C 438.058594 641.003906 448.433594 637.472656 457.003906 630.332031 L 496.796875 597.179688 L 602.855469 703.207031 C 608.089844 708.441406 608.089844 716.964844 602.855469 722.199219 C 600.316406 724.734375 596.941406 726.132812 593.355469 726.132812 C 589.769531 726.132812 586.394531 724.734375 583.859375 722.199219 L 494.027344 632.386719 L 477.089844 649.320312 L 554.945312 727.15625 C 560.179688 732.390625 560.179688 740.914062 554.945312 746.148438 C 552.40625 748.6875 549.03125 750.082031 545.445312 750.082031 C 541.859375 750.082031 538.484375 748.6875 535.949219 746.148438 L 470.070312 680.285156 L 453.132812 697.21875 L 507.03125 751.105469 C 512.265625 756.339844 512.265625 764.867188 507.03125 770.097656 C 504.496094 772.636719 501.121094 774.035156 497.535156 774.035156 C 493.949219 774.035156 490.574219 772.636719 488.039062 770.097656 L 464.082031 746.148438 L 450.875 732.941406 C 450.050781 724.644531 446.472656 716.566406 440.128906 710.222656 C 433.402344 703.492188 424.554688 699.65625 415.097656 699.308594 C 414.75 690.214844 411.125 681.226562 404.195312 674.296875 C 397.46875 667.566406 388.621094 663.734375 379.164062 663.382812 C 378.816406 654.289062 375.191406 645.300781 368.261719 638.375 C 361.203125 631.316406 351.816406 627.421875 341.828125 627.421875 C 337.570312 627.421875 333.421875 628.132812 329.515625 629.492188 C 327.765625 623.976562 324.71875 618.789062 320.351562 614.421875 C 313.292969 607.367188 303.90625 603.472656 293.917969 603.472656 C 283.925781 603.472656 274.539062 607.367188 267.480469 614.421875 L 243.527344 638.375 C 236.238281 645.660156 232.59375 655.226562 232.589844 664.789062 L 90.308594 664.65625 L 90.285156 688.605469 L 162.164062 688.675781 L 162.164062 772.578125 C 162.164062 792.386719 178.28125 808.503906 198.09375 808.503906 L 317.871094 808.503906 L 317.871094 784.554688 L 198.09375 784.554688 C 191.492188 784.554688 186.117188 779.179688 186.117188 772.578125 L 186.117188 688.695312 L 241.261719 688.746094 C 241.976562 689.601562 242.726562 690.429688 243.527344 691.230469 C 250.25 697.960938 259.101562 701.796875 268.558594 702.148438 C 268.902344 711.242188 272.527344 720.226562 279.460938 727.15625 C 286.183594 733.886719 295.035156 737.722656 304.492188 738.074219 C 304.835938 747.167969 308.460938 756.152344 315.390625 763.082031 C 322.449219 770.140625 331.835938 774.035156 341.828125 774.035156 C 346.085938 774.035156 350.230469 773.320312 354.136719 771.964844 C 355.886719 777.476562 358.933594 782.664062 363.300781 787.03125 C 370.359375 794.089844 379.746094 797.984375 389.738281 797.984375 C 395.585938 797.984375 401.222656 796.640625 406.316406 794.113281 L 411.210938 799.007812 C 418.273438 806.066406 427.660156 809.960938 437.648438 809.960938 C 447.636719 809.960938 457.023438 806.066406 464.082031 799.007812 C 467.433594 795.65625 470.007812 791.816406 471.820312 787.714844 C 478.792969 794.335938 487.886719 797.984375 497.535156 797.984375 C 507.523438 797.984375 516.910156 794.089844 523.96875 787.03125 C 528.339844 782.664062 531.386719 777.476562 533.132812 771.964844 C 537.042969 773.320312 541.1875 774.035156 545.445312 774.035156 C 555.433594 774.035156 564.820312 770.140625 571.878906 763.082031 C 576.25 758.714844 579.296875 753.527344 581.046875 748.015625 C 584.953125 749.371094 589.097656 750.082031 593.355469 750.082031 C 603.34375 750.082031 612.730469 746.191406 619.789062 739.132812 C 630.167969 728.765625 633.148438 713.765625 628.757812 700.726562 L 650.640625 700.726562 C 662.566406 700.726562 674.097656 697.21875 684 690.578125 L 701.769531 678.660156 C 703.75 677.332031 706.0625 676.632812 708.441406 676.632812 L 713.132812 676.632812 L 713.132812 772.578125 C 713.132812 779.179688 707.757812 784.554688 701.15625 784.554688 L 581.378906 784.554688 L 581.378906 808.503906 L 701.15625 808.503906 C 720.96875 808.503906 737.085938 792.386719 737.085938 772.578125 L 737.085938 676.632812 L 808.953125 676.632812 L 808.953125 652.679688 L 708.441406 652.679688 C 701.292969 652.679688 694.371094 654.785156 688.429688 658.769531 L 670.65625 670.691406 C 664.71875 674.671875 657.792969 676.777344 650.640625 676.777344 L 610.292969 676.777344 L 548.609375 615.105469 C 568.703125 615.667969 589.035156 609.347656 605.835938 595.910156 L 612.8125 590.328125 L 597.851562 571.628906 L 590.871094 577.207031 C 565.480469 597.519531 529 595.496094 506.003906 572.511719 L 498.273438 564.773438 L 441.671875 611.933594 C 432.960938 619.183594 420.367188 618.609375 412.351562 610.605469 C 407.976562 606.226562 405.722656 600.414062 406 594.234375 C 406.28125 588.050781 409.054688 582.46875 413.808594 578.503906 " fill-opacity="1" fill-rule="nonzero"/><path fill="#100f0d" d="M 222.050781 401.351562 L 365.78125 401.351562 L 365.78125 377.402344 L 222.050781 377.402344 L 222.050781 401.351562 " fill-opacity="1" fill-rule="nonzero"/><path fill="#100f0d" d="M 257.984375 449.25 L 317.871094 449.25 L 317.871094 425.300781 L 257.984375 425.300781 L 257.984375 449.25 " fill-opacity="1" fill-rule="nonzero"/><path fill="#100f0d" d="M 533.46875 401.351562 L 677.199219 401.351562 L 677.199219 377.402344 L 533.46875 377.402344 L 533.46875 401.351562 " fill-opacity="1" fill-rule="nonzero"/><path fill="#100f0d" d="M 569.402344 449.25 L 629.289062 449.25 L 629.289062 425.300781 L 569.402344 425.300781 L 569.402344 449.25 " fill-opacity="1" fill-rule="nonzero"/><path fill="#100f0d" d="M 533.46875 149.875 L 365.78125 149.875 L 365.78125 173.824219 L 533.46875 173.824219 L 533.46875 149.875 " fill-opacity="1" fill-rule="nonzero"/><path fill="#100f0d" d="M 677.199219 209.75 L 222.050781 209.75 L 222.050781 233.699219 L 677.199219 233.699219 L 677.199219 209.75 " fill-opacity="1" fill-rule="nonzero"/><path fill="#100f0d" d="M 677.199219 257.652344 L 222.050781 257.652344 L 222.050781 281.601562 L 677.199219 281.601562 L 677.199219 257.652344 " fill-opacity="1" fill-rule="nonzero"/><path fill="#100f0d" d="M 222.050781 329.5 L 473.582031 329.5 L 473.582031 305.550781 L 222.050781 305.550781 L 222.050781 329.5 " fill-opacity="1" fill-rule="nonzero"/></svg>