<svg xmlns="http://www.w3.org/2000/svg" xmlns:xlink="http://www.w3.org/1999/xlink" width="1200" zoomAndPan="magnify" viewBox="0 0 900 899.99999" height="1200" preserveAspectRatio="xMidYMid meet" version="1.0"><path fill="#040606" d="M 786.039062 521.878906 L 769.988281 521.878906 C 754.917969 457.957031 699.558594 431.09375 646.210938 426.742188 C 684.398438 407.789062 698.902344 368.574219 701.664062 340.308594 C 715.890625 335.488281 726.140625 322.058594 726.140625 306.238281 L 726.140625 258.320312 C 726.140625 192.242188 672.417969 138.519531 606.339844 138.519531 L 582.378906 138.519531 C 516.300781 138.519531 462.578125 192.242188 462.578125 258.320312 L 462.578125 265.339844 L 438.617188 241.378906 L 438.617188 210.398438 C 438.617188 190.558594 422.519531 174.460938 402.679688 174.460938 L 282.878906 174.460938 C 263.035156 174.460938 246.9375 190.558594 246.9375 210.398438 L 246.9375 306.800781 C 234.492188 307.972656 222.417969 310.871094 211 315.410156 L 211 138.519531 C 211 125.324219 221.761719 114.558594 234.957031 114.558594 L 762.078125 114.558594 C 775.277344 114.558594 786.039062 125.324219 786.039062 138.519531 Z M 786.039062 569.800781 C 786.039062 582.996094 775.277344 593.761719 762.078125 593.761719 L 425.1875 593.761719 C 424.019531 589.59375 422.144531 585.570312 419.433594 582.0625 C 412.785156 573.355469 405.535156 561.375 399.871094 545.839844 L 786.039062 545.839844 Z M 448.070312 653.660156 C 454.90625 644.816406 460.050781 633.070312 461.832031 617.71875 L 535.207031 617.71875 C 536.984375 633.070312 542.132812 644.816406 548.964844 653.660156 Z M 594.359375 677.621094 C 607.554688 677.621094 618.320312 688.382812 618.320312 701.582031 L 423.128906 701.582031 C 421.304688 693.0625 418.730469 685.109375 415.59375 677.621094 Z M 402.679688 773.460938 C 402.679688 780.058594 397.296875 785.441406 390.699219 785.441406 L 127.136719 785.441406 C 120.539062 785.441406 115.15625 780.058594 115.15625 773.460938 L 115.15625 737.519531 C 115.15625 697.976562 127.324219 669.664062 152.035156 650.898438 C 178.941406 658.855469 215.351562 665.640625 258.917969 665.640625 C 302.488281 665.640625 338.894531 658.855469 365.804688 650.898438 C 390.511719 669.664062 402.679688 697.976562 402.679688 737.519531 Z M 402.023438 653.707031 C 398.839844 649.496094 395.425781 645.519531 391.679688 641.773438 C 399.964844 638.3125 406.375 635.035156 410.726562 632.273438 C 416.296875 628.765625 420.554688 623.617188 423.316406 617.71875 L 437.636719 617.71875 C 432.300781 650.664062 405.394531 653.472656 402.023438 653.660156 Z M 487.054688 340.308594 C 489.816406 368.574219 504.320312 407.789062 542.507812 426.742188 C 489.160156 431.09375 433.800781 457.957031 418.730469 521.878906 L 393.320312 521.878906 C 391.214844 511.117188 389.855469 499.230469 389.855469 485.941406 L 389.855469 438.019531 C 389.855469 411.484375 381.996094 386.824219 368.5625 366.140625 L 402.679688 366.140625 C 422.519531 366.140625 438.617188 350.042969 438.617188 330.199219 L 438.617188 318.21875 L 464.683594 318.21875 C 468.382812 328.5625 476.617188 336.75 487.054688 340.308594 Z M 555.003906 521.878906 L 443.34375 521.878906 C 454.53125 483.367188 483.636719 465.441406 510.6875 457.113281 L 536.800781 509.292969 C 539.839844 515.328125 545.316406 519.679688 551.914062 521.273438 C 552.898438 521.503906 553.925781 521.503906 554.957031 521.597656 Z M 534.785156 451.730469 C 541.527344 450.796875 547.609375 450.328125 552.523438 450.140625 L 577.417969 483.320312 L 557.671875 497.40625 Z M 611.300781 512.753906 L 608.960938 521.878906 L 579.757812 521.878906 L 577.417969 512.753906 L 594.359375 500.632812 Z M 594.359375 465.957031 L 571.945312 436.101562 C 578.917969 437.222656 586.308594 438.019531 594.359375 438.019531 C 602.410156 438.019531 609.800781 437.222656 616.773438 436.101562 Z M 678.03125 457.113281 C 705.035156 465.441406 734.1875 483.367188 745.375 521.878906 L 633.667969 521.878906 L 633.761719 521.644531 C 634.746094 521.550781 635.773438 521.503906 636.804688 521.273438 C 643.402344 519.679688 648.878906 515.328125 651.871094 509.292969 Z M 631.046875 497.40625 L 611.300781 483.320312 L 636.195312 450.140625 C 641.109375 450.328125 647.191406 450.796875 653.933594 451.730469 Z M 486.539062 272.453125 L 486.539062 258.320312 C 486.539062 205.484375 529.546875 162.480469 582.378906 162.480469 L 606.339844 162.480469 C 659.171875 162.480469 702.179688 205.484375 702.179688 258.320312 L 702.179688 272.453125 C 701.804688 272.265625 701.429688 272.078125 701.007812 271.984375 C 696.515625 252.375 679.4375 237.308594 658.519531 236.042969 C 642.1875 235.015625 619.253906 230.335938 602.828125 213.910156 C 598.148438 209.230469 590.570312 209.230469 585.890625 213.910156 C 569.464844 230.335938 546.53125 235.015625 530.199219 236.042969 C 509.28125 237.308594 492.203125 252.375 487.710938 271.984375 C 487.289062 272.078125 486.914062 272.265625 486.539062 272.453125 Z M 498.519531 294.257812 C 505.117188 294.257812 510.5 288.878906 510.5 282.28125 C 510.5 270.488281 519.8125 260.660156 531.652344 259.957031 C 556.5 258.414062 577.933594 250.972656 594.359375 238.289062 C 610.785156 250.972656 632.21875 258.414062 657.019531 259.957031 C 668.90625 260.660156 678.21875 270.488281 678.21875 282.28125 C 678.21875 288.878906 683.601562 294.257812 690.199219 294.257812 C 696.796875 294.257812 702.179688 299.640625 702.179688 306.238281 C 702.179688 312.839844 696.796875 318.21875 690.199219 318.21875 C 683.601562 318.21875 678.265625 323.601562 678.21875 330.152344 C 678.171875 333.570312 676.816406 414.058594 594.359375 414.058594 C 511.902344 414.058594 510.546875 333.570312 510.5 330.152344 C 510.453125 323.554688 505.117188 318.21875 498.519531 318.21875 C 491.921875 318.21875 486.539062 312.839844 486.539062 306.238281 C 486.539062 299.640625 491.921875 294.257812 498.519531 294.257812 Z M 418.167969 254.808594 L 457.617188 294.257812 L 426.640625 294.257812 C 420.039062 294.257812 414.660156 299.640625 414.660156 306.238281 L 414.660156 330.199219 C 414.660156 336.796875 409.277344 342.179688 402.679688 342.179688 L 348.535156 342.179688 C 327.804688 322.570312 300.800781 309.609375 270.898438 306.847656 L 270.898438 210.398438 C 270.898438 203.800781 276.28125 198.417969 282.878906 198.417969 L 402.679688 198.417969 C 409.277344 198.417969 414.660156 203.800781 414.660156 210.398438 L 414.660156 246.339844 C 414.660156 249.523438 415.921875 252.5625 418.167969 254.808594 Z M 119.929688 612.011719 C 117.496094 610.46875 115.8125 608.035156 115.296875 605.179688 C 114.785156 602.136719 115.53125 599.09375 117.449219 596.566406 C 133.175781 575.976562 151.941406 540.085938 151.941406 485.941406 L 151.941406 438.019531 C 151.941406 409.238281 163.078125 382.144531 183.292969 361.789062 C 203.511719 341.382812 230.371094 330.199219 258.917969 330.199219 C 317.929688 330.199219 365.894531 378.539062 365.894531 438.019531 L 365.894531 485.941406 C 365.894531 540.085938 384.660156 575.976562 400.386719 596.613281 C 402.304688 599.09375 403.054688 602.136719 402.492188 605.179688 C 402.023438 608.035156 400.339844 610.46875 397.90625 612.011719 C 384.847656 620.292969 334.402344 641.679688 258.917969 641.679688 C 183.433594 641.679688 132.988281 620.292969 119.929688 612.011719 Z M 762.078125 90.597656 L 234.957031 90.597656 C 208.519531 90.597656 187.039062 112.078125 187.039062 138.519531 L 187.039062 327.859375 C 179.644531 332.773438 172.671875 338.4375 166.308594 344.847656 C 141.597656 369.789062 127.980469 402.875 127.980469 438.019531 L 127.980469 485.941406 C 127.980469 533.390625 111.882812 564.371094 98.453125 582.015625 C 92.460938 589.78125 90.027344 599.75 91.757812 609.34375 C 93.445312 618.796875 99.011719 627.171875 107.109375 632.273438 C 111.414062 635.035156 117.917969 638.3125 126.15625 641.773438 C 103.085938 664.796875 91.199219 696.808594 91.199219 737.519531 L 91.199219 773.460938 C 91.199219 793.304688 107.296875 809.402344 127.136719 809.402344 L 390.699219 809.402344 C 410.539062 809.402344 426.640625 793.304688 426.640625 773.460938 L 426.640625 737.519531 C 426.640625 733.402344 426.3125 729.519531 426.125 725.539062 L 618.320312 725.539062 C 631.515625 725.539062 642.28125 714.777344 642.28125 701.582031 C 642.28125 675.328125 621.082031 654.035156 594.875 653.707031 L 594.875 653.660156 C 593.5625 653.613281 564.972656 651.789062 559.449219 617.71875 L 762.078125 617.71875 C 788.519531 617.71875 810 596.242188 810 569.800781 L 810 138.519531 C 810 112.078125 788.519531 90.597656 762.078125 90.597656 " fill-opacity="1" fill-rule="nonzero"/><path fill="#040606" d="M 378.71875 234.359375 L 306.839844 234.359375 C 300.238281 234.359375 294.859375 239.742188 294.859375 246.339844 C 294.859375 252.9375 300.238281 258.320312 306.839844 258.320312 L 378.71875 258.320312 C 385.316406 258.320312 390.699219 252.9375 390.699219 246.339844 C 390.699219 239.742188 385.316406 234.359375 378.71875 234.359375 " fill-opacity="1" fill-rule="nonzero"/><path fill="#040606" d="M 378.71875 282.28125 L 342.777344 282.28125 C 336.179688 282.28125 330.796875 287.660156 330.796875 294.257812 C 330.796875 300.859375 336.179688 306.238281 342.777344 306.238281 L 378.71875 306.238281 C 385.316406 306.238281 390.699219 300.859375 390.699219 294.257812 C 390.699219 287.660156 385.316406 282.28125 378.71875 282.28125 " fill-opacity="1" fill-rule="nonzero"/></svg>