<svg xmlns="http://www.w3.org/2000/svg" xmlns:xlink="http://www.w3.org/1999/xlink" width="1200" zoomAndPan="magnify" viewBox="0 0 900 899.99999" height="1200" preserveAspectRatio="xMidYMid meet" version="1.0"><path fill="#100f0d" d="M 786 786 L 762 786 L 762 498 L 786 498 Z M 714 786 C 700.78125 786 690 775.21875 690 762 C 690 755.390625 684.609375 750 678 750 L 558 750 C 551.390625 750 546 755.390625 546 762 C 546 775.21875 535.21875 786 522 786 C 508.78125 786 498 775.21875 498 762 C 498 748.78125 508.78125 738 522 738 C 522.65625 738 523.3125 737.953125 523.96875 737.859375 L 595.96875 725.859375 C 601.78125 724.875 606 719.859375 606 714 L 606 618 L 630 618 L 630 714 C 630 719.859375 634.21875 724.875 640.03125 725.859375 L 712.03125 737.859375 C 712.6875 737.953125 713.34375 738 714 738 C 727.21875 738 738 748.78125 738 762 C 738 775.21875 727.21875 786 714 786 Z M 426 576 C 426 566.0625 434.0625 558 444 558 L 510 558 C 516.609375 558 522 552.609375 522 546 L 522 342 C 522 322.125 538.125 306 558 306 L 702 306 C 721.875 306 738 322.125 738 342 L 738 558 C 738 577.875 721.875 594 702 594 L 444 594 C 434.0625 594 426 585.9375 426 576 Z M 150 474 L 114 474 L 114 450 L 498 450 L 498 474 Z M 138 786 L 114 786 L 114 498 L 138 498 Z M 254.625 378 L 309.375 378 L 325.359375 426 L 238.640625 426 Z M 114 342 L 114 330 L 450 330 L 450 342 C 450 348.609375 444.609375 354 438 354 L 126 354 C 119.390625 354 114 348.609375 114 342 Z M 126 114 L 438 114 C 444.609375 114 450 119.390625 450 126 L 450 306 L 114 306 L 114 126 C 114 119.390625 119.390625 114 126 114 Z M 654 618 L 702 618 C 715.546875 618 727.921875 613.3125 738 605.671875 L 738 720.703125 C 731.203125 716.71875 723.421875 714.1875 715.078125 714 L 654 703.828125 Z M 786 450 L 786 474 L 762 474 L 762 450 Z M 798 426 L 762 426 L 762 342 C 762 308.90625 735.09375 282 702 282 L 558 282 C 524.90625 282 498 308.90625 498 342 L 498 426 L 350.625 426 L 334.640625 378 L 438 378 C 457.875 378 474 361.875 474 342 L 474 126 C 474 106.125 457.875 90 438 90 L 126 90 C 106.125 90 90 106.125 90 126 L 90 342 C 90 361.875 106.125 378 126 378 L 229.359375 378 L 213.375 426 L 102 426 C 95.390625 426 90 431.390625 90 438 L 90 798 C 90 804.609375 95.390625 810 102 810 L 150 810 C 156.609375 810 162 804.609375 162 798 L 162 498 L 498 498 L 498 534 L 444 534 C 420.84375 534 402 552.84375 402 576 C 402 599.15625 420.84375 618 444 618 L 582 618 L 582 703.828125 L 520.921875 714 C 494.953125 714.5625 474 735.890625 474 762 C 474 788.484375 495.515625 810 522 810 C 544.3125 810 563.15625 794.671875 568.453125 774 L 667.546875 774 C 672.84375 794.671875 691.6875 810 714 810 C 723.1875 810 731.71875 807.28125 739.03125 802.78125 C 740.859375 807 745.078125 810 750 810 L 798 810 C 804.609375 810 810 804.609375 810 798 L 810 438 C 810 431.390625 804.609375 426 798 426 " fill-opacity="1" fill-rule="nonzero"/><path fill="#100f0d" d="M 329.109375 642 L 318.84375 786 L 221.15625 786 L 210.890625 642 Z M 210 810 L 330 810 C 336.28125 810 341.53125 805.125 341.953125 798.84375 L 353.953125 630.84375 C 354.234375 627.515625 353.0625 624.28125 350.765625 621.84375 C 348.515625 619.359375 345.328125 618 342 618 L 198 618 C 194.671875 618 191.484375 619.359375 189.234375 621.84375 C 186.9375 624.28125 185.765625 627.515625 186.046875 630.84375 L 198.046875 798.84375 C 198.46875 805.125 203.71875 810 210 810 " fill-opacity="1" fill-rule="nonzero"/></svg>