<svg xmlns="http://www.w3.org/2000/svg" xmlns:xlink="http://www.w3.org/1999/xlink" width="1200" zoomAndPan="magnify" viewBox="0 0 900 899.99999" height="1200" preserveAspectRatio="xMidYMid meet" version="1.0"><path fill="#000000" d="M 776.863281 90 L 338.804688 90 C 321.519531 90 307.457031 104.058594 307.457031 121.339844 L 307.457031 177.097656 C 248.960938 188.25 208.496094 223.75 192.976562 277.933594 C 191.671875 282.480469 193.175781 287.363281 196.808594 290.386719 C 200.449219 293.40625 205.527344 293.976562 209.753906 291.886719 C 210.242188 291.648438 255.222656 269.566406 307.457031 272.269531 L 307.457031 554.621094 C 307.683594 570.195312 331.035156 570.367188 331.296875 554.621094 C 331.296875 554.621094 331.296875 261.324219 331.296875 261.324219 C 331.296875 255.28125 326.769531 250.195312 320.773438 249.484375 C 283.148438 245.054688 248.226562 252.855469 225.539062 260.1875 C 247.65625 218.082031 288.339844 203.523438 321.007812 199.03125 C 326.898438 198.214844 331.296875 193.175781 331.296875 187.222656 L 331.296875 121.339844 C 331.296875 117.207031 334.660156 113.839844 338.804688 113.839844 L 776.863281 113.839844 C 781.007812 113.839844 784.371094 117.207031 784.371094 121.339844 L 784.371094 651.953125 C 784.371094 657.402344 779.9375 661.835938 774.476562 661.835938 L 412.820312 661.835938 C 397.917969 647.1875 383.367188 631.902344 370.355469 615.609375 C 359.714844 602.570312 339.214844 600.558594 323.730469 611.058594 C 322.507812 611.886719 315.171875 616.84375 313.953125 617.390625 C 308.886719 619.964844 302.824219 619.324219 300.4375 615.875 C 274.710938 578.625 253.628906 537.882812 237.84375 494.878906 C 236.386719 490.792969 239.507812 484.460938 246.28125 481.921875 L 255.152344 478.605469 C 272.777344 472.15625 283.035156 454.28125 278.503906 437.878906 C 270.832031 410.488281 265.386719 382.429688 262.3125 354.464844 C 260.527344 336.417969 241.824219 325.289062 224.28125 328.929688 C 190.882812 334.882812 157.484375 340.964844 124.027344 347.054688 C 105.179688 350.605469 91.328125 367.53125 93.144531 384.800781 C 110.035156 544.609375 185.761719 691.148438 306.339844 797.398438 C 320.253906 809.496094 341.878906 807.007812 355 794.03125 C 355 794.03125 427.835938 723.046875 427.835938 723.046875 C 438.039062 713.207031 441.820312 698.054688 435.511719 685.675781 L 774.476562 685.675781 C 793.078125 685.675781 808.210938 670.542969 808.210938 651.953125 L 808.210938 121.339844 C 808.210938 104.058594 794.148438 90 776.863281 90 Z M 411.214844 705.957031 C 411.203125 705.96875 338.316406 777 338.304688 777.011719 C 333.230469 782.042969 325.453125 782.460938 322.125 779.539062 C 206.015625 677.214844 133.117188 536.136719 116.84375 382.304688 C 116.378906 377.84375 121.234375 371.835938 128.359375 370.5 C 161.722656 364.421875 195.097656 358.351562 228.554688 352.378906 C 232.476562 351.59375 238.042969 352.667969 238.609375 357.09375 C 241.835938 386.324219 247.527344 415.667969 255.535156 444.261719 C 256.585938 448.050781 253.3125 453.890625 246.886719 456.253906 L 237.9375 459.59375 C 219.484375 466.507812 209.355469 485.914062 215.421875 502.980469 C 231.941406 547.984375 253.953125 590.523438 280.832031 629.425781 C 290.042969 642.769531 308.933594 646.761719 324.230469 638.890625 C 326.1875 638.019531 327.992188 636.96875 329.085938 636.144531 L 337.023438 630.847656 C 342.71875 627.015625 349.398438 627.65625 351.820312 630.613281 C 366.417969 648.714844 382.507812 666.144531 399.539062 682.3125 C 399.542969 682.316406 399.546875 682.320312 399.554688 682.328125 C 399.582031 682.351562 399.605469 682.378906 399.632812 682.40625 C 399.636719 682.414062 399.648438 682.414062 399.65625 682.421875 C 405.042969 689.46875 421.789062 695.957031 411.214844 705.957031 Z M 411.214844 705.957031 " fill-opacity="1" fill-rule="nonzero"/><path fill="#000000" d="M 450.527344 298.777344 C 488.40625 298.777344 519.21875 267.980469 519.21875 230.128906 C 515.996094 139.265625 385.039062 139.289062 381.832031 230.132812 C 381.832031 267.980469 412.644531 298.777344 450.527344 298.777344 Z M 450.527344 185.316406 C 509.800781 187.199219 509.792969 273.066406 450.523438 274.9375 C 391.246094 273.058594 391.265625 187.1875 450.527344 185.316406 Z M 450.527344 185.316406 " fill-opacity="1" fill-rule="nonzero"/><path fill="#000000" d="M 381.832031 447.40625 C 381.832031 453.988281 387.164062 459.328125 393.753906 459.328125 L 507.300781 459.328125 C 513.890625 459.328125 519.21875 453.988281 519.21875 447.40625 L 519.21875 400.316406 C 520.105469 363.695312 487.257812 330.769531 450.527344 331.671875 C 412.644531 331.671875 381.832031 362.464844 381.832031 400.316406 C 381.832031 400.316406 381.832031 447.40625 381.832031 447.40625 Z M 405.671875 400.316406 C 407.589844 341.023438 493.582031 341.183594 495.378906 400.320312 C 495.378906 400.316406 495.378906 435.484375 495.378906 435.484375 L 405.671875 435.484375 Z M 405.671875 400.316406 " fill-opacity="1" fill-rule="nonzero"/><path fill="#000000" d="M 390.910156 518.894531 L 545.914062 518.894531 C 561.535156 518.648438 561.621094 495.316406 545.914062 495.054688 C 545.914062 495.054688 390.910156 495.054688 390.910156 495.054688 C 375.289062 495.296875 375.203125 518.632812 390.910156 518.894531 Z M 390.910156 518.894531 " fill-opacity="1" fill-rule="nonzero"/><path fill="#000000" d="M 390.910156 578.460938 L 498.21875 578.460938 C 513.859375 578.214844 513.914062 554.882812 498.21875 554.621094 C 498.21875 554.621094 390.910156 554.621094 390.910156 554.621094 C 375.273438 554.871094 375.21875 578.203125 390.910156 578.460938 Z M 390.910156 578.460938 " fill-opacity="1" fill-rule="nonzero"/><path fill="#000000" d="M 632.863281 324.789062 C 637.519531 329.4375 645.0625 329.4375 649.71875 324.789062 C 649.71875 324.789062 733.183594 241.398438 733.183594 241.398438 C 744.140625 230.359375 727.417969 213.546875 716.328125 224.53125 C 716.328125 224.53125 641.289062 299.503906 641.289062 299.503906 L 613.957031 272.183594 C 602.882812 261.226562 586.121094 277.980469 597.101562 289.050781 C 597.101562 289.050781 632.863281 324.789062 632.863281 324.789062 Z M 632.863281 324.789062 " fill-opacity="1" fill-rule="nonzero"/><path fill="#000000" d="M 597.101562 420.097656 L 632.863281 455.839844 C 635.191406 458.164062 638.238281 459.328125 641.289062 459.328125 C 644.339844 459.328125 647.390625 458.164062 649.71875 455.839844 L 733.183594 372.441406 C 744.132812 361.410156 727.429688 344.589844 716.328125 355.574219 C 716.328125 355.574219 641.289062 430.554688 641.289062 430.554688 L 613.957031 403.226562 C 602.882812 392.265625 586.125 409.027344 597.101562 420.097656 Z M 597.101562 420.097656 " fill-opacity="1" fill-rule="nonzero"/><path fill="#000000" d="M 597.101562 551.140625 L 632.863281 586.878906 C 635.191406 589.207031 638.238281 590.371094 641.289062 590.371094 C 644.339844 590.371094 647.390625 589.207031 649.71875 586.878906 L 733.183594 503.480469 C 744.136719 492.457031 727.421875 475.621094 716.328125 486.625 C 716.328125 486.625 641.289062 561.59375 641.289062 561.59375 L 613.957031 534.285156 C 602.886719 523.304688 586.121094 540.085938 597.101562 551.140625 Z M 597.101562 551.140625 " fill-opacity="1" fill-rule="nonzero"/></svg>