<svg xmlns="http://www.w3.org/2000/svg" xmlns:xlink="http://www.w3.org/1999/xlink" width="1200" zoomAndPan="magnify" viewBox="0 0 900 899.99999" height="1200" preserveAspectRatio="xMidYMid meet" version="1.0"><path fill="#000000" d="M 471.902344 275.898438 C 478.082031 275.898438 483.136719 270.84375 483.136719 264.664062 L 483.136719 174.804688 C 483.136719 168.628906 478.082031 163.574219 471.902344 163.574219 L 393.277344 163.574219 C 387.097656 163.574219 382.042969 168.628906 382.042969 174.804688 L 382.042969 264.664062 C 382.042969 270.84375 387.097656 275.898438 393.277344 275.898438 Z M 404.507812 186.039062 L 460.671875 186.039062 L 460.671875 253.433594 L 404.507812 253.433594 Z M 404.507812 186.039062 " fill-opacity="1" fill-rule="nonzero"/><path fill="#000000" d="M 157.394531 197.269531 L 325.882812 197.269531 C 332.058594 197.269531 337.113281 192.214844 337.113281 186.039062 C 337.113281 179.859375 332.058594 174.804688 325.882812 174.804688 L 157.394531 174.804688 C 151.21875 174.804688 146.164062 179.859375 146.164062 186.039062 C 146.164062 192.214844 151.21875 197.269531 157.394531 197.269531 Z M 157.394531 197.269531 " fill-opacity="1" fill-rule="nonzero"/><path fill="#000000" d="M 157.394531 264.664062 L 325.882812 264.664062 C 332.058594 264.664062 337.113281 259.609375 337.113281 253.433594 C 337.113281 247.253906 332.058594 242.199219 325.882812 242.199219 L 157.394531 242.199219 C 151.21875 242.199219 146.164062 247.253906 146.164062 253.433594 C 146.164062 259.609375 151.21875 264.664062 157.394531 264.664062 Z M 157.394531 264.664062 " fill-opacity="1" fill-rule="nonzero"/><path fill="#000000" d="M 157.394531 348.90625 L 471.902344 348.90625 C 478.082031 348.90625 483.136719 343.851562 483.136719 337.675781 C 483.136719 331.496094 478.082031 326.441406 471.902344 326.441406 L 157.394531 326.441406 C 151.21875 326.441406 146.164062 331.496094 146.164062 337.675781 C 146.164062 343.851562 151.21875 348.90625 157.394531 348.90625 Z M 157.394531 348.90625 " fill-opacity="1" fill-rule="nonzero"/><path fill="#000000" d="M 157.394531 416.300781 L 471.902344 416.300781 C 478.082031 416.300781 483.136719 411.246094 483.136719 405.070312 C 483.136719 398.890625 478.082031 393.835938 471.902344 393.835938 L 157.394531 393.835938 C 151.21875 393.835938 146.164062 398.890625 146.164062 405.070312 C 146.164062 411.246094 151.21875 416.300781 157.394531 416.300781 Z M 157.394531 416.300781 " fill-opacity="1" fill-rule="nonzero"/><path fill="#000000" d="M 250.625 534.242188 C 249.5 534.804688 248.378906 534.804688 247.253906 534.804688 C 245.007812 534.804688 242.761719 534.242188 239.953125 533.121094 C 239.390625 534.242188 239.390625 535.367188 238.828125 536.488281 C 238.269531 537.613281 238.269531 538.734375 238.269531 539.859375 C 239.953125 540.421875 241.636719 540.984375 242.761719 540.984375 C 243.882812 540.984375 245.570312 541.542969 247.816406 541.542969 C 250.0625 541.542969 251.746094 541.542969 253.433594 540.984375 C 255.117188 540.421875 256.238281 539.859375 257.363281 538.734375 C 258.488281 537.613281 259.046875 537.050781 259.609375 535.367188 C 260.171875 533.683594 260.171875 532.558594 260.171875 531.433594 C 260.171875 529.75 260.171875 528.628906 259.609375 527.503906 C 259.046875 526.378906 258.488281 525.820312 257.925781 524.695312 C 257.363281 523.574219 256.242188 523.574219 255.117188 523.011719 C 253.992188 522.449219 252.871094 521.886719 251.746094 521.324219 L 249.5 520.765625 C 248.9375 520.203125 247.816406 520.203125 247.253906 519.640625 C 246.691406 519.078125 246.132812 518.519531 246.132812 517.957031 C 246.132812 517.394531 246.132812 516.832031 246.691406 516.832031 C 246.691406 516.269531 247.253906 516.269531 247.253906 516.269531 C 247.816406 516.269531 247.816406 515.710938 248.378906 515.710938 C 248.9375 515.710938 249.5 515.710938 249.5 515.710938 C 251.1875 515.710938 252.308594 515.710938 253.433594 516.269531 C 254.554688 516.832031 255.117188 516.832031 256.242188 517.394531 C 256.800781 516.269531 257.363281 515.148438 257.363281 514.023438 C 257.925781 512.902344 257.925781 511.777344 257.925781 511.21875 C 256.242188 510.65625 254.554688 510.09375 253.433594 510.09375 C 251.746094 509.53125 250.625 509.53125 248.9375 509.53125 C 247.253906 509.53125 245.570312 509.53125 244.445312 510.09375 C 243.324219 510.65625 241.636719 511.21875 241.078125 511.777344 C 239.953125 512.339844 239.390625 513.464844 238.828125 514.585938 C 238.269531 515.710938 238.269531 517.394531 238.269531 518.519531 C 238.269531 519.640625 238.269531 520.765625 238.828125 521.886719 C 239.390625 523.011719 239.390625 523.574219 240.515625 524.132812 C 241.078125 524.695312 241.636719 525.257812 242.761719 525.820312 C 243.882812 526.378906 244.445312 526.941406 245.570312 526.941406 L 247.816406 528.066406 C 248.378906 528.066406 248.378906 528.628906 248.9375 528.628906 C 249.5 528.628906 249.5 529.1875 250.0625 529.1875 C 250.625 529.1875 250.625 529.75 250.625 530.3125 C 250.625 530.875 250.625 530.875 250.625 531.433594 C 252.308594 533.121094 251.746094 533.683594 250.625 534.242188 Z M 250.625 534.242188 " fill-opacity="1" fill-rule="nonzero"/><path fill="#000000" d="M 270.28125 509.53125 C 269.71875 509.53125 269.15625 509.53125 268.597656 509.53125 C 268.035156 509.53125 267.472656 509.53125 266.910156 509.53125 C 266.347656 509.53125 265.789062 509.53125 264.664062 509.53125 L 264.664062 527.503906 C 264.664062 529.75 264.664062 531.433594 265.226562 533.121094 C 265.789062 534.804688 266.347656 536.488281 266.910156 537.613281 C 268.035156 538.734375 269.15625 539.859375 270.84375 540.421875 C 272.527344 540.984375 274.210938 541.542969 277.019531 541.542969 C 279.828125 541.542969 281.511719 540.984375 283.199219 540.421875 C 284.882812 539.859375 286.007812 538.734375 287.128906 537.613281 C 288.253906 536.488281 288.8125 534.804688 288.8125 533.121094 C 288.8125 531.433594 289.375 529.1875 289.375 527.503906 L 289.375 509.53125 C 288.253906 509.53125 287.691406 509.53125 287.128906 509.53125 C 286.566406 509.53125 286.007812 509.53125 285.445312 509.53125 C 284.882812 509.53125 284.320312 509.53125 283.757812 509.53125 C 283.199219 509.53125 282.636719 509.53125 281.511719 509.53125 L 281.511719 526.378906 C 281.511719 528.066406 281.511719 529.1875 281.511719 530.3125 C 281.511719 531.433594 280.953125 531.996094 280.953125 532.558594 C 280.953125 533.121094 279.828125 534.242188 279.265625 534.242188 C 278.707031 534.242188 278.144531 534.804688 277.019531 534.804688 C 275.898438 534.804688 275.335938 534.804688 274.773438 534.242188 C 274.210938 534.242188 273.652344 533.683594 273.652344 533.121094 C 273.652344 532.558594 273.089844 531.433594 273.089844 530.875 C 273.089844 529.75 273.089844 528.628906 273.089844 526.941406 L 273.089844 510.09375 C 271.964844 509.53125 270.84375 509.53125 270.28125 509.53125 Z M 270.28125 509.53125 " fill-opacity="1" fill-rule="nonzero"/><path fill="#000000" d="M 314.085938 521.324219 C 314.648438 520.203125 315.210938 519.078125 315.210938 517.394531 C 315.210938 515.710938 314.648438 514.585938 314.085938 513.464844 C 313.527344 512.339844 312.402344 511.21875 311.277344 510.65625 C 310.15625 510.09375 309.03125 509.53125 307.347656 509.53125 C 305.664062 509.53125 304.539062 508.96875 302.855469 508.96875 C 301.171875 508.96875 299.484375 508.96875 298.363281 508.96875 C 297.238281 508.96875 295.554688 508.96875 294.429688 509.53125 L 294.429688 540.984375 C 296.117188 540.984375 297.238281 541.542969 298.363281 541.542969 C 299.484375 541.542969 301.171875 541.542969 302.855469 541.542969 C 305.101562 541.542969 306.785156 541.542969 308.472656 540.984375 C 310.15625 540.421875 311.839844 540.421875 312.964844 539.296875 C 314.085938 538.738281 315.210938 537.613281 315.773438 536.488281 C 316.332031 535.367188 316.894531 533.683594 316.894531 531.996094 C 316.894531 530.875 316.894531 529.75 316.332031 529.1875 C 315.773438 528.066406 315.773438 527.503906 315.210938 526.941406 C 314.648438 526.378906 314.085938 525.820312 313.527344 525.257812 C 312.964844 524.695312 312.402344 524.695312 311.277344 524.132812 C 312.402344 523.574219 313.527344 522.449219 314.085938 521.324219 Z M 302.292969 515.148438 C 302.292969 515.148438 302.855469 515.148438 302.855469 515.148438 C 302.855469 515.148438 303.417969 515.148438 303.417969 515.148438 C 303.976562 515.148438 304.539062 515.148438 304.539062 515.148438 C 305.101562 515.148438 305.664062 515.148438 305.664062 515.710938 C 305.664062 516.269531 306.226562 516.269531 306.785156 516.832031 C 306.785156 517.394531 307.347656 517.957031 307.347656 518.519531 C 307.347656 519.640625 306.785156 520.765625 306.226562 521.324219 C 305.664062 521.886719 304.539062 521.886719 303.417969 521.886719 L 302.292969 521.886719 Z M 308.472656 533.683594 C 308.472656 534.242188 307.910156 534.804688 307.347656 534.804688 C 306.785156 534.804688 306.226562 535.367188 305.664062 535.367188 C 305.101562 535.367188 304.539062 535.367188 303.976562 535.367188 C 303.417969 535.367188 302.855469 535.367188 302.855469 535.367188 C 302.855469 535.367188 302.292969 535.367188 302.292969 535.367188 L 302.292969 528.066406 L 303.976562 528.066406 C 305.664062 528.066406 306.785156 528.066406 307.347656 528.628906 C 308.472656 529.1875 308.472656 530.3125 308.472656 531.433594 C 309.03125 532.558594 309.03125 533.121094 308.472656 533.683594 Z M 308.472656 533.683594 " fill-opacity="1" fill-rule="nonzero"/><path fill="#000000" d="M 346.101562 509.53125 C 345.539062 509.53125 344.976562 509.53125 344.414062 509.53125 C 343.851562 509.53125 343.292969 509.53125 342.730469 509.53125 L 335.992188 525.820312 L 329.8125 509.53125 C 329.25 509.53125 328.691406 509.53125 328.128906 509.53125 C 327.566406 509.53125 327.003906 509.53125 326.441406 509.53125 C 325.882812 509.53125 325.320312 509.53125 324.195312 509.53125 C 323.636719 509.53125 322.511719 509.53125 321.949219 509.53125 L 320.828125 540.984375 C 321.949219 540.984375 323.636719 541.542969 324.195312 541.542969 C 325.320312 541.542969 326.441406 541.542969 327.566406 540.984375 L 328.128906 523.011719 L 332.621094 534.804688 C 333.183594 534.804688 333.742188 534.804688 334.304688 534.804688 C 334.867188 534.804688 335.429688 534.804688 335.429688 534.804688 C 335.429688 534.804688 336.550781 534.804688 337.113281 534.804688 C 337.675781 534.804688 338.238281 534.804688 338.796875 534.804688 L 343.851562 523.011719 L 344.414062 540.984375 C 346.101562 540.984375 347.222656 541.542969 348.347656 541.542969 C 349.46875 541.542969 350.03125 541.542969 350.59375 541.542969 C 351.15625 541.542969 351.714844 541.542969 352.277344 541.542969 L 350.59375 510.09375 C 350.03125 510.09375 349.46875 510.09375 348.90625 510.09375 C 348.347656 510.09375 347.222656 509.53125 346.101562 509.53125 Z M 346.101562 509.53125 " fill-opacity="1" fill-rule="nonzero"/><path fill="#000000" d="M 359.015625 509.53125 C 358.457031 509.53125 357.894531 509.53125 356.769531 509.53125 L 356.769531 540.984375 C 358.457031 540.984375 359.578125 541.542969 360.703125 541.542969 C 361.824219 541.542969 362.949219 541.542969 364.632812 540.984375 L 364.632812 509.53125 C 364.070312 509.53125 362.949219 509.53125 362.386719 509.53125 C 361.824219 509.53125 361.261719 509.53125 360.703125 509.53125 C 360.140625 509.53125 359.578125 509.53125 359.015625 509.53125 Z M 359.015625 509.53125 " fill-opacity="1" fill-rule="nonzero"/><path fill="#000000" d="M 379.796875 541.542969 C 380.921875 541.542969 382.042969 541.542969 383.730469 540.984375 L 383.730469 516.269531 L 391.03125 516.269531 C 391.03125 515.148438 391.589844 514.023438 391.589844 512.902344 C 391.589844 512.339844 391.589844 511.777344 391.589844 511.21875 C 391.589844 510.65625 391.589844 510.09375 391.589844 509.53125 L 369.125 509.53125 C 369.125 510.65625 368.566406 511.777344 368.566406 512.902344 C 368.566406 514.023438 368.566406 515.148438 369.125 516.269531 L 376.425781 516.269531 L 376.425781 540.984375 C 377.550781 541.542969 378.675781 541.542969 379.796875 541.542969 Z M 379.796875 541.542969 " fill-opacity="1" fill-rule="nonzero"/><path fill="#000000" d="M 112.464844 640.953125 L 471.902344 640.953125 L 449.4375 618.488281 L 112.464844 618.488281 L 112.464844 113.027344 L 516.832031 113.027344 L 516.832031 514.585938 L 521.324219 519.078125 C 521.886719 518.519531 521.886719 518.519531 522.449219 518.519531 C 528.066406 514.023438 533.683594 510.09375 539.859375 507.847656 L 539.859375 113.027344 C 539.859375 100.671875 529.75 90.5625 517.394531 90.5625 L 112.464844 90.5625 C 100.109375 90.5625 90 100.671875 90 113.027344 L 90 618.488281 C 90 630.84375 100.109375 640.953125 112.464844 640.953125 Z M 112.464844 640.953125 " fill-opacity="1" fill-rule="nonzero"/><path fill="#000000" d="M 430.90625 502.792969 C 436.519531 497.738281 443.261719 493.804688 450.5625 491.558594 C 443.261719 476.957031 428.097656 467.410156 411.246094 467.410156 L 218.613281 467.410156 C 194.460938 467.410156 174.242188 487.066406 174.242188 511.777344 L 174.242188 535.367188 C 174.242188 559.515625 193.898438 579.734375 218.613281 579.734375 L 410.6875 579.734375 C 411.246094 579.734375 411.808594 579.734375 412.371094 579.734375 C 408.441406 572.996094 405.632812 565.132812 405.070312 557.269531 L 218.613281 557.269531 C 206.816406 557.269531 196.707031 547.722656 196.707031 535.367188 L 196.707031 511.777344 C 196.707031 499.984375 206.253906 489.875 218.613281 489.875 L 410.6875 489.875 C 419.671875 489.3125 427.535156 494.929688 430.90625 502.792969 Z M 430.90625 502.792969 " fill-opacity="1" fill-rule="nonzero"/><path fill="#000000" d="M 535.929688 535.929688 L 528.628906 543.230469 C 525.820312 545.476562 524.132812 548.84375 522.449219 551.652344 L 489.875 519.078125 C 477.519531 506.722656 457.300781 507.285156 444.382812 520.203125 L 437.082031 527.503906 C 430.90625 534.242188 426.972656 542.667969 426.972656 551.652344 C 426.972656 560.078125 430.34375 567.378906 435.960938 572.996094 L 517.957031 654.429688 L 515.710938 656.675781 C 508.96875 663.417969 505.601562 671.839844 505.601562 680.828125 C 505.601562 688.691406 508.410156 695.992188 514.023438 701.605469 L 610.625 798.207031 C 615.679688 803.261719 621.855469 806.070312 629.15625 806.070312 L 694.304688 809.4375 C 694.867188 809.4375 695.429688 809.4375 695.992188 809.4375 C 703.851562 809.4375 711.714844 806.070312 716.769531 800.453125 L 801.574219 715.648438 C 810 707.222656 808.875 694.304688 807.753906 688.691406 L 796.519531 617.925781 C 795.398438 611.746094 792.589844 606.132812 788.097656 601.636719 L 678.582031 492.121094 C 666.785156 480.328125 647.691406 480.328125 636.457031 491.558594 L 630.28125 497.738281 C 628.597656 499.421875 627.472656 501.109375 626.347656 502.792969 C 614.554688 492.683594 596.023438 494.367188 583.667969 506.722656 L 576.363281 514.023438 C 572.996094 517.394531 570.1875 521.886719 568.503906 526.378906 C 558.394531 523.011719 547.722656 525.820312 537.050781 534.804688 C 536.488281 535.367188 535.929688 535.367188 535.929688 535.929688 Z M 544.351562 558.953125 L 551.652344 551.652344 C 558.394531 546.039062 560.640625 546.039062 566.816406 551.652344 C 567.941406 552.777344 572.996094 557.832031 579.734375 564.570312 L 599.953125 584.789062 C 603.882812 588.722656 606.132812 590.96875 606.691406 592.089844 C 607.253906 592.652344 607.253906 592.652344 607.816406 593.214844 L 608.378906 593.773438 C 612.871094 597.707031 619.609375 597.144531 624.101562 592.652344 C 628.597656 588.160156 628.035156 581.417969 623.542969 576.925781 L 615.117188 568.503906 C 609.5 562.886719 601.636719 555.023438 594.898438 548.285156 L 589.28125 542.667969 C 588.160156 541.542969 587.597656 539.859375 587.597656 538.175781 C 587.597656 535.367188 588.71875 532.558594 591.527344 529.75 L 598.828125 522.449219 C 602.761719 518.519531 608.378906 517.394531 611.1875 520.203125 L 656.117188 565.132812 C 660.609375 569.625 667.347656 569.625 671.839844 565.132812 C 676.332031 560.640625 676.332031 553.898438 671.839844 549.40625 L 646.566406 524.132812 C 644.882812 522.449219 643.757812 520.203125 643.757812 517.957031 C 643.757812 516.269531 644.320312 515.148438 645.445312 514.023438 L 651.621094 507.847656 C 654.429688 505.039062 658.921875 505.601562 662.292969 508.410156 L 771.808594 617.925781 C 772.933594 619.046875 774.054688 620.734375 774.054688 621.855469 L 785.289062 692.621094 C 785.851562 696.550781 785.289062 699.921875 785.289062 699.921875 L 700.484375 784.726562 C 699.359375 786.410156 697.113281 786.972656 695.429688 786.972656 L 630.28125 783.605469 C 628.597656 783.605469 627.472656 783.042969 626.347656 781.917969 L 529.1875 685.320312 C 527.503906 683.636719 527.503906 681.949219 527.503906 680.828125 C 527.503906 678.019531 528.628906 675.210938 530.875 672.964844 L 538.175781 665.664062 C 540.421875 663.417969 543.230469 662.292969 546.039062 662.292969 C 548.285156 662.292969 550.53125 662.855469 551.652344 664.539062 L 602.199219 715.085938 C 606.691406 719.578125 613.433594 719.578125 617.925781 715.085938 C 622.417969 710.59375 622.417969 703.851562 617.925781 699.359375 L 567.378906 648.8125 C 558.953125 640.390625 546.597656 638.144531 535.367188 642.074219 L 451.125 557.832031 C 449.4375 556.148438 448.875 553.898438 448.875 552.214844 C 448.875 549.40625 450 546.597656 452.246094 544.351562 L 459.546875 537.050781 C 463.480469 533.121094 469.65625 532.558594 473.027344 535.929688 L 562.886719 625.789062 C 567.378906 630.28125 574.117188 629.71875 578.613281 625.789062 C 583.105469 621.292969 582.542969 614.554688 578.613281 610.0625 L 540.984375 572.996094 C 539.859375 571.871094 539.296875 570.1875 539.296875 569.0625 C 540.421875 564.570312 542.105469 561.761719 544.351562 558.953125 Z M 544.351562 558.953125 " fill-opacity="1" fill-rule="nonzero"/></svg>