<svg xmlns="http://www.w3.org/2000/svg" xmlns:xlink="http://www.w3.org/1999/xlink" width="1200" zoomAndPan="magnify" viewBox="0 0 900 899.99999" height="1200" preserveAspectRatio="xMidYMid meet" version="1.0"><defs><clipPath id="d2ccdb83ad"><path d="M 162 485 L 727 485 L 727 808.5 L 162 808.5 Z M 162 485 " clip-rule="nonzero"/></clipPath></defs><g clip-path="url(#d2ccdb83ad)"><path fill="#000000" d="M 703.109375 555.132812 L 668.105469 774.378906 C 667.207031 780.214844 662.273438 784.40625 656.289062 784.40625 L 367.574219 784.40625 L 410.058594 519.066406 C 410.957031 513.226562 415.894531 509.039062 421.875 509.039062 L 509.089844 509.039062 L 509.089844 485.09375 L 421.726562 485.09375 C 403.925781 485.09375 389.117188 497.8125 386.273438 515.324219 L 350.96875 736.664062 L 174 736.664062 C 167.417969 736.664062 162.035156 742.050781 162.035156 748.636719 L 162.035156 772.582031 C 162.035156 792.335938 178.191406 808.5 197.9375 808.5 L 656.289062 808.5 C 674.089844 808.5 688.898438 795.777344 691.742188 778.269531 L 726.746094 559.023438 Z M 185.96875 772.582031 L 185.96875 760.609375 L 347.082031 760.609375 L 343.191406 784.554688 L 197.9375 784.554688 C 191.355469 784.554688 185.96875 779.167969 185.96875 772.582031 Z M 185.96875 772.582031 " fill-opacity="1" fill-rule="nonzero"/></g><path fill="#000000" d="M 544.992188 688.773438 C 571.320312 688.773438 592.859375 667.222656 592.859375 640.886719 C 592.859375 614.546875 571.320312 592.996094 544.992188 592.996094 C 518.664062 592.996094 497.121094 614.546875 497.121094 640.886719 C 497.121094 667.222656 518.664062 688.773438 544.992188 688.773438 Z M 544.992188 616.941406 C 558.15625 616.941406 568.925781 627.714844 568.925781 640.886719 C 568.925781 654.054688 558.15625 664.828125 544.992188 664.828125 C 531.828125 664.828125 521.054688 654.054688 521.054688 640.886719 C 521.054688 627.714844 531.828125 616.941406 544.992188 616.941406 Z M 544.992188 616.941406 " fill-opacity="1" fill-rule="nonzero"/><path fill="#000000" d="M 437.285156 114.691406 L 437.285156 138.039062 L 461.21875 138.039062 L 461.21875 114.691406 C 485.304688 117.085938 507.144531 126.664062 524.945312 141.183594 L 512.53125 153.605469 L 529.433594 170.515625 L 541.851562 158.09375 C 556.359375 175.902344 565.933594 197.753906 568.328125 221.847656 L 544.992188 221.847656 L 544.992188 245.792969 L 568.328125 245.792969 C 565.933594 269.886719 556.359375 291.738281 541.851562 309.546875 L 529.433594 297.125 L 512.53125 314.035156 L 524.945312 326.457031 C 507.144531 340.972656 485.304688 350.550781 461.21875 352.945312 L 461.21875 329.601562 L 437.285156 329.601562 L 437.285156 352.945312 C 413.199219 350.550781 391.359375 340.972656 373.558594 326.457031 L 385.972656 314.035156 L 369.070312 297.125 L 356.804688 309.394531 C 342.292969 291.585938 332.71875 269.738281 330.324219 245.644531 L 353.511719 245.644531 L 353.511719 221.699219 L 317.609375 221.699219 C 311.027344 221.699219 305.644531 227.085938 305.644531 233.671875 C 305.644531 312.839844 370.117188 377.339844 449.253906 377.339844 C 528.386719 377.339844 592.859375 312.839844 592.859375 233.671875 C 592.859375 154.5 528.386719 90 449.253906 90 C 431.300781 90 413.648438 93.292969 397.042969 99.726562 L 405.71875 122.027344 C 415.894531 118.285156 426.515625 115.742188 437.285156 114.691406 Z M 437.285156 114.691406 " fill-opacity="1" fill-rule="nonzero"/><path fill="#000000" d="M 457.777344 242.351562 C 460.023438 240.105469 461.21875 237.113281 461.21875 233.820312 L 461.21875 161.984375 L 437.285156 161.984375 L 437.285156 228.882812 L 392.855469 273.328125 L 409.757812 290.238281 Z M 457.777344 242.351562 " fill-opacity="1" fill-rule="nonzero"/><path fill="#000000" d="M 317.609375 126.066406 L 389.414062 126.066406 L 389.414062 150.011719 L 317.609375 150.011719 Z M 317.609375 126.066406 " fill-opacity="1" fill-rule="nonzero"/><path fill="#000000" d="M 269.742188 173.957031 L 353.511719 173.957031 L 353.511719 197.902344 L 269.742188 197.902344 Z M 269.742188 173.957031 " fill-opacity="1" fill-rule="nonzero"/><path fill="#000000" d="M 269.742188 126.066406 L 293.675781 126.066406 L 293.675781 150.011719 L 269.742188 150.011719 Z M 269.742188 126.066406 " fill-opacity="1" fill-rule="nonzero"/><path fill="#000000" d="M 221.871094 173.957031 L 245.804688 173.957031 L 245.804688 197.902344 L 221.871094 197.902344 Z M 221.871094 173.957031 " fill-opacity="1" fill-rule="nonzero"/><path fill="#000000" d="M 233.839844 604.96875 C 312.972656 604.96875 377.449219 540.464844 377.449219 461.296875 C 377.449219 429.269531 367.125 398.890625 347.527344 373.597656 C 345.433594 370.90625 342.292969 369.257812 338.851562 368.960938 C 335.410156 368.808594 332.121094 370.007812 329.578125 372.402344 L 209.902344 492.277344 L 170.558594 452.917969 L 153.65625 469.828125 L 201.527344 517.71875 C 206.164062 522.355469 213.792969 522.355469 218.429688 517.71875 L 336.460938 399.640625 C 347.679688 418.195312 353.511719 439.296875 353.511719 461.445312 C 353.511719 527.445312 299.808594 581.171875 233.839844 581.171875 C 167.867188 581.171875 114.164062 527.445312 114.164062 461.445312 C 114.164062 395.449219 167.867188 341.722656 233.839844 341.722656 C 257.175781 341.722656 279.761719 348.457031 299.0625 361.027344 L 312.074219 340.972656 C 288.886719 325.707031 261.8125 317.628906 233.839844 317.628906 C 154.703125 317.628906 90.230469 382.128906 90.230469 461.296875 C 90.230469 540.464844 154.703125 604.96875 233.839844 604.96875 Z M 233.839844 604.96875 " fill-opacity="1" fill-rule="nonzero"/><path fill="#000000" d="M 800.347656 414.902344 C 793.464844 406.375 783.292969 401.433594 772.371094 401.433594 L 744.546875 401.433594 L 749.484375 371.355469 C 751.28125 360.878906 748.289062 350.253906 741.40625 342.171875 C 734.527344 334.089844 724.652344 329.449219 714.03125 329.449219 L 694.433594 329.449219 C 690.394531 329.449219 686.65625 331.394531 684.410156 334.835938 L 640.28125 401.433594 L 622.78125 401.433594 C 622.78125 394.851562 617.394531 389.460938 610.8125 389.460938 L 539.007812 389.460938 C 532.425781 389.460938 527.039062 394.851562 527.039062 401.433594 L 527.039062 521.160156 C 527.039062 527.746094 532.425781 533.132812 539.007812 533.132812 L 610.8125 533.132812 C 617.394531 533.132812 622.78125 527.746094 622.78125 521.160156 L 622.78125 497.214844 L 628.316406 497.214844 L 641.628906 517.117188 C 648.359375 527.144531 659.429688 533.132812 671.546875 533.132812 L 759.207031 533.132812 C 776.113281 533.132812 790.621094 521.609375 794.214844 504.996094 L 807.527344 445.132812 C 809.769531 434.507812 807.226562 423.433594 800.347656 414.902344 Z M 598.695312 509.1875 L 550.824219 509.1875 L 550.824219 413.40625 L 598.695312 413.40625 Z M 784.039062 439.894531 L 770.726562 499.757812 C 769.53125 505.296875 764.742188 509.1875 759.058594 509.1875 L 671.398438 509.1875 C 667.359375 509.1875 663.617188 507.242188 661.375 503.800781 L 644.621094 478.507812 C 642.375 475.214844 638.636719 473.121094 634.597656 473.121094 L 622.628906 473.121094 L 622.628906 425.230469 L 646.566406 425.230469 C 650.605469 425.230469 654.34375 423.285156 656.585938 419.84375 L 700.867188 353.394531 L 714.03125 353.394531 C 717.621094 353.394531 720.914062 354.890625 723.15625 357.585938 C 725.398438 360.28125 726.449219 363.722656 725.847656 367.3125 L 718.519531 411.3125 C 717.921875 414.753906 718.96875 418.347656 721.210938 421.039062 C 723.457031 423.734375 726.894531 425.230469 730.335938 425.230469 L 772.371094 425.230469 C 775.960938 425.230469 779.402344 426.875 781.648438 429.71875 C 784.039062 432.714844 784.789062 436.453125 784.039062 439.894531 Z M 784.039062 439.894531 " fill-opacity="1" fill-rule="nonzero"/><path fill="#000000" d="M 215.289062 721.847656 L 230.847656 703.742188 C 196.890625 674.558594 169.511719 639.539062 149.617188 599.730469 L 128.226562 610.503906 C 149.617188 653.007812 178.9375 690.570312 215.289062 721.847656 Z M 215.289062 721.847656 " fill-opacity="1" fill-rule="nonzero"/><path fill="#000000" d="M 726.597656 637.59375 L 746.34375 651.0625 C 765.339844 623.226562 780.152344 592.84375 790.621094 560.820312 L 767.886719 553.335938 C 758.160156 583.117188 744.25 611.550781 726.597656 637.59375 Z M 726.597656 637.59375 " fill-opacity="1" fill-rule="nonzero"/><path fill="#000000" d="M 777.160156 379.882812 L 800.644531 374.945312 C 777.160156 263.902344 701.464844 169.46875 597.796875 122.324219 L 587.925781 144.027344 C 684.5625 188.023438 755.320312 276.320312 777.160156 379.882812 Z M 777.160156 379.882812 " fill-opacity="1" fill-rule="nonzero"/><path fill="#000000" d="M 206.613281 218.105469 L 189.257812 201.644531 C 155.152344 237.5625 129.125 279.164062 112.070312 325.558594 L 134.507812 333.789062 C 150.515625 290.539062 174.75 251.628906 206.613281 218.105469 Z M 206.613281 218.105469 " fill-opacity="1" fill-rule="nonzero"/></svg>