<svg xmlns="http://www.w3.org/2000/svg" xmlns:xlink="http://www.w3.org/1999/xlink" width="1200" zoomAndPan="magnify" viewBox="0 0 900 899.99999" height="1200" preserveAspectRatio="xMidYMid meet" version="1.0"><defs><clipPath id="cca07bd54f"><path d="M 151.648438 377 L 175 377 L 175 400 L 151.648438 400 Z M 151.648438 377 " clip-rule="nonzero"/></clipPath><clipPath id="fb107ed57a"><path d="M 725 376 L 748.648438 376 L 748.648438 399 L 725 399 Z M 725 376 " clip-rule="nonzero"/></clipPath></defs><path fill="#f0f8ff" d="M 594.222656 481.5 C 588.59375 482.0625 584.09375 486.5625 583.53125 492.75 C 582.96875 504.5625 594.785156 504 594.785156 504 C 606.042969 504 616.734375 492.75 622.925781 482.0625 C 629.679688 470.25 633.617188 454.5 625.175781 444.9375 C 620.675781 440.4375 613.921875 439.875 609.417969 444.375 C 605.480469 448.3125 604.917969 453.9375 607.730469 458.4375 C 607.730469 460.125 606.605469 464.625 603.226562 470.8125 C 599.851562 477 595.910156 480.375 594.222656 481.5 Z M 594.222656 481.5 " fill-opacity="1" fill-rule="nonzero"/><path fill="#f0f8ff" d="M 432.140625 152.4375 C 317.332031 160.875 223.910156 253.125 214.34375 367.875 C 208.152344 442.125 236.855469 510.1875 285.816406 557.4375 C 291.445312 552.375 297.632812 547.875 304.386719 543.9375 C 303.261719 542.8125 301.574219 541.125 300.449219 540 C 305.511719 537.75 309.453125 534.375 313.957031 530.4375 C 322.960938 520.875 327.460938 508.5 325.773438 498.9375 C 325.210938 495 325.773438 491.0625 326.898438 485.4375 L 326.898438 484.875 C 327.460938 482.0625 328.589844 479.25 329.714844 475.875 C 331.964844 469.125 334.777344 461.25 334.214844 452.25 C 333.089844 435.375 320.707031 424.6875 311.140625 416.25 C 303.261719 409.5 296.507812 403.875 295.382812 396 C 294.820312 390.9375 294.257812 385.875 294.820312 380.25 C 294.820312 379.125 294.820312 377.4375 294.820312 376.3125 C 294.820312 372.375 295.382812 367.875 294.257812 363.375 C 292.570312 356.625 289.191406 350.4375 284.128906 345.9375 C 274.558594 337.5 258.800781 332.4375 243.605469 333 C 245.296875 326.25 247.546875 319.5 250.359375 312.75 C 253.175781 313.875 258.800781 314.4375 258.800781 314.4375 C 272.308594 314.4375 284.691406 302.0625 293.695312 291.375 C 299.886719 284.0625 307.765625 280.6875 316.769531 276.75 C 318.457031 276.1875 320.144531 275.0625 321.273438 274.5 C 329.714844 270.5625 342.09375 263.25 347.160156 248.625 C 349.972656 240.75 349.410156 232.3125 348.285156 224.4375 C 347.722656 219.9375 343.785156 202.5 344.347656 201.9375 C 367.421875 189 392.746094 180 420.320312 176.0625 C 420.320312 177.1875 420.320312 179.4375 420.320312 179.4375 C 420.320312 185.0625 420.320312 189 418.632812 190.6875 C 416.945312 192.375 413.570312 193.5 410.191406 194.625 C 407.941406 195.1875 406.253906 196.3125 404 196.875 C 394.996094 200.8125 384.867188 205.875 377.550781 213.75 C 368.546875 222.75 369.671875 230.625 371.921875 235.6875 C 373.609375 239.625 378.113281 242.4375 382.050781 242.4375 C 388.804688 242.4375 393.871094 236.8125 393.308594 230.0625 C 393.308594 230.0625 401.1875 222.75 413.570312 217.6875 C 415.257812 217.125 416.382812 216.5625 418.070312 216 C 422.574219 214.3125 427.636719 212.0625 432.703125 208.125 C 442.832031 199.6875 442.832031 187.3125 442.832031 179.4375 C 442.832031 179.4375 442.832031 175.5 442.832031 173.8125 C 445.085938 173.8125 447.898438 173.8125 450.148438 173.8125 C 468.160156 173.8125 486.167969 176.0625 503.050781 180.5625 C 498.550781 190.125 498.550781 201.375 499.675781 208.125 C 499.675781 209.8125 500.238281 210.9375 500.238281 212.625 C 500.800781 215.4375 501.363281 217.6875 501.363281 219.9375 C 491.234375 219.375 452.402344 218.25 449.023438 244.125 C 449.023438 244.6875 449.023438 245.25 449.023438 245.8125 C 448.460938 254.25 446.773438 257.0625 446.210938 257.625 C 445.648438 258.1875 443.960938 258.75 443.394531 259.3125 C 439.457031 261 434.953125 263.8125 432.140625 268.3125 C 429.890625 271.6875 423.136719 282.9375 428.765625 293.0625 C 435.515625 304.875 451.277344 304.3125 470.972656 303.1875 C 486.730469 302.625 508.679688 302.0625 516.558594 309.375 C 517.121094 309.9375 518.808594 311.625 519.371094 316.125 C 519.9375 319.5 517.683594 322.3125 514.308594 322.3125 C 501.363281 324 478.851562 321.1875 477.726562 320.625 C 459.15625 315 436.082031 308.25 411.878906 314.4375 C 385.429688 321.1875 364.042969 345.9375 361.230469 372.9375 C 360.105469 387 361.792969 398.25 366.292969 407.8125 C 371.921875 401.625 377.550781 396.5625 384.304688 391.5 C 383.179688 387 383.179688 381.375 383.742188 375.1875 C 385.429688 357.75 400.0625 340.875 417.507812 336.375 C 434.390625 331.875 451.277344 336.375 470.972656 342.5625 C 476.039062 344.25 486.167969 345.375 505.867188 345.9375 L 506.992188 345.9375 C 518.808594 346.5 527.816406 343.6875 534.003906 338.0625 C 540.757812 331.875 541.320312 324.5625 541.320312 323.4375 C 542.445312 311.0625 539.070312 300.9375 531.753906 293.625 C 517.121094 278.4375 490.671875 279.5625 469.285156 280.125 C 463.09375 280.125 454.652344 280.6875 449.585938 280.125 C 450.148438 279.5625 451.839844 279 452.402344 278.4375 C 455.777344 276.75 459.15625 275.0625 461.96875 271.6875 C 469.285156 263.25 470.410156 250.875 470.410156 245.8125 C 472.097656 243 486.167969 240.1875 499.675781 241.3125 C 499.675781 241.3125 500.238281 241.3125 500.238281 241.3125 C 513.183594 241.3125 522.1875 232.875 522.75 219.9375 C 522.75 214.875 522.1875 210.9375 521.625 207 C 521.625 205.875 521.0625 204.75 521.0625 203.625 C 519.9375 197.4375 521.0625 189.5625 523.875 186.1875 C 585.21875 210.375 632.492188 259.3125 652.753906 320.625 C 648.8125 321.1875 645.4375 322.3125 642.625 323.4375 C 635.871094 325.6875 630.804688 327.375 624.050781 325.6875 C 622.363281 325.125 619.550781 323.4375 617.296875 321.75 C 612.796875 318.9375 606.605469 315 599.289062 314.4375 C 590.847656 313.875 583.53125 317.25 577.902344 323.4375 C 572.835938 329.625 570.585938 338.0625 572.273438 345.9375 C 572.835938 349.3125 574.527344 352.125 575.652344 354.375 C 574.527344 354.375 572.835938 353.8125 571.710938 353.25 C 567.210938 351.5625 561.019531 349.3125 553.703125 351 C 546.386719 352.6875 541.320312 357.1875 537.945312 363.9375 C 534.566406 371.25 535.128906 380.8125 539.070312 388.6875 C 545.824219 401.625 554.828125 405.5625 562.707031 408.375 C 565.519531 409.5 568.335938 410.625 570.585938 412.3125 C 569.460938 414 568.335938 415.6875 567.210938 416.8125 C 565.519531 418.5 564.394531 420.1875 563.269531 421.875 C 561.019531 424.6875 558.769531 427.5 556.515625 430.3125 C 554.828125 432 553.140625 434.25 552.015625 436.5 C 556.515625 446.0625 559.894531 456.75 561.019531 467.4375 C 561.582031 465.75 561.582031 464.0625 562.144531 462.9375 C 564.394531 456.75 568.898438 450.5625 573.964844 444.375 C 576.214844 441 579.027344 438.1875 581.28125 434.25 C 581.84375 433.125 582.96875 432 584.09375 430.875 C 588.59375 425.25 594.785156 417.9375 593.660156 408.375 C 593.660156 405 591.410156 399.375 585.21875 394.875 C 580.152344 391.5 575.652344 389.25 571.710938 387.5625 C 564.957031 384.75 562.144531 383.625 559.894531 378.5625 C 558.769531 376.3125 558.769531 373.5 559.894531 372.9375 C 560.457031 372.9375 563.832031 373.5 565.519531 374.625 C 568.335938 375.75 571.710938 376.875 575.652344 377.4375 C 580.152344 378 590.285156 378.5625 597.039062 371.25 C 606.042969 361.125 599.851562 349.875 597.039062 344.8125 C 596.476562 343.6875 595.347656 342 595.347656 341.4375 C 594.785156 340.3125 595.910156 339.1875 595.910156 338.625 C 596.476562 338.0625 597.601562 337.5 598.726562 337.5 C 600.414062 337.5 603.226562 339.75 605.480469 341.4375 C 609.417969 344.25 613.921875 347.0625 620.113281 348.1875 C 632.492188 351 642.058594 347.625 649.9375 345.375 C 653.316406 344.25 656.128906 343.125 659.507812 342.5625 C 662.882812 357.1875 664.570312 372.9375 664.570312 388.6875 C 664.570312 450.5625 638.121094 505.6875 596.476562 545.0625 C 603.226562 549 609.417969 553.5 615.046875 558.5625 C 658.945312 514.6875 686.519531 454.5 686.519531 388.125 C 686.519531 252 570.585938 142.3125 432.140625 152.4375 Z M 269.496094 363.375 C 270.621094 364.5 271.746094 366.1875 272.308594 368.4375 C 272.871094 370.125 272.308594 372.375 272.308594 375.1875 C 272.308594 376.875 272.308594 379.125 272.308594 380.8125 C 272.308594 387 272.871094 393.1875 273.433594 399.375 C 275.125 415.6875 287.503906 425.8125 297.070312 434.25 C 306.078125 442.125 311.703125 447.1875 312.265625 454.5 C 312.828125 458.4375 311.140625 462.9375 308.890625 468.5625 C 307.765625 472.5 306.078125 476.4375 304.949219 480.375 L 304.949219 480.9375 C 303.824219 487.6875 302.136719 495 303.261719 502.875 C 303.824219 504.5625 302.136719 510.1875 297.632812 515.25 C 295.382812 517.5 290.882812 522 284.128906 522 C 254.300781 485.4375 236.289062 438.75 236.289062 388.125 C 236.289062 377.4375 236.855469 367.3125 238.542969 356.625 C 247.546875 354.375 262.179688 356.625 269.496094 363.375 Z M 325.210938 241.875 C 323.523438 246.9375 319.019531 250.875 311.140625 254.8125 L 306.640625 257.0625 C 295.945312 262.125 285.253906 266.625 275.6875 277.875 C 263.304688 292.5 258.800781 292.5 258.800781 293.0625 C 273.996094 262.6875 296.507812 236.25 323.523438 216 C 323.523438 217.6875 324.085938 219.375 324.085938 220.5 C 324.085938 222.75 324.648438 224.4375 324.648438 225.5625 C 326.335938 231.1875 326.898438 237.375 325.210938 241.875 Z M 325.210938 241.875 " fill-opacity="1" fill-rule="nonzero"/><path fill="#f0f8ff" d="M 450.148438 573.75 C 499.675781 573.75 540.195312 533.25 540.195312 483.75 C 540.195312 434.25 499.675781 393.75 450.148438 393.75 C 400.625 393.75 360.105469 434.25 360.105469 483.75 C 360.105469 533.25 400.625 573.75 450.148438 573.75 Z M 450.148438 416.25 C 487.292969 416.25 517.683594 446.625 517.683594 483.75 C 517.683594 520.875 487.292969 551.25 450.148438 551.25 C 413.007812 551.25 382.617188 520.875 382.617188 483.75 C 382.617188 446.625 413.007812 416.25 450.148438 416.25 Z M 450.148438 416.25 " fill-opacity="1" fill-rule="nonzero"/><path fill="#f0f8ff" d="M 361.792969 573.75 L 382.617188 573.75 C 374.171875 567.5625 366.292969 559.6875 360.105469 551.25 C 307.203125 552.375 264.429688 599.0625 264.429688 656.4375 L 264.429688 756 C 264.429688 773.4375 277.9375 787.5 294.820312 787.5 L 309.453125 787.5 C 309.453125 786.375 306.078125 765 306.078125 765 L 294.820312 765 C 290.320312 765 286.941406 761.0625 286.941406 756 L 286.941406 656.4375 C 286.941406 610.875 320.707031 573.75 361.792969 573.75 Z M 361.792969 573.75 " fill-opacity="1" fill-rule="nonzero"/><path fill="#f0f8ff" d="M 539.632812 551.25 C 533.441406 559.6875 525.5625 567 517.121094 573.75 L 537.945312 573.75 C 579.589844 573.75 613.359375 610.875 613.359375 656.4375 L 613.359375 756 C 613.359375 761.0625 609.980469 765 605.480469 765 L 594.222656 765 C 594.222656 765 591.410156 786.375 590.847656 787.5 L 605.480469 787.5 C 622.363281 787.5 635.871094 773.4375 635.871094 756 L 635.871094 656.4375 C 635.871094 599.0625 593.097656 552.375 539.632812 551.25 Z M 539.632812 551.25 " fill-opacity="1" fill-rule="nonzero"/><path fill="#f0f8ff" d="M 553.703125 630 L 346.597656 630 C 337.59375 630 328.589844 633.9375 322.398438 640.6875 C 316.769531 647.4375 313.957031 656.4375 315.082031 664.875 L 331.402344 781.875 C 333.089844 797.625 346.597656 810 362.917969 810 L 537.382812 810 C 553.703125 810 567.210938 798.1875 568.898438 782.4375 L 585.21875 665.4375 C 586.34375 656.4375 583.53125 648 577.902344 641.25 C 571.710938 633.9375 562.707031 630 553.703125 630 Z M 562.707031 662.0625 L 546.386719 779.625 C 545.824219 784.125 541.882812 787.5 537.382812 787.5 L 362.917969 787.5 C 358.414062 787.5 354.476562 784.125 353.914062 779.0625 L 337.59375 662.0625 C 337.03125 657 341.53125 652.5 346.597656 652.5 C 346.597656 652.5 553.140625 652.5 553.703125 652.5 C 558.769531 652.5 563.269531 657 562.707031 662.0625 Z M 562.707031 662.0625 " fill-opacity="1" fill-rule="nonzero"/><path fill="#f0f8ff" d="M 461.40625 720 C 461.40625 720.738281 461.332031 721.46875 461.1875 722.195312 C 461.046875 722.917969 460.832031 723.621094 460.550781 724.304688 C 460.265625 724.988281 459.917969 725.636719 459.507812 726.25 C 459.097656 726.863281 458.632812 727.433594 458.109375 727.953125 C 457.585938 728.476562 457.019531 728.945312 456.402344 729.355469 C 455.789062 729.765625 455.140625 730.109375 454.457031 730.394531 C 453.773438 730.675781 453.070312 730.890625 452.347656 731.035156 C 451.621094 731.179688 450.890625 731.25 450.148438 731.25 C 449.410156 731.25 448.679688 731.179688 447.953125 731.035156 C 447.230469 730.890625 446.523438 730.675781 445.84375 730.394531 C 445.160156 730.109375 444.511719 729.765625 443.898438 729.355469 C 443.28125 728.945312 442.714844 728.476562 442.191406 727.953125 C 441.667969 727.433594 441.203125 726.863281 440.792969 726.25 C 440.378906 725.636719 440.035156 724.988281 439.75 724.304688 C 439.46875 723.621094 439.253906 722.917969 439.109375 722.195312 C 438.964844 721.46875 438.894531 720.738281 438.894531 720 C 438.894531 719.261719 438.964844 718.53125 439.109375 717.804688 C 439.253906 717.082031 439.46875 716.378906 439.75 715.695312 C 440.035156 715.011719 440.378906 714.363281 440.792969 713.75 C 441.203125 713.136719 441.667969 712.566406 442.191406 712.046875 C 442.714844 711.523438 443.28125 711.054688 443.898438 710.644531 C 444.511719 710.234375 445.160156 709.890625 445.84375 709.605469 C 446.523438 709.324219 447.230469 709.109375 447.953125 708.964844 C 448.679688 708.820312 449.410156 708.75 450.148438 708.75 C 450.890625 708.75 451.621094 708.820312 452.347656 708.964844 C 453.070312 709.109375 453.773438 709.324219 454.457031 709.605469 C 455.140625 709.890625 455.789062 710.234375 456.402344 710.644531 C 457.019531 711.054688 457.585938 711.523438 458.109375 712.046875 C 458.632812 712.566406 459.097656 713.136719 459.507812 713.75 C 459.917969 714.363281 460.265625 715.011719 460.550781 715.695312 C 460.832031 716.378906 461.046875 717.082031 461.1875 717.804688 C 461.332031 718.53125 461.40625 719.261719 461.40625 720 Z M 461.40625 720 " fill-opacity="1" fill-rule="nonzero"/><path fill="#f0f8ff" d="M 241.917969 572.625 C 241.917969 573.363281 241.847656 574.09375 241.703125 574.820312 C 241.558594 575.542969 241.34375 576.246094 241.0625 576.929688 C 240.777344 577.613281 240.433594 578.261719 240.023438 578.875 C 239.609375 579.488281 239.144531 580.058594 238.621094 580.578125 C 238.097656 581.101562 237.53125 581.570312 236.917969 581.980469 C 236.300781 582.390625 235.652344 582.734375 234.96875 583.019531 C 234.289062 583.300781 233.582031 583.515625 232.859375 583.660156 C 232.132812 583.804688 231.402344 583.875 230.664062 583.875 C 229.925781 583.875 229.191406 583.804688 228.46875 583.660156 C 227.742188 583.515625 227.039062 583.300781 226.355469 583.019531 C 225.671875 582.734375 225.023438 582.390625 224.410156 581.980469 C 223.796875 581.570312 223.226562 581.101562 222.703125 580.578125 C 222.179688 580.058594 221.714844 579.488281 221.304688 578.875 C 220.894531 578.261719 220.546875 577.613281 220.265625 576.929688 C 219.980469 576.246094 219.769531 575.542969 219.625 574.820312 C 219.480469 574.09375 219.40625 573.363281 219.40625 572.625 C 219.40625 571.886719 219.480469 571.15625 219.625 570.429688 C 219.769531 569.707031 219.980469 569.003906 220.265625 568.320312 C 220.546875 567.636719 220.894531 566.988281 221.304688 566.375 C 221.714844 565.761719 222.179688 565.191406 222.703125 564.671875 C 223.226562 564.148438 223.796875 563.679688 224.410156 563.269531 C 225.023438 562.859375 225.671875 562.515625 226.355469 562.230469 C 227.039062 561.949219 227.742188 561.734375 228.46875 561.589844 C 229.191406 561.445312 229.925781 561.375 230.664062 561.375 C 231.402344 561.375 232.132812 561.445312 232.859375 561.589844 C 233.582031 561.734375 234.289062 561.949219 234.96875 562.230469 C 235.652344 562.515625 236.300781 562.859375 236.917969 563.269531 C 237.53125 563.679688 238.097656 564.148438 238.621094 564.671875 C 239.144531 565.191406 239.609375 565.761719 240.023438 566.375 C 240.433594 566.988281 240.777344 567.636719 241.0625 568.320312 C 241.34375 569.003906 241.558594 569.707031 241.703125 570.429688 C 241.847656 571.15625 241.917969 571.886719 241.917969 572.625 Z M 241.917969 572.625 " fill-opacity="1" fill-rule="nonzero"/><path fill="#f0f8ff" d="M 213.214844 532.125 C 213.214844 532.863281 213.144531 533.59375 213 534.320312 C 212.855469 535.042969 212.644531 535.746094 212.359375 536.429688 C 212.078125 537.113281 211.730469 537.761719 211.320312 538.375 C 210.910156 538.988281 210.441406 539.558594 209.917969 540.078125 C 209.398438 540.601562 208.828125 541.070312 208.214844 541.480469 C 207.601562 541.890625 206.949219 542.234375 206.269531 542.519531 C 205.585938 542.800781 204.882812 543.015625 204.15625 543.160156 C 203.433594 543.304688 202.699219 543.375 201.960938 543.375 C 201.222656 543.375 200.488281 543.304688 199.765625 543.160156 C 199.039062 543.015625 198.335938 542.800781 197.652344 542.519531 C 196.96875 542.234375 196.320312 541.890625 195.707031 541.480469 C 195.09375 541.070312 194.523438 540.601562 194 540.078125 C 193.480469 539.558594 193.011719 538.988281 192.601562 538.375 C 192.191406 537.761719 191.84375 537.113281 191.5625 536.429688 C 191.277344 535.746094 191.066406 535.042969 190.921875 534.320312 C 190.777344 533.59375 190.707031 532.863281 190.707031 532.125 C 190.707031 531.386719 190.777344 530.65625 190.921875 529.929688 C 191.066406 529.207031 191.277344 528.503906 191.5625 527.820312 C 191.84375 527.136719 192.191406 526.488281 192.601562 525.875 C 193.011719 525.261719 193.480469 524.691406 194 524.171875 C 194.523438 523.648438 195.09375 523.179688 195.707031 522.769531 C 196.320312 522.359375 196.96875 522.015625 197.652344 521.730469 C 198.335938 521.449219 199.039062 521.234375 199.765625 521.089844 C 200.488281 520.945312 201.222656 520.875 201.960938 520.875 C 202.699219 520.875 203.433594 520.945312 204.15625 521.089844 C 204.882812 521.234375 205.585938 521.449219 206.269531 521.730469 C 206.949219 522.015625 207.601562 522.359375 208.214844 522.769531 C 208.828125 523.179688 209.398438 523.648438 209.917969 524.171875 C 210.441406 524.691406 210.910156 525.261719 211.320312 525.875 C 211.730469 526.488281 212.078125 527.136719 212.359375 527.820312 C 212.644531 528.503906 212.855469 529.207031 213 529.929688 C 213.144531 530.65625 213.214844 531.386719 213.214844 532.125 Z M 213.214844 532.125 " fill-opacity="1" fill-rule="nonzero"/><path fill="#f0f8ff" d="M 191.832031 486.5625 C 191.832031 487.300781 191.757812 488.03125 191.613281 488.757812 C 191.46875 489.480469 191.257812 490.183594 190.972656 490.867188 C 190.691406 491.550781 190.34375 492.199219 189.933594 492.8125 C 189.523438 493.425781 189.054688 493.996094 188.535156 494.515625 C 188.011719 495.039062 187.441406 495.507812 186.828125 495.917969 C 186.214844 496.328125 185.566406 496.671875 184.882812 496.957031 C 184.199219 497.238281 183.496094 497.453125 182.769531 497.597656 C 182.046875 497.742188 181.3125 497.8125 180.574219 497.8125 C 179.835938 497.8125 179.105469 497.742188 178.378906 497.597656 C 177.652344 497.453125 176.949219 497.238281 176.265625 496.957031 C 175.585938 496.671875 174.9375 496.328125 174.320312 495.917969 C 173.707031 495.507812 173.136719 495.039062 172.617188 494.515625 C 172.09375 493.996094 171.625 493.425781 171.214844 492.8125 C 170.804688 492.199219 170.457031 491.550781 170.175781 490.867188 C 169.894531 490.183594 169.679688 489.480469 169.535156 488.757812 C 169.390625 488.03125 169.320312 487.300781 169.320312 486.5625 C 169.320312 485.824219 169.390625 485.09375 169.535156 484.367188 C 169.679688 483.644531 169.894531 482.941406 170.175781 482.257812 C 170.457031 481.574219 170.804688 480.925781 171.214844 480.3125 C 171.625 479.699219 172.09375 479.128906 172.617188 478.609375 C 173.136719 478.085938 173.707031 477.617188 174.320312 477.207031 C 174.9375 476.796875 175.585938 476.453125 176.265625 476.167969 C 176.949219 475.886719 177.652344 475.671875 178.378906 475.527344 C 179.105469 475.382812 179.835938 475.3125 180.574219 475.3125 C 181.3125 475.3125 182.046875 475.382812 182.769531 475.527344 C 183.496094 475.671875 184.199219 475.886719 184.882812 476.167969 C 185.566406 476.453125 186.214844 476.796875 186.828125 477.207031 C 187.441406 477.617188 188.011719 478.085938 188.535156 478.609375 C 189.054688 479.128906 189.523438 479.699219 189.933594 480.3125 C 190.34375 480.925781 190.691406 481.574219 190.972656 482.257812 C 191.257812 482.941406 191.46875 483.644531 191.613281 484.367188 C 191.757812 485.09375 191.832031 485.824219 191.832031 486.5625 Z M 191.832031 486.5625 " fill-opacity="1" fill-rule="nonzero"/><path fill="#f0f8ff" d="M 178.886719 438.75 C 178.886719 439.488281 178.816406 440.21875 178.671875 440.945312 C 178.527344 441.667969 178.3125 442.371094 178.03125 443.054688 C 177.746094 443.738281 177.398438 444.386719 176.988281 445 C 176.578125 445.613281 176.113281 446.183594 175.589844 446.703125 C 175.066406 447.226562 174.5 447.695312 173.882812 448.105469 C 173.269531 448.515625 172.621094 448.859375 171.9375 449.144531 C 171.253906 449.425781 170.550781 449.640625 169.828125 449.785156 C 169.101562 449.929688 168.371094 450 167.628906 450 C 166.890625 450 166.160156 449.929688 165.433594 449.785156 C 164.710938 449.640625 164.007812 449.425781 163.324219 449.144531 C 162.640625 448.859375 161.992188 448.515625 161.378906 448.105469 C 160.761719 447.695312 160.195312 447.226562 159.671875 446.703125 C 159.148438 446.183594 158.683594 445.613281 158.273438 445 C 157.863281 444.386719 157.515625 443.738281 157.230469 443.054688 C 156.949219 442.371094 156.734375 441.667969 156.589844 440.945312 C 156.445312 440.21875 156.375 439.488281 156.375 438.75 C 156.375 438.011719 156.445312 437.28125 156.589844 436.554688 C 156.734375 435.832031 156.949219 435.128906 157.230469 434.445312 C 157.515625 433.761719 157.863281 433.113281 158.273438 432.5 C 158.683594 431.886719 159.148438 431.316406 159.671875 430.796875 C 160.195312 430.273438 160.761719 429.804688 161.378906 429.394531 C 161.992188 428.984375 162.640625 428.640625 163.324219 428.355469 C 164.007812 428.074219 164.710938 427.859375 165.433594 427.714844 C 166.160156 427.570312 166.890625 427.5 167.628906 427.5 C 168.371094 427.5 169.101562 427.570312 169.828125 427.714844 C 170.550781 427.859375 171.253906 428.074219 171.9375 428.355469 C 172.621094 428.640625 173.269531 428.984375 173.882812 429.394531 C 174.5 429.804688 175.066406 430.273438 175.589844 430.796875 C 176.113281 431.316406 176.578125 431.886719 176.988281 432.5 C 177.398438 433.113281 177.746094 433.761719 178.03125 434.445312 C 178.3125 435.128906 178.527344 435.832031 178.671875 436.554688 C 178.816406 437.28125 178.886719 438.011719 178.886719 438.75 Z M 178.886719 438.75 " fill-opacity="1" fill-rule="nonzero"/><g clip-path="url(#cca07bd54f)"><path fill="#f0f8ff" d="M 174.382812 388.6875 C 174.382812 389.425781 174.3125 390.15625 174.167969 390.882812 C 174.023438 391.605469 173.808594 392.308594 173.527344 392.992188 C 173.246094 393.675781 172.898438 394.324219 172.488281 394.9375 C 172.078125 395.550781 171.609375 396.121094 171.085938 396.640625 C 170.566406 397.164062 169.996094 397.632812 169.382812 398.042969 C 168.765625 398.453125 168.117188 398.796875 167.4375 399.082031 C 166.753906 399.363281 166.050781 399.578125 165.324219 399.722656 C 164.597656 399.867188 163.867188 399.9375 163.128906 399.9375 C 162.390625 399.9375 161.65625 399.867188 160.933594 399.722656 C 160.207031 399.578125 159.503906 399.363281 158.820312 399.082031 C 158.136719 398.796875 157.488281 398.453125 156.875 398.042969 C 156.261719 397.632812 155.691406 397.164062 155.167969 396.640625 C 154.648438 396.121094 154.179688 395.550781 153.769531 394.9375 C 153.359375 394.324219 153.011719 393.675781 152.730469 392.992188 C 152.445312 392.308594 152.234375 391.605469 152.089844 390.882812 C 151.945312 390.15625 151.871094 389.425781 151.871094 388.6875 C 151.871094 387.949219 151.945312 387.21875 152.089844 386.492188 C 152.234375 385.769531 152.445312 385.066406 152.730469 384.382812 C 153.011719 383.699219 153.359375 383.050781 153.769531 382.4375 C 154.179688 381.824219 154.648438 381.253906 155.167969 380.734375 C 155.691406 380.210938 156.261719 379.742188 156.875 379.332031 C 157.488281 378.921875 158.136719 378.578125 158.820312 378.292969 C 159.503906 378.011719 160.207031 377.796875 160.933594 377.652344 C 161.65625 377.507812 162.390625 377.4375 163.128906 377.4375 C 163.867188 377.4375 164.597656 377.507812 165.324219 377.652344 C 166.050781 377.796875 166.753906 378.011719 167.4375 378.292969 C 168.117188 378.578125 168.765625 378.921875 169.382812 379.332031 C 169.996094 379.742188 170.566406 380.210938 171.085938 380.734375 C 171.609375 381.253906 172.078125 381.824219 172.488281 382.4375 C 172.898438 383.050781 173.246094 383.699219 173.527344 384.382812 C 173.808594 385.066406 174.023438 385.769531 174.167969 386.492188 C 174.3125 387.21875 174.382812 387.949219 174.382812 388.6875 Z M 174.382812 388.6875 " fill-opacity="1" fill-rule="nonzero"/></g><path fill="#f0f8ff" d="M 178.324219 339.1875 C 178.324219 339.925781 178.25 340.65625 178.109375 341.382812 C 177.964844 342.105469 177.75 342.808594 177.46875 343.492188 C 177.183594 344.175781 176.835938 344.824219 176.425781 345.4375 C 176.015625 346.050781 175.550781 346.621094 175.027344 347.140625 C 174.503906 347.664062 173.9375 348.132812 173.320312 348.542969 C 172.707031 348.953125 172.058594 349.296875 171.375 349.582031 C 170.691406 349.863281 169.988281 350.078125 169.265625 350.222656 C 168.539062 350.367188 167.808594 350.4375 167.066406 350.4375 C 166.328125 350.4375 165.597656 350.367188 164.871094 350.222656 C 164.148438 350.078125 163.445312 349.863281 162.761719 349.582031 C 162.078125 349.296875 161.429688 348.953125 160.816406 348.542969 C 160.199219 348.132812 159.632812 347.664062 159.109375 347.140625 C 158.585938 346.621094 158.121094 346.050781 157.710938 345.4375 C 157.296875 344.824219 156.953125 344.175781 156.667969 343.492188 C 156.386719 342.808594 156.171875 342.105469 156.027344 341.382812 C 155.882812 340.65625 155.8125 339.925781 155.8125 339.1875 C 155.8125 338.449219 155.882812 337.71875 156.027344 336.992188 C 156.171875 336.269531 156.386719 335.566406 156.667969 334.882812 C 156.953125 334.199219 157.296875 333.550781 157.710938 332.9375 C 158.121094 332.324219 158.585938 331.753906 159.109375 331.234375 C 159.632812 330.710938 160.199219 330.242188 160.816406 329.832031 C 161.429688 329.421875 162.078125 329.078125 162.761719 328.792969 C 163.445312 328.511719 164.148438 328.296875 164.871094 328.152344 C 165.597656 328.007812 166.328125 327.9375 167.066406 327.9375 C 167.808594 327.9375 168.539062 328.007812 169.265625 328.152344 C 169.988281 328.296875 170.691406 328.511719 171.375 328.792969 C 172.058594 329.078125 172.707031 329.421875 173.320312 329.832031 C 173.9375 330.242188 174.503906 330.710938 175.027344 331.234375 C 175.550781 331.753906 176.015625 332.324219 176.425781 332.9375 C 176.835938 333.550781 177.183594 334.199219 177.46875 334.882812 C 177.75 335.566406 177.964844 336.269531 178.109375 336.992188 C 178.25 337.71875 178.324219 338.449219 178.324219 339.1875 Z M 178.324219 339.1875 " fill-opacity="1" fill-rule="nonzero"/><path fill="#f0f8ff" d="M 191.269531 290.8125 C 191.269531 291.550781 191.195312 292.28125 191.050781 293.007812 C 190.90625 293.730469 190.695312 294.433594 190.410156 295.117188 C 190.128906 295.800781 189.78125 296.449219 189.371094 297.0625 C 188.960938 297.675781 188.492188 298.246094 187.972656 298.765625 C 187.449219 299.289062 186.878906 299.757812 186.265625 300.167969 C 185.652344 300.578125 185.003906 300.921875 184.320312 301.207031 C 183.636719 301.488281 182.933594 301.703125 182.207031 301.847656 C 181.484375 301.992188 180.75 302.0625 180.011719 302.0625 C 179.273438 302.0625 178.542969 301.992188 177.816406 301.847656 C 177.089844 301.703125 176.386719 301.488281 175.703125 301.207031 C 175.023438 300.921875 174.375 300.578125 173.757812 300.167969 C 173.144531 299.757812 172.574219 299.289062 172.054688 298.765625 C 171.53125 298.246094 171.0625 297.675781 170.652344 297.0625 C 170.242188 296.449219 169.894531 295.800781 169.613281 295.117188 C 169.332031 294.433594 169.117188 293.730469 168.972656 293.007812 C 168.828125 292.28125 168.757812 291.550781 168.757812 290.8125 C 168.757812 290.074219 168.828125 289.34375 168.972656 288.617188 C 169.117188 287.894531 169.332031 287.191406 169.613281 286.507812 C 169.894531 285.824219 170.242188 285.175781 170.652344 284.5625 C 171.0625 283.949219 171.53125 283.378906 172.054688 282.859375 C 172.574219 282.335938 173.144531 281.867188 173.757812 281.457031 C 174.375 281.046875 175.023438 280.703125 175.703125 280.417969 C 176.386719 280.136719 177.089844 279.921875 177.816406 279.777344 C 178.542969 279.632812 179.273438 279.5625 180.011719 279.5625 C 180.75 279.5625 181.484375 279.632812 182.207031 279.777344 C 182.933594 279.921875 183.636719 280.136719 184.320312 280.417969 C 185.003906 280.703125 185.652344 281.046875 186.265625 281.457031 C 186.878906 281.867188 187.449219 282.335938 187.972656 282.859375 C 188.492188 283.378906 188.960938 283.949219 189.371094 284.5625 C 189.78125 285.175781 190.128906 285.824219 190.410156 286.507812 C 190.695312 287.191406 190.90625 287.894531 191.050781 288.617188 C 191.195312 289.34375 191.269531 290.074219 191.269531 290.8125 Z M 191.269531 290.8125 " fill-opacity="1" fill-rule="nonzero"/><path fill="#f0f8ff" d="M 212.652344 245.25 C 212.652344 245.988281 212.582031 246.71875 212.4375 247.445312 C 212.292969 248.167969 212.078125 248.871094 211.796875 249.554688 C 211.515625 250.238281 211.167969 250.886719 210.757812 251.5 C 210.347656 252.113281 209.878906 252.683594 209.355469 253.203125 C 208.835938 253.726562 208.265625 254.195312 207.652344 254.605469 C 207.035156 255.015625 206.386719 255.359375 205.707031 255.644531 C 205.023438 255.925781 204.320312 256.140625 203.59375 256.285156 C 202.867188 256.429688 202.136719 256.5 201.398438 256.5 C 200.660156 256.5 199.925781 256.429688 199.203125 256.285156 C 198.476562 256.140625 197.773438 255.925781 197.089844 255.644531 C 196.40625 255.359375 195.757812 255.015625 195.144531 254.605469 C 194.53125 254.195312 193.960938 253.726562 193.4375 253.203125 C 192.917969 252.683594 192.449219 252.113281 192.039062 251.5 C 191.628906 250.886719 191.28125 250.238281 191 249.554688 C 190.714844 248.871094 190.503906 248.167969 190.359375 247.445312 C 190.214844 246.71875 190.140625 245.988281 190.140625 245.25 C 190.140625 244.511719 190.214844 243.78125 190.359375 243.054688 C 190.503906 242.332031 190.714844 241.628906 191 240.945312 C 191.28125 240.261719 191.628906 239.613281 192.039062 239 C 192.449219 238.386719 192.917969 237.816406 193.4375 237.296875 C 193.960938 236.773438 194.53125 236.304688 195.144531 235.894531 C 195.757812 235.484375 196.40625 235.140625 197.089844 234.855469 C 197.773438 234.574219 198.476562 234.359375 199.203125 234.214844 C 199.925781 234.070312 200.660156 234 201.398438 234 C 202.136719 234 202.867188 234.070312 203.59375 234.214844 C 204.320312 234.359375 205.023438 234.574219 205.707031 234.855469 C 206.386719 235.140625 207.035156 235.484375 207.652344 235.894531 C 208.265625 236.304688 208.835938 236.773438 209.355469 237.296875 C 209.878906 237.816406 210.347656 238.386719 210.757812 239 C 211.167969 239.613281 211.515625 240.261719 211.796875 240.945312 C 212.078125 241.628906 212.292969 242.332031 212.4375 243.054688 C 212.582031 243.78125 212.652344 244.511719 212.652344 245.25 Z M 212.652344 245.25 " fill-opacity="1" fill-rule="nonzero"/><path fill="#f0f8ff" d="M 240.792969 204.1875 C 240.792969 204.925781 240.722656 205.65625 240.578125 206.382812 C 240.433594 207.105469 240.21875 207.808594 239.9375 208.492188 C 239.652344 209.175781 239.308594 209.824219 238.894531 210.4375 C 238.484375 211.050781 238.019531 211.621094 237.496094 212.140625 C 236.972656 212.664062 236.40625 213.132812 235.789062 213.542969 C 235.175781 213.953125 234.527344 214.296875 233.84375 214.582031 C 233.160156 214.863281 232.457031 215.078125 231.734375 215.222656 C 231.007812 215.367188 230.277344 215.4375 229.539062 215.4375 C 228.796875 215.4375 228.066406 215.367188 227.339844 215.222656 C 226.617188 215.078125 225.914062 214.863281 225.230469 214.582031 C 224.546875 214.296875 223.898438 213.953125 223.285156 213.542969 C 222.667969 213.132812 222.101562 212.664062 221.578125 212.140625 C 221.054688 211.621094 220.589844 211.050781 220.179688 210.4375 C 219.769531 209.824219 219.421875 209.175781 219.136719 208.492188 C 218.855469 207.808594 218.640625 207.105469 218.496094 206.382812 C 218.355469 205.65625 218.28125 204.925781 218.28125 204.1875 C 218.28125 203.449219 218.355469 202.71875 218.496094 201.992188 C 218.640625 201.269531 218.855469 200.566406 219.136719 199.882812 C 219.421875 199.199219 219.769531 198.550781 220.179688 197.9375 C 220.589844 197.324219 221.054688 196.753906 221.578125 196.234375 C 222.101562 195.710938 222.667969 195.242188 223.285156 194.832031 C 223.898438 194.421875 224.546875 194.078125 225.230469 193.792969 C 225.914062 193.511719 226.617188 193.296875 227.339844 193.152344 C 228.066406 193.007812 228.796875 192.9375 229.539062 192.9375 C 230.277344 192.9375 231.007812 193.007812 231.734375 193.152344 C 232.457031 193.296875 233.160156 193.511719 233.84375 193.792969 C 234.527344 194.078125 235.175781 194.421875 235.789062 194.832031 C 236.40625 195.242188 236.972656 195.710938 237.496094 196.234375 C 238.019531 196.753906 238.484375 197.324219 238.894531 197.9375 C 239.308594 198.550781 239.652344 199.199219 239.9375 199.882812 C 240.21875 200.566406 240.433594 201.269531 240.578125 201.992188 C 240.722656 202.71875 240.792969 203.449219 240.792969 204.1875 Z M 240.792969 204.1875 " fill-opacity="1" fill-rule="nonzero"/><path fill="#f0f8ff" d="M 276.25 168.75 C 276.25 169.488281 276.175781 170.21875 276.03125 170.945312 C 275.886719 171.667969 275.675781 172.371094 275.390625 173.054688 C 275.109375 173.738281 274.761719 174.386719 274.351562 175 C 273.941406 175.613281 273.472656 176.183594 272.953125 176.703125 C 272.429688 177.226562 271.859375 177.695312 271.246094 178.105469 C 270.632812 178.515625 269.984375 178.859375 269.300781 179.144531 C 268.617188 179.425781 267.914062 179.640625 267.1875 179.785156 C 266.464844 179.929688 265.730469 180 264.992188 180 C 264.253906 180 263.523438 179.929688 262.796875 179.785156 C 262.070312 179.640625 261.367188 179.425781 260.6875 179.144531 C 260.003906 178.859375 259.355469 178.515625 258.738281 178.105469 C 258.125 177.695312 257.554688 177.226562 257.035156 176.703125 C 256.511719 176.183594 256.042969 175.613281 255.632812 175 C 255.222656 174.386719 254.875 173.738281 254.59375 173.054688 C 254.3125 172.371094 254.097656 171.667969 253.953125 170.945312 C 253.808594 170.21875 253.738281 169.488281 253.738281 168.75 C 253.738281 168.011719 253.808594 167.28125 253.953125 166.554688 C 254.097656 165.832031 254.3125 165.128906 254.59375 164.445312 C 254.875 163.761719 255.222656 163.113281 255.632812 162.5 C 256.042969 161.886719 256.511719 161.316406 257.035156 160.796875 C 257.554688 160.273438 258.125 159.804688 258.738281 159.394531 C 259.355469 158.984375 260.003906 158.640625 260.6875 158.355469 C 261.367188 158.074219 262.070312 157.859375 262.796875 157.714844 C 263.523438 157.570312 264.253906 157.5 264.992188 157.5 C 265.730469 157.5 266.464844 157.570312 267.1875 157.714844 C 267.914062 157.859375 268.617188 158.074219 269.300781 158.355469 C 269.984375 158.640625 270.632812 158.984375 271.246094 159.394531 C 271.859375 159.804688 272.429688 160.273438 272.953125 160.796875 C 273.472656 161.316406 273.941406 161.886719 274.351562 162.5 C 274.761719 163.113281 275.109375 163.761719 275.390625 164.445312 C 275.675781 165.128906 275.886719 165.832031 276.03125 166.554688 C 276.175781 167.28125 276.25 168.011719 276.25 168.75 Z M 276.25 168.75 " fill-opacity="1" fill-rule="nonzero"/><path fill="#f0f8ff" d="M 317.332031 140.0625 C 317.332031 140.800781 317.261719 141.53125 317.117188 142.257812 C 316.972656 142.980469 316.757812 143.683594 316.476562 144.367188 C 316.191406 145.050781 315.847656 145.699219 315.433594 146.3125 C 315.023438 146.925781 314.558594 147.496094 314.035156 148.015625 C 313.511719 148.539062 312.945312 149.007812 312.328125 149.417969 C 311.714844 149.828125 311.066406 150.171875 310.382812 150.457031 C 309.699219 150.738281 308.996094 150.953125 308.273438 151.097656 C 307.546875 151.242188 306.816406 151.3125 306.078125 151.3125 C 305.335938 151.3125 304.605469 151.242188 303.878906 151.097656 C 303.15625 150.953125 302.453125 150.738281 301.769531 150.457031 C 301.085938 150.171875 300.4375 149.828125 299.824219 149.417969 C 299.207031 149.007812 298.640625 148.539062 298.117188 148.015625 C 297.59375 147.496094 297.128906 146.925781 296.71875 146.3125 C 296.308594 145.699219 295.960938 145.050781 295.675781 144.367188 C 295.394531 143.683594 295.179688 142.980469 295.035156 142.257812 C 294.894531 141.53125 294.820312 140.800781 294.820312 140.0625 C 294.820312 139.324219 294.894531 138.59375 295.035156 137.867188 C 295.179688 137.144531 295.394531 136.441406 295.675781 135.757812 C 295.960938 135.074219 296.308594 134.425781 296.71875 133.8125 C 297.128906 133.199219 297.59375 132.628906 298.117188 132.109375 C 298.640625 131.585938 299.207031 131.117188 299.824219 130.707031 C 300.4375 130.296875 301.085938 129.953125 301.769531 129.667969 C 302.453125 129.386719 303.15625 129.171875 303.878906 129.027344 C 304.605469 128.882812 305.335938 128.8125 306.078125 128.8125 C 306.816406 128.8125 307.546875 128.882812 308.273438 129.027344 C 308.996094 129.171875 309.699219 129.386719 310.382812 129.667969 C 311.066406 129.953125 311.714844 130.296875 312.328125 130.707031 C 312.945312 131.117188 313.511719 131.585938 314.035156 132.109375 C 314.558594 132.628906 315.023438 133.199219 315.433594 133.8125 C 315.847656 134.425781 316.191406 135.074219 316.476562 135.757812 C 316.757812 136.441406 316.972656 137.144531 317.117188 137.867188 C 317.261719 138.59375 317.332031 139.324219 317.332031 140.0625 Z M 317.332031 140.0625 " fill-opacity="1" fill-rule="nonzero"/><path fill="#f0f8ff" d="M 362.355469 118.6875 C 362.355469 119.425781 362.28125 120.15625 362.140625 120.882812 C 361.996094 121.605469 361.78125 122.308594 361.5 122.992188 C 361.214844 123.675781 360.867188 124.324219 360.457031 124.9375 C 360.046875 125.550781 359.582031 126.121094 359.058594 126.640625 C 358.535156 127.164062 357.96875 127.632812 357.351562 128.042969 C 356.738281 128.453125 356.089844 128.796875 355.40625 129.082031 C 354.722656 129.363281 354.019531 129.578125 353.296875 129.722656 C 352.570312 129.867188 351.839844 129.9375 351.097656 129.9375 C 350.359375 129.9375 349.628906 129.867188 348.902344 129.722656 C 348.179688 129.578125 347.476562 129.363281 346.792969 129.082031 C 346.109375 128.796875 345.460938 128.453125 344.847656 128.042969 C 344.230469 127.632812 343.664062 127.164062 343.140625 126.640625 C 342.617188 126.121094 342.152344 125.550781 341.742188 124.9375 C 341.328125 124.324219 340.984375 123.675781 340.699219 122.992188 C 340.417969 122.308594 340.203125 121.605469 340.058594 120.882812 C 339.914062 120.15625 339.84375 119.425781 339.84375 118.6875 C 339.84375 117.949219 339.914062 117.21875 340.058594 116.492188 C 340.203125 115.769531 340.417969 115.066406 340.699219 114.382812 C 340.984375 113.699219 341.328125 113.050781 341.742188 112.4375 C 342.152344 111.824219 342.617188 111.253906 343.140625 110.734375 C 343.664062 110.210938 344.230469 109.742188 344.847656 109.332031 C 345.460938 108.921875 346.109375 108.578125 346.792969 108.292969 C 347.476562 108.011719 348.179688 107.796875 348.902344 107.652344 C 349.628906 107.507812 350.359375 107.4375 351.097656 107.4375 C 351.839844 107.4375 352.570312 107.507812 353.296875 107.652344 C 354.019531 107.796875 354.722656 108.011719 355.40625 108.292969 C 356.089844 108.578125 356.738281 108.921875 357.351562 109.332031 C 357.96875 109.742188 358.535156 110.210938 359.058594 110.734375 C 359.582031 111.253906 360.046875 111.824219 360.457031 112.4375 C 360.867188 113.050781 361.214844 113.699219 361.5 114.382812 C 361.78125 115.066406 361.996094 115.769531 362.140625 116.492188 C 362.28125 117.21875 362.355469 117.949219 362.355469 118.6875 Z M 362.355469 118.6875 " fill-opacity="1" fill-rule="nonzero"/><path fill="#f0f8ff" d="M 410.753906 105.75 C 410.753906 106.488281 410.683594 107.21875 410.539062 107.945312 C 410.394531 108.667969 410.179688 109.371094 409.898438 110.054688 C 409.613281 110.738281 409.269531 111.386719 408.859375 112 C 408.449219 112.613281 407.980469 113.183594 407.457031 113.703125 C 406.933594 114.226562 406.367188 114.695312 405.753906 115.105469 C 405.136719 115.515625 404.488281 115.859375 403.804688 116.144531 C 403.125 116.425781 402.417969 116.640625 401.695312 116.785156 C 400.96875 116.929688 400.238281 117 399.5 117 C 398.761719 117 398.027344 116.929688 397.304688 116.785156 C 396.578125 116.640625 395.875 116.425781 395.191406 116.144531 C 394.507812 115.859375 393.859375 115.515625 393.246094 115.105469 C 392.632812 114.695312 392.0625 114.226562 391.539062 113.703125 C 391.015625 113.183594 390.550781 112.613281 390.140625 112 C 389.730469 111.386719 389.382812 110.738281 389.101562 110.054688 C 388.816406 109.371094 388.605469 108.667969 388.460938 107.945312 C 388.316406 107.21875 388.242188 106.488281 388.242188 105.75 C 388.242188 105.011719 388.316406 104.28125 388.460938 103.554688 C 388.605469 102.832031 388.816406 102.128906 389.101562 101.445312 C 389.382812 100.761719 389.730469 100.113281 390.140625 99.5 C 390.550781 98.886719 391.015625 98.316406 391.539062 97.796875 C 392.0625 97.273438 392.632812 96.804688 393.246094 96.394531 C 393.859375 95.984375 394.507812 95.640625 395.191406 95.355469 C 395.875 95.074219 396.578125 94.859375 397.304688 94.714844 C 398.027344 94.570312 398.761719 94.5 399.5 94.5 C 400.238281 94.5 400.96875 94.570312 401.695312 94.714844 C 402.417969 94.859375 403.125 95.074219 403.804688 95.355469 C 404.488281 95.640625 405.136719 95.984375 405.753906 96.394531 C 406.367188 96.804688 406.933594 97.273438 407.457031 97.796875 C 407.980469 98.316406 408.449219 98.886719 408.859375 99.5 C 409.269531 100.113281 409.613281 100.761719 409.898438 101.445312 C 410.179688 102.128906 410.394531 102.832031 410.539062 103.554688 C 410.683594 104.28125 410.753906 105.011719 410.753906 105.75 Z M 410.753906 105.75 " fill-opacity="1" fill-rule="nonzero"/><path fill="#f0f8ff" d="M 461.40625 101.25 C 461.40625 101.988281 461.332031 102.71875 461.1875 103.445312 C 461.046875 104.167969 460.832031 104.871094 460.550781 105.554688 C 460.265625 106.238281 459.917969 106.886719 459.507812 107.5 C 459.097656 108.113281 458.632812 108.683594 458.109375 109.203125 C 457.585938 109.726562 457.019531 110.195312 456.402344 110.605469 C 455.789062 111.015625 455.140625 111.359375 454.457031 111.644531 C 453.773438 111.925781 453.070312 112.140625 452.347656 112.285156 C 451.621094 112.429688 450.890625 112.5 450.148438 112.5 C 449.410156 112.5 448.679688 112.429688 447.953125 112.285156 C 447.230469 112.140625 446.523438 111.925781 445.84375 111.644531 C 445.160156 111.359375 444.511719 111.015625 443.898438 110.605469 C 443.28125 110.195312 442.714844 109.726562 442.191406 109.203125 C 441.667969 108.683594 441.203125 108.113281 440.792969 107.5 C 440.378906 106.886719 440.035156 106.238281 439.75 105.554688 C 439.46875 104.871094 439.253906 104.167969 439.109375 103.445312 C 438.964844 102.71875 438.894531 101.988281 438.894531 101.25 C 438.894531 100.511719 438.964844 99.78125 439.109375 99.054688 C 439.253906 98.332031 439.46875 97.628906 439.75 96.945312 C 440.035156 96.261719 440.378906 95.613281 440.792969 95 C 441.203125 94.386719 441.667969 93.816406 442.191406 93.296875 C 442.714844 92.773438 443.28125 92.304688 443.898438 91.894531 C 444.511719 91.484375 445.160156 91.140625 445.84375 90.855469 C 446.523438 90.574219 447.230469 90.359375 447.953125 90.214844 C 448.679688 90.070312 449.410156 90 450.148438 90 C 450.890625 90 451.621094 90.070312 452.347656 90.214844 C 453.070312 90.359375 453.773438 90.574219 454.457031 90.855469 C 455.140625 91.140625 455.789062 91.484375 456.402344 91.894531 C 457.019531 92.304688 457.585938 92.773438 458.109375 93.296875 C 458.632812 93.816406 459.097656 94.386719 459.507812 95 C 459.917969 95.613281 460.265625 96.261719 460.550781 96.945312 C 460.832031 97.628906 461.046875 98.332031 461.1875 99.054688 C 461.332031 99.78125 461.40625 100.511719 461.40625 101.25 Z M 461.40625 101.25 " fill-opacity="1" fill-rule="nonzero"/><path fill="#f0f8ff" d="M 510.367188 105.1875 C 510.367188 105.925781 510.296875 106.65625 510.152344 107.382812 C 510.007812 108.105469 509.792969 108.808594 509.511719 109.492188 C 509.226562 110.175781 508.882812 110.824219 508.472656 111.4375 C 508.0625 112.050781 507.59375 112.621094 507.070312 113.140625 C 506.546875 113.664062 505.980469 114.132812 505.367188 114.542969 C 504.75 114.953125 504.101562 115.296875 503.417969 115.582031 C 502.738281 115.863281 502.03125 116.078125 501.308594 116.222656 C 500.582031 116.367188 499.851562 116.4375 499.113281 116.4375 C 498.375 116.4375 497.640625 116.367188 496.917969 116.222656 C 496.191406 116.078125 495.488281 115.863281 494.804688 115.582031 C 494.121094 115.296875 493.472656 114.953125 492.859375 114.542969 C 492.246094 114.132812 491.675781 113.664062 491.152344 113.140625 C 490.628906 112.621094 490.164062 112.050781 489.753906 111.4375 C 489.34375 110.824219 488.996094 110.175781 488.714844 109.492188 C 488.429688 108.808594 488.21875 108.105469 488.074219 107.382812 C 487.929688 106.65625 487.855469 105.925781 487.855469 105.1875 C 487.855469 104.449219 487.929688 103.71875 488.074219 102.992188 C 488.21875 102.269531 488.429688 101.566406 488.714844 100.882812 C 488.996094 100.199219 489.34375 99.550781 489.753906 98.9375 C 490.164062 98.324219 490.628906 97.753906 491.152344 97.234375 C 491.675781 96.710938 492.246094 96.242188 492.859375 95.832031 C 493.472656 95.421875 494.121094 95.078125 494.804688 94.792969 C 495.488281 94.511719 496.191406 94.296875 496.917969 94.152344 C 497.640625 94.007812 498.375 93.9375 499.113281 93.9375 C 499.851562 93.9375 500.582031 94.007812 501.308594 94.152344 C 502.03125 94.296875 502.738281 94.511719 503.417969 94.792969 C 504.101562 95.078125 504.75 95.421875 505.367188 95.832031 C 505.980469 96.242188 506.546875 96.710938 507.070312 97.234375 C 507.59375 97.753906 508.0625 98.324219 508.472656 98.9375 C 508.882812 99.550781 509.226562 100.199219 509.511719 100.882812 C 509.792969 101.566406 510.007812 102.269531 510.152344 102.992188 C 510.296875 103.71875 510.367188 104.449219 510.367188 105.1875 Z M 510.367188 105.1875 " fill-opacity="1" fill-rule="nonzero"/><path fill="#f0f8ff" d="M 558.769531 118.125 C 558.769531 118.863281 558.695312 119.59375 558.550781 120.320312 C 558.40625 121.042969 558.195312 121.746094 557.910156 122.429688 C 557.628906 123.113281 557.28125 123.761719 556.871094 124.375 C 556.460938 124.988281 555.992188 125.558594 555.472656 126.078125 C 554.949219 126.601562 554.378906 127.070312 553.765625 127.480469 C 553.152344 127.890625 552.503906 128.234375 551.820312 128.519531 C 551.136719 128.800781 550.433594 129.015625 549.707031 129.160156 C 548.984375 129.304688 548.25 129.375 547.511719 129.375 C 546.773438 129.375 546.042969 129.304688 545.316406 129.160156 C 544.589844 129.015625 543.886719 128.800781 543.203125 128.519531 C 542.523438 128.234375 541.875 127.890625 541.257812 127.480469 C 540.644531 127.070312 540.074219 126.601562 539.554688 126.078125 C 539.03125 125.558594 538.5625 124.988281 538.152344 124.375 C 537.742188 123.761719 537.394531 123.113281 537.113281 122.429688 C 536.832031 121.746094 536.617188 121.042969 536.472656 120.320312 C 536.328125 119.59375 536.257812 118.863281 536.257812 118.125 C 536.257812 117.386719 536.328125 116.65625 536.472656 115.929688 C 536.617188 115.207031 536.832031 114.503906 537.113281 113.820312 C 537.394531 113.136719 537.742188 112.488281 538.152344 111.875 C 538.5625 111.261719 539.03125 110.691406 539.554688 110.171875 C 540.074219 109.648438 540.644531 109.179688 541.257812 108.769531 C 541.875 108.359375 542.523438 108.015625 543.203125 107.730469 C 543.886719 107.449219 544.589844 107.234375 545.316406 107.089844 C 546.042969 106.945312 546.773438 106.875 547.511719 106.875 C 548.25 106.875 548.984375 106.945312 549.707031 107.089844 C 550.433594 107.234375 551.136719 107.449219 551.820312 107.730469 C 552.503906 108.015625 553.152344 108.359375 553.765625 108.769531 C 554.378906 109.179688 554.949219 109.648438 555.472656 110.171875 C 555.992188 110.691406 556.460938 111.261719 556.871094 111.875 C 557.28125 112.488281 557.628906 113.136719 557.910156 113.820312 C 558.195312 114.503906 558.40625 115.207031 558.550781 115.929688 C 558.695312 116.65625 558.769531 117.386719 558.769531 118.125 Z M 558.769531 118.125 " fill-opacity="1" fill-rule="nonzero"/><path fill="#f0f8ff" d="M 603.789062 138.9375 C 603.789062 139.675781 603.71875 140.40625 603.574219 141.132812 C 603.429688 141.855469 603.21875 142.558594 602.933594 143.242188 C 602.652344 143.925781 602.304688 144.574219 601.894531 145.1875 C 601.484375 145.800781 601.015625 146.371094 600.492188 146.890625 C 599.972656 147.414062 599.402344 147.882812 598.789062 148.292969 C 598.175781 148.703125 597.523438 149.046875 596.84375 149.332031 C 596.160156 149.613281 595.457031 149.828125 594.730469 149.972656 C 594.007812 150.117188 593.273438 150.1875 592.535156 150.1875 C 591.796875 150.1875 591.0625 150.117188 590.339844 149.972656 C 589.613281 149.828125 588.910156 149.613281 588.226562 149.332031 C 587.542969 149.046875 586.894531 148.703125 586.28125 148.292969 C 585.667969 147.882812 585.097656 147.414062 584.574219 146.890625 C 584.054688 146.371094 583.585938 145.800781 583.175781 145.1875 C 582.765625 144.574219 582.417969 143.925781 582.136719 143.242188 C 581.851562 142.558594 581.640625 141.855469 581.496094 141.132812 C 581.351562 140.40625 581.28125 139.675781 581.28125 138.9375 C 581.28125 138.199219 581.351562 137.46875 581.496094 136.742188 C 581.640625 136.019531 581.851562 135.316406 582.136719 134.632812 C 582.417969 133.949219 582.765625 133.300781 583.175781 132.6875 C 583.585938 132.074219 584.054688 131.503906 584.574219 130.984375 C 585.097656 130.460938 585.667969 129.992188 586.28125 129.582031 C 586.894531 129.171875 587.542969 128.828125 588.226562 128.542969 C 588.910156 128.261719 589.613281 128.046875 590.339844 127.902344 C 591.0625 127.757812 591.796875 127.6875 592.535156 127.6875 C 593.273438 127.6875 594.007812 127.757812 594.730469 127.902344 C 595.457031 128.046875 596.160156 128.261719 596.84375 128.542969 C 597.523438 128.828125 598.175781 129.171875 598.789062 129.582031 C 599.402344 129.992188 599.972656 130.460938 600.492188 130.984375 C 601.015625 131.503906 601.484375 132.074219 601.894531 132.6875 C 602.304688 133.300781 602.652344 133.949219 602.933594 134.632812 C 603.21875 135.316406 603.429688 136.019531 603.574219 136.742188 C 603.71875 137.46875 603.789062 138.199219 603.789062 138.9375 Z M 603.789062 138.9375 " fill-opacity="1" fill-rule="nonzero"/><path fill="#f0f8ff" d="M 644.875 167.625 C 644.875 168.363281 644.800781 169.09375 644.65625 169.820312 C 644.515625 170.542969 644.300781 171.246094 644.015625 171.929688 C 643.734375 172.613281 643.386719 173.261719 642.976562 173.875 C 642.566406 174.488281 642.101562 175.058594 641.578125 175.578125 C 641.054688 176.101562 640.488281 176.570312 639.871094 176.980469 C 639.257812 177.390625 638.609375 177.734375 637.925781 178.019531 C 637.242188 178.300781 636.539062 178.515625 635.8125 178.660156 C 635.089844 178.804688 634.359375 178.875 633.617188 178.875 C 632.878906 178.875 632.148438 178.804688 631.421875 178.660156 C 630.699219 178.515625 629.992188 178.300781 629.3125 178.019531 C 628.628906 177.734375 627.980469 177.390625 627.363281 176.980469 C 626.75 176.570312 626.183594 176.101562 625.660156 175.578125 C 625.136719 175.058594 624.671875 174.488281 624.257812 173.875 C 623.847656 173.261719 623.503906 172.613281 623.21875 171.929688 C 622.9375 171.246094 622.722656 170.542969 622.578125 169.820312 C 622.433594 169.09375 622.363281 168.363281 622.363281 167.625 C 622.363281 166.886719 622.433594 166.15625 622.578125 165.429688 C 622.722656 164.707031 622.9375 164.003906 623.21875 163.320312 C 623.503906 162.636719 623.847656 161.988281 624.257812 161.375 C 624.671875 160.761719 625.136719 160.191406 625.660156 159.671875 C 626.183594 159.148438 626.75 158.679688 627.363281 158.269531 C 627.980469 157.859375 628.628906 157.515625 629.3125 157.230469 C 629.992188 156.949219 630.699219 156.734375 631.421875 156.589844 C 632.148438 156.445312 632.878906 156.375 633.617188 156.375 C 634.359375 156.375 635.089844 156.445312 635.8125 156.589844 C 636.539062 156.734375 637.242188 156.949219 637.925781 157.230469 C 638.609375 157.515625 639.257812 157.859375 639.871094 158.269531 C 640.488281 158.679688 641.054688 159.148438 641.578125 159.671875 C 642.101562 160.191406 642.566406 160.761719 642.976562 161.375 C 643.386719 161.988281 643.734375 162.636719 644.015625 163.320312 C 644.300781 164.003906 644.515625 164.707031 644.65625 165.429688 C 644.800781 166.15625 644.875 166.886719 644.875 167.625 Z M 644.875 167.625 " fill-opacity="1" fill-rule="nonzero"/><path fill="#f0f8ff" d="M 680.328125 203.0625 C 680.328125 203.800781 680.257812 204.53125 680.113281 205.257812 C 679.96875 205.980469 679.757812 206.683594 679.472656 207.367188 C 679.191406 208.050781 678.84375 208.699219 678.433594 209.3125 C 678.023438 209.925781 677.554688 210.496094 677.03125 211.015625 C 676.511719 211.539062 675.941406 212.007812 675.328125 212.417969 C 674.714844 212.828125 674.0625 213.171875 673.382812 213.457031 C 672.699219 213.738281 671.996094 213.953125 671.269531 214.097656 C 670.546875 214.242188 669.8125 214.3125 669.074219 214.3125 C 668.335938 214.3125 667.601562 214.242188 666.878906 214.097656 C 666.152344 213.953125 665.449219 213.738281 664.765625 213.457031 C 664.082031 213.171875 663.433594 212.828125 662.820312 212.417969 C 662.207031 212.007812 661.636719 211.539062 661.113281 211.015625 C 660.59375 210.496094 660.125 209.925781 659.714844 209.3125 C 659.304688 208.699219 658.957031 208.050781 658.675781 207.367188 C 658.390625 206.683594 658.179688 205.980469 658.035156 205.257812 C 657.890625 204.53125 657.820312 203.800781 657.820312 203.0625 C 657.820312 202.324219 657.890625 201.59375 658.035156 200.867188 C 658.179688 200.144531 658.390625 199.441406 658.675781 198.757812 C 658.957031 198.074219 659.304688 197.425781 659.714844 196.8125 C 660.125 196.199219 660.59375 195.628906 661.113281 195.109375 C 661.636719 194.585938 662.207031 194.117188 662.820312 193.707031 C 663.433594 193.296875 664.082031 192.953125 664.765625 192.667969 C 665.449219 192.386719 666.152344 192.171875 666.878906 192.027344 C 667.601562 191.882812 668.335938 191.8125 669.074219 191.8125 C 669.8125 191.8125 670.546875 191.882812 671.269531 192.027344 C 671.996094 192.171875 672.699219 192.386719 673.382812 192.667969 C 674.0625 192.953125 674.714844 193.296875 675.328125 193.707031 C 675.941406 194.117188 676.511719 194.585938 677.03125 195.109375 C 677.554688 195.628906 678.023438 196.199219 678.433594 196.8125 C 678.84375 197.425781 679.191406 198.074219 679.472656 198.757812 C 679.757812 199.441406 679.96875 200.144531 680.113281 200.867188 C 680.257812 201.59375 680.328125 202.324219 680.328125 203.0625 Z M 680.328125 203.0625 " fill-opacity="1" fill-rule="nonzero"/><path fill="#f0f8ff" d="M 709.59375 243.5625 C 709.59375 244.300781 709.523438 245.03125 709.378906 245.757812 C 709.234375 246.480469 709.019531 247.183594 708.738281 247.867188 C 708.457031 248.550781 708.109375 249.199219 707.699219 249.8125 C 707.289062 250.425781 706.820312 250.996094 706.296875 251.515625 C 705.777344 252.039062 705.207031 252.507812 704.59375 252.917969 C 703.976562 253.328125 703.328125 253.671875 702.644531 253.957031 C 701.964844 254.238281 701.261719 254.453125 700.535156 254.597656 C 699.808594 254.742188 699.078125 254.8125 698.339844 254.8125 C 697.601562 254.8125 696.867188 254.742188 696.144531 254.597656 C 695.417969 254.453125 694.714844 254.238281 694.03125 253.957031 C 693.347656 253.671875 692.699219 253.328125 692.085938 252.917969 C 691.472656 252.507812 690.902344 252.039062 690.378906 251.515625 C 689.859375 250.996094 689.390625 250.425781 688.980469 249.8125 C 688.570312 249.199219 688.222656 248.550781 687.941406 247.867188 C 687.65625 247.183594 687.445312 246.480469 687.300781 245.757812 C 687.15625 245.03125 687.082031 244.300781 687.082031 243.5625 C 687.082031 242.824219 687.15625 242.09375 687.300781 241.367188 C 687.445312 240.644531 687.65625 239.941406 687.941406 239.257812 C 688.222656 238.574219 688.570312 237.925781 688.980469 237.3125 C 689.390625 236.699219 689.859375 236.128906 690.378906 235.609375 C 690.902344 235.085938 691.472656 234.617188 692.085938 234.207031 C 692.699219 233.796875 693.347656 233.453125 694.03125 233.167969 C 694.714844 232.886719 695.417969 232.671875 696.144531 232.527344 C 696.867188 232.382812 697.601562 232.3125 698.339844 232.3125 C 699.078125 232.3125 699.808594 232.382812 700.535156 232.527344 C 701.261719 232.671875 701.964844 232.886719 702.644531 233.167969 C 703.328125 233.453125 703.976562 233.796875 704.59375 234.207031 C 705.207031 234.617188 705.777344 235.085938 706.296875 235.609375 C 706.820312 236.128906 707.289062 236.699219 707.699219 237.3125 C 708.109375 237.925781 708.457031 238.574219 708.738281 239.257812 C 709.019531 239.941406 709.234375 240.644531 709.378906 241.367188 C 709.523438 242.09375 709.59375 242.824219 709.59375 243.5625 Z M 709.59375 243.5625 " fill-opacity="1" fill-rule="nonzero"/><path fill="#f0f8ff" d="M 730.980469 289.125 C 730.980469 289.863281 730.910156 290.59375 730.765625 291.320312 C 730.621094 292.042969 730.40625 292.746094 730.125 293.429688 C 729.839844 294.113281 729.496094 294.761719 729.082031 295.375 C 728.671875 295.988281 728.207031 296.558594 727.683594 297.078125 C 727.160156 297.601562 726.59375 298.070312 725.976562 298.480469 C 725.363281 298.890625 724.714844 299.234375 724.03125 299.519531 C 723.347656 299.800781 722.644531 300.015625 721.921875 300.160156 C 721.195312 300.304688 720.464844 300.375 719.726562 300.375 C 718.984375 300.375 718.253906 300.304688 717.527344 300.160156 C 716.804688 300.015625 716.101562 299.800781 715.417969 299.519531 C 714.734375 299.234375 714.085938 298.890625 713.472656 298.480469 C 712.855469 298.070312 712.289062 297.601562 711.765625 297.078125 C 711.242188 296.558594 710.777344 295.988281 710.367188 295.375 C 709.957031 294.761719 709.609375 294.113281 709.324219 293.429688 C 709.042969 292.746094 708.828125 292.042969 708.683594 291.320312 C 708.542969 290.59375 708.46875 289.863281 708.46875 289.125 C 708.46875 288.386719 708.542969 287.65625 708.683594 286.929688 C 708.828125 286.207031 709.042969 285.503906 709.324219 284.820312 C 709.609375 284.136719 709.957031 283.488281 710.367188 282.875 C 710.777344 282.261719 711.242188 281.691406 711.765625 281.171875 C 712.289062 280.648438 712.855469 280.179688 713.472656 279.769531 C 714.085938 279.359375 714.734375 279.015625 715.417969 278.730469 C 716.101562 278.449219 716.804688 278.234375 717.527344 278.089844 C 718.253906 277.945312 718.984375 277.875 719.726562 277.875 C 720.464844 277.875 721.195312 277.945312 721.921875 278.089844 C 722.644531 278.234375 723.347656 278.449219 724.03125 278.730469 C 724.714844 279.015625 725.363281 279.359375 725.976562 279.769531 C 726.59375 280.179688 727.160156 280.648438 727.683594 281.171875 C 728.207031 281.691406 728.671875 282.261719 729.082031 282.875 C 729.496094 283.488281 729.839844 284.136719 730.125 284.820312 C 730.40625 285.503906 730.621094 286.207031 730.765625 286.929688 C 730.910156 287.65625 730.980469 288.386719 730.980469 289.125 Z M 730.980469 289.125 " fill-opacity="1" fill-rule="nonzero"/><path fill="#f0f8ff" d="M 743.925781 336.9375 C 743.925781 337.675781 743.851562 338.40625 743.707031 339.132812 C 743.5625 339.855469 743.351562 340.558594 743.066406 341.242188 C 742.785156 341.925781 742.4375 342.574219 742.027344 343.1875 C 741.617188 343.800781 741.152344 344.371094 740.628906 344.890625 C 740.105469 345.414062 739.535156 345.882812 738.921875 346.292969 C 738.308594 346.703125 737.660156 347.046875 736.976562 347.332031 C 736.292969 347.613281 735.589844 347.828125 734.863281 347.972656 C 734.140625 348.117188 733.40625 348.1875 732.667969 348.1875 C 731.929688 348.1875 731.199219 348.117188 730.472656 347.972656 C 729.75 347.828125 729.042969 347.613281 728.363281 347.332031 C 727.679688 347.046875 727.03125 346.703125 726.414062 346.292969 C 725.800781 345.882812 725.234375 345.414062 724.710938 344.890625 C 724.1875 344.371094 723.722656 343.800781 723.308594 343.1875 C 722.898438 342.574219 722.554688 341.925781 722.269531 341.242188 C 721.988281 340.558594 721.773438 339.855469 721.628906 339.132812 C 721.484375 338.40625 721.414062 337.675781 721.414062 336.9375 C 721.414062 336.199219 721.484375 335.46875 721.628906 334.742188 C 721.773438 334.019531 721.988281 333.316406 722.269531 332.632812 C 722.554688 331.949219 722.898438 331.300781 723.308594 330.6875 C 723.722656 330.074219 724.1875 329.503906 724.710938 328.984375 C 725.234375 328.460938 725.800781 327.992188 726.414062 327.582031 C 727.03125 327.171875 727.679688 326.828125 728.363281 326.542969 C 729.042969 326.261719 729.75 326.046875 730.472656 325.902344 C 731.199219 325.757812 731.929688 325.6875 732.667969 325.6875 C 733.40625 325.6875 734.140625 325.757812 734.863281 325.902344 C 735.589844 326.046875 736.292969 326.261719 736.976562 326.542969 C 737.660156 326.828125 738.308594 327.171875 738.921875 327.582031 C 739.535156 327.992188 740.105469 328.460938 740.628906 328.984375 C 741.152344 329.503906 741.617188 330.074219 742.027344 330.6875 C 742.4375 331.300781 742.785156 331.949219 743.066406 332.632812 C 743.351562 333.316406 743.5625 334.019531 743.707031 334.742188 C 743.851562 335.46875 743.925781 336.199219 743.925781 336.9375 Z M 743.925781 336.9375 " fill-opacity="1" fill-rule="nonzero"/><g clip-path="url(#fb107ed57a)"><path fill="#f0f8ff" d="M 748.425781 387.5625 C 748.425781 388.300781 748.355469 389.03125 748.210938 389.757812 C 748.066406 390.480469 747.851562 391.183594 747.570312 391.867188 C 747.289062 392.550781 746.941406 393.199219 746.53125 393.8125 C 746.121094 394.425781 745.652344 394.996094 745.128906 395.515625 C 744.609375 396.039062 744.039062 396.507812 743.425781 396.917969 C 742.808594 397.328125 742.160156 397.671875 741.480469 397.957031 C 740.796875 398.238281 740.09375 398.453125 739.367188 398.597656 C 738.640625 398.742188 737.910156 398.8125 737.171875 398.8125 C 736.433594 398.8125 735.699219 398.742188 734.976562 398.597656 C 734.25 398.453125 733.546875 398.238281 732.863281 397.957031 C 732.179688 397.671875 731.53125 397.328125 730.917969 396.917969 C 730.304688 396.507812 729.734375 396.039062 729.210938 395.515625 C 728.691406 394.996094 728.222656 394.425781 727.8125 393.8125 C 727.402344 393.199219 727.054688 392.550781 726.773438 391.867188 C 726.488281 391.183594 726.277344 390.480469 726.132812 389.757812 C 725.988281 389.03125 725.914062 388.300781 725.914062 387.5625 C 725.914062 386.824219 725.988281 386.09375 726.132812 385.367188 C 726.277344 384.644531 726.488281 383.941406 726.773438 383.257812 C 727.054688 382.574219 727.402344 381.925781 727.8125 381.3125 C 728.222656 380.699219 728.691406 380.128906 729.210938 379.609375 C 729.734375 379.085938 730.304688 378.617188 730.917969 378.207031 C 731.53125 377.796875 732.179688 377.453125 732.863281 377.167969 C 733.546875 376.886719 734.25 376.671875 734.976562 376.527344 C 735.699219 376.382812 736.433594 376.3125 737.171875 376.3125 C 737.910156 376.3125 738.640625 376.382812 739.367188 376.527344 C 740.09375 376.671875 740.796875 376.886719 741.480469 377.167969 C 742.160156 377.453125 742.808594 377.796875 743.425781 378.207031 C 744.039062 378.617188 744.609375 379.085938 745.128906 379.609375 C 745.652344 380.128906 746.121094 380.699219 746.53125 381.3125 C 746.941406 381.925781 747.289062 382.574219 747.570312 383.257812 C 747.851562 383.941406 748.066406 384.644531 748.210938 385.367188 C 748.355469 386.09375 748.425781 386.824219 748.425781 387.5625 Z M 748.425781 387.5625 " fill-opacity="1" fill-rule="nonzero"/></g><path fill="#f0f8ff" d="M 743.925781 437.625 C 743.925781 438.363281 743.851562 439.09375 743.707031 439.820312 C 743.5625 440.542969 743.351562 441.246094 743.066406 441.929688 C 742.785156 442.613281 742.4375 443.261719 742.027344 443.875 C 741.617188 444.488281 741.152344 445.058594 740.628906 445.578125 C 740.105469 446.101562 739.535156 446.570312 738.921875 446.980469 C 738.308594 447.390625 737.660156 447.734375 736.976562 448.019531 C 736.292969 448.300781 735.589844 448.515625 734.863281 448.660156 C 734.140625 448.804688 733.40625 448.875 732.667969 448.875 C 731.929688 448.875 731.199219 448.804688 730.472656 448.660156 C 729.75 448.515625 729.042969 448.300781 728.363281 448.019531 C 727.679688 447.734375 727.03125 447.390625 726.414062 446.980469 C 725.800781 446.570312 725.234375 446.101562 724.710938 445.578125 C 724.1875 445.058594 723.722656 444.488281 723.308594 443.875 C 722.898438 443.261719 722.554688 442.613281 722.269531 441.929688 C 721.988281 441.246094 721.773438 440.542969 721.628906 439.820312 C 721.484375 439.09375 721.414062 438.363281 721.414062 437.625 C 721.414062 436.886719 721.484375 436.15625 721.628906 435.429688 C 721.773438 434.707031 721.988281 434.003906 722.269531 433.320312 C 722.554688 432.636719 722.898438 431.988281 723.308594 431.375 C 723.722656 430.761719 724.1875 430.191406 724.710938 429.671875 C 725.234375 429.148438 725.800781 428.679688 726.414062 428.269531 C 727.03125 427.859375 727.679688 427.515625 728.363281 427.230469 C 729.042969 426.949219 729.75 426.734375 730.472656 426.589844 C 731.199219 426.445312 731.929688 426.375 732.667969 426.375 C 733.40625 426.375 734.140625 426.445312 734.863281 426.589844 C 735.589844 426.734375 736.292969 426.949219 736.976562 427.230469 C 737.660156 427.515625 738.308594 427.859375 738.921875 428.269531 C 739.535156 428.679688 740.105469 429.148438 740.628906 429.671875 C 741.152344 430.191406 741.617188 430.761719 742.027344 431.375 C 742.4375 431.988281 742.785156 432.636719 743.066406 433.320312 C 743.351562 434.003906 743.5625 434.707031 743.707031 435.429688 C 743.851562 436.15625 743.925781 436.886719 743.925781 437.625 Z M 743.925781 437.625 " fill-opacity="1" fill-rule="nonzero"/><path fill="#f0f8ff" d="M 730.980469 486 C 730.980469 486.738281 730.910156 487.46875 730.765625 488.195312 C 730.621094 488.917969 730.40625 489.621094 730.125 490.304688 C 729.839844 490.988281 729.496094 491.636719 729.082031 492.25 C 728.671875 492.863281 728.207031 493.433594 727.683594 493.953125 C 727.160156 494.476562 726.59375 494.945312 725.976562 495.355469 C 725.363281 495.765625 724.714844 496.109375 724.03125 496.394531 C 723.347656 496.675781 722.644531 496.890625 721.921875 497.035156 C 721.195312 497.179688 720.464844 497.25 719.726562 497.25 C 718.984375 497.25 718.253906 497.179688 717.527344 497.035156 C 716.804688 496.890625 716.101562 496.675781 715.417969 496.394531 C 714.734375 496.109375 714.085938 495.765625 713.472656 495.355469 C 712.855469 494.945312 712.289062 494.476562 711.765625 493.953125 C 711.242188 493.433594 710.777344 492.863281 710.367188 492.25 C 709.957031 491.636719 709.609375 490.988281 709.324219 490.304688 C 709.042969 489.621094 708.828125 488.917969 708.683594 488.195312 C 708.542969 487.46875 708.46875 486.738281 708.46875 486 C 708.46875 485.261719 708.542969 484.53125 708.683594 483.804688 C 708.828125 483.082031 709.042969 482.378906 709.324219 481.695312 C 709.609375 481.011719 709.957031 480.363281 710.367188 479.75 C 710.777344 479.136719 711.242188 478.566406 711.765625 478.046875 C 712.289062 477.523438 712.855469 477.054688 713.472656 476.644531 C 714.085938 476.234375 714.734375 475.890625 715.417969 475.605469 C 716.101562 475.324219 716.804688 475.109375 717.527344 474.964844 C 718.253906 474.820312 718.984375 474.75 719.726562 474.75 C 720.464844 474.75 721.195312 474.820312 721.921875 474.964844 C 722.644531 475.109375 723.347656 475.324219 724.03125 475.605469 C 724.714844 475.890625 725.363281 476.234375 725.976562 476.644531 C 726.59375 477.054688 727.160156 477.523438 727.683594 478.046875 C 728.207031 478.566406 728.671875 479.136719 729.082031 479.75 C 729.496094 480.363281 729.839844 481.011719 730.125 481.695312 C 730.40625 482.378906 730.621094 483.082031 730.765625 483.804688 C 730.910156 484.53125 730.980469 485.261719 730.980469 486 Z M 730.980469 486 " fill-opacity="1" fill-rule="nonzero"/><path fill="#f0f8ff" d="M 710.15625 531.5625 C 710.15625 532.300781 710.085938 533.03125 709.941406 533.757812 C 709.796875 534.480469 709.582031 535.183594 709.300781 535.867188 C 709.019531 536.550781 708.671875 537.199219 708.261719 537.8125 C 707.851562 538.425781 707.382812 538.996094 706.859375 539.515625 C 706.339844 540.039062 705.769531 540.507812 705.15625 540.917969 C 704.539062 541.328125 703.890625 541.671875 703.210938 541.957031 C 702.527344 542.238281 701.824219 542.453125 701.097656 542.597656 C 700.371094 542.742188 699.640625 542.8125 698.902344 542.8125 C 698.164062 542.8125 697.429688 542.742188 696.707031 542.597656 C 695.980469 542.453125 695.277344 542.238281 694.59375 541.957031 C 693.910156 541.671875 693.261719 541.328125 692.648438 540.917969 C 692.035156 540.507812 691.464844 540.039062 690.941406 539.515625 C 690.421875 538.996094 689.953125 538.425781 689.542969 537.8125 C 689.132812 537.199219 688.785156 536.550781 688.503906 535.867188 C 688.21875 535.183594 688.007812 534.480469 687.863281 533.757812 C 687.71875 533.03125 687.644531 532.300781 687.644531 531.5625 C 687.644531 530.824219 687.71875 530.09375 687.863281 529.367188 C 688.007812 528.644531 688.21875 527.941406 688.503906 527.257812 C 688.785156 526.574219 689.132812 525.925781 689.542969 525.3125 C 689.953125 524.699219 690.421875 524.128906 690.941406 523.609375 C 691.464844 523.085938 692.035156 522.617188 692.648438 522.207031 C 693.261719 521.796875 693.910156 521.453125 694.59375 521.167969 C 695.277344 520.886719 695.980469 520.671875 696.707031 520.527344 C 697.429688 520.382812 698.164062 520.3125 698.902344 520.3125 C 699.640625 520.3125 700.371094 520.382812 701.097656 520.527344 C 701.824219 520.671875 702.527344 520.886719 703.210938 521.167969 C 703.890625 521.453125 704.539062 521.796875 705.15625 522.207031 C 705.769531 522.617188 706.339844 523.085938 706.859375 523.609375 C 707.382812 524.128906 707.851562 524.699219 708.261719 525.3125 C 708.671875 525.925781 709.019531 526.574219 709.300781 527.257812 C 709.582031 527.941406 709.796875 528.644531 709.941406 529.367188 C 710.085938 530.09375 710.15625 530.824219 710.15625 531.5625 Z M 710.15625 531.5625 " fill-opacity="1" fill-rule="nonzero"/><path fill="#f0f8ff" d="M 681.457031 572.625 C 681.457031 573.363281 681.382812 574.09375 681.238281 574.820312 C 681.09375 575.542969 680.882812 576.246094 680.597656 576.929688 C 680.316406 577.613281 679.96875 578.261719 679.558594 578.875 C 679.148438 579.488281 678.679688 580.058594 678.160156 580.578125 C 677.636719 581.101562 677.066406 581.570312 676.453125 581.980469 C 675.839844 582.390625 675.191406 582.734375 674.507812 583.019531 C 673.824219 583.300781 673.121094 583.515625 672.394531 583.660156 C 671.671875 583.804688 670.9375 583.875 670.199219 583.875 C 669.460938 583.875 668.730469 583.804688 668.003906 583.660156 C 667.277344 583.515625 666.574219 583.300781 665.890625 583.019531 C 665.210938 582.734375 664.5625 582.390625 663.945312 581.980469 C 663.332031 581.570312 662.761719 581.101562 662.242188 580.578125 C 661.71875 580.058594 661.25 579.488281 660.839844 578.875 C 660.429688 578.261719 660.082031 577.613281 659.800781 576.929688 C 659.519531 576.246094 659.304688 575.542969 659.160156 574.820312 C 659.015625 574.09375 658.945312 573.363281 658.945312 572.625 C 658.945312 571.886719 659.015625 571.15625 659.160156 570.429688 C 659.304688 569.707031 659.519531 569.003906 659.800781 568.320312 C 660.082031 567.636719 660.429688 566.988281 660.839844 566.375 C 661.25 565.761719 661.71875 565.191406 662.242188 564.671875 C 662.761719 564.148438 663.332031 563.679688 663.945312 563.269531 C 664.5625 562.859375 665.210938 562.515625 665.890625 562.230469 C 666.574219 561.949219 667.277344 561.734375 668.003906 561.589844 C 668.730469 561.445312 669.460938 561.375 670.199219 561.375 C 670.9375 561.375 671.671875 561.445312 672.394531 561.589844 C 673.121094 561.734375 673.824219 561.949219 674.507812 562.230469 C 675.191406 562.515625 675.839844 562.859375 676.453125 563.269531 C 677.066406 563.679688 677.636719 564.148438 678.160156 564.671875 C 678.679688 565.191406 679.148438 565.761719 679.558594 566.375 C 679.96875 566.988281 680.316406 567.636719 680.597656 568.320312 C 680.882812 569.003906 681.09375 569.707031 681.238281 570.429688 C 681.382812 571.15625 681.457031 571.886719 681.457031 572.625 Z M 681.457031 572.625 " fill-opacity="1" fill-rule="nonzero"/></svg>