<svg xmlns="http://www.w3.org/2000/svg" xmlns:xlink="http://www.w3.org/1999/xlink" width="1200" zoomAndPan="magnify" viewBox="0 0 900 899.99999" height="1200" preserveAspectRatio="xMidYMid meet" version="1.0"><defs><clipPath id="83ee10c7fd"><path d="M 90 253.636719 L 810 253.636719 L 810 646.636719 L 90 646.636719 Z M 90 253.636719 " clip-rule="nonzero"/></clipPath></defs><g clip-path="url(#83ee10c7fd)"><path fill="#000000" d="M 800.4375 637.074219 C 794.511719 643 786.332031 646.703125 777.265625 646.703125 C 768.199219 646.703125 760.019531 643.035156 754.09375 637.074219 L 450 332.695312 L 145.90625 637.074219 C 139.980469 643 131.765625 646.667969 122.734375 646.667969 C 104.636719 646.667969 89.976562 631.996094 89.976562 613.886719 C 89.976562 604.847656 93.640625 596.628906 99.5625 590.699219 L 426.828125 263.199219 C 432.753906 257.273438 440.933594 253.570312 450 253.570312 C 459.066406 253.570312 467.246094 257.238281 473.171875 263.199219 L 800.4375 590.699219 C 806.359375 596.628906 810.058594 604.816406 810.058594 613.886719 C 810.058594 622.957031 806.390625 631.144531 800.4375 637.074219 Z M 800.4375 637.074219 " fill-opacity="1" fill-rule="nonzero"/></g></svg>