<svg xmlns="http://www.w3.org/2000/svg" xmlns:xlink="http://www.w3.org/1999/xlink" width="1200" zoomAndPan="magnify" viewBox="0 0 900 899.99999" height="1200" preserveAspectRatio="xMidYMid meet" version="1.0"><defs><clipPath id="e9a28aff82"><path d="M 90 253.636719 L 810 253.636719 L 810 646.355469 L 90 646.355469 Z M 90 253.636719 " clip-rule="nonzero"/></clipPath></defs><g clip-path="url(#e9a28aff82)"><path fill="#E7E8E9" d="M 800.4375 262.917969 C 794.511719 256.992188 786.332031 253.289062 777.265625 253.289062 C 768.199219 253.289062 760.019531 256.957031 754.09375 262.917969 L 450 567.296875 L 145.90625 262.917969 C 139.980469 256.992188 131.765625 253.324219 122.734375 253.324219 C 104.636719 253.324219 89.976562 267.996094 89.976562 286.105469 C 89.976562 295.144531 93.640625 303.363281 99.5625 309.292969 L 426.828125 636.792969 C 432.753906 642.71875 440.933594 646.421875 450 646.421875 C 459.066406 646.421875 467.246094 642.753906 473.171875 636.792969 L 800.4375 309.292969 C 806.359375 303.363281 810.058594 295.175781 810.058594 286.105469 C 810.058594 277.035156 806.390625 268.847656 800.4375 262.917969 Z M 800.4375 262.917969 " fill-opacity="1" fill-rule="nonzero"/></g></svg>