<svg xmlns="http://www.w3.org/2000/svg" xmlns:xlink="http://www.w3.org/1999/xlink" width="1200" zoomAndPan="magnify" viewBox="0 0 900 899.99999" height="1200" preserveAspectRatio="xMidYMid meet" version="1.0"><defs><clipPath id="fa954d551f"><path d="M 90 105.269531 L 795 105.269531 L 795 810.269531 L 90 810.269531 Z M 90 105.269531 " clip-rule="nonzero"/></clipPath></defs><path fill="#f0f8ff" d="M 625.328125 274.9375 C 624.785156 274.398438 624.21875 273.882812 623.625 273.398438 C 623.03125 272.914062 622.414062 272.460938 621.773438 272.035156 C 621.136719 271.609375 620.480469 271.21875 619.800781 270.859375 C 619.125 270.5 618.433594 270.171875 617.722656 269.878906 C 617.015625 269.585938 616.292969 269.332031 615.558594 269.109375 C 614.824219 268.886719 614.082031 268.703125 613.328125 268.550781 C 612.578125 268.402344 611.820312 268.292969 611.058594 268.214844 C 610.292969 268.140625 609.527344 268.105469 608.761719 268.105469 C 607.996094 268.105469 607.230469 268.140625 606.46875 268.214844 C 605.703125 268.292969 604.945312 268.402344 604.195312 268.550781 C 603.441406 268.703125 602.699219 268.886719 601.964844 269.109375 C 601.230469 269.332031 600.511719 269.585938 599.800781 269.878906 C 599.09375 270.171875 598.398438 270.5 597.722656 270.859375 C 597.046875 271.21875 596.390625 271.609375 595.75 272.035156 C 595.113281 272.460938 594.496094 272.914062 593.902344 273.398438 C 593.308594 273.882812 592.738281 274.398438 592.195312 274.9375 L 442.5 424.632812 L 293.039062 274.9375 C 292.492188 274.390625 291.921875 273.875 291.324219 273.386719 C 290.726562 272.894531 290.105469 272.4375 289.464844 272.007812 C 288.820312 271.578125 288.160156 271.183594 287.476562 270.820312 C 286.796875 270.457031 286.097656 270.125 285.386719 269.832031 C 284.671875 269.535156 283.945312 269.277344 283.207031 269.050781 C 282.464844 268.828125 281.71875 268.640625 280.960938 268.492188 C 280.203125 268.339844 279.4375 268.226562 278.671875 268.152344 C 277.902344 268.078125 277.132812 268.039062 276.359375 268.039062 C 275.585938 268.039062 274.816406 268.078125 274.046875 268.152344 C 273.277344 268.230469 272.515625 268.34375 271.757812 268.496094 C 271 268.644531 270.253906 268.832031 269.511719 269.058594 C 268.773438 269.28125 268.046875 269.542969 267.332031 269.835938 C 266.621094 270.132812 265.921875 270.464844 265.242188 270.828125 C 264.5625 271.191406 263.898438 271.589844 263.257812 272.015625 C 262.613281 272.445312 261.996094 272.90625 261.398438 273.394531 C 260.800781 273.886719 260.230469 274.40625 259.683594 274.949219 C 259.136719 275.496094 258.617188 276.070312 258.128906 276.664062 C 257.636719 277.261719 257.179688 277.882812 256.75 278.523438 C 256.320312 279.167969 255.921875 279.828125 255.558594 280.507812 C 255.195312 281.191406 254.867188 281.886719 254.570312 282.601562 C 254.273438 283.316406 254.015625 284.042969 253.789062 284.78125 C 253.566406 285.519531 253.378906 286.269531 253.226562 287.027344 C 253.074219 287.785156 252.960938 288.546875 252.886719 289.316406 C 252.808594 290.082031 252.773438 290.855469 252.773438 291.625 C 252.769531 292.398438 252.808594 293.167969 252.882812 293.9375 C 252.960938 294.707031 253.074219 295.46875 253.222656 296.226562 C 253.375 296.984375 253.558594 297.734375 253.785156 298.472656 C 254.007812 299.210938 254.265625 299.9375 254.5625 300.652344 C 254.859375 301.367188 255.1875 302.0625 255.550781 302.746094 C 255.914062 303.425781 256.3125 304.089844 256.738281 304.730469 C 257.167969 305.375 257.628906 305.996094 258.117188 306.59375 C 258.605469 307.1875 259.125 307.761719 259.671875 308.308594 L 409.363281 457.769531 L 259.671875 607.226562 C 259.054688 607.753906 258.472656 608.308594 257.914062 608.894531 C 257.359375 609.480469 256.835938 610.09375 256.34375 610.730469 C 255.847656 611.371094 255.390625 612.035156 254.964844 612.722656 C 254.542969 613.410156 254.152344 614.117188 253.800781 614.84375 C 253.449219 615.570312 253.136719 616.3125 252.859375 617.070312 C 252.585938 617.832031 252.351562 618.601562 252.15625 619.386719 C 251.960938 620.167969 251.804688 620.960938 251.691406 621.761719 C 251.578125 622.558594 251.503906 623.363281 251.472656 624.171875 C 251.441406 624.976562 251.453125 625.785156 251.503906 626.589844 C 251.554688 627.394531 251.648438 628.195312 251.785156 628.992188 C 251.917969 629.789062 252.09375 630.574219 252.308594 631.355469 C 252.523438 632.132812 252.78125 632.898438 253.074219 633.648438 C 253.371094 634.402344 253.703125 635.136719 254.074219 635.855469 C 254.441406 636.570312 254.847656 637.269531 255.292969 637.945312 C 255.734375 638.621094 256.207031 639.269531 256.71875 639.898438 C 257.226562 640.523438 257.769531 641.125 258.339844 641.695312 C 258.910156 642.265625 259.507812 642.804688 260.136719 643.316406 C 260.761719 643.824219 261.414062 644.300781 262.089844 644.742188 C 262.765625 645.183594 263.460938 645.589844 264.179688 645.960938 C 264.898438 646.332031 265.632812 646.664062 266.382812 646.957031 C 267.136719 647.253906 267.898438 647.507812 268.679688 647.722656 C 269.457031 647.9375 270.242188 648.113281 271.039062 648.25 C 271.835938 648.382812 272.636719 648.476562 273.445312 648.527344 C 274.25 648.582031 275.054688 648.589844 275.863281 648.558594 C 276.667969 648.527344 277.472656 648.457031 278.273438 648.34375 C 279.070312 648.226562 279.863281 648.074219 280.648438 647.878906 C 281.429688 647.683594 282.203125 647.445312 282.960938 647.171875 C 283.71875 646.898438 284.464844 646.582031 285.191406 646.230469 C 285.917969 645.878906 286.625 645.492188 287.3125 645.066406 C 287.996094 644.640625 288.660156 644.183594 289.300781 643.691406 C 289.941406 643.199219 290.554688 642.671875 291.140625 642.117188 C 291.722656 641.5625 292.28125 640.976562 292.804688 640.363281 L 442.5 490.902344 L 591.960938 640.363281 C 592.515625 640.839844 593.09375 641.289062 593.691406 641.710938 C 594.289062 642.132812 594.902344 642.523438 595.539062 642.890625 C 596.171875 643.253906 596.824219 643.589844 597.488281 643.890625 C 598.15625 644.195312 598.832031 644.46875 599.523438 644.707031 C 600.214844 644.949219 600.917969 645.15625 601.625 645.332031 C 602.335938 645.507812 603.054688 645.648438 603.777344 645.757812 C 604.503906 645.863281 605.230469 645.9375 605.960938 645.976562 C 606.691406 646.019531 607.421875 646.023438 608.152344 645.996094 C 608.882812 645.96875 609.613281 645.90625 610.335938 645.808594 C 611.0625 645.714844 611.78125 645.582031 612.496094 645.417969 C 613.207031 645.257812 613.914062 645.058594 614.609375 644.832031 C 615.304688 644.601562 615.984375 644.339844 616.65625 644.046875 C 617.328125 643.753906 617.980469 643.429688 618.621094 643.074219 C 619.261719 642.722656 619.886719 642.339844 620.488281 641.925781 C 621.09375 641.515625 621.679688 641.074219 622.242188 640.605469 C 622.804688 640.140625 623.34375 639.648438 623.863281 639.128906 C 624.378906 638.613281 624.871094 638.074219 625.339844 637.507812 C 625.804688 636.945312 626.246094 636.363281 626.660156 635.757812 C 627.070312 635.152344 627.453125 634.53125 627.808594 633.890625 C 628.164062 633.25 628.484375 632.59375 628.777344 631.925781 C 629.074219 631.253906 629.332031 630.570312 629.5625 629.875 C 629.792969 629.179688 629.988281 628.476562 630.152344 627.761719 C 630.316406 627.050781 630.445312 626.332031 630.542969 625.605469 C 630.636719 624.878906 630.699219 624.152344 630.726562 623.421875 C 630.757812 622.6875 630.75 621.957031 630.710938 621.226562 C 630.671875 620.496094 630.597656 619.769531 630.488281 619.046875 C 630.378906 618.324219 630.238281 617.605469 630.0625 616.894531 C 629.890625 616.183594 629.679688 615.484375 629.441406 614.792969 C 629.199219 614.101562 628.929688 613.421875 628.625 612.757812 C 628.320312 612.089844 627.988281 611.441406 627.621094 610.804688 C 627.257812 610.171875 626.863281 609.554688 626.441406 608.957031 C 626.019531 608.359375 625.570312 607.785156 625.09375 607.226562 L 475.636719 457.769531 L 625.09375 308.308594 C 625.648438 307.765625 626.171875 307.199219 626.671875 306.605469 C 627.167969 306.015625 627.632812 305.398438 628.070312 304.757812 C 628.507812 304.121094 628.910156 303.460938 629.28125 302.78125 C 629.652344 302.105469 629.992188 301.410156 630.292969 300.695312 C 630.59375 299.984375 630.863281 299.257812 631.09375 298.519531 C 631.324219 297.78125 631.519531 297.035156 631.675781 296.277344 C 631.832031 295.519531 631.953125 294.753906 632.035156 293.988281 C 632.113281 293.21875 632.160156 292.445312 632.164062 291.671875 C 632.167969 290.898438 632.136719 290.125 632.066406 289.355469 C 631.996094 288.585938 631.886719 287.820312 631.738281 287.058594 C 631.59375 286.300781 631.410156 285.550781 631.191406 284.808594 C 630.96875 284.066406 630.710938 283.335938 630.421875 282.621094 C 630.128906 281.90625 629.800781 281.203125 629.4375 280.519531 C 629.078125 279.835938 628.683594 279.171875 628.253906 278.527344 C 627.828125 277.882812 627.371094 277.261719 626.882812 276.660156 C 626.394531 276.0625 625.875 275.488281 625.328125 274.9375 Z M 625.328125 274.9375 " fill-opacity="1" fill-rule="nonzero"/><g clip-path="url(#fa954d551f)"><path fill="#f0f8ff" d="M 442.5 105.269531 C 436.730469 105.269531 430.964844 105.410156 425.203125 105.691406 C 419.441406 105.976562 413.691406 106.398438 407.949219 106.964844 C 402.207031 107.53125 396.484375 108.238281 390.777344 109.082031 C 385.070312 109.929688 379.390625 110.914062 373.730469 112.042969 C 368.074219 113.167969 362.445312 114.429688 356.847656 115.832031 C 351.253906 117.234375 345.695312 118.773438 340.175781 120.445312 C 334.652344 122.121094 329.179688 123.929688 323.746094 125.875 C 318.316406 127.816406 312.933594 129.894531 307.605469 132.101562 C 302.273438 134.308594 297 136.644531 291.785156 139.113281 C 286.570312 141.578125 281.421875 144.171875 276.332031 146.890625 C 271.246094 149.609375 266.226562 152.453125 261.277344 155.417969 C 256.332031 158.382812 251.457031 161.46875 246.660156 164.675781 C 241.863281 167.878906 237.148438 171.199219 232.515625 174.636719 C 227.882812 178.074219 223.335938 181.621094 218.875 185.28125 C 214.417969 188.941406 210.050781 192.707031 205.777344 196.582031 C 201.5 200.457031 197.324219 204.433594 193.246094 208.511719 C 189.164062 212.59375 185.1875 216.769531 181.316406 221.042969 C 177.441406 225.316406 173.671875 229.683594 170.015625 234.144531 C 166.355469 238.605469 162.804688 243.148438 159.371094 247.785156 C 155.933594 252.417969 152.613281 257.132812 149.40625 261.929688 C 146.203125 266.726562 143.117188 271.597656 140.152344 276.546875 C 137.183594 281.496094 134.34375 286.511719 131.621094 291.601562 C 128.902344 296.6875 126.308594 301.839844 123.84375 307.054688 C 121.378906 312.269531 119.039062 317.542969 116.832031 322.871094 C 114.625 328.203125 112.550781 333.582031 110.605469 339.015625 C 108.664062 344.445312 106.851562 349.921875 105.179688 355.441406 C 103.503906 360.964844 101.964844 366.519531 100.5625 372.117188 C 99.164062 377.714844 97.898438 383.339844 96.773438 389 C 95.648438 394.65625 94.660156 400.339844 93.816406 406.046875 C 92.96875 411.75 92.261719 417.476562 91.699219 423.21875 C 91.132812 428.957031 90.707031 434.710938 90.425781 440.472656 C 90.140625 446.234375 90 452 90 457.769531 C 90 463.535156 90.140625 469.300781 90.425781 475.0625 C 90.707031 480.824219 91.132812 486.578125 91.699219 492.320312 C 92.261719 498.058594 92.96875 503.785156 93.816406 509.492188 C 94.660156 515.195312 95.648438 520.878906 96.773438 526.539062 C 97.898438 532.195312 99.164062 537.824219 100.5625 543.417969 C 101.964844 549.015625 103.503906 554.574219 105.179688 560.09375 C 106.851562 565.613281 108.664062 571.089844 110.605469 576.523438 C 112.550781 581.953125 114.625 587.332031 116.832031 592.664062 C 119.039062 597.992188 121.378906 603.265625 123.84375 608.480469 C 126.308594 613.695312 128.902344 618.847656 131.621094 623.933594 C 134.34375 629.023438 137.183594 634.039062 140.152344 638.988281 C 143.117188 643.9375 146.203125 648.808594 149.40625 653.605469 C 152.613281 658.402344 155.933594 663.117188 159.371094 667.75 C 162.804688 672.386719 166.355469 676.933594 170.015625 681.390625 C 173.671875 685.851562 177.441406 690.21875 181.316406 694.492188 C 185.1875 698.765625 189.164062 702.945312 193.246094 707.023438 C 197.324219 711.101562 201.5 715.078125 205.777344 718.953125 C 210.050781 722.828125 214.417969 726.59375 218.875 730.253906 C 223.335938 733.914062 227.882812 737.460938 232.515625 740.898438 C 237.148438 744.335938 241.863281 747.65625 246.660156 750.859375 C 251.457031 754.066406 256.332031 757.152344 261.277344 760.117188 C 266.226562 763.082031 271.246094 765.925781 276.332031 768.644531 C 281.421875 771.363281 286.570312 773.957031 291.785156 776.425781 C 297 778.890625 302.273438 781.226562 307.605469 783.433594 C 312.933594 785.644531 318.316406 787.71875 323.746094 789.660156 C 329.179688 791.605469 334.652344 793.414062 340.175781 795.089844 C 345.695312 796.765625 351.253906 798.300781 356.847656 799.703125 C 362.445312 801.105469 368.074219 802.367188 373.730469 803.496094 C 379.390625 804.621094 385.070312 805.605469 390.777344 806.453125 C 396.484375 807.300781 402.207031 808.003906 407.949219 808.570312 C 413.691406 809.136719 419.441406 809.558594 425.203125 809.84375 C 430.964844 810.125 436.730469 810.269531 442.5 810.269531 C 448.269531 810.269531 454.035156 810.125 459.796875 809.84375 C 465.558594 809.558594 471.308594 809.136719 477.050781 808.570312 C 482.792969 808.003906 488.515625 807.300781 494.222656 806.453125 C 499.929688 805.605469 505.609375 804.621094 511.269531 803.496094 C 516.925781 802.367188 522.554688 801.105469 528.152344 799.703125 C 533.746094 798.300781 539.304688 796.765625 544.824219 795.089844 C 550.347656 793.414062 555.820312 791.605469 561.253906 789.660156 C 566.683594 787.71875 572.066406 785.644531 577.394531 783.433594 C 582.726562 781.226562 587.996094 778.890625 593.214844 776.425781 C 598.429688 773.957031 603.578125 771.363281 608.667969 768.644531 C 613.753906 765.925781 618.773438 763.082031 623.722656 760.117188 C 628.667969 757.152344 633.542969 754.066406 638.339844 750.859375 C 643.136719 747.65625 647.851562 744.335938 652.484375 740.898438 C 657.117188 737.460938 661.664062 733.914062 666.125 730.253906 C 670.582031 726.59375 674.949219 722.828125 679.222656 718.953125 C 683.5 715.078125 687.675781 711.101562 691.753906 707.023438 C 695.835938 702.945312 699.8125 698.765625 703.683594 694.492188 C 707.558594 690.21875 711.328125 685.851562 714.984375 681.390625 C 718.644531 676.933594 722.195312 672.386719 725.628906 667.75 C 729.066406 663.117188 732.386719 658.402344 735.59375 653.605469 C 738.796875 648.808594 741.882812 643.9375 744.847656 638.988281 C 747.816406 634.039062 750.65625 629.023438 753.378906 623.933594 C 756.097656 618.847656 758.691406 613.695312 761.15625 608.480469 C 763.621094 603.265625 765.960938 597.992188 768.167969 592.664062 C 770.375 587.332031 772.449219 581.953125 774.394531 576.523438 C 776.335938 571.089844 778.148438 565.613281 779.820312 560.09375 C 781.496094 554.574219 783.035156 549.015625 784.4375 543.417969 C 785.835938 537.824219 787.101562 532.195312 788.226562 526.539062 C 789.351562 520.878906 790.339844 515.195312 791.183594 509.492188 C 792.03125 503.785156 792.738281 498.058594 793.300781 492.320312 C 793.867188 486.578125 794.292969 480.824219 794.574219 475.0625 C 794.859375 469.300781 795 463.535156 795 457.769531 C 795 452 794.859375 446.234375 794.574219 440.472656 C 794.292969 434.710938 793.867188 428.957031 793.300781 423.21875 C 792.738281 417.476562 792.03125 411.75 791.183594 406.046875 C 790.339844 400.339844 789.351562 394.65625 788.226562 389 C 787.101562 383.339844 785.835938 377.714844 784.4375 372.117188 C 783.035156 366.519531 781.496094 360.964844 779.820312 355.441406 C 778.148438 349.921875 776.335938 344.445312 774.394531 339.015625 C 772.449219 333.582031 770.375 328.203125 768.167969 322.871094 C 765.960938 317.542969 763.621094 312.269531 761.15625 307.054688 C 758.691406 301.839844 756.097656 296.6875 753.378906 291.601562 C 750.65625 286.511719 747.816406 281.496094 744.847656 276.546875 C 741.882812 271.597656 738.796875 266.726562 735.59375 261.929688 C 732.386719 257.132812 729.066406 252.417969 725.628906 247.785156 C 722.195312 243.148438 718.644531 238.605469 714.984375 234.144531 C 711.328125 229.683594 707.558594 225.316406 703.683594 221.042969 C 699.8125 216.769531 695.835938 212.59375 691.753906 208.511719 C 687.675781 204.433594 683.5 200.457031 679.222656 196.582031 C 674.949219 192.707031 670.582031 188.941406 666.125 185.28125 C 661.664062 181.621094 657.117188 178.074219 652.484375 174.636719 C 647.851562 171.199219 643.136719 167.878906 638.339844 164.675781 C 633.542969 161.46875 628.667969 158.382812 623.722656 155.417969 C 618.773438 152.453125 613.753906 149.609375 608.667969 146.890625 C 603.578125 144.171875 598.429688 141.578125 593.214844 139.113281 C 587.996094 136.644531 582.726562 134.308594 577.394531 132.101562 C 572.066406 129.894531 566.683594 127.816406 561.253906 125.875 C 555.820312 123.929688 550.347656 122.121094 544.824219 120.445312 C 539.304688 118.773438 533.746094 117.234375 528.152344 115.832031 C 522.554688 114.429688 516.925781 113.167969 511.269531 112.042969 C 505.609375 110.914062 499.929688 109.929688 494.222656 109.082031 C 488.515625 108.238281 482.792969 107.53125 477.050781 106.964844 C 471.308594 106.398438 465.558594 105.976562 459.796875 105.691406 C 454.035156 105.410156 448.269531 105.269531 442.5 105.269531 Z M 442.5 763.269531 C 437.5 763.269531 432.503906 763.144531 427.511719 762.898438 C 422.515625 762.65625 417.53125 762.285156 412.554688 761.796875 C 407.578125 761.308594 402.621094 760.695312 397.671875 759.960938 C 392.726562 759.226562 387.804688 758.375 382.898438 757.398438 C 377.996094 756.421875 373.121094 755.328125 368.269531 754.113281 C 363.417969 752.898438 358.601562 751.5625 353.816406 750.113281 C 349.035156 748.660156 344.289062 747.09375 339.578125 745.410156 C 334.871094 743.726562 330.210938 741.925781 325.589844 740.011719 C 320.972656 738.097656 316.402344 736.074219 311.882812 733.9375 C 307.363281 731.796875 302.898438 729.550781 298.488281 727.195312 C 294.078125 724.835938 289.730469 722.375 285.441406 719.804688 C 281.152344 717.234375 276.929688 714.558594 272.773438 711.78125 C 268.617188 709.003906 264.53125 706.125 260.515625 703.148438 C 256.496094 700.167969 252.558594 697.09375 248.691406 693.921875 C 244.828125 690.75 241.042969 687.484375 237.339844 684.128906 C 233.632812 680.769531 230.015625 677.324219 226.480469 673.789062 C 222.945312 670.253906 219.496094 666.632812 216.140625 662.929688 C 212.78125 659.222656 209.515625 655.441406 206.34375 651.574219 C 203.171875 647.710938 200.097656 643.769531 197.121094 639.753906 C 194.140625 635.738281 191.265625 631.652344 188.484375 627.496094 C 185.707031 623.335938 183.035156 619.113281 180.464844 614.828125 C 177.894531 610.539062 175.429688 606.1875 173.074219 601.78125 C 170.714844 597.371094 168.46875 592.90625 166.332031 588.386719 C 164.195312 583.867188 162.167969 579.296875 160.253906 574.675781 C 158.339844 570.058594 156.542969 565.394531 154.859375 560.6875 C 153.175781 555.980469 151.605469 551.234375 150.15625 546.449219 C 148.703125 541.664062 147.371094 536.847656 146.15625 532 C 144.941406 527.148438 143.84375 522.273438 142.871094 517.367188 C 141.894531 512.464844 141.039062 507.539062 140.304688 502.59375 C 139.574219 497.648438 138.960938 492.6875 138.472656 487.710938 C 137.980469 482.738281 137.613281 477.75 137.367188 472.757812 C 137.121094 467.765625 137 462.769531 137 457.769531 C 137 452.769531 137.121094 447.769531 137.367188 442.777344 C 137.613281 437.785156 137.980469 432.800781 138.472656 427.824219 C 138.960938 422.847656 139.574219 417.886719 140.304688 412.941406 C 141.039062 407.996094 141.894531 403.070312 142.871094 398.167969 C 143.84375 393.265625 144.941406 388.386719 146.15625 383.539062 C 147.371094 378.6875 148.703125 373.871094 150.15625 369.085938 C 151.605469 364.300781 153.175781 359.554688 154.859375 354.847656 C 156.542969 350.140625 158.339844 345.476562 160.253906 340.859375 C 162.167969 336.238281 164.195312 331.667969 166.332031 327.148438 C 168.46875 322.628906 170.714844 318.164062 173.074219 313.757812 C 175.429688 309.347656 177.894531 304.996094 180.464844 300.710938 C 183.035156 296.421875 185.707031 292.199219 188.484375 288.042969 C 191.265625 283.882812 194.140625 279.796875 197.121094 275.78125 C 200.097656 271.765625 203.171875 267.824219 206.34375 263.960938 C 209.515625 260.097656 212.78125 256.3125 216.140625 252.605469 C 219.496094 248.902344 222.945312 245.28125 226.480469 241.746094 C 230.015625 238.210938 233.632812 234.765625 237.339844 231.40625 C 241.042969 228.050781 244.828125 224.785156 248.691406 221.613281 C 252.558594 218.441406 256.496094 215.367188 260.515625 212.386719 C 264.53125 209.410156 268.617188 206.53125 272.773438 203.753906 C 276.929688 200.976562 281.152344 198.300781 285.441406 195.730469 C 289.730469 193.160156 294.078125 190.699219 298.488281 188.339844 C 302.898438 185.984375 307.363281 183.738281 311.882812 181.597656 C 316.402344 179.460938 320.972656 177.4375 325.589844 175.523438 C 330.210938 173.609375 334.871094 171.808594 339.582031 170.125 C 344.289062 168.441406 349.035156 166.875 353.816406 165.421875 C 358.601562 163.972656 363.417969 162.636719 368.269531 161.421875 C 373.121094 160.207031 377.996094 159.113281 382.898438 158.136719 C 387.804688 157.164062 392.726562 156.308594 397.671875 155.574219 C 402.621094 154.839844 407.578125 154.230469 412.554688 153.738281 C 417.53125 153.25 422.515625 152.882812 427.511719 152.636719 C 432.503906 152.390625 437.5 152.269531 442.5 152.269531 C 447.5 152.269531 452.496094 152.390625 457.488281 152.636719 C 462.484375 152.882812 467.46875 153.25 472.445312 153.738281 C 477.417969 154.230469 482.378906 154.839844 487.324219 155.574219 C 492.273438 156.308594 497.195312 157.164062 502.101562 158.136719 C 507.003906 159.113281 511.878906 160.207031 516.730469 161.421875 C 521.582031 162.636719 526.398438 163.972656 531.183594 165.421875 C 535.964844 166.875 540.710938 168.441406 545.417969 170.125 C 550.128906 171.808594 554.789062 173.609375 559.410156 175.523438 C 564.027344 177.4375 568.597656 179.460938 573.117188 181.597656 C 577.636719 183.738281 582.101562 185.984375 586.511719 188.339844 C 590.921875 190.699219 595.269531 193.160156 599.558594 195.730469 C 603.847656 198.300781 608.070312 200.976562 612.226562 203.753906 C 616.382812 206.53125 620.46875 209.410156 624.484375 212.386719 C 628.5 215.367188 632.441406 218.441406 636.308594 221.613281 C 640.171875 224.785156 643.957031 228.050781 647.660156 231.40625 C 651.367188 234.765625 654.984375 238.210938 658.519531 241.746094 C 662.054688 245.28125 665.503906 248.902344 668.859375 252.605469 C 672.21875 256.3125 675.484375 260.097656 678.65625 263.960938 C 681.828125 267.824219 684.902344 271.765625 687.878906 275.78125 C 690.859375 279.796875 693.734375 283.882812 696.515625 288.042969 C 699.292969 292.199219 701.964844 296.421875 704.535156 300.710938 C 707.105469 304.996094 709.570312 309.347656 711.925781 313.757812 C 714.285156 318.164062 716.53125 322.628906 718.667969 327.148438 C 720.804688 331.667969 722.832031 336.238281 724.746094 340.859375 C 726.660156 345.476562 728.457031 350.140625 730.140625 354.847656 C 731.824219 359.554688 733.394531 364.300781 734.84375 369.085938 C 736.296875 373.871094 737.628906 378.6875 738.84375 383.539062 C 740.058594 388.386719 741.15625 393.265625 742.128906 398.167969 C 743.105469 403.070312 743.960938 407.996094 744.691406 412.941406 C 745.425781 417.886719 746.039062 422.847656 746.527344 427.824219 C 747.019531 432.800781 747.386719 437.785156 747.632812 442.777344 C 747.878906 447.769531 748 452.769531 748 457.769531 C 748 462.769531 747.878906 467.765625 747.632812 472.757812 C 747.386719 477.75 747.019531 482.738281 746.527344 487.710938 C 746.039062 492.6875 745.425781 497.648438 744.691406 502.59375 C 743.960938 507.539062 743.105469 512.464844 742.128906 517.367188 C 741.15625 522.273438 740.058594 527.148438 738.84375 532 C 737.628906 536.847656 736.296875 541.664062 734.84375 546.449219 C 733.394531 551.234375 731.824219 555.980469 730.140625 560.6875 C 728.457031 565.394531 726.660156 570.058594 724.746094 574.675781 C 722.832031 579.296875 720.804688 583.867188 718.667969 588.386719 C 716.53125 592.90625 714.285156 597.371094 711.925781 601.78125 C 709.570312 606.1875 707.105469 610.539062 704.535156 614.828125 C 701.964844 619.113281 699.292969 623.335938 696.515625 627.496094 C 693.734375 631.652344 690.859375 635.738281 687.878906 639.753906 C 684.902344 643.769531 681.828125 647.710938 678.65625 651.574219 C 675.484375 655.441406 672.21875 659.222656 668.859375 662.929688 C 665.503906 666.632812 662.054688 670.253906 658.519531 673.789062 C 654.984375 677.324219 651.367188 680.769531 647.660156 684.128906 C 643.957031 687.484375 640.171875 690.75 636.308594 693.921875 C 632.441406 697.09375 628.5 700.167969 624.484375 703.148438 C 620.46875 706.125 616.382812 709.003906 612.226562 711.78125 C 608.070312 714.558594 603.847656 717.234375 599.558594 719.804688 C 595.269531 722.375 590.921875 724.835938 586.511719 727.195312 C 582.101562 729.550781 577.636719 731.800781 573.117188 733.9375 C 568.597656 736.074219 564.027344 738.101562 559.410156 740.011719 C 554.789062 741.925781 550.128906 743.726562 545.417969 745.410156 C 540.710938 747.09375 535.964844 748.660156 531.183594 750.113281 C 526.398438 751.5625 521.582031 752.898438 516.730469 754.113281 C 511.878906 755.328125 507.003906 756.421875 502.101562 757.398438 C 497.195312 758.375 492.273438 759.226562 487.324219 759.960938 C 482.378906 760.695312 477.417969 761.308594 472.445312 761.796875 C 467.46875 762.285156 462.484375 762.65625 457.488281 762.898438 C 452.496094 763.144531 447.5 763.269531 442.5 763.269531 Z M 442.5 763.269531 " fill-opacity="1" fill-rule="nonzero"/></g></svg>