<svg xmlns="http://www.w3.org/2000/svg" xmlns:xlink="http://www.w3.org/1999/xlink" width="1200" zoomAndPan="magnify" viewBox="0 0 900 899.99999" height="1200" preserveAspectRatio="xMidYMid meet" version="1.0"><defs><clipPath id="id1"><path d="M 90 144 L 810 144 L 810 755.964844 L 90 755.964844 Z M 90 144 " clip-rule="nonzero"/></clipPath></defs><g clip-path="url(#id1)"><path fill="#5eb229" d="M 742.152344 144.207031 L 157.847656 144.207031 C 120.449219 144.207031 90 174.65625 90 212.046875 L 90 687.878906 C 90 725.269531 120.449219 755.71875 157.847656 755.71875 L 742.152344 755.71875 C 779.550781 755.71875 810 725.269531 810 687.878906 L 810 212.046875 C 810 174.65625 779.550781 144.207031 742.152344 144.207031 Z M 145.207031 212.046875 C 145.207031 205.175781 150.972656 199.410156 157.847656 199.410156 L 742.152344 199.410156 C 749.027344 199.410156 754.792969 205.175781 754.792969 212.046875 L 754.792969 220.839844 L 456.503906 519.09375 C 452.957031 522.640625 447.042969 522.640625 443.496094 519.09375 L 145.207031 220.839844 Z M 754.792969 687.953125 C 754.792969 694.824219 749.027344 700.589844 742.152344 700.589844 L 157.847656 700.589844 C 150.972656 700.589844 145.207031 694.824219 145.207031 687.953125 L 145.207031 298.878906 L 404.398438 558.039062 C 416.519531 570.160156 432.707031 576.882812 449.925781 576.882812 C 467.144531 576.882812 483.332031 570.234375 495.453125 558.039062 L 754.644531 298.878906 L 754.644531 687.953125 Z M 754.792969 687.953125 " fill-opacity="1" fill-rule="nonzero"/></g></svg>