<svg xmlns="http://www.w3.org/2000/svg" xmlns:xlink="http://www.w3.org/1999/xlink" width="1200" zoomAndPan="magnify" viewBox="0 0 900 899.99999" height="1200" preserveAspectRatio="xMidYMid meet" version="1.0"><defs><clipPath id="fb7c63938c"><path d="M 90 91.308594 L 811.5 91.308594 L 811.5 809.808594 L 90 809.808594 Z M 90 91.308594 " clip-rule="nonzero"/></clipPath></defs><g clip-path="url(#fb7c63938c)"><path fill="#233dff" d="M 450.90625 91.558594 C 251.546875 91.558594 90 253.023438 90 452.277344 C 90 631.230469 220.613281 779.890625 391.535156 808 L 391.535156 563.460938 L 299.667969 563.460938 L 299.667969 456.335938 L 391.535156 456.335938 L 391.535156 378.570312 C 391.535156 294.246094 459.96875 237.09375 544.335938 237.09375 C 581.832031 237.09375 605.269531 242.714844 605.269531 242.714844 L 605.269531 332.660156 L 544.335938 332.660156 C 519.023438 332.660156 498.402344 353.273438 498.402344 378.570312 L 498.402344 456.335938 L 596.832031 456.335938 L 583.082031 563.460938 L 498.402344 563.460938 L 498.402344 809.558594 C 674.949219 786.136719 811.1875 634.976562 811.1875 452.277344 C 811.5 253.023438 649.953125 91.558594 450.90625 91.558594 Z M 450.90625 91.558594 " fill-opacity="1" fill-rule="nonzero"/></g></svg>