<svg xmlns="http://www.w3.org/2000/svg" xmlns:xlink="http://www.w3.org/1999/xlink" width="500" zoomAndPan="magnify" viewBox="0 0 375 374.999991" height="500" preserveAspectRatio="xMidYMid meet" version="1.0"><defs><clipPath id="eac60c1e1b"><path d="M 39 74 L 303 74 L 303 337.5 L 39 337.5 Z M 39 74 " clip-rule="nonzero"/></clipPath><clipPath id="67987d4ee4"><path d="M 66 232 L 276 232 L 276 337.5 L 66 337.5 Z M 66 232 " clip-rule="nonzero"/></clipPath><clipPath id="62676dba7b"><path d="M 171 205 L 303 205 L 303 337.5 L 171 337.5 Z M 171 205 " clip-rule="nonzero"/></clipPath><clipPath id="291a4fea46"><path d="M 187 37.5 L 335 37.5 L 335 269 L 187 269 Z M 187 37.5 " clip-rule="nonzero"/></clipPath></defs><path fill="#1ea361" d="M 39.589844 310.527344 L 39.589844 97.003906 C 39.589844 96.265625 39.628906 95.53125 39.699219 94.800781 C 39.773438 94.066406 39.878906 93.339844 40.023438 92.617188 C 40.167969 91.894531 40.347656 91.183594 40.5625 90.476562 C 40.773438 89.773438 41.023438 89.082031 41.304688 88.398438 C 41.585938 87.71875 41.902344 87.054688 42.246094 86.40625 C 42.59375 85.757812 42.972656 85.125 43.382812 84.511719 C 43.789062 83.902344 44.230469 83.308594 44.695312 82.742188 C 45.164062 82.171875 45.65625 81.625 46.175781 81.105469 C 46.699219 80.585938 47.242188 80.089844 47.8125 79.625 C 48.378906 79.15625 48.972656 78.71875 49.582031 78.308594 C 50.195312 77.898438 50.828125 77.519531 51.476562 77.175781 C 52.125 76.828125 52.789062 76.511719 53.46875 76.230469 C 54.148438 75.949219 54.84375 75.699219 55.546875 75.484375 C 56.25 75.269531 56.964844 75.09375 57.6875 74.949219 C 58.410156 74.804688 59.136719 74.695312 59.867188 74.621094 C 60.601562 74.550781 61.335938 74.511719 62.070312 74.511719 L 275.585938 74.511719 Z M 39.589844 310.527344 " fill-opacity="1" fill-rule="evenodd"/><g clip-path="url(#eac60c1e1b)"><path fill="#fedb43" d="M 39.589844 315 L 39.589844 310.519531 L 275.597656 74.53125 L 280.078125 74.53125 C 280.8125 74.53125 281.550781 74.566406 282.28125 74.640625 C 283.015625 74.710938 283.742188 74.820312 284.464844 74.964844 C 285.1875 75.109375 285.898438 75.289062 286.605469 75.5 C 287.308594 75.714844 288 75.964844 288.679688 76.246094 C 289.363281 76.527344 290.027344 76.839844 290.675781 77.1875 C 291.324219 77.535156 291.957031 77.914062 292.566406 78.324219 C 293.179688 78.730469 293.769531 79.167969 294.339844 79.636719 C 294.910156 80.105469 295.453125 80.597656 295.976562 81.117188 C 296.496094 81.636719 296.988281 82.183594 297.457031 82.753906 C 297.925781 83.320312 298.363281 83.910156 298.773438 84.523438 C 299.179688 85.136719 299.558594 85.765625 299.90625 86.417969 C 300.253906 87.066406 300.570312 87.730469 300.851562 88.410156 C 301.132812 89.089844 301.382812 89.78125 301.597656 90.488281 C 301.808594 91.191406 301.988281 91.90625 302.132812 92.625 C 302.277344 93.347656 302.386719 94.078125 302.457031 94.808594 C 302.53125 95.542969 302.566406 96.277344 302.570312 97.011719 L 302.570312 101.511719 L 66.5625 337.5 L 62.0625 337.5 C 61.328125 337.5 60.589844 337.460938 59.859375 337.390625 C 59.125 337.316406 58.398438 337.207031 57.675781 337.066406 C 56.953125 336.921875 56.242188 336.742188 55.535156 336.527344 C 54.832031 336.3125 54.140625 336.066406 53.460938 335.78125 C 52.78125 335.5 52.117188 335.1875 51.464844 334.839844 C 50.816406 334.492188 50.1875 334.113281 49.574219 333.703125 C 48.960938 333.292969 48.371094 332.855469 47.800781 332.386719 C 47.234375 331.921875 46.6875 331.425781 46.167969 330.90625 C 45.648438 330.386719 45.152344 329.839844 44.6875 329.273438 C 44.21875 328.703125 43.78125 328.113281 43.371094 327.5 C 42.964844 326.886719 42.585938 326.257812 42.238281 325.605469 C 41.890625 324.957031 41.578125 324.292969 41.292969 323.613281 C 41.011719 322.933594 40.765625 322.238281 40.550781 321.535156 C 40.335938 320.832031 40.160156 320.117188 40.015625 319.394531 C 39.871094 318.671875 39.761719 317.945312 39.691406 317.214844 C 39.617188 316.480469 39.582031 315.746094 39.582031 315.007812 " fill-opacity="1" fill-rule="evenodd"/></g><g clip-path="url(#67987d4ee4)"><path fill="#5384c4" d="M 66.5625 337.5 L 171.09375 232.988281 L 275.597656 337.5 Z M 66.5625 337.5 " fill-opacity="1" fill-rule="evenodd"/></g><g clip-path="url(#62676dba7b)"><path fill="#ffffff" d="M 275.597656 337.5 L 171.074219 232.96875 L 198.039062 205.996094 L 302.570312 310.527344 L 302.570312 315.007812 C 302.570312 315.746094 302.53125 316.480469 302.460938 317.214844 C 302.386719 317.945312 302.277344 318.675781 302.136719 319.394531 C 301.992188 320.117188 301.8125 320.832031 301.597656 321.535156 C 301.382812 322.242188 301.136719 322.933594 300.855469 323.613281 C 300.570312 324.296875 300.257812 324.960938 299.910156 325.609375 C 299.5625 326.257812 299.183594 326.890625 298.777344 327.503906 C 298.367188 328.113281 297.929688 328.707031 297.460938 329.273438 C 296.992188 329.84375 296.5 330.390625 295.980469 330.910156 C 295.457031 331.429688 294.914062 331.925781 294.34375 332.390625 C 293.773438 332.859375 293.183594 333.296875 292.570312 333.707031 C 291.957031 334.117188 291.328125 334.496094 290.679688 334.839844 C 290.027344 335.1875 289.363281 335.503906 288.683594 335.785156 C 288.003906 336.066406 287.308594 336.316406 286.605469 336.53125 C 285.902344 336.742188 285.1875 336.921875 284.464844 337.066406 C 283.742188 337.210938 283.015625 337.316406 282.28125 337.390625 C 281.550781 337.464844 280.816406 337.5 280.078125 337.5 Z M 275.597656 337.5 " fill-opacity="1" fill-rule="evenodd"/></g><path fill="#c2c2c1" d="M 302.570312 310.527344 L 198.039062 205.996094 L 302.570312 101.464844 Z M 302.570312 310.527344 " fill-opacity="1" fill-rule="evenodd"/><path fill="#efefef" d="M 86.492188 103.59375 C 99.871094 97.472656 116.617188 99.964844 127.480469 109.988281 L 117.09375 120.300781 C 106.21875 109.519531 85.808594 114.628906 80.71875 128.898438 C 74.15625 142.941406 85.125 161.398438 100.78125 161.597656 C 111.027344 162.789062 121.257812 155.925781 123.421875 145.714844 C 116.257812 145.726562 109.117188 145.660156 101.972656 145.773438 L 101.839844 132.523438 L 137.839844 133.011719 C 138.742188 141.757812 138.121094 151.039062 133.414062 158.699219 C 126.039062 172.425781 108.628906 178.425781 93.890625 174.957031 C 75.675781 171.179688 62.042969 152.492188 64.527344 133.988281 C 65.792969 120.9375 74.53125 109.003906 86.492188 103.59375 " fill-opacity="1" fill-rule="nonzero"/><g clip-path="url(#291a4fea46)"><path fill="#dc4b3e" d="M 256.632812 37.5 L 265.179688 37.5 C 286.492188 38.71875 307.320312 49.125 320.230469 66.253906 C 328.6875 77.070312 333.414062 90.496094 334.480469 104.128906 L 334.480469 109.191406 C 333.984375 135.628906 317.070312 157.320312 302.417969 177.882812 C 285.976562 201.113281 270.789062 226.445312 266.570312 255.066406 C 265.445312 259.914062 266.792969 266.710938 261 268.894531 C 259.640625 267.835938 258.046875 266.953125 257.089844 265.472656 C 255.375 249.46875 251.464844 233.652344 244.546875 219.039062 C 236.792969 202.003906 226.011719 186.601562 215.042969 171.554688 C 208.367188 162.523438 202.078125 153.179688 196.875 143.203125 C 188.699219 128.269531 185.652344 110.625 189 93.871094 C 191.738281 80.746094 198.65625 68.371094 208.246094 58.902344 C 221.15625 46.273438 238.621094 38.625 256.632812 37.5 M 254.972656 84.054688 C 244.867188 86.304688 236.382812 95.25 235.527344 105.617188 C 235.425781 106.828125 235.414062 108.039062 235.488281 109.25 C 235.566406 110.464844 235.734375 111.664062 235.988281 112.851562 C 236.246094 114.035156 236.589844 115.199219 237.015625 116.335938 C 237.445312 117.46875 237.957031 118.570312 238.546875 119.628906 C 239.140625 120.6875 239.808594 121.699219 240.550781 122.660156 C 241.292969 123.621094 242.105469 124.519531 242.980469 125.359375 C 243.855469 126.199219 244.792969 126.972656 245.78125 127.671875 C 246.773438 128.375 247.8125 128.996094 248.898438 129.542969 C 250.082031 130.148438 251.308594 130.660156 252.570312 131.082031 C 253.835938 131.503906 255.121094 131.832031 256.433594 132.058594 C 257.746094 132.289062 259.066406 132.417969 260.398438 132.453125 C 261.730469 132.484375 263.054688 132.414062 264.375 132.25 C 265.699219 132.082031 267 131.816406 268.28125 131.457031 C 269.5625 131.097656 270.8125 130.640625 272.023438 130.09375 C 273.238281 129.546875 274.40625 128.910156 275.523438 128.1875 C 276.640625 127.464844 277.699219 126.664062 278.699219 125.785156 C 279.609375 124.957031 280.449219 124.066406 281.222656 123.113281 C 281.992188 122.160156 282.691406 121.152344 283.308594 120.09375 C 283.929688 119.035156 284.46875 117.933594 284.921875 116.792969 C 285.375 115.652344 285.738281 114.484375 286.015625 113.289062 C 286.289062 112.09375 286.476562 110.882812 286.566406 109.65625 C 286.660156 108.433594 286.660156 107.210938 286.566406 105.984375 C 286.472656 104.761719 286.289062 103.550781 286.011719 102.355469 C 285.734375 101.160156 285.371094 99.992188 284.914062 98.851562 C 280.351562 87.429688 266.820312 80.925781 254.972656 83.851562 " fill-opacity="1" fill-rule="nonzero"/></g><path fill="#802c27" d="M 254.972656 84.054688 C 266.8125 81.027344 280.359375 87.523438 284.914062 99.054688 C 288.664062 108.179688 286.078125 119.457031 278.699219 125.992188 C 277.699219 126.871094 276.640625 127.671875 275.523438 128.394531 C 274.40625 129.117188 273.238281 129.75 272.023438 130.300781 C 270.8125 130.847656 269.5625 131.300781 268.28125 131.664062 C 267 132.023438 265.699219 132.289062 264.375 132.457031 C 263.054688 132.621094 261.730469 132.6875 260.398438 132.65625 C 259.066406 132.625 257.746094 132.496094 256.433594 132.265625 C 255.121094 132.039062 253.835938 131.710938 252.570312 131.289062 C 251.308594 130.867188 250.082031 130.355469 248.898438 129.75 C 240.179688 125.4375 234.460938 115.566406 235.527344 105.824219 C 236.464844 95.363281 244.867188 86.417969 254.972656 84.261719 " fill-opacity="1" fill-rule="nonzero"/></svg>