<svg xmlns="http://www.w3.org/2000/svg" xmlns:xlink="http://www.w3.org/1999/xlink" width="1200" zoomAndPan="magnify" viewBox="0 0 900 899.99999" height="1200" preserveAspectRatio="xMidYMid meet" version="1.0"><path fill="#be4bdb" d="M 450 370.207031 C 406.050781 370.207031 370.207031 406.050781 370.207031 450 C 370.207031 493.949219 406.050781 529.792969 450 529.792969 C 493.949219 529.792969 529.792969 493.949219 529.792969 450 C 529.792969 406.050781 493.949219 370.207031 450 370.207031 Z M 450 370.207031 " fill-opacity="1" fill-rule="nonzero"/><path fill="#be4bdb" d="M 557.222656 254.257812 L 342.777344 254.257812 C 294.15625 254.257812 254.257812 293.84375 254.257812 342.777344 L 254.257812 557.222656 C 254.257812 605.84375 293.84375 645.738281 342.777344 645.738281 L 557.222656 645.738281 C 605.84375 645.738281 645.738281 606.15625 645.738281 557.222656 L 645.738281 342.777344 C 645.429688 293.84375 605.84375 254.257812 557.222656 254.257812 Z M 450 570 C 383.609375 570 329.6875 516.078125 329.6875 449.6875 C 329.6875 383.296875 383.609375 329.375 450 329.375 C 516.390625 329.375 570.3125 383.296875 570.3125 449.6875 C 570 516.078125 516.078125 570 450 570 Z M 578.726562 349.636719 C 562.832031 349.636719 549.738281 336.546875 549.738281 320.648438 C 549.738281 304.753906 562.832031 291.664062 578.726562 291.664062 C 594.625 291.664062 607.714844 304.753906 607.714844 320.648438 C 607.714844 336.855469 594.933594 349.636719 578.726562 349.636719 Z M 578.726562 349.636719 " fill-opacity="1" fill-rule="nonzero"/><path fill="#be4bdb" d="M 450 90 C 251.144531 90 90 251.144531 90 450 C 90 648.855469 251.144531 810 450 810 C 648.855469 810 810 648.855469 810 450 C 809.6875 251.144531 648.546875 90 450 90 Z M 685.949219 557.222656 C 685.949219 628.285156 627.972656 686.257812 556.910156 686.257812 L 342.777344 686.257812 C 271.714844 686.257812 213.742188 628.285156 213.742188 557.222656 L 213.742188 342.777344 C 213.742188 271.714844 271.714844 213.742188 342.777344 213.742188 L 557.222656 213.742188 C 628.285156 213.742188 686.257812 271.714844 686.257812 342.777344 L 686.257812 557.222656 Z M 685.949219 557.222656 " fill-opacity="1" fill-rule="nonzero"/></svg>