<svg xmlns="http://www.w3.org/2000/svg" xmlns:xlink="http://www.w3.org/1999/xlink" width="1200" zoomAndPan="magnify" viewBox="0 0 900 899.99999" height="1200" preserveAspectRatio="xMidYMid meet" version="1.0"><path fill="#233dff" d="M 450 90 C 251.144531 90 90 251.144531 90 450 C 90 648.855469 251.144531 810 450 810 C 648.855469 810 810 648.855469 810 450 C 809.6875 251.144531 648.546875 90 450 90 Z M 344.335938 641.6875 L 259.871094 641.6875 L 259.871094 369.273438 L 344.335938 369.273438 Z M 302.257812 333.117188 C 275.144531 333.117188 253.011719 310.988281 253.011719 283.871094 C 253.011719 256.753906 275.144531 234.625 302.257812 234.625 C 329.375 234.625 351.507812 256.753906 351.507812 283.871094 C 351.507812 310.988281 329.375 333.117188 302.257812 333.117188 Z M 661.636719 641.6875 L 577.167969 641.6875 L 577.167969 505.480469 C 577.167969 486.15625 577.167969 438.15625 534.15625 438.15625 C 485.222656 438.15625 482.105469 487.714844 482.105469 487.714844 L 482.105469 641.6875 L 397.949219 641.6875 L 397.949219 369.273438 L 482.414062 369.273438 L 482.414062 406.675781 C 502.363281 366.15625 543.507812 363.039062 570.3125 363.039062 C 600.855469 363.039062 628.285156 374.882812 643.871094 401.066406 C 657.273438 423.195312 661.636719 455.296875 661.636719 505.480469 Z M 661.636719 641.6875 " fill-opacity="1" fill-rule="nonzero"/></svg>