<svg xmlns="http://www.w3.org/2000/svg" xmlns:xlink="http://www.w3.org/1999/xlink" width="1200" zoomAndPan="magnify" viewBox="0 0 900 899.99999" height="1200" preserveAspectRatio="xMidYMid meet" version="1.0"><defs><clipPath id="d61926d867"><path d="M 93 199 L 810 199 L 810 701 L 93 701 Z M 93 199 " clip-rule="nonzero"/></clipPath></defs><g clip-path="url(#d61926d867)"><path fill="#000000" d="M 129.402344 199.253906 C 128.21875 199.238281 127.039062 199.277344 125.859375 199.378906 C 124.679688 199.480469 123.507812 199.636719 122.34375 199.855469 C 121.179688 200.070312 120.027344 200.34375 118.890625 200.675781 C 117.753906 201.007812 116.636719 201.390625 115.539062 201.832031 C 114.441406 202.273438 113.367188 202.769531 112.316406 203.316406 C 111.265625 203.867188 110.246094 204.464844 109.257812 205.113281 C 108.265625 205.761719 107.3125 206.457031 106.390625 207.203125 C 105.46875 207.945312 104.585938 208.734375 103.746094 209.566406 C 102.902344 210.394531 102.101562 211.265625 101.34375 212.175781 C 100.589844 213.085938 99.878906 214.03125 99.214844 215.015625 C 98.550781 215.996094 97.941406 217.007812 97.378906 218.046875 C 96.816406 219.089844 96.304688 220.15625 95.847656 221.25 C 95.390625 222.339844 94.988281 223.453125 94.640625 224.585938 C 94.296875 225.714844 94.007812 226.863281 93.773438 228.023438 C 93.539062 229.183594 93.363281 230.355469 93.246094 231.53125 C 93.128906 232.710938 93.070312 233.890625 93.070312 235.074219 C 93.070312 236.257812 93.128906 237.441406 93.246094 238.617188 C 93.363281 239.796875 93.539062 240.964844 93.773438 242.125 C 94.007812 243.285156 94.296875 244.433594 94.640625 245.566406 C 94.988281 246.695312 95.390625 247.808594 95.847656 248.902344 C 96.304688 249.992188 96.816406 251.058594 97.378906 252.101562 C 97.941406 253.144531 98.550781 254.15625 99.214844 255.136719 C 99.878906 256.117188 100.589844 257.0625 101.34375 257.972656 C 102.101562 258.882812 102.902344 259.753906 103.746094 260.585938 C 104.585938 261.414062 105.46875 262.203125 106.390625 262.945312 C 107.3125 263.691406 108.265625 264.386719 109.257812 265.035156 C 110.246094 265.683594 111.265625 266.285156 112.316406 266.832031 C 113.367188 267.378906 114.441406 267.875 115.539062 268.316406 C 116.636719 268.757812 117.753906 269.144531 118.890625 269.472656 C 120.027344 269.804688 121.179688 270.078125 122.34375 270.292969 C 123.507812 270.511719 124.679688 270.667969 125.859375 270.769531 C 127.039062 270.871094 128.21875 270.914062 129.402344 270.894531 L 774.179688 270.894531 C 775.363281 270.914062 776.542969 270.871094 777.722656 270.769531 C 778.902344 270.667969 780.074219 270.511719 781.238281 270.292969 C 782.402344 270.078125 783.554688 269.804688 784.691406 269.472656 C 785.828125 269.144531 786.945312 268.757812 788.042969 268.316406 C 789.140625 267.875 790.214844 267.378906 791.265625 266.832031 C 792.316406 266.285156 793.335938 265.683594 794.324219 265.035156 C 795.316406 264.386719 796.269531 263.691406 797.191406 262.945312 C 798.113281 262.203125 798.996094 261.414062 799.835938 260.585938 C 800.679688 259.753906 801.480469 258.882812 802.238281 257.972656 C 802.992188 257.0625 803.703125 256.117188 804.367188 255.136719 C 805.03125 254.15625 805.640625 253.144531 806.203125 252.101562 C 806.765625 251.058594 807.277344 249.992188 807.734375 248.902344 C 808.191406 247.808594 808.59375 246.695312 808.941406 245.566406 C 809.285156 244.433594 809.574219 243.285156 809.808594 242.125 C 810.042969 240.964844 810.21875 239.796875 810.335938 238.617188 C 810.453125 237.441406 810.507812 236.257812 810.511719 235.074219 C 810.507812 233.890625 810.453125 232.710938 810.335938 231.53125 C 810.21875 230.355469 810.042969 229.183594 809.808594 228.023438 C 809.574219 226.863281 809.285156 225.714844 808.941406 224.585938 C 808.59375 223.453125 808.191406 222.339844 807.734375 221.25 C 807.277344 220.15625 806.765625 219.089844 806.203125 218.046875 C 805.640625 217.007812 805.03125 215.996094 804.367188 215.015625 C 803.703125 214.03125 802.992188 213.085938 802.238281 212.175781 C 801.480469 211.265625 800.679688 210.394531 799.835938 209.566406 C 798.996094 208.734375 798.113281 207.945312 797.191406 207.203125 C 796.269531 206.457031 795.316406 205.761719 794.324219 205.113281 C 793.335938 204.464844 792.316406 203.867188 791.265625 203.316406 C 790.214844 202.769531 789.140625 202.273438 788.042969 201.832031 C 786.945312 201.390625 785.828125 201.007812 784.691406 200.675781 C 783.554688 200.34375 782.402344 200.070312 781.238281 199.855469 C 780.074219 199.636719 778.902344 199.480469 777.722656 199.378906 C 776.542969 199.277344 775.363281 199.238281 774.179688 199.253906 Z M 129.402344 414.179688 C 128.21875 414.164062 127.039062 414.203125 125.859375 414.304688 C 124.679688 414.40625 123.507812 414.5625 122.34375 414.78125 C 121.179688 414.996094 120.027344 415.269531 118.890625 415.601562 C 117.753906 415.933594 116.636719 416.316406 115.539062 416.757812 C 114.441406 417.199219 113.367188 417.695312 112.316406 418.242188 C 111.269531 418.792969 110.246094 419.390625 109.257812 420.039062 C 108.269531 420.6875 107.3125 421.382812 106.390625 422.128906 C 105.46875 422.871094 104.589844 423.660156 103.746094 424.488281 C 102.902344 425.320312 102.101562 426.191406 101.34375 427.101562 C 100.589844 428.011719 99.878906 428.957031 99.214844 429.941406 C 98.554688 430.921875 97.941406 431.929688 97.378906 432.972656 C 96.816406 434.015625 96.304688 435.082031 95.847656 436.171875 C 95.390625 437.265625 94.988281 438.378906 94.644531 439.511719 C 94.296875 440.640625 94.007812 441.789062 93.773438 442.949219 C 93.539062 444.109375 93.367188 445.277344 93.25 446.457031 C 93.132812 447.636719 93.074219 448.816406 93.074219 450 C 93.074219 451.183594 93.132812 452.363281 93.25 453.542969 C 93.367188 454.722656 93.539062 455.890625 93.773438 457.050781 C 94.007812 458.210938 94.296875 459.359375 94.644531 460.488281 C 94.988281 461.621094 95.390625 462.734375 95.847656 463.824219 C 96.304688 464.917969 96.816406 465.984375 97.378906 467.027344 C 97.941406 468.066406 98.554688 469.078125 99.214844 470.058594 C 99.878906 471.042969 100.589844 471.988281 101.34375 472.898438 C 102.101562 473.808594 102.902344 474.679688 103.746094 475.511719 C 104.589844 476.339844 105.46875 477.128906 106.390625 477.871094 C 107.3125 478.617188 108.269531 479.3125 109.257812 479.960938 C 110.246094 480.609375 111.269531 481.207031 112.316406 481.757812 C 113.367188 482.304688 114.441406 482.800781 115.539062 483.242188 C 116.636719 483.683594 117.753906 484.066406 118.890625 484.398438 C 120.027344 484.730469 121.179688 485.003906 122.34375 485.21875 C 123.507812 485.4375 124.679688 485.59375 125.859375 485.695312 C 127.039062 485.796875 128.21875 485.835938 129.402344 485.820312 L 774.179688 485.820312 C 775.363281 485.835938 776.542969 485.796875 777.722656 485.695312 C 778.902344 485.59375 780.074219 485.4375 781.238281 485.21875 C 782.402344 485.003906 783.554688 484.730469 784.691406 484.398438 C 785.828125 484.066406 786.945312 483.683594 788.042969 483.242188 C 789.140625 482.800781 790.214844 482.304688 791.265625 481.757812 C 792.3125 481.207031 793.335938 480.609375 794.324219 479.960938 C 795.3125 479.3125 796.269531 478.617188 797.191406 477.871094 C 798.113281 477.128906 798.992188 476.339844 799.835938 475.511719 C 800.679688 474.679688 801.480469 473.808594 802.238281 472.898438 C 802.992188 471.988281 803.703125 471.042969 804.367188 470.058594 C 805.027344 469.078125 805.640625 468.066406 806.203125 467.027344 C 806.765625 465.984375 807.277344 464.917969 807.734375 463.824219 C 808.191406 462.734375 808.59375 461.621094 808.9375 460.488281 C 809.285156 459.359375 809.574219 458.210938 809.808594 457.050781 C 810.042969 455.890625 810.214844 454.722656 810.332031 453.542969 C 810.449219 452.363281 810.507812 451.183594 810.507812 450 C 810.507812 448.816406 810.449219 447.636719 810.332031 446.457031 C 810.214844 445.277344 810.042969 444.109375 809.808594 442.949219 C 809.574219 441.789062 809.285156 440.640625 808.9375 439.511719 C 808.59375 438.378906 808.191406 437.265625 807.734375 436.175781 C 807.277344 435.082031 806.765625 434.015625 806.203125 432.972656 C 805.640625 431.929688 805.027344 430.921875 804.367188 429.941406 C 803.703125 428.957031 802.992188 428.011719 802.238281 427.101562 C 801.480469 426.191406 800.679688 425.320312 799.835938 424.488281 C 798.992188 423.660156 798.113281 422.871094 797.191406 422.128906 C 796.269531 421.382812 795.3125 420.6875 794.324219 420.039062 C 793.335938 419.390625 792.3125 418.792969 791.265625 418.242188 C 790.214844 417.695312 789.140625 417.199219 788.042969 416.757812 C 786.945312 416.316406 785.828125 415.933594 784.691406 415.601562 C 783.554688 415.269531 782.402344 414.996094 781.238281 414.78125 C 780.074219 414.5625 778.902344 414.40625 777.722656 414.304688 C 776.542969 414.203125 775.363281 414.164062 774.179688 414.179688 Z M 129.402344 629.105469 C 128.21875 629.085938 127.039062 629.128906 125.859375 629.230469 C 124.679688 629.332031 123.507812 629.488281 122.34375 629.707031 C 121.179688 629.921875 120.027344 630.195312 118.890625 630.527344 C 117.753906 630.855469 116.636719 631.242188 115.539062 631.683594 C 114.441406 632.125 113.367188 632.621094 112.316406 633.167969 C 111.265625 633.714844 110.246094 634.316406 109.257812 634.964844 C 108.265625 635.613281 107.3125 636.308594 106.390625 637.050781 C 105.46875 637.796875 104.585938 638.582031 103.746094 639.414062 C 102.902344 640.246094 102.101562 641.117188 101.34375 642.027344 C 100.589844 642.9375 99.878906 643.882812 99.214844 644.863281 C 98.550781 645.84375 97.9375 646.855469 97.375 647.898438 C 96.8125 648.941406 96.304688 650.007812 95.847656 651.097656 C 95.390625 652.191406 94.988281 653.304688 94.640625 654.433594 C 94.296875 655.566406 94.003906 656.714844 93.773438 657.875 C 93.539062 659.035156 93.363281 660.203125 93.246094 661.382812 C 93.128906 662.558594 93.070312 663.742188 93.070312 664.925781 C 93.070312 666.109375 93.128906 667.289062 93.246094 668.46875 C 93.363281 669.644531 93.539062 670.816406 93.773438 671.976562 C 94.003906 673.136719 94.296875 674.285156 94.640625 675.414062 C 94.988281 676.546875 95.390625 677.660156 95.847656 678.75 C 96.304688 679.84375 96.8125 680.910156 97.375 681.953125 C 97.9375 682.992188 98.550781 684.003906 99.214844 684.984375 C 99.878906 685.96875 100.589844 686.914062 101.34375 687.824219 C 102.101562 688.734375 102.902344 689.605469 103.746094 690.4375 C 104.585938 691.265625 105.46875 692.054688 106.390625 692.796875 C 107.3125 693.542969 108.265625 694.238281 109.257812 694.886719 C 110.246094 695.535156 111.265625 696.132812 112.316406 696.683594 C 113.367188 697.230469 114.441406 697.726562 115.539062 698.167969 C 116.636719 698.609375 117.753906 698.992188 118.890625 699.324219 C 120.027344 699.65625 121.179688 699.929688 122.34375 700.144531 C 123.507812 700.363281 124.679688 700.519531 125.859375 700.621094 C 127.039062 700.722656 128.21875 700.761719 129.402344 700.746094 L 774.179688 700.746094 C 775.363281 700.761719 776.542969 700.722656 777.722656 700.621094 C 778.902344 700.519531 780.074219 700.363281 781.238281 700.144531 C 782.402344 699.929688 783.554688 699.65625 784.691406 699.324219 C 785.828125 698.992188 786.945312 698.609375 788.042969 698.167969 C 789.140625 697.726562 790.214844 697.230469 791.265625 696.683594 C 792.316406 696.132812 793.335938 695.535156 794.324219 694.886719 C 795.316406 694.238281 796.269531 693.542969 797.191406 692.796875 C 798.113281 692.054688 798.996094 691.265625 799.835938 690.4375 C 800.679688 689.605469 801.480469 688.734375 802.238281 687.824219 C 802.992188 686.914062 803.703125 685.96875 804.367188 684.984375 C 805.03125 684.003906 805.644531 682.992188 806.207031 681.953125 C 806.769531 680.910156 807.277344 679.84375 807.734375 678.75 C 808.191406 677.660156 808.59375 676.546875 808.941406 675.414062 C 809.285156 674.285156 809.578125 673.136719 809.808594 671.976562 C 810.042969 670.816406 810.21875 669.644531 810.335938 668.46875 C 810.453125 667.289062 810.511719 666.109375 810.511719 664.925781 C 810.511719 663.742188 810.453125 662.558594 810.335938 661.382812 C 810.21875 660.203125 810.042969 659.035156 809.808594 657.875 C 809.578125 656.714844 809.285156 655.566406 808.941406 654.433594 C 808.59375 653.304688 808.191406 652.191406 807.734375 651.097656 C 807.277344 650.007812 806.769531 648.941406 806.207031 647.898438 C 805.644531 646.855469 805.03125 645.84375 804.367188 644.863281 C 803.703125 643.882812 802.992188 642.9375 802.238281 642.027344 C 801.480469 641.117188 800.679688 640.246094 799.835938 639.414062 C 798.996094 638.582031 798.113281 637.796875 797.191406 637.050781 C 796.269531 636.308594 795.316406 635.613281 794.324219 634.964844 C 793.335938 634.316406 792.316406 633.714844 791.265625 633.167969 C 790.214844 632.621094 789.140625 632.125 788.042969 631.683594 C 786.945312 631.242188 785.828125 630.855469 784.691406 630.527344 C 783.554688 630.195312 782.402344 629.921875 781.238281 629.707031 C 780.074219 629.488281 778.902344 629.332031 777.722656 629.230469 C 776.542969 629.128906 775.363281 629.085938 774.179688 629.105469 Z M 129.402344 629.105469 " fill-opacity="1" fill-rule="nonzero"/></g></svg>