<svg xmlns="http://www.w3.org/2000/svg" xmlns:xlink="http://www.w3.org/1999/xlink" width="1200" zoomAndPan="magnify" viewBox="0 0 900 899.99999" height="1200" preserveAspectRatio="xMidYMid meet" version="1.0"><defs><clipPath id="id1"><path d="M 95 145 L 758 145 L 758 805.582031 L 95 805.582031 Z M 95 145 " clip-rule="nonzero"/></clipPath><clipPath id="id2"><path d="M 404 94.582031 L 810 94.582031 L 810 500 L 404 500 Z M 404 94.582031 " clip-rule="nonzero"/></clipPath></defs><g clip-path="url(#id1)"><path fill="#2E8BC0" d="M 737.660156 630.976562 C 701.0625 619.058594 654.253906 603.734375 608.296875 592.667969 C 598.9375 590.113281 577.660156 590.113281 568.296875 605.4375 L 539.363281 649.703125 C 536.808594 653.105469 533.402344 654.808594 530 655.660156 C 521.488281 656.511719 512.128906 654.808594 505.320312 648.851562 C 486.597656 636.933594 414.253906 570.535156 371.703125 529.675781 C 329.148438 485.410156 264.46875 413.902344 250.851562 395.175781 C 245.746094 388.367188 243.191406 379 244.042969 370.488281 C 244.894531 366.234375 246.597656 362.828125 250 361.125 L 294.253906 332.183594 C 304.46875 325.371094 309.574219 301.535156 307.019531 292.171875 C 298.511719 256.421875 287.445312 216.410156 269.574219 163.632812 C 265.320312 152.566406 248.296875 138.945312 221.0625 148.308594 C 184.46875 163.632812 150.425781 185.765625 121.488281 214.707031 C 112.980469 223.222656 105.320312 231.734375 98.511719 241.097656 C 96.808594 242.800781 95.957031 245.355469 95.957031 247.054688 C 90 353.464844 161.488281 496.476562 278.085938 612.246094 C 390.425781 729.722656 534.253906 805.484375 642.339844 805.484375 C 646.597656 805.484375 650 805.484375 654.253906 805.484375 C 656.808594 805.484375 658.511719 804.632812 660.210938 802.929688 C 669.574219 795.269531 678.085938 787.605469 686.597656 779.945312 C 709.574219 756.960938 728.296875 730.570312 743.617188 702.480469 C 747.019531 694.820312 750.425781 688.007812 753.828125 680.347656 C 757.234375 668.429688 764.042969 639.488281 737.660156 630.976562 Z M 229.574219 167.039062 C 237.234375 164.484375 247.445312 166.1875 250 171.292969 C 267.019531 223.222656 278.9375 262.378906 286.597656 297.28125 C 288.296875 303.238281 286.597656 311.753906 282.339844 315.15625 L 272.128906 321.96875 C 239.789062 278.554688 220.210938 227.476562 215.105469 173.847656 C 215.105469 173.847656 224.46875 169.589844 229.574219 167.039062 Z M 734.253906 671.835938 C 732.554688 676.941406 730 681.199219 728.296875 685.457031 C 628.722656 669.28125 590.425781 641.191406 579.363281 630.972656 L 587.019531 619.058594 C 591.277344 613.097656 598.9375 613.097656 604.894531 614.800781 C 648.296875 625.015625 695.105469 640.339844 730.851562 651.40625 C 736.808594 653.105469 736.808594 664.171875 734.253906 671.835938 Z M 734.253906 671.835938 " fill-opacity="1" fill-rule="nonzero"/></g><g clip-path="url(#id2)"><path fill="#2E8BC0" d="M 415.105469 94.679688 C 409.148438 94.679688 404.894531 99.789062 404.894531 104.894531 C 404.894531 110.003906 410 115.109375 415.105469 115.109375 C 621.914062 115.109375 788.722656 282.808594 788.722656 488.8125 C 788.722656 494.773438 793.828125 499.027344 798.9375 499.027344 C 804.042969 499.027344 809.148438 493.921875 809.148438 488.8125 C 810 271.742188 632.980469 95.53125 415.105469 94.679688 Z M 415.105469 94.679688 " fill-opacity="1" fill-rule="nonzero"/></g><path fill="#2E8BC0" d="M 599.789062 305.792969 C 649.148438 354.316406 676.382812 420.714844 676.382812 490.515625 C 676.382812 496.476562 681.488281 500.730469 686.597656 500.730469 C 691.703125 500.730469 696.808594 495.625 696.808594 490.515625 C 696.808594 334.734375 570 207.898438 414.253906 207.898438 C 408.296875 207.898438 404.042969 213.003906 404.042969 218.113281 C 404.042969 224.070312 408.296875 228.328125 413.402344 229.179688 C 413.402344 229.179688 414.253906 229.179688 414.253906 229.179688 C 484.042969 229.179688 550.425781 256.421875 599.789062 305.792969 Z M 599.789062 305.792969 " fill-opacity="1" fill-rule="nonzero"/><path fill="#2E8BC0" d="M 415.105469 348.355469 C 493.402344 348.355469 557.234375 412.199219 557.234375 490.515625 C 557.234375 496.476562 562.339844 500.730469 567.445312 500.730469 C 572.554688 500.730469 577.660156 495.625 577.660156 490.515625 C 577.660156 400.28125 504.46875 327.074219 414.253906 327.074219 C 408.296875 327.074219 404.042969 332.183594 404.042969 337.289062 C 404.042969 342.398438 409.148438 348.355469 415.105469 348.355469 Z M 415.105469 348.355469 " fill-opacity="1" fill-rule="nonzero"/></svg>