<svg xmlns="http://www.w3.org/2000/svg" xmlns:xlink="http://www.w3.org/1999/xlink" width="1200" zoomAndPan="magnify" viewBox="0 0 900 899.99999" height="1200" preserveAspectRatio="xMidYMid meet" version="1.0"><path fill="#000000" d="M 400.023438 597.601562 C 405.285156 599.179688 409.96875 603.59375 411.835938 608.660156 C 413.679688 613.726562 412.671875 618.097656 410.058594 620.824219 L 400.164062 631.179688 C 397.570312 633.9375 393.164062 635.132812 387.953125 633.5625 C 382.707031 631.929688 378.003906 627.523438 376.160156 622.503906 C 375.410156 620.503906 375.320312 618.695312 375.355469 616.964844 L 394.421875 597.128906 C 396.3125 596.539062 398.347656 597.457031 400.023438 597.601562 Z M 372.945312 555.199219 C 379.253906 556.492188 384.605469 562.164062 386.75 568.15625 C 388.871094 574.1875 387.675781 579.71875 384.242188 583.292969 L 365.460938 602.941406 C 362.027344 606.519531 356.503906 608.054688 350.269531 606.207031 C 344.050781 604.378906 338.609375 599.285156 336.433594 593.238281 C 334.292969 587.246094 335.59375 581.617188 339.027344 578.050781 L 357.710938 558.488281 C 362.527344 553.421875 367.230469 554.03125 372.945312 555.199219 Z M 332.933594 519.101562 C 340.464844 520.492188 345.898438 525.640625 348.019531 531.6875 C 350.164062 537.726562 348.957031 543.265625 345.515625 546.839844 L 326.742188 566.488281 C 323.308594 570.066406 317.734375 571.601562 311.550781 569.789062 C 305.332031 567.933594 299.925781 562.726562 297.804688 556.742188 C 295.609375 550.703125 296.832031 545.171875 300.257812 541.585938 L 318.992188 521.992188 C 321.542969 519.234375 325.359375 517.691406 332.933594 519.101562 Z M 295.527344 482.167969 C 301.996094 483.800781 307.242188 489.132812 309.382812 495.128906 C 311.507812 501.175781 310.257812 506.695312 306.824219 510.316406 L 288.089844 529.921875 C 284.652344 533.488281 279.078125 535.023438 272.894531 533.210938 C 266.675781 531.355469 261.179688 526.246094 259.058594 520.207031 C 256.917969 514.207031 258.121094 508.648438 261.566406 505.019531 L 281.496094 484.253906 C 286.605469 480.875 290.503906 480.917969 295.527344 482.167969 Z M 549.875 354.785156 L 636.015625 466.371094 C 621.761719 482.488281 605.210938 491.132812 588.867188 497.867188 L 507.222656 434.234375 C 495.613281 425.21875 479.484375 409.234375 457.226562 412.082031 L 424.699219 416.300781 C 407.550781 418.53125 395.980469 416.34375 388.980469 411.011719 C 381.957031 405.660156 379.726562 398.460938 383.582031 395.125 C 387.453125 391.773438 395.339844 393.539062 404.492188 390.28125 L 462.8125 369.519531 C 473.773438 365.574219 491.164062 364.792969 508.53125 363.488281 C 523.019531 362.363281 537.742188 361.019531 549.875 354.785156 Z M 430.933594 343.3125 C 444.261719 342.617188 454.808594 346.425781 465.03125 351.351562 C 462.328125 352.011719 459.644531 352.742188 457.082031 353.667969 L 401.050781 373.746094 C 392.492188 374.984375 386.1875 375.496094 380.414062 377.234375 C 374.417969 379.035156 368.511719 383.914062 366.007812 390.273438 C 361.234375 402.359375 367.363281 415.738281 378.691406 424.433594 C 390.085938 433.113281 407.542969 437.527344 428.507812 432.691406 L 459.3125 428.796875 C 472.054688 427.164062 483.847656 437.421875 496.335938 447.195312 L 586.523438 517.433594 C 590.472656 520.503906 592.515625 525.835938 591.257812 532.117188 C 590.054688 538.394531 585.40625 544.191406 579.546875 546.929688 C 573.691406 549.632812 567.9375 548.929688 564.039062 545.867188 L 518.320312 510.324219 C 516.785156 509.078125 514.832031 508.417969 512.886719 508.472656 C 504.890625 508.65625 501.628906 518.78125 508.007812 523.605469 L 539.597656 548.242188 C 543.546875 551.308594 545.539062 556.609375 544.332031 562.867188 C 543.074219 569.148438 538.480469 575.042969 532.621094 577.738281 C 526.714844 580.441406 520.996094 579.734375 517.0625 576.65625 L 485.417969 552.042969 C 483.828125 550.792969 481.882812 550.140625 479.929688 550.1875 C 471.9375 550.410156 468.691406 560.542969 475.050781 565.320312 L 496.800781 582.277344 C 500.753906 585.355469 502.742188 590.597656 501.539062 596.867188 C 500.28125 603.140625 495.6875 609.035156 489.78125 611.765625 C 484.167969 614.367188 478.628906 613.761719 474.71875 610.980469 L 452.472656 593.800781 C 450.882812 592.535156 448.984375 591.902344 446.984375 591.945312 C 439 592.132812 435.742188 602.308594 442.105469 607.082031 L 461.589844 622.21875 C 461.863281 623.851562 461.953125 625.660156 461.535156 627.703125 C 460.472656 632.964844 456.46875 638.066406 451.550781 640.394531 C 446.617188 642.714844 442.105469 642.152344 439.097656 639.789062 L 425.074219 628.871094 C 430.042969 621.398438 430.738281 611.738281 427.617188 602.855469 C 423.539062 591.054688 413.671875 583.578125 403.742188 581.164062 C 405.136719 575.113281 404.804688 568.667969 402.628906 562.539062 C 398.585938 551.203125 389.28125 542.417969 377.710938 539.019531 C 373.777344 537.867188 369.761719 537.441406 365.828125 537.726562 C 365.828125 533.828125 365.265625 529.832031 363.875 526.023438 C 359.832031 514.679688 350.527344 505.957031 339.011719 502.511719 C 335.101562 501.398438 331.0625 500.976562 327.164062 501.210938 C 327.214844 497.304688 326.601562 493.316406 325.261719 489.5 C 321.222656 478.164062 311.828125 469.386719 300.257812 465.996094 C 289.746094 462.875 278.558594 464.925781 270.476562 471.707031 C 268.890625 469.53125 267.132812 467.34375 264.9375 465.203125 L 351.917969 354.972656 C 362.757812 355.105469 374.277344 352.632812 383.527344 350.878906 C 399.710938 347.773438 418.25 344.019531 430.933594 343.3125 Z M 328.054688 338.246094 L 337.707031 345.828125 L 251.984375 454.535156 L 242.1875 446.910156 C 230.101562 437.484375 227.21875 431.210938 227.636719 424.433594 C 228.058594 417.644531 233.300781 407.988281 243.304688 395.292969 L 277.6875 351.671875 C 287.722656 338.996094 295.949219 331.613281 304.394531 330.175781 C 312.863281 328.6875 319 331.191406 328.054688 338.246094 Z M 597.371094 330.078125 C 605.820312 331.613281 613.910156 339.140625 623.75 351.964844 L 657.535156 396 C 667.382812 408.824219 672.503906 418.566406 672.816406 425.363281 C 673.148438 432.140625 670.167969 438.355469 657.953125 447.613281 L 648.425781 454.855469 L 563.863281 345.265625 L 573.570312 337.890625 C 582.730469 330.90625 588.902344 328.5 597.371094 330.078125 Z M 563.390625 324.40625 L 546.714844 337.140625 C 539.1875 342.851562 524.046875 345.410156 507.210938 346.703125 C 503.359375 346.996094 499.40625 347.308594 495.5 347.550781 C 479.101562 340.289062 459.671875 324.867188 429.980469 326.449219 C 414.976562 327.25 396.304688 331.246094 380.324219 334.296875 C 371.824219 336.125 363.214844 337.550781 355.230469 338.070312 C 349.601562 333.753906 343.972656 329.328125 338.394531 324.957031 C 324.140625 313.816406 310.238281 309.5 297.519531 313.441406 C 284.777344 317.394531 275.109375 327.703125 264.429688 341.207031 L 230.046875 384.796875 C 219.402344 398.308594 211.597656 410.101562 210.757812 423.398438 C 209.972656 436.492188 217.359375 448.722656 231.304688 459.71875 L 249.371094 473.800781 C 253.832031 477.433594 256.535156 480.632812 258.476562 483.925781 L 249.371094 493.449219 C 241.234375 501.949219 239.144531 514.542969 243.1875 525.882812 C 247.230469 537.21875 256.535156 545.992188 268.050781 549.429688 C 272.003906 550.542969 276 550.960938 279.953125 550.738281 C 279.953125 554.644531 280.539062 558.542969 281.90625 562.394531 C 285.945312 573.679688 295.234375 582.464844 306.804688 585.90625 C 310.710938 587.058594 314.699219 587.441406 318.597656 587.199219 C 318.5625 591.105469 319.207031 595.09375 320.550781 598.902344 C 324.59375 610.246094 333.898438 619.023438 345.46875 622.414062 C 349.929688 623.75 354.570312 624.136719 359.03125 623.625 C 359.359375 625.195312 359.777344 626.730469 360.332031 628.308594 C 364.097656 638.523438 372.511719 646.46875 383 649.679688 C 393.039062 652.746094 404.152344 650.894531 411.441406 643.640625 L 413.726562 641.410156 L 430.3125 654.140625 C 438.257812 660.230469 449.546875 660.1875 458.796875 655.628906 C 470.785156 649.679688 477.058594 639.136719 478.261719 629.898438 C 489.832031 631.429688 499.226562 627.148438 507.445312 619.640625 C 514.445312 613.183594 517.703125 604.816406 518.632812 595.46875 C 531.316406 598.125 542.574219 593.148438 551.53125 584.382812 C 557.910156 578.148438 560.230469 570.246094 561.203125 563.421875 C 569.234375 566.4375 578.4375 565.972656 586.628906 562.171875 C 597.539062 557.152344 605.480469 547.117188 607.816406 535.328125 C 609.574219 526.355469 607.710938 517.195312 602.660156 510.148438 C 619.421875 502.53125 637.507812 491.882812 652.65625 472.839844 L 668.179688 461.136719 C 682.566406 450.175781 690.339844 437.847656 689.679688 424.558594 C 689.035156 411.277344 681.417969 399.390625 670.910156 385.734375 L 637.125 341.691406 C 626.667969 328.027344 616.828125 315.15625 600.652344 312.273438 C 584.488281 309.402344 574.230469 316.234375 563.390625 324.40625 Z M 563.390625 324.40625 " fill-opacity="1" fill-rule="nonzero"/><path fill="#000000" d="M 355.238281 709.839844 C 345.378906 725.636719 331.855469 736.089844 315.789062 737.945312 C 300.210938 739.746094 282.144531 732.558594 263.929688 718.332031 C 280.414062 710.667969 295.609375 702.632812 312.191406 700.777344 C 328.785156 698.878906 340.632812 702.277344 355.238281 709.839844 Z M 216.261719 629.699219 C 233.445312 631.429688 245.988281 639.269531 260.34375 655.871094 C 245.335938 666.921875 228.941406 671.621094 213.328125 667.382812 C 198.171875 663.300781 184.058594 649.921875 172.433594 629.949219 C 186.046875 629.183594 199.0625 627.945312 216.261719 629.699219 Z M 121.144531 511.804688 C 138.292969 517.988281 154.6875 523.007812 165.277344 529.789062 C 176.707031 537.128906 185.171875 549.304688 191.863281 570.148438 C 173.746094 574.429688 156.765625 572.289062 144.089844 562.296875 C 131.789062 552.59375 124.015625 534.753906 121.144531 511.804688 Z M 115.988281 383.59375 C 129.59375 395.667969 142.976562 406.398438 150.28125 416.664062 C 158.175781 427.671875 161.523438 442.128906 159.988281 464.007812 C 141.554688 461.207031 126.640625 452.949219 118.546875 438.964844 C 110.742188 425.351562 110.136719 405.933594 115.988281 383.59375 Z M 163.429688 260.710938 C 170.542969 277.480469 178.070312 292.902344 180.300781 305.308594 C 182.710938 318.644531 179.550781 333.144531 168.875 352.234375 C 153.351562 341.867188 143.367188 328.027344 142.054688 311.910156 C 140.796875 296.300781 148.550781 278.460938 163.429688 260.710938 Z M 244.453125 167.578125 C 246.738281 185.605469 248.40625 202.480469 247.210938 215.011719 C 245.910156 228.53125 240.332031 241.625 224.800781 257.101562 C 212.722656 242.9375 206.867188 226.910156 209.992188 211.015625 C 213.007812 195.628906 225.328125 180.589844 244.453125 167.578125 Z M 246.683594 146.109375 C 217.046875 162.09375 199.207031 184.113281 194.546875 207.980469 C 190.328125 229.40625 197.019531 251.382812 212.773438 269.125 C 206.171875 278.460938 200.179688 288.078125 194.789062 298.023438 C 190.695312 280.503906 182.191406 264.003906 173.414062 242.507812 C 171.128906 236.980469 164.019531 235.5 159.753906 239.492188 C 135.167969 262.523438 124.402344 288.960938 126.355469 313.167969 C 128.34375 337.320312 143.359375 358.554688 167.339844 371.140625 C 164.726562 382.523438 162.878906 394 161.65625 405.613281 C 150.363281 390.65625 135.035156 379.230469 117.238281 362.828125 C 112.589844 358.511719 105.71875 360.589844 103.632812 365.898438 C 91.367188 397.238281 92.757812 425.773438 104.890625 446.8125 C 116.550781 467.078125 138.105469 479.5625 163.886719 481.464844 C 165.75 492.808594 168.3125 504.046875 171.550781 515.1875 C 155.519531 505.632812 137.257812 500.320312 114.640625 492.058594 C 107.566406 489.5 102.964844 494.101562 103.105469 500.007812 C 103.855469 533.640625 115.230469 559.613281 134.328125 574.652344 C 152.734375 589.199219 177.457031 592.773438 202.175781 584.882812 C 208.261719 594.871094 214.898438 604.421875 222.140625 613.59375 C 203.007812 610.472656 183.636719 614.101562 158.683594 614.378906 C 152.136719 614.421875 148.828125 620.976562 151.15625 626.167969 C 164.992188 656.878906 185.761719 676.195312 209.179688 682.574219 C 231.757812 688.703125 255.835938 682.332031 275.394531 665.519531 C 284.699219 672.441406 294.351562 678.808594 304.386719 684.605469 C 285.339844 688.789062 268.480469 699.054688 245.390625 708.949219 C 239.429688 711.507812 238.460938 718.296875 242.777344 722.710938 C 266.472656 746.621094 293.484375 756.390625 317.597656 753.597656 C 340.875 750.914062 360.949219 736.042969 372.882812 713.042969 C 381.253906 715.324219 389.699219 717.3125 398.308594 718.839844 C 409.605469 721.070312 412.621094 703.925781 401.183594 702.214844 C 308.402344 685.910156 230.75 622.644531 195.992188 535.066406 C 161.699219 448.710938 174.164062 348.636719 228.554688 275.894531 C 242.359375 257.464844 261.367188 244.410156 264.242188 216.527344 C 266.292969 197.011719 261.503906 177.835938 258.996094 152.699219 C 258.363281 146.304688 251.671875 143.425781 246.683594 146.109375 Z M 246.683594 146.109375 " fill-opacity="1" fill-rule="nonzero"/><path fill="#000000" d="M 545.234375 709.839844 C 555.082031 725.636719 568.597656 736.089844 584.628906 737.945312 C 600.242188 739.746094 618.273438 732.558594 636.488281 718.332031 C 619.984375 710.667969 604.847656 702.632812 588.261719 700.777344 C 571.667969 698.878906 559.820312 702.277344 545.234375 709.839844 Z M 684.210938 629.699219 C 666.957031 631.429688 654.414062 639.269531 640.058594 655.871094 C 655.117188 666.921875 671.523438 671.621094 687.136719 667.382812 C 702.222656 663.300781 716.351562 649.921875 728.011719 629.949219 C 714.410156 629.183594 701.390625 627.945312 684.210938 629.699219 Z M 779.273438 511.804688 C 762.164062 517.988281 745.765625 523.007812 735.125 529.789062 C 723.695312 537.128906 715.292969 549.304688 708.546875 570.148438 C 726.71875 574.429688 743.625 572.289062 756.355469 562.296875 C 768.683594 552.59375 776.4375 534.753906 779.273438 511.804688 Z M 784.441406 383.59375 C 770.871094 395.667969 757.488281 406.398438 750.148438 416.664062 C 742.234375 427.671875 738.941406 442.128906 740.476562 464.007812 C 758.878906 461.207031 773.839844 452.949219 781.878906 438.964844 C 789.730469 425.351562 790.292969 405.933594 784.441406 383.59375 Z M 737.042969 260.710938 C 729.929688 277.480469 722.402344 292.902344 720.125 305.308594 C 717.710938 318.644531 720.875 333.144531 731.609375 352.234375 C 747.078125 341.867188 757.070312 328.027344 758.40625 311.910156 C 759.65625 296.300781 751.90625 278.460938 737.042969 260.710938 Z M 656 167.578125 C 653.71875 185.605469 652.046875 202.480469 653.261719 215.011719 C 654.554688 228.53125 660.09375 241.625 675.601562 257.101562 C 687.6875 242.9375 693.550781 226.910156 690.429688 211.015625 C 687.449219 195.628906 675.101562 180.589844 656 167.578125 Z M 653.769531 146.109375 C 683.40625 162.09375 701.214844 184.113281 705.90625 207.980469 C 710.089844 229.40625 703.398438 251.382812 687.699219 269.125 C 694.28125 278.460938 700.277344 288.078125 705.628906 298.023438 C 709.726562 280.503906 718.261719 264.003906 727.039062 242.507812 C 729.269531 236.980469 736.433594 235.5 740.699219 239.492188 C 765.234375 262.523438 776.070312 288.960938 774.066406 313.167969 C 772.109375 337.320312 757.113281 358.554688 733.132812 371.140625 C 735.730469 382.523438 737.59375 394 738.800781 405.613281 C 750.09375 390.65625 765.375 379.230469 783.183594 362.828125 C 787.867188 358.511719 794.753906 360.589844 796.839844 365.898438 C 809.109375 397.238281 807.664062 425.773438 795.539062 446.8125 C 783.878906 467.078125 762.359375 479.5625 736.578125 481.464844 C 734.714844 492.808594 732.171875 504.046875 728.914062 515.1875 C 744.890625 505.632812 763.207031 500.320312 785.839844 492.058594 C 792.898438 489.5 797.5 494.101562 797.359375 500.007812 C 796.574219 533.640625 785.234375 559.613281 766.132812 574.652344 C 747.730469 589.199219 723.007812 592.773438 698.296875 584.882812 C 692.195312 594.871094 685.503906 604.421875 678.3125 613.59375 C 697.457031 610.472656 716.789062 614.101562 741.789062 614.378906 C 748.335938 614.421875 751.636719 620.976562 749.261719 626.167969 C 735.460938 656.878906 714.695312 676.195312 691.222656 682.574219 C 668.695312 688.703125 644.625 682.332031 625.007812 665.519531 C 615.773438 672.441406 606.105469 678.808594 596.015625 684.605469 C 615.113281 688.789062 631.941406 699.054688 655.082031 708.949219 C 661.023438 711.507812 661.996094 718.296875 657.625 722.710938 C 633.984375 746.621094 606.988281 756.390625 582.820312 753.597656 C 559.542969 750.914062 539.472656 736.042969 527.570312 713.042969 C 519.203125 715.324219 510.753906 717.3125 502.164062 718.839844 C 490.867188 721.070312 487.84375 703.925781 499.273438 702.214844 C 592.070312 685.910156 669.710938 622.644531 704.460938 535.066406 C 738.753906 448.710938 726.308594 348.636719 671.898438 275.894531 C 658.097656 257.464844 639.050781 244.410156 636.160156 216.527344 C 634.171875 197.011719 638.917969 177.835938 641.460938 152.699219 C 642.066406 146.304688 648.757812 143.425781 653.769531 146.109375 Z M 653.769531 146.109375 " fill-opacity="1" fill-rule="nonzero"/></svg>