<svg xmlns="http://www.w3.org/2000/svg" xmlns:xlink="http://www.w3.org/1999/xlink" width="1200" zoomAndPan="magnify" viewBox="0 0 900 899.99999" height="1200" preserveAspectRatio="xMidYMid meet" version="1.0"><defs><clipPath id="c57dc8a35b"><path d="M 218 90 L 336 90 L 336 207 L 218 207 Z M 218 90 " clip-rule="nonzero"/></clipPath></defs><path fill="#000000" d="M 681.6875 477.320312 C 685.386719 477.320312 689.175781 476.453125 692.804688 474.285156 C 696.253906 472.230469 697.394531 467.734375 695.316406 464.261719 C 693.238281 460.816406 688.765625 459.675781 685.296875 461.753906 C 679.222656 465.359375 669.976562 457.644531 669.863281 457.550781 C 666.828125 454.925781 662.214844 455.246094 659.566406 458.28125 C 656.941406 461.320312 657.238281 465.90625 660.253906 468.554688 C 664.703125 472.480469 672.945312 477.320312 681.6875 477.320312 " fill-opacity="1" fill-rule="nonzero"/><path fill="#000000" d="M 319.625 809.707031 L 525.3125 809.707031 C 535.035156 809.707031 543.300781 802.769531 544.96875 793.226562 C 552.226562 751.675781 561.246094 721.703125 568.480469 714.96875 C 580.671875 703.621094 609.320312 706.660156 632.355469 709.078125 C 640.117188 709.902344 647.445312 710.675781 653.996094 710.929688 C 710.476562 713.871094 713.785156 677.4375 717.027344 642.214844 C 718.261719 628.765625 719.539062 614.886719 723.417969 601.648438 C 728.601562 583.933594 738.210938 577.585938 747.527344 571.445312 C 756.957031 565.234375 767.640625 558.203125 766.703125 540.375 C 766.246094 531.746094 759.464844 524.234375 750.859375 514.691406 C 737.597656 500.011719 719.425781 479.925781 719.355469 448.125 C 719.332031 439.882812 720.179688 428.902344 721 418.242188 C 721.683594 409.65625 722.300781 401.53125 722.53125 394.566406 C 724.105469 343.5 704.082031 294.917969 666.121094 257.730469 C 617.609375 210.226562 546.0625 185.226562 469.746094 189.15625 C 443.039062 190.546875 417.765625 194.746094 394.617188 201.6875 C 390.738281 202.828125 388.546875 206.914062 389.710938 210.773438 C 390.875 214.632812 394.9375 216.824219 398.796875 215.679688 C 420.847656 209.082031 444.953125 205.066406 470.5 203.765625 C 542.707031 200.042969 610.304688 223.488281 655.890625 268.164062 C 691.414062 302.957031 709.402344 346.511719 707.917969 394.109375 C 707.714844 400.753906 707.097656 408.699219 706.433594 417.121094 C 705.589844 428.058594 704.722656 439.355469 704.746094 448.191406 C 704.835938 485.5625 726 508.984375 740.015625 524.484375 C 745.882812 530.96875 751.933594 537.679688 752.117188 541.128906 C 752.59375 550.238281 748.828125 553.113281 739.492188 559.253906 C 729.605469 565.761719 716.089844 574.6875 709.402344 597.539062 C 705.109375 612.148438 703.71875 627.398438 702.484375 640.867188 C 699.175781 676.820312 697.167969 698.53125 654.660156 696.339844 C 648.496094 696.089844 641.394531 695.335938 633.886719 694.535156 C 606.558594 691.660156 575.582031 688.394531 558.527344 704.285156 C 545.859375 716.042969 536.339844 757.773438 530.585938 790.714844 C 530.128906 793.25 527.914062 795.097656 525.3125 795.097656 L 319.625 795.097656 C 317.914062 795.097656 316.335938 794.320312 315.308594 792.953125 C 314.71875 792.175781 313.828125 790.507812 314.464844 788.292969 C 321.382812 764.460938 333.367188 718.871094 335.742188 681.296875 C 337.226562 658.125 330.46875 623.949219 314.71875 603.519531 C 258.96875 531.199219 238.332031 472.09375 245.726562 405.84375 C 246.183594 401.851562 243.285156 398.21875 239.289062 397.785156 C 235.226562 397.308594 231.664062 400.207031 231.210938 404.222656 C 223.355469 474.582031 244.882812 536.835938 303.144531 612.445312 C 316.542969 629.839844 322.433594 660.429688 321.175781 680.382812 C 318.871094 716.542969 307.183594 760.945312 300.425781 784.207031 C 298.667969 790.28125 299.832031 796.671875 303.621094 801.71875 C 307.433594 806.785156 313.253906 809.707031 319.625 809.707031 " fill-opacity="1" fill-rule="nonzero"/><path fill="#000000" d="M 710.269531 613.699219 C 713.535156 613.699219 715.453125 613.449219 715.679688 613.425781 C 719.675781 612.855469 722.460938 609.179688 721.914062 605.183594 C 721.363281 601.191406 717.710938 598.382812 713.71875 598.953125 C 713.582031 598.953125 699.152344 600.664062 680.089844 591.988281 C 676.414062 590.324219 672.101562 591.945312 670.410156 595.621094 C 668.746094 599.296875 670.367188 603.609375 674.042969 605.300781 C 689.882812 612.511719 703.214844 613.699219 710.269531 613.699219 " fill-opacity="1" fill-rule="nonzero"/><path fill="#000000" d="M 238.972656 349.984375 C 238.972656 359.84375 246.960938 367.859375 256.824219 367.859375 L 292.207031 367.859375 C 297.140625 367.859375 301.15625 371.851562 301.15625 376.785156 L 301.15625 412.167969 C 301.15625 422.03125 309.148438 430.042969 319.007812 430.042969 L 358.457031 430.042969 C 368.339844 430.042969 376.332031 422.03125 376.332031 412.167969 L 376.332031 376.785156 C 376.332031 371.851562 380.347656 367.859375 385.28125 367.859375 L 420.640625 367.859375 C 430.527344 367.859375 438.515625 359.84375 438.515625 349.984375 L 438.515625 310.535156 C 438.515625 300.671875 430.527344 292.660156 420.640625 292.660156 L 385.28125 292.660156 C 380.347656 292.660156 376.332031 288.664062 376.332031 283.734375 L 376.332031 248.304688 C 376.332031 238.441406 368.339844 230.429688 358.457031 230.429688 L 319.007812 230.429688 C 309.148438 230.429688 301.15625 238.441406 301.15625 248.304688 L 301.15625 283.734375 C 301.15625 288.664062 297.140625 292.660156 292.207031 292.660156 L 256.824219 292.660156 C 246.960938 292.660156 238.972656 300.671875 238.972656 310.535156 Z M 256.824219 278.050781 L 286.546875 278.050781 L 286.546875 248.304688 C 286.546875 230.382812 301.109375 215.816406 319.007812 215.816406 L 358.457031 215.816406 C 376.378906 215.816406 390.941406 230.382812 390.941406 248.304688 L 390.941406 278.050781 L 420.640625 278.050781 C 438.5625 278.050781 453.128906 292.636719 453.128906 310.535156 L 453.128906 349.984375 C 453.128906 367.902344 438.5625 382.46875 420.640625 382.46875 L 390.941406 382.46875 L 390.941406 412.167969 C 390.941406 430.089844 376.378906 444.652344 358.457031 444.652344 L 319.007812 444.652344 C 301.109375 444.652344 286.546875 430.089844 286.546875 412.167969 L 286.546875 382.46875 L 256.824219 382.46875 C 238.925781 382.46875 224.359375 367.902344 224.359375 349.984375 L 224.359375 310.535156 C 224.359375 292.636719 238.925781 278.050781 256.824219 278.050781 " fill-opacity="1" fill-rule="nonzero"/><g clip-path="url(#c57dc8a35b)"><path fill="#000000" d="M 320.699219 139.480469 C 320.699219 135.140625 317.183594 131.648438 312.867188 131.648438 L 297.367188 131.648438 C 295.199219 131.648438 293.464844 129.890625 293.464844 127.722656 L 293.464844 112.222656 C 293.464844 107.882812 289.949219 104.390625 285.632812 104.390625 L 268.351562 104.390625 C 264.015625 104.390625 260.519531 107.882812 260.519531 112.222656 L 260.519531 127.722656 C 260.519531 129.890625 258.761719 131.648438 256.59375 131.648438 L 241.117188 131.648438 C 236.78125 131.648438 233.285156 135.140625 233.285156 139.480469 L 233.285156 156.738281 C 233.285156 161.074219 236.78125 164.566406 241.117188 164.566406 L 256.59375 164.566406 C 258.761719 164.566406 260.519531 166.324219 260.519531 168.496094 L 260.519531 183.996094 C 260.519531 188.308594 264.015625 191.824219 268.351562 191.824219 L 285.632812 191.824219 C 289.949219 191.824219 293.464844 188.308594 293.464844 183.996094 L 293.464844 168.496094 C 293.464844 166.324219 295.199219 164.566406 297.367188 164.566406 L 312.867188 164.566406 C 317.183594 164.566406 320.699219 161.074219 320.699219 156.738281 Z M 312.867188 179.179688 L 308.074219 179.179688 L 308.074219 183.996094 C 308.074219 196.367188 298.007812 206.4375 285.632812 206.4375 L 268.351562 206.4375 C 255.980469 206.4375 245.910156 196.367188 245.910156 183.996094 L 245.910156 179.179688 L 241.117188 179.179688 C 228.742188 179.179688 218.675781 169.132812 218.675781 156.738281 L 218.675781 139.480469 C 218.675781 127.105469 228.742188 117.039062 241.117188 117.039062 L 245.910156 117.039062 L 245.910156 112.222656 C 245.910156 99.847656 255.980469 89.78125 268.351562 89.78125 L 285.632812 89.78125 C 298.007812 89.78125 308.074219 99.847656 308.074219 112.222656 L 308.074219 117.039062 L 312.867188 117.039062 C 325.242188 117.039062 335.308594 127.105469 335.308594 139.480469 L 335.308594 156.738281 C 335.308594 169.132812 325.242188 179.179688 312.867188 179.179688 " fill-opacity="1" fill-rule="nonzero"/></g><path fill="#000000" d="M 147.152344 242.480469 C 147.152344 245.585938 149.664062 248.097656 152.769531 248.097656 L 163.886719 248.097656 C 165.441406 248.097656 166.695312 249.355469 166.695312 250.90625 L 166.695312 262.046875 C 166.695312 265.152344 169.230469 267.664062 172.335938 267.664062 L 184.730469 267.664062 C 187.835938 267.664062 190.347656 265.152344 190.347656 262.046875 L 190.347656 250.90625 C 190.347656 249.355469 191.601562 248.097656 193.152344 248.097656 L 204.269531 248.097656 C 207.375 248.097656 209.910156 245.585938 209.910156 242.480469 L 209.910156 230.085938 C 209.910156 226.980469 207.375 224.46875 204.269531 224.46875 L 193.152344 224.46875 C 191.601562 224.46875 190.347656 223.214844 190.347656 221.664062 L 190.347656 210.523438 C 190.347656 207.417969 187.835938 204.90625 184.730469 204.90625 L 172.335938 204.90625 C 169.230469 204.90625 166.695312 207.417969 166.695312 210.523438 L 166.695312 221.664062 C 166.695312 223.214844 165.441406 224.46875 163.886719 224.46875 L 152.769531 224.46875 C 149.664062 224.46875 147.152344 226.980469 147.152344 230.085938 Z M 152.109375 209.859375 C 152.449219 199.015625 161.375 190.296875 172.335938 190.296875 L 184.730469 190.296875 C 195.664062 190.296875 204.613281 199.015625 204.957031 209.859375 C 215.800781 210.226562 224.519531 219.152344 224.519531 230.085938 L 224.519531 242.480469 C 224.519531 253.417969 215.800781 262.367188 204.957031 262.707031 C 204.589844 273.550781 195.664062 282.273438 184.730469 282.273438 L 172.335938 282.273438 C 161.398438 282.273438 152.449219 273.550781 152.109375 262.707031 C 141.265625 262.367188 132.542969 253.417969 132.542969 242.480469 L 132.542969 230.085938 C 132.542969 219.152344 141.265625 210.226562 152.109375 209.859375 " fill-opacity="1" fill-rule="nonzero"/></svg>