<svg xmlns="http://www.w3.org/2000/svg" xmlns:xlink="http://www.w3.org/1999/xlink" width="200" zoomAndPan="magnify" viewBox="0 0 150 1499.999933" height="2000" preserveAspectRatio="xMidYMid meet" version="1.0"><defs><clipPath id="05d60eed44"><path d="M 45.363281 311.84375 L 103.113281 311.84375 L 103.113281 370 L 45.363281 370 Z M 45.363281 311.84375 " clip-rule="nonzero"/></clipPath><clipPath id="b1d50d1b11"><path d="M 72 366 L 77 366 L 77 456.453125 L 72 456.453125 Z M 72 366 " clip-rule="nonzero"/></clipPath><clipPath id="35311bbddf"><path d="M 45.363281 0 L 103.113281 0 L 103.113281 22 L 45.363281 22 Z M 45.363281 0 " clip-rule="nonzero"/></clipPath><clipPath id="5cb91384e9"><path d="M 72 19 L 77 19 L 77 108.652344 L 72 108.652344 Z M 72 19 " clip-rule="nonzero"/></clipPath><clipPath id="d152c1feae"><path d="M 45.363281 746 L 103.113281 746 L 103.113281 804.253906 L 45.363281 804.253906 Z M 45.363281 746 " clip-rule="nonzero"/></clipPath><clipPath id="8c71c66f47"><path d="M 72 659.503906 L 77 659.503906 L 77 750 L 72 750 Z M 72 659.503906 " clip-rule="nonzero"/></clipPath><clipPath id="74abbc920e"><path d="M 45.363281 1442 L 103.113281 1442 L 103.113281 1499.851562 L 45.363281 1499.851562 Z M 45.363281 1442 " clip-rule="nonzero"/></clipPath><clipPath id="72f8b8c661"><path d="M 72 1355.101562 L 77 1355.101562 L 77 1445 L 72 1445 Z M 72 1355.101562 " clip-rule="nonzero"/></clipPath><clipPath id="6b96abff00"><path d="M 45.363281 1094 L 103.113281 1094 L 103.113281 1152.054688 L 45.363281 1152.054688 Z M 45.363281 1094 " clip-rule="nonzero"/></clipPath><clipPath id="e67c25f48b"><path d="M 72 1007.304688 L 77 1007.304688 L 77 1098 L 72 1098 Z M 72 1007.304688 " clip-rule="nonzero"/></clipPath></defs><rect x="-15" width="180" fill="#ffffff" y="-149.999993" height="1799.99992" fill-opacity="1"/><rect x="-15" width="180" fill="#ffffff" y="-149.999993" height="1799.99992" fill-opacity="1"/><rect x="-15" width="180" fill="#ffffff" y="-149.999993" height="1799.99992" fill-opacity="1"/><path fill="#5eb229" d="M 74.3125 327.042969 C 73.445312 327.042969 72.582031 327.125 71.726562 327.296875 C 70.871094 327.464844 70.042969 327.714844 69.238281 328.046875 C 68.433594 328.378906 67.667969 328.789062 66.945312 329.269531 C 66.222656 329.75 65.550781 330.300781 64.933594 330.914062 C 64.320312 331.527344 63.769531 332.191406 63.285156 332.914062 C 62.800781 333.636719 62.394531 334.398438 62.058594 335.199219 C 61.726562 336 61.476562 336.828125 61.304688 337.675781 C 61.136719 338.527344 61.050781 339.386719 61.050781 340.253906 C 61.050781 341.121094 61.136719 341.980469 61.304688 342.832031 C 61.476562 343.683594 61.726562 344.511719 62.058594 345.3125 C 62.394531 346.113281 62.800781 346.875 63.285156 347.597656 C 63.769531 348.316406 64.320312 348.984375 64.933594 349.597656 C 65.550781 350.210938 66.222656 350.757812 66.945312 351.242188 C 67.667969 351.722656 68.433594 352.128906 69.238281 352.460938 C 70.042969 352.792969 70.871094 353.046875 71.726562 353.214844 C 72.582031 353.382812 73.445312 353.46875 74.3125 353.46875 C 75.183594 353.46875 76.046875 353.382812 76.902344 353.214844 C 77.757812 353.046875 78.585938 352.792969 79.390625 352.460938 C 80.195312 352.128906 80.960938 351.722656 81.683594 351.242188 C 82.40625 350.757812 83.078125 350.210938 83.691406 349.597656 C 84.308594 348.984375 84.859375 348.316406 85.34375 347.597656 C 85.828125 346.875 86.234375 346.113281 86.566406 345.3125 C 86.902344 344.511719 87.152344 343.683594 87.324219 342.832031 C 87.492188 341.980469 87.578125 341.121094 87.578125 340.253906 C 87.578125 339.386719 87.492188 338.527344 87.324219 337.675781 C 87.152344 336.828125 86.902344 336 86.566406 335.199219 C 86.234375 334.398438 85.828125 333.636719 85.34375 332.914062 C 84.859375 332.191406 84.308594 331.527344 83.691406 330.914062 C 83.078125 330.300781 82.40625 329.75 81.683594 329.269531 C 80.960938 328.789062 80.195312 328.378906 79.390625 328.046875 C 78.585938 327.714844 77.757812 327.464844 76.902344 327.296875 C 76.046875 327.125 75.183594 327.042969 74.3125 327.042969 Z M 74.3125 327.042969 " fill-opacity="1" fill-rule="nonzero"/><g clip-path="url(#05d60eed44)"><path fill="#1d1d1b" d="M 45.550781 340.550781 C 45.554688 341.492188 45.601562 342.425781 45.695312 343.359375 C 45.789062 344.292969 45.929688 345.21875 46.113281 346.140625 C 46.300781 347.058594 46.53125 347.96875 46.804688 348.863281 C 47.082031 349.761719 47.398438 350.644531 47.761719 351.507812 C 48.121094 352.375 48.527344 353.222656 48.972656 354.046875 C 49.417969 354.875 49.902344 355.675781 50.425781 356.457031 C 50.949219 357.234375 51.511719 357.988281 52.109375 358.710938 C 52.710938 359.433594 53.34375 360.128906 54.007812 360.789062 C 54.675781 361.453125 55.375 362.082031 56.101562 362.675781 C 56.832031 363.269531 57.585938 363.824219 58.371094 364.34375 C 59.15625 364.863281 59.960938 365.34375 60.792969 365.785156 C 61.625 366.226562 62.476562 366.625 63.347656 366.984375 C 64.214844 367.34375 65.101562 367.65625 66.003906 367.925781 C 66.90625 368.199219 67.816406 368.425781 68.742188 368.605469 C 69.664062 368.789062 70.597656 368.925781 71.535156 369.015625 C 72.46875 369.105469 73.410156 369.152344 74.351562 369.148438 C 75.292969 369.148438 76.230469 369.101562 77.167969 369.007812 C 78.105469 368.914062 79.035156 368.777344 79.960938 368.59375 C 80.882812 368.410156 81.796875 368.179688 82.695312 367.90625 C 83.597656 367.632812 84.480469 367.316406 85.351562 366.957031 C 86.222656 366.597656 87.070312 366.195312 87.902344 365.75 C 88.730469 365.308594 89.535156 364.824219 90.320312 364.304688 C 91.101562 363.78125 91.855469 363.222656 92.582031 362.628906 C 93.3125 362.03125 94.007812 361.402344 94.671875 360.738281 C 95.335938 360.074219 95.96875 359.378906 96.566406 358.652344 C 97.160156 357.925781 97.722656 357.175781 98.242188 356.394531 C 98.765625 355.613281 99.25 354.808594 99.691406 353.980469 C 100.136719 353.15625 100.535156 352.308594 100.894531 351.441406 C 101.257812 350.574219 101.570312 349.691406 101.84375 348.792969 C 102.117188 347.894531 102.34375 346.984375 102.527344 346.066406 C 102.710938 345.144531 102.847656 344.21875 102.941406 343.285156 C 103.03125 342.351562 103.078125 341.417969 103.078125 340.476562 C 103.078125 339.539062 103.03125 338.605469 102.9375 337.671875 C 102.84375 336.738281 102.707031 335.8125 102.519531 334.890625 C 102.335938 333.972656 102.109375 333.0625 101.832031 332.164062 C 101.558594 331.265625 101.242188 330.386719 100.882812 329.519531 C 100.519531 328.652344 100.117188 327.804688 99.675781 326.976562 C 99.230469 326.152344 98.746094 325.347656 98.222656 324.566406 C 97.699219 323.789062 97.140625 323.035156 96.542969 322.3125 C 95.945312 321.585938 95.3125 320.890625 94.644531 320.230469 C 93.980469 319.566406 93.28125 318.9375 92.554688 318.34375 C 91.828125 317.746094 91.070312 317.191406 90.289062 316.667969 C 89.503906 316.148438 88.699219 315.667969 87.867188 315.222656 C 87.039062 314.78125 86.1875 314.382812 85.316406 314.023438 C 84.445312 313.664062 83.5625 313.347656 82.660156 313.078125 C 81.757812 312.804688 80.847656 312.578125 79.921875 312.394531 C 79 312.210938 78.070312 312.074219 77.132812 311.980469 C 76.195312 311.890625 75.257812 311.84375 74.3125 311.84375 C 73.371094 311.84375 72.429688 311.890625 71.492188 311.984375 C 70.554688 312.078125 69.625 312.21875 68.699219 312.402344 C 67.773438 312.585938 66.859375 312.816406 65.960938 313.089844 C 65.058594 313.363281 64.171875 313.679688 63.300781 314.039062 C 62.429688 314.398438 61.578125 314.800781 60.746094 315.246094 C 59.917969 315.691406 59.109375 316.171875 58.324219 316.695312 C 57.542969 317.21875 56.785156 317.777344 56.058594 318.375 C 55.332031 318.972656 54.632812 319.601562 53.96875 320.265625 C 53.300781 320.929688 52.667969 321.625 52.070312 322.351562 C 51.472656 323.082031 50.914062 323.835938 50.390625 324.617188 C 49.867188 325.398438 49.382812 326.203125 48.941406 327.03125 C 48.496094 327.859375 48.09375 328.707031 47.734375 329.574219 C 47.375 330.445312 47.058594 331.328125 46.785156 332.226562 C 46.511719 333.125 46.285156 334.035156 46.101562 334.957031 C 45.917969 335.878906 45.78125 336.804688 45.6875 337.742188 C 45.597656 338.675781 45.550781 339.613281 45.550781 340.550781 Z M 99.351562 340.550781 C 99.347656 341.367188 99.308594 342.183594 99.226562 342.996094 C 99.144531 343.808594 99.019531 344.613281 98.859375 345.414062 C 98.699219 346.214844 98.496094 347.007812 98.257812 347.785156 C 98.019531 348.566406 97.742188 349.335938 97.425781 350.089844 C 97.109375 350.84375 96.757812 351.578125 96.371094 352.296875 C 95.984375 353.015625 95.5625 353.714844 95.105469 354.394531 C 94.648438 355.070312 94.160156 355.726562 93.636719 356.355469 C 93.117188 356.984375 92.566406 357.589844 91.984375 358.164062 C 91.40625 358.742188 90.796875 359.289062 90.164062 359.804688 C 89.527344 360.320312 88.871094 360.808594 88.1875 361.257812 C 87.503906 361.710938 86.800781 362.128906 86.078125 362.511719 C 85.355469 362.898438 84.613281 363.246094 83.855469 363.554688 C 83.097656 363.867188 82.328125 364.140625 81.542969 364.375 C 80.757812 364.613281 79.964844 364.808594 79.160156 364.964844 C 78.355469 365.125 77.546875 365.242188 76.730469 365.320312 C 75.914062 365.402344 75.097656 365.4375 74.277344 365.4375 C 73.457031 365.4375 72.640625 365.394531 71.824219 365.316406 C 71.007812 365.234375 70.199219 365.113281 69.394531 364.953125 C 68.59375 364.792969 67.796875 364.59375 67.015625 364.355469 C 66.230469 364.117188 65.460938 363.839844 64.703125 363.527344 C 63.945312 363.214844 63.207031 362.863281 62.484375 362.476562 C 61.761719 362.09375 61.058594 361.671875 60.378906 361.21875 C 59.699219 360.761719 59.042969 360.277344 58.410156 359.757812 C 57.777344 359.238281 57.167969 358.691406 56.589844 358.113281 C 56.011719 357.535156 55.464844 356.929688 54.945312 356.296875 C 54.425781 355.667969 53.9375 355.011719 53.484375 354.332031 C 53.027344 353.652344 52.609375 352.953125 52.222656 352.234375 C 51.835938 351.511719 51.488281 350.773438 51.175781 350.019531 C 50.863281 349.265625 50.585938 348.496094 50.347656 347.714844 C 50.113281 346.933594 49.914062 346.144531 49.753906 345.34375 C 49.59375 344.542969 49.476562 343.734375 49.394531 342.921875 C 49.316406 342.109375 49.277344 341.292969 49.277344 340.476562 C 49.277344 339.660156 49.320312 338.847656 49.398438 338.035156 C 49.480469 337.222656 49.601562 336.414062 49.761719 335.613281 C 49.921875 334.8125 50.121094 334.023438 50.359375 333.242188 C 50.597656 332.460938 50.875 331.691406 51.1875 330.9375 C 51.503906 330.183594 51.851562 329.449219 52.238281 328.726562 C 52.625 328.007812 53.046875 327.308594 53.503906 326.628906 C 53.960938 325.953125 54.445312 325.296875 54.96875 324.664062 C 55.488281 324.035156 56.039062 323.429688 56.617188 322.855469 C 57.195312 322.277344 57.804688 321.730469 58.4375 321.210938 C 59.070312 320.695312 59.730469 320.207031 60.410156 319.753906 C 61.09375 319.300781 61.792969 318.882812 62.515625 318.496094 C 63.238281 318.113281 63.980469 317.765625 64.738281 317.453125 C 65.496094 317.140625 66.265625 316.863281 67.050781 316.628906 C 67.835938 316.390625 68.628906 316.191406 69.433594 316.035156 C 70.234375 315.875 71.046875 315.753906 71.863281 315.675781 C 72.675781 315.59375 73.496094 315.554688 74.3125 315.554688 C 75.136719 315.554688 75.953125 315.597656 76.769531 315.679688 C 77.585938 315.761719 78.398438 315.882812 79.203125 316.042969 C 80.007812 316.203125 80.804688 316.402344 81.589844 316.640625 C 82.375 316.878906 83.144531 317.15625 83.902344 317.46875 C 84.660156 317.78125 85.402344 318.132812 86.125 318.519531 C 86.847656 318.90625 87.550781 319.328125 88.234375 319.78125 C 88.914062 320.238281 89.574219 320.722656 90.207031 321.242188 C 90.839844 321.761719 91.445312 322.3125 92.027344 322.890625 C 92.605469 323.46875 93.15625 324.074219 93.675781 324.707031 C 94.195312 325.339844 94.683594 325.996094 95.140625 326.675781 C 95.59375 327.359375 96.015625 328.058594 96.402344 328.78125 C 96.789062 329.5 97.136719 330.242188 97.453125 330.996094 C 97.765625 331.753906 98.039062 332.519531 98.277344 333.304688 C 98.515625 334.085938 98.714844 334.878906 98.875 335.679688 C 99.03125 336.484375 99.152344 337.292969 99.230469 338.105469 C 99.3125 338.917969 99.351562 339.734375 99.351562 340.550781 Z M 99.351562 340.550781 " fill-opacity="1" fill-rule="nonzero"/></g><g clip-path="url(#b1d50d1b11)"><path fill="#1d1d1b" d="M 72.453125 368.722656 L 72.453125 454.738281 C 72.453125 454.984375 72.5 455.21875 72.59375 455.449219 C 72.6875 455.675781 72.824219 455.875 72.996094 456.050781 C 73.171875 456.222656 73.375 456.359375 73.601562 456.453125 C 73.828125 456.546875 74.066406 456.59375 74.3125 456.59375 C 74.5625 456.59375 74.800781 456.546875 75.027344 456.453125 C 75.253906 456.359375 75.457031 456.222656 75.632812 456.050781 C 75.804688 455.875 75.941406 455.675781 76.035156 455.449219 C 76.128906 455.21875 76.175781 454.984375 76.175781 454.738281 L 76.175781 368.722656 C 76.175781 368.476562 76.128906 368.238281 76.035156 368.011719 C 75.941406 367.785156 75.804688 367.585938 75.632812 367.410156 C 75.457031 367.238281 75.253906 367.101562 75.027344 367.007812 C 74.800781 366.914062 74.5625 366.867188 74.3125 366.867188 C 74.066406 366.867188 73.828125 366.914062 73.601562 367.007812 C 73.375 367.101562 73.171875 367.238281 72.996094 367.410156 C 72.824219 367.585938 72.6875 367.785156 72.59375 368.011719 C 72.5 368.238281 72.453125 368.476562 72.453125 368.722656 Z M 72.453125 368.722656 " fill-opacity="1" fill-rule="nonzero"/></g><path fill="#233dff" d="M 74.3125 -20.757812 C 73.445312 -20.757812 72.582031 -20.671875 71.726562 -20.503906 C 70.871094 -20.335938 70.042969 -20.082031 69.238281 -19.75 C 68.433594 -19.421875 67.667969 -19.011719 66.945312 -18.53125 C 66.222656 -18.050781 65.550781 -17.5 64.933594 -16.886719 C 64.320312 -16.273438 63.769531 -15.605469 63.285156 -14.886719 C 62.800781 -14.164062 62.394531 -13.402344 62.058594 -12.601562 C 61.726562 -11.800781 61.476562 -10.972656 61.304688 -10.121094 C 61.136719 -9.269531 61.050781 -8.414062 61.050781 -7.542969 C 61.050781 -6.675781 61.136719 -5.816406 61.304688 -4.96875 C 61.476562 -4.117188 61.726562 -3.289062 62.058594 -2.488281 C 62.394531 -1.6875 62.800781 -0.925781 63.285156 -0.203125 C 63.769531 0.515625 64.320312 1.183594 64.933594 1.796875 C 65.550781 2.410156 66.222656 2.960938 66.945312 3.441406 C 67.667969 3.921875 68.433594 4.332031 69.238281 4.664062 C 70.042969 4.996094 70.871094 5.246094 71.726562 5.414062 C 72.582031 5.582031 73.445312 5.667969 74.3125 5.667969 C 75.183594 5.667969 76.046875 5.582031 76.902344 5.414062 C 77.757812 5.246094 78.585938 4.996094 79.390625 4.664062 C 80.195312 4.332031 80.960938 3.921875 81.683594 3.441406 C 82.40625 2.960938 83.078125 2.410156 83.691406 1.796875 C 84.308594 1.183594 84.859375 0.515625 85.34375 -0.203125 C 85.828125 -0.925781 86.234375 -1.6875 86.566406 -2.488281 C 86.902344 -3.289062 87.152344 -4.117188 87.324219 -4.96875 C 87.492188 -5.816406 87.578125 -6.675781 87.578125 -7.542969 C 87.578125 -8.414062 87.492188 -9.269531 87.324219 -10.121094 C 87.152344 -10.972656 86.902344 -11.800781 86.566406 -12.601562 C 86.234375 -13.402344 85.828125 -14.164062 85.34375 -14.886719 C 84.859375 -15.605469 84.308594 -16.273438 83.691406 -16.886719 C 83.078125 -17.5 82.40625 -18.050781 81.683594 -18.53125 C 80.960938 -19.011719 80.195312 -19.421875 79.390625 -19.75 C 78.585938 -20.082031 77.757812 -20.335938 76.902344 -20.503906 C 76.046875 -20.671875 75.183594 -20.757812 74.3125 -20.757812 Z M 74.3125 -20.757812 " fill-opacity="1" fill-rule="nonzero"/><g clip-path="url(#35311bbddf)"><path fill="#1d1d1b" d="M 45.550781 -7.246094 C 45.554688 -6.308594 45.601562 -5.375 45.695312 -4.441406 C 45.789062 -3.507812 45.929688 -2.582031 46.113281 -1.660156 C 46.300781 -0.742188 46.53125 0.167969 46.804688 1.0625 C 47.082031 1.960938 47.398438 2.84375 47.761719 3.707031 C 48.121094 4.574219 48.527344 5.421875 48.972656 6.246094 C 49.417969 7.074219 49.902344 7.875 50.425781 8.65625 C 50.949219 9.433594 51.511719 10.1875 52.109375 10.910156 C 52.710938 11.636719 53.34375 12.328125 54.007812 12.988281 C 54.675781 13.652344 55.375 14.28125 56.101562 14.875 C 56.832031 15.46875 57.585938 16.023438 58.371094 16.546875 C 59.15625 17.066406 59.960938 17.546875 60.792969 17.988281 C 61.625 18.425781 62.476562 18.828125 63.347656 19.183594 C 64.214844 19.542969 65.101562 19.855469 66.003906 20.128906 C 66.90625 20.398438 67.816406 20.625 68.742188 20.808594 C 69.664062 20.988281 70.597656 21.125 71.535156 21.214844 C 72.46875 21.304688 73.410156 21.351562 74.351562 21.351562 C 75.292969 21.347656 76.230469 21.300781 77.167969 21.207031 C 78.105469 21.113281 79.035156 20.976562 79.960938 20.792969 C 80.882812 20.609375 81.796875 20.378906 82.695312 20.105469 C 83.597656 19.832031 84.480469 19.515625 85.351562 19.15625 C 86.222656 18.796875 87.070312 18.394531 87.902344 17.953125 C 88.730469 17.507812 89.535156 17.027344 90.320312 16.503906 C 91.101562 15.980469 91.855469 15.421875 92.582031 14.828125 C 93.3125 14.230469 94.007812 13.601562 94.671875 12.9375 C 95.335938 12.273438 95.96875 11.578125 96.566406 10.851562 C 97.160156 10.128906 97.722656 9.375 98.242188 8.59375 C 98.765625 7.8125 99.25 7.011719 99.691406 6.183594 C 100.136719 5.355469 100.535156 4.507812 100.894531 3.640625 C 101.257812 2.773438 101.570312 1.890625 101.84375 0.992188 C 102.117188 0.09375 102.34375 -0.8125 102.527344 -1.734375 C 102.710938 -2.652344 102.847656 -3.582031 102.941406 -4.515625 C 103.03125 -5.449219 103.078125 -6.382812 103.078125 -7.320312 C 103.078125 -8.261719 103.03125 -9.195312 102.9375 -10.128906 C 102.84375 -11.0625 102.707031 -11.988281 102.519531 -12.910156 C 102.335938 -13.828125 102.109375 -14.738281 101.832031 -15.636719 C 101.558594 -16.53125 101.242188 -17.414062 100.882812 -18.28125 C 100.519531 -19.148438 100.117188 -19.996094 99.675781 -20.820312 C 99.230469 -21.648438 98.746094 -22.453125 98.222656 -23.230469 C 97.699219 -24.011719 97.140625 -24.765625 96.542969 -25.488281 C 95.945312 -26.214844 95.3125 -26.90625 94.644531 -27.570312 C 93.980469 -28.234375 93.28125 -28.863281 92.554688 -29.457031 C 91.828125 -30.050781 91.070312 -30.609375 90.289062 -31.132812 C 89.503906 -31.652344 88.699219 -32.132812 87.867188 -32.574219 C 87.039062 -33.019531 86.1875 -33.417969 85.316406 -33.777344 C 84.445312 -34.136719 83.5625 -34.453125 82.660156 -34.722656 C 81.757812 -34.996094 80.847656 -35.222656 79.921875 -35.40625 C 79 -35.589844 78.070312 -35.726562 77.132812 -35.820312 C 76.195312 -35.910156 75.257812 -35.957031 74.3125 -35.957031 C 73.371094 -35.957031 72.429688 -35.90625 71.492188 -35.816406 C 70.554688 -35.722656 69.625 -35.582031 68.699219 -35.398438 C 67.773438 -35.214844 66.859375 -34.984375 65.960938 -34.710938 C 65.058594 -34.4375 64.171875 -34.121094 63.300781 -33.761719 C 62.429688 -33.398438 61.578125 -32.996094 60.746094 -32.554688 C 59.917969 -32.109375 59.109375 -31.628906 58.324219 -31.105469 C 57.542969 -30.582031 56.785156 -30.023438 56.058594 -29.425781 C 55.332031 -28.828125 54.632812 -28.199219 53.96875 -27.535156 C 53.300781 -26.867188 52.667969 -26.171875 52.070312 -25.445312 C 51.472656 -24.71875 50.914062 -23.964844 50.390625 -23.183594 C 49.867188 -22.402344 49.382812 -21.597656 48.941406 -20.769531 C 48.496094 -19.941406 48.09375 -19.09375 47.734375 -18.222656 C 47.375 -17.355469 47.058594 -16.472656 46.785156 -15.574219 C 46.511719 -14.675781 46.285156 -13.765625 46.101562 -12.84375 C 45.917969 -11.921875 45.78125 -10.992188 45.6875 -10.058594 C 45.597656 -9.125 45.550781 -8.1875 45.550781 -7.246094 Z M 99.351562 -7.246094 C 99.347656 -6.429688 99.308594 -5.617188 99.226562 -4.804688 C 99.144531 -3.992188 99.019531 -3.1875 98.859375 -2.386719 C 98.699219 -1.585938 98.496094 -0.792969 98.257812 -0.0117188 C 98.019531 0.765625 97.742188 1.535156 97.425781 2.289062 C 97.109375 3.042969 96.757812 3.777344 96.371094 4.496094 C 95.984375 5.21875 95.5625 5.914062 95.105469 6.59375 C 94.648438 7.273438 94.160156 7.925781 93.636719 8.554688 C 93.117188 9.1875 92.566406 9.789062 91.984375 10.367188 C 91.40625 10.941406 90.796875 11.488281 90.164062 12.003906 C 89.527344 12.523438 88.871094 13.007812 88.1875 13.460938 C 87.503906 13.910156 86.800781 14.328125 86.078125 14.714844 C 85.355469 15.097656 84.613281 15.445312 83.855469 15.753906 C 83.097656 16.066406 82.328125 16.339844 81.542969 16.574219 C 80.757812 16.8125 79.964844 17.007812 79.160156 17.167969 C 78.355469 17.324219 77.546875 17.441406 76.730469 17.523438 C 75.914062 17.601562 75.097656 17.640625 74.277344 17.636719 C 73.457031 17.636719 72.640625 17.597656 71.824219 17.515625 C 71.007812 17.433594 70.199219 17.3125 69.394531 17.152344 C 68.59375 16.992188 67.796875 16.792969 67.015625 16.554688 C 66.230469 16.316406 65.460938 16.039062 64.703125 15.726562 C 63.945312 15.414062 63.207031 15.0625 62.484375 14.679688 C 61.761719 14.292969 61.058594 13.871094 60.378906 13.417969 C 59.699219 12.964844 59.042969 12.476562 58.410156 11.957031 C 57.777344 11.441406 57.167969 10.890625 56.589844 10.3125 C 56.011719 9.734375 55.464844 9.128906 54.945312 8.5 C 54.425781 7.867188 53.9375 7.210938 53.484375 6.53125 C 53.027344 5.851562 52.609375 5.152344 52.222656 4.433594 C 51.835938 3.710938 51.488281 2.972656 51.175781 2.21875 C 50.863281 1.464844 50.585938 0.695312 50.347656 -0.0859375 C 50.113281 -0.867188 49.914062 -1.65625 49.753906 -2.457031 C 49.59375 -3.257812 49.476562 -4.066406 49.394531 -4.878906 C 49.316406 -5.691406 49.277344 -6.503906 49.277344 -7.320312 C 49.277344 -8.136719 49.320312 -8.953125 49.398438 -9.765625 C 49.480469 -10.578125 49.601562 -11.382812 49.761719 -12.183594 C 49.921875 -12.984375 50.121094 -13.777344 50.359375 -14.558594 C 50.597656 -15.339844 50.875 -16.105469 51.1875 -16.859375 C 51.503906 -17.613281 51.851562 -18.351562 52.238281 -19.070312 C 52.625 -19.792969 53.046875 -20.492188 53.503906 -21.167969 C 53.960938 -21.847656 54.445312 -22.503906 54.96875 -23.132812 C 55.488281 -23.765625 56.039062 -24.367188 56.617188 -24.945312 C 57.195312 -25.523438 57.804688 -26.070312 58.4375 -26.589844 C 59.070312 -27.105469 59.730469 -27.59375 60.410156 -28.046875 C 61.09375 -28.5 61.792969 -28.917969 62.515625 -29.300781 C 63.238281 -29.6875 63.980469 -30.035156 64.738281 -30.347656 C 65.496094 -30.660156 66.265625 -30.933594 67.050781 -31.171875 C 67.835938 -31.410156 68.628906 -31.605469 69.433594 -31.765625 C 70.234375 -31.925781 71.046875 -32.046875 71.863281 -32.125 C 72.675781 -32.203125 73.496094 -32.246094 74.3125 -32.246094 C 75.136719 -32.242188 75.953125 -32.203125 76.769531 -32.121094 C 77.585938 -32.039062 78.398438 -31.917969 79.203125 -31.757812 C 80.007812 -31.597656 80.804688 -31.398438 81.589844 -31.160156 C 82.375 -30.921875 83.144531 -30.644531 83.902344 -30.332031 C 84.660156 -30.015625 85.402344 -29.667969 86.125 -29.28125 C 86.847656 -28.894531 87.550781 -28.472656 88.234375 -28.019531 C 88.914062 -27.5625 89.574219 -27.074219 90.207031 -26.558594 C 90.839844 -26.039062 91.445312 -25.488281 92.027344 -24.910156 C 92.605469 -24.332031 93.15625 -23.726562 93.675781 -23.09375 C 94.195312 -22.460938 94.683594 -21.804688 95.140625 -21.121094 C 95.59375 -20.441406 96.015625 -19.742188 96.402344 -19.019531 C 96.789062 -18.296875 97.136719 -17.558594 97.453125 -16.804688 C 97.765625 -16.046875 98.039062 -15.277344 98.277344 -14.496094 C 98.515625 -13.714844 98.714844 -12.921875 98.875 -12.117188 C 99.03125 -11.316406 99.152344 -10.507812 99.230469 -9.695312 C 99.3125 -8.882812 99.351562 -8.066406 99.351562 -7.246094 Z M 99.351562 -7.246094 " fill-opacity="1" fill-rule="nonzero"/></g><g clip-path="url(#5cb91384e9)"><path fill="#1d1d1b" d="M 72.453125 20.921875 L 72.453125 106.9375 C 72.453125 107.183594 72.5 107.421875 72.59375 107.648438 C 72.6875 107.875 72.824219 108.074219 72.996094 108.25 C 73.171875 108.425781 73.375 108.558594 73.601562 108.652344 C 73.828125 108.746094 74.066406 108.792969 74.3125 108.792969 C 74.5625 108.792969 74.800781 108.746094 75.027344 108.652344 C 75.253906 108.558594 75.457031 108.425781 75.632812 108.25 C 75.804688 108.074219 75.941406 107.875 76.035156 107.648438 C 76.128906 107.421875 76.175781 107.183594 76.175781 106.9375 L 76.175781 20.921875 C 76.175781 20.675781 76.128906 20.441406 76.035156 20.210938 C 75.941406 19.984375 75.804688 19.785156 75.632812 19.609375 C 75.457031 19.4375 75.253906 19.300781 75.027344 19.207031 C 74.800781 19.113281 74.5625 19.066406 74.3125 19.066406 C 74.066406 19.066406 73.828125 19.113281 73.601562 19.207031 C 73.375 19.300781 73.171875 19.4375 72.996094 19.609375 C 72.824219 19.785156 72.6875 19.984375 72.59375 20.210938 C 72.5 20.441406 72.453125 20.675781 72.453125 20.921875 Z M 72.453125 20.921875 " fill-opacity="1" fill-rule="nonzero"/></g><path fill="#233dff" d="M 74.3125 789.054688 C 73.445312 789.054688 72.582031 788.96875 71.726562 788.800781 C 70.871094 788.632812 70.042969 788.378906 69.238281 788.046875 C 68.433594 787.714844 67.667969 787.308594 66.945312 786.828125 C 66.222656 786.34375 65.550781 785.796875 64.933594 785.183594 C 64.320312 784.570312 63.769531 783.902344 63.285156 783.183594 C 62.800781 782.460938 62.394531 781.699219 62.058594 780.898438 C 61.726562 780.097656 61.476562 779.269531 61.304688 778.417969 C 61.136719 777.566406 61.050781 776.707031 61.050781 775.839844 C 61.050781 774.972656 61.136719 774.113281 61.304688 773.261719 C 61.476562 772.414062 61.726562 771.585938 62.058594 770.785156 C 62.394531 769.984375 62.800781 769.222656 63.285156 768.5 C 63.769531 767.777344 64.320312 767.113281 64.933594 766.5 C 65.550781 765.882812 66.222656 765.335938 66.945312 764.855469 C 67.667969 764.371094 68.433594 763.964844 69.238281 763.632812 C 70.042969 763.300781 70.871094 763.050781 71.726562 762.882812 C 72.582031 762.710938 73.445312 762.628906 74.3125 762.628906 C 75.183594 762.628906 76.046875 762.710938 76.902344 762.882812 C 77.757812 763.050781 78.585938 763.300781 79.390625 763.632812 C 80.195312 763.964844 80.960938 764.371094 81.683594 764.855469 C 82.40625 765.335938 83.078125 765.882812 83.691406 766.5 C 84.308594 767.113281 84.859375 767.777344 85.34375 768.5 C 85.828125 769.222656 86.234375 769.984375 86.566406 770.785156 C 86.902344 771.585938 87.152344 772.414062 87.324219 773.261719 C 87.492188 774.113281 87.578125 774.972656 87.578125 775.839844 C 87.578125 776.707031 87.492188 777.566406 87.324219 778.417969 C 87.152344 779.269531 86.902344 780.097656 86.566406 780.898438 C 86.234375 781.699219 85.828125 782.460938 85.34375 783.183594 C 84.859375 783.902344 84.308594 784.570312 83.691406 785.183594 C 83.078125 785.796875 82.40625 786.34375 81.683594 786.828125 C 80.960938 787.308594 80.195312 787.714844 79.390625 788.046875 C 78.585938 788.378906 77.757812 788.632812 76.902344 788.800781 C 76.046875 788.96875 75.183594 789.054688 74.3125 789.054688 Z M 74.3125 789.054688 " fill-opacity="1" fill-rule="nonzero"/><g clip-path="url(#d152c1feae)"><path fill="#1d1d1b" d="M 45.550781 775.542969 C 45.554688 774.605469 45.601562 773.671875 45.695312 772.738281 C 45.789062 771.804688 45.929688 770.878906 46.113281 769.957031 C 46.300781 769.039062 46.53125 768.128906 46.804688 767.234375 C 47.082031 766.335938 47.398438 765.453125 47.761719 764.585938 C 48.121094 763.722656 48.527344 762.875 48.972656 762.050781 C 49.417969 761.222656 49.902344 760.417969 50.425781 759.640625 C 50.949219 758.863281 51.511719 758.109375 52.109375 757.386719 C 52.710938 756.660156 53.34375 755.96875 54.007812 755.304688 C 54.675781 754.644531 55.375 754.015625 56.101562 753.421875 C 56.832031 752.828125 57.585938 752.269531 58.371094 751.75 C 59.15625 751.230469 59.960938 750.75 60.792969 750.308594 C 61.625 749.867188 62.476562 749.46875 63.347656 749.113281 C 64.214844 748.753906 65.101562 748.441406 66.003906 748.167969 C 66.90625 747.898438 67.816406 747.671875 68.742188 747.488281 C 69.664062 747.308594 70.597656 747.171875 71.535156 747.082031 C 72.46875 746.992188 73.410156 746.945312 74.351562 746.945312 C 75.292969 746.949219 76.230469 746.996094 77.167969 747.089844 C 78.105469 747.179688 79.035156 747.320312 79.960938 747.503906 C 80.882812 747.6875 81.796875 747.917969 82.695312 748.191406 C 83.597656 748.464844 84.480469 748.78125 85.351562 749.140625 C 86.222656 749.5 87.070312 749.902344 87.902344 750.34375 C 88.730469 750.789062 89.535156 751.269531 90.320312 751.792969 C 91.101562 752.316406 91.855469 752.875 92.582031 753.46875 C 93.3125 754.066406 94.007812 754.695312 94.671875 755.359375 C 95.335938 756.023438 95.96875 756.71875 96.566406 757.441406 C 97.160156 758.167969 97.722656 758.921875 98.242188 759.703125 C 98.765625 760.484375 99.25 761.285156 99.691406 762.113281 C 100.136719 762.941406 100.535156 763.789062 100.894531 764.65625 C 101.257812 765.523438 101.570312 766.40625 101.84375 767.304688 C 102.117188 768.203125 102.34375 769.109375 102.527344 770.03125 C 102.710938 770.949219 102.847656 771.878906 102.941406 772.8125 C 103.03125 773.746094 103.078125 774.679688 103.078125 775.617188 C 103.078125 776.554688 103.03125 777.492188 102.9375 778.425781 C 102.84375 779.359375 102.707031 780.285156 102.519531 781.207031 C 102.335938 782.125 102.109375 783.035156 101.832031 783.933594 C 101.558594 784.828125 101.242188 785.710938 100.882812 786.578125 C 100.519531 787.445312 100.117188 788.292969 99.675781 789.117188 C 99.230469 789.945312 98.746094 790.75 98.222656 791.527344 C 97.699219 792.308594 97.140625 793.058594 96.542969 793.785156 C 95.945312 794.511719 95.3125 795.203125 94.644531 795.867188 C 93.980469 796.53125 93.28125 797.160156 92.554688 797.753906 C 91.828125 798.347656 91.070312 798.90625 90.289062 799.429688 C 89.503906 799.949219 88.699219 800.429688 87.867188 800.871094 C 87.039062 801.3125 86.1875 801.714844 85.316406 802.074219 C 84.445312 802.433594 83.5625 802.746094 82.660156 803.019531 C 81.757812 803.292969 80.847656 803.519531 79.921875 803.703125 C 79 803.886719 78.070312 804.023438 77.132812 804.113281 C 76.195312 804.207031 75.257812 804.253906 74.3125 804.253906 C 73.371094 804.25 72.429688 804.203125 71.492188 804.109375 C 70.554688 804.019531 69.625 803.878906 68.699219 803.695312 C 67.773438 803.511719 66.859375 803.28125 65.960938 803.007812 C 65.058594 802.734375 64.171875 802.417969 63.300781 802.058594 C 62.429688 801.695312 61.578125 801.292969 60.746094 800.851562 C 59.917969 800.40625 59.109375 799.921875 58.324219 799.402344 C 57.542969 798.878906 56.785156 798.320312 56.058594 797.722656 C 55.332031 797.125 54.632812 796.496094 53.96875 795.832031 C 53.300781 795.164062 52.667969 794.46875 52.070312 793.742188 C 51.472656 793.015625 50.914062 792.261719 50.390625 791.480469 C 49.867188 790.699219 49.382812 789.894531 48.941406 789.066406 C 48.496094 788.238281 48.09375 787.386719 47.734375 786.519531 C 47.375 785.652344 47.058594 784.769531 46.785156 783.871094 C 46.511719 782.972656 46.285156 782.0625 46.101562 781.140625 C 45.917969 780.21875 45.78125 779.289062 45.6875 778.355469 C 45.597656 777.421875 45.550781 776.484375 45.550781 775.542969 Z M 99.351562 775.542969 C 99.347656 774.726562 99.308594 773.914062 99.226562 773.101562 C 99.144531 772.289062 99.019531 771.480469 98.859375 770.683594 C 98.699219 769.882812 98.496094 769.089844 98.257812 768.308594 C 98.019531 767.527344 97.742188 766.761719 97.425781 766.007812 C 97.109375 765.253906 96.757812 764.519531 96.371094 763.796875 C 95.984375 763.078125 95.5625 762.378906 95.105469 761.703125 C 94.648438 761.023438 94.160156 760.371094 93.636719 759.742188 C 93.117188 759.109375 92.566406 758.507812 91.984375 757.929688 C 91.40625 757.355469 90.796875 756.808594 90.164062 756.292969 C 89.527344 755.773438 88.871094 755.289062 88.1875 754.835938 C 87.503906 754.386719 86.800781 753.96875 86.078125 753.582031 C 85.355469 753.199219 84.613281 752.851562 83.855469 752.539062 C 83.097656 752.230469 82.328125 751.957031 81.542969 751.71875 C 80.757812 751.484375 79.964844 751.289062 79.160156 751.128906 C 78.355469 750.972656 77.546875 750.855469 76.730469 750.773438 C 75.914062 750.695312 75.097656 750.65625 74.277344 750.660156 C 73.457031 750.660156 72.640625 750.699219 71.824219 750.78125 C 71.007812 750.863281 70.199219 750.984375 69.394531 751.144531 C 68.59375 751.304688 67.796875 751.503906 67.015625 751.742188 C 66.230469 751.980469 65.460938 752.257812 64.703125 752.570312 C 63.945312 752.882812 63.207031 753.230469 62.484375 753.617188 C 61.761719 754.003906 61.058594 754.425781 60.378906 754.878906 C 59.699219 755.332031 59.042969 755.820312 58.410156 756.339844 C 57.777344 756.855469 57.167969 757.40625 56.589844 757.984375 C 56.011719 758.5625 55.464844 759.167969 54.945312 759.796875 C 54.425781 760.429688 53.9375 761.085938 53.484375 761.765625 C 53.027344 762.445312 52.609375 763.144531 52.222656 763.863281 C 51.835938 764.585938 51.488281 765.320312 51.175781 766.078125 C 50.863281 766.832031 50.585938 767.597656 50.347656 768.378906 C 50.113281 769.164062 49.914062 769.953125 49.753906 770.753906 C 49.59375 771.554688 49.476562 772.363281 49.394531 773.175781 C 49.316406 773.988281 49.277344 774.800781 49.277344 775.617188 C 49.277344 776.433594 49.320312 777.25 49.398438 778.0625 C 49.480469 778.875 49.601562 779.679688 49.761719 780.480469 C 49.921875 781.28125 50.121094 782.074219 50.359375 782.855469 C 50.597656 783.636719 50.875 784.402344 51.1875 785.15625 C 51.503906 785.910156 51.851562 786.648438 52.238281 787.367188 C 52.625 788.089844 53.046875 788.789062 53.503906 789.464844 C 53.960938 790.144531 54.445312 790.800781 54.96875 791.429688 C 55.488281 792.0625 56.039062 792.664062 56.617188 793.242188 C 57.195312 793.820312 57.804688 794.367188 58.4375 794.886719 C 59.070312 795.402344 59.730469 795.886719 60.410156 796.34375 C 61.09375 796.796875 61.792969 797.214844 62.515625 797.597656 C 63.238281 797.984375 63.980469 798.332031 64.738281 798.644531 C 65.496094 798.957031 66.265625 799.230469 67.050781 799.46875 C 67.835938 799.707031 68.628906 799.902344 69.433594 800.0625 C 70.234375 800.222656 71.046875 800.339844 71.863281 800.421875 C 72.675781 800.5 73.496094 800.542969 74.3125 800.542969 C 75.136719 800.539062 75.953125 800.5 76.769531 800.417969 C 77.585938 800.335938 78.398438 800.214844 79.203125 800.054688 C 80.007812 799.894531 80.804688 799.695312 81.589844 799.457031 C 82.375 799.21875 83.144531 798.941406 83.902344 798.628906 C 84.660156 798.3125 85.402344 797.964844 86.125 797.578125 C 86.847656 797.191406 87.550781 796.769531 88.234375 796.316406 C 88.914062 795.859375 89.574219 795.371094 90.207031 794.851562 C 90.839844 794.332031 91.445312 793.785156 92.027344 793.207031 C 92.605469 792.625 93.15625 792.019531 93.675781 791.386719 C 94.195312 790.753906 94.683594 790.097656 95.140625 789.417969 C 95.59375 788.738281 96.015625 788.039062 96.402344 787.316406 C 96.789062 786.59375 97.136719 785.855469 97.453125 785.101562 C 97.765625 784.34375 98.039062 783.574219 98.277344 782.792969 C 98.515625 782.011719 98.714844 781.21875 98.875 780.414062 C 99.03125 779.613281 99.152344 778.804688 99.230469 777.992188 C 99.3125 777.175781 99.351562 776.363281 99.351562 775.542969 Z M 99.351562 775.542969 " fill-opacity="1" fill-rule="nonzero"/></g><g clip-path="url(#8c71c66f47)"><path fill="#1d1d1b" d="M 72.453125 747.375 L 72.453125 661.359375 C 72.453125 661.113281 72.5 660.875 72.59375 660.648438 C 72.6875 660.421875 72.824219 660.21875 72.996094 660.046875 C 73.171875 659.871094 73.375 659.738281 73.601562 659.644531 C 73.828125 659.550781 74.066406 659.503906 74.3125 659.503906 C 74.5625 659.503906 74.800781 659.550781 75.027344 659.644531 C 75.253906 659.738281 75.457031 659.871094 75.632812 660.046875 C 75.804688 660.21875 75.941406 660.421875 76.035156 660.648438 C 76.128906 660.875 76.175781 661.113281 76.175781 661.359375 L 76.175781 747.375 C 76.175781 747.621094 76.128906 747.855469 76.035156 748.082031 C 75.941406 748.3125 75.804688 748.511719 75.632812 748.6875 C 75.457031 748.859375 75.253906 748.992188 75.027344 749.089844 C 74.800781 749.183594 74.5625 749.230469 74.3125 749.230469 C 74.066406 749.230469 73.828125 749.183594 73.601562 749.089844 C 73.375 748.992188 73.171875 748.859375 72.996094 748.6875 C 72.824219 748.511719 72.6875 748.3125 72.59375 748.082031 C 72.5 747.855469 72.453125 747.621094 72.453125 747.375 Z M 72.453125 747.375 " fill-opacity="1" fill-rule="nonzero"/></g><path fill="#233dff" d="M 74.3125 1484.65625 C 73.445312 1484.65625 72.582031 1484.570312 71.726562 1484.402344 C 70.871094 1484.230469 70.042969 1483.980469 69.238281 1483.648438 C 68.433594 1483.316406 67.667969 1482.910156 66.945312 1482.425781 C 66.222656 1481.945312 65.550781 1481.398438 64.933594 1480.785156 C 64.320312 1480.171875 63.769531 1479.503906 63.285156 1478.78125 C 62.800781 1478.0625 62.394531 1477.300781 62.058594 1476.496094 C 61.726562 1475.695312 61.476562 1474.871094 61.304688 1474.019531 C 61.136719 1473.167969 61.050781 1472.308594 61.050781 1471.441406 C 61.050781 1470.574219 61.136719 1469.714844 61.304688 1468.863281 C 61.476562 1468.011719 61.726562 1467.1875 62.058594 1466.386719 C 62.394531 1465.582031 62.800781 1464.820312 63.285156 1464.101562 C 63.769531 1463.378906 64.320312 1462.710938 64.933594 1462.097656 C 65.550781 1461.484375 66.222656 1460.9375 66.945312 1460.453125 C 67.667969 1459.972656 68.433594 1459.566406 69.238281 1459.234375 C 70.042969 1458.902344 70.871094 1458.652344 71.726562 1458.480469 C 72.582031 1458.3125 73.445312 1458.226562 74.3125 1458.226562 C 75.183594 1458.226562 76.046875 1458.3125 76.902344 1458.480469 C 77.757812 1458.652344 78.585938 1458.902344 79.390625 1459.234375 C 80.195312 1459.566406 80.960938 1459.972656 81.683594 1460.453125 C 82.40625 1460.9375 83.078125 1461.484375 83.691406 1462.097656 C 84.308594 1462.710938 84.859375 1463.378906 85.34375 1464.101562 C 85.828125 1464.820312 86.234375 1465.582031 86.566406 1466.386719 C 86.902344 1467.1875 87.152344 1468.011719 87.324219 1468.863281 C 87.492188 1469.714844 87.578125 1470.574219 87.578125 1471.441406 C 87.578125 1472.308594 87.492188 1473.167969 87.324219 1474.019531 C 87.152344 1474.871094 86.902344 1475.695312 86.566406 1476.496094 C 86.234375 1477.300781 85.828125 1478.0625 85.34375 1478.78125 C 84.859375 1479.503906 84.308594 1480.171875 83.691406 1480.785156 C 83.078125 1481.398438 82.40625 1481.945312 81.683594 1482.425781 C 80.960938 1482.910156 80.195312 1483.316406 79.390625 1483.648438 C 78.585938 1483.980469 77.757812 1484.230469 76.902344 1484.402344 C 76.046875 1484.570312 75.183594 1484.65625 74.3125 1484.65625 Z M 74.3125 1484.65625 " fill-opacity="1" fill-rule="nonzero"/><g clip-path="url(#74abbc920e)"><path fill="#1d1d1b" d="M 45.550781 1471.144531 C 45.554688 1470.207031 45.601562 1469.269531 45.695312 1468.335938 C 45.789062 1467.402344 45.929688 1466.476562 46.113281 1465.558594 C 46.300781 1464.636719 46.53125 1463.730469 46.804688 1462.832031 C 47.082031 1461.933594 47.398438 1461.054688 47.761719 1460.1875 C 48.121094 1459.320312 48.527344 1458.476562 48.972656 1457.648438 C 49.417969 1456.824219 49.902344 1456.019531 50.425781 1455.242188 C 50.949219 1454.460938 51.511719 1453.710938 52.109375 1452.984375 C 52.710938 1452.261719 53.34375 1451.570312 54.007812 1450.90625 C 54.675781 1450.246094 55.375 1449.617188 56.101562 1449.023438 C 56.832031 1448.429688 57.585938 1447.871094 58.371094 1447.351562 C 59.15625 1446.832031 59.960938 1446.351562 60.792969 1445.910156 C 61.625 1445.46875 62.476562 1445.070312 63.347656 1444.710938 C 64.214844 1444.355469 65.101562 1444.039062 66.003906 1443.769531 C 66.90625 1443.496094 67.816406 1443.273438 68.742188 1443.089844 C 69.664062 1442.90625 70.597656 1442.773438 71.535156 1442.679688 C 72.46875 1442.589844 73.410156 1442.546875 74.351562 1442.546875 C 75.292969 1442.546875 76.230469 1442.59375 77.167969 1442.6875 C 78.105469 1442.78125 79.035156 1442.921875 79.960938 1443.105469 C 80.882812 1443.289062 81.796875 1443.515625 82.695312 1443.789062 C 83.597656 1444.0625 84.480469 1444.378906 85.351562 1444.742188 C 86.222656 1445.101562 87.070312 1445.5 87.902344 1445.945312 C 88.730469 1446.386719 89.535156 1446.871094 90.320312 1447.394531 C 91.101562 1447.914062 91.855469 1448.472656 92.582031 1449.070312 C 93.3125 1449.664062 94.007812 1450.296875 94.671875 1450.957031 C 95.335938 1451.621094 95.96875 1452.316406 96.566406 1453.042969 C 97.160156 1453.769531 97.722656 1454.523438 98.242188 1455.300781 C 98.765625 1456.082031 99.25 1456.886719 99.691406 1457.714844 C 100.136719 1458.542969 100.535156 1459.390625 100.894531 1460.257812 C 101.257812 1461.125 101.570312 1462.003906 101.84375 1462.902344 C 102.117188 1463.800781 102.34375 1464.710938 102.527344 1465.628906 C 102.710938 1466.550781 102.847656 1467.476562 102.941406 1468.410156 C 103.03125 1469.34375 103.078125 1470.28125 103.078125 1471.21875 C 103.078125 1472.15625 103.03125 1473.09375 102.9375 1474.027344 C 102.84375 1474.960938 102.707031 1475.886719 102.519531 1476.804688 C 102.335938 1477.726562 102.109375 1478.632812 101.832031 1479.53125 C 101.558594 1480.429688 101.242188 1481.3125 100.882812 1482.179688 C 100.519531 1483.042969 100.117188 1483.890625 99.675781 1484.71875 C 99.230469 1485.546875 98.746094 1486.347656 98.222656 1487.128906 C 97.699219 1487.90625 97.140625 1488.660156 96.542969 1489.386719 C 95.945312 1490.109375 95.3125 1490.804688 94.644531 1491.46875 C 93.980469 1492.128906 93.28125 1492.757812 92.554688 1493.355469 C 91.828125 1493.949219 91.070312 1494.507812 90.289062 1495.027344 C 89.503906 1495.550781 88.699219 1496.03125 87.867188 1496.472656 C 87.039062 1496.914062 86.1875 1497.316406 85.316406 1497.671875 C 84.445312 1498.03125 83.5625 1498.347656 82.660156 1498.621094 C 81.757812 1498.890625 80.847656 1499.121094 79.921875 1499.304688 C 79 1499.484375 78.070312 1499.625 77.132812 1499.714844 C 76.195312 1499.808594 75.257812 1499.851562 74.3125 1499.851562 C 73.371094 1499.851562 72.429688 1499.804688 71.492188 1499.710938 C 70.554688 1499.617188 69.625 1499.480469 68.699219 1499.296875 C 67.773438 1499.109375 66.859375 1498.882812 65.960938 1498.609375 C 65.058594 1498.335938 64.171875 1498.015625 63.300781 1497.65625 C 62.429688 1497.296875 61.578125 1496.894531 60.746094 1496.449219 C 59.917969 1496.007812 59.109375 1495.523438 58.324219 1495 C 57.542969 1494.480469 56.785156 1493.917969 56.058594 1493.324219 C 55.332031 1492.726562 54.632812 1492.09375 53.96875 1491.429688 C 53.300781 1490.765625 52.667969 1490.070312 52.070312 1489.34375 C 51.472656 1488.617188 50.914062 1487.863281 50.390625 1487.082031 C 49.867188 1486.300781 49.382812 1485.496094 48.941406 1484.664062 C 48.496094 1483.835938 48.09375 1482.988281 47.734375 1482.121094 C 47.375 1481.253906 47.058594 1480.371094 46.785156 1479.46875 C 46.511719 1478.570312 46.285156 1477.660156 46.101562 1476.738281 C 45.917969 1475.816406 45.78125 1474.890625 45.6875 1473.957031 C 45.597656 1473.019531 45.550781 1472.082031 45.550781 1471.144531 Z M 99.351562 1471.144531 C 99.347656 1470.328125 99.308594 1469.511719 99.226562 1468.699219 C 99.144531 1467.890625 99.019531 1467.082031 98.859375 1466.28125 C 98.699219 1465.480469 98.496094 1464.691406 98.257812 1463.910156 C 98.019531 1463.128906 97.742188 1462.363281 97.425781 1461.609375 C 97.109375 1460.855469 96.757812 1460.117188 96.371094 1459.398438 C 95.984375 1458.679688 95.5625 1457.980469 95.105469 1457.304688 C 94.648438 1456.625 94.160156 1455.96875 93.636719 1455.339844 C 93.117188 1454.710938 92.566406 1454.105469 91.984375 1453.53125 C 91.40625 1452.953125 90.796875 1452.40625 90.164062 1451.890625 C 89.527344 1451.375 88.871094 1450.890625 88.1875 1450.4375 C 87.503906 1449.984375 86.800781 1449.566406 86.078125 1449.183594 C 85.355469 1448.800781 84.613281 1448.453125 83.855469 1448.140625 C 83.097656 1447.828125 82.328125 1447.554688 81.542969 1447.320312 C 80.757812 1447.085938 79.964844 1446.886719 79.160156 1446.730469 C 78.355469 1446.570312 77.546875 1446.453125 76.730469 1446.375 C 75.914062 1446.296875 75.097656 1446.257812 74.277344 1446.257812 C 73.457031 1446.257812 72.640625 1446.300781 71.824219 1446.382812 C 71.007812 1446.464844 70.199219 1446.585938 69.394531 1446.746094 C 68.59375 1446.90625 67.796875 1447.105469 67.015625 1447.34375 C 66.230469 1447.582031 65.460938 1447.855469 64.703125 1448.167969 C 63.945312 1448.484375 63.207031 1448.832031 62.484375 1449.21875 C 61.761719 1449.605469 61.058594 1450.023438 60.378906 1450.480469 C 59.699219 1450.933594 59.042969 1451.417969 58.410156 1451.9375 C 57.777344 1452.457031 57.167969 1453.003906 56.589844 1453.582031 C 56.011719 1454.160156 55.464844 1454.765625 54.945312 1455.398438 C 54.425781 1456.03125 53.9375 1456.683594 53.484375 1457.363281 C 53.027344 1458.042969 52.609375 1458.742188 52.222656 1459.464844 C 51.835938 1460.183594 51.488281 1460.921875 51.175781 1461.675781 C 50.863281 1462.429688 50.585938 1463.199219 50.347656 1463.980469 C 50.113281 1464.761719 49.914062 1465.554688 49.753906 1466.355469 C 49.59375 1467.15625 49.476562 1467.960938 49.394531 1468.773438 C 49.316406 1469.585938 49.277344 1470.402344 49.277344 1471.21875 C 49.277344 1472.035156 49.320312 1472.847656 49.398438 1473.660156 C 49.480469 1474.472656 49.601562 1475.28125 49.761719 1476.082031 C 49.921875 1476.882812 50.121094 1477.671875 50.359375 1478.453125 C 50.597656 1479.234375 50.875 1480.003906 51.1875 1480.757812 C 51.503906 1481.511719 51.851562 1482.25 52.238281 1482.96875 C 52.625 1483.6875 53.046875 1484.386719 53.503906 1485.066406 C 53.960938 1485.746094 54.445312 1486.398438 54.96875 1487.03125 C 55.488281 1487.660156 56.039062 1488.265625 56.617188 1488.84375 C 57.195312 1489.421875 57.804688 1489.96875 58.4375 1490.484375 C 59.070312 1491.003906 59.730469 1491.488281 60.410156 1491.941406 C 61.09375 1492.394531 61.792969 1492.816406 62.515625 1493.199219 C 63.238281 1493.582031 63.980469 1493.933594 64.738281 1494.246094 C 65.496094 1494.558594 66.265625 1494.832031 67.050781 1495.070312 C 67.835938 1495.304688 68.628906 1495.503906 69.433594 1495.664062 C 70.234375 1495.820312 71.046875 1495.941406 71.863281 1496.023438 C 72.675781 1496.101562 73.496094 1496.140625 74.3125 1496.140625 C 75.136719 1496.140625 75.953125 1496.097656 76.769531 1496.019531 C 77.585938 1495.9375 78.398438 1495.816406 79.203125 1495.65625 C 80.007812 1495.496094 80.804688 1495.292969 81.589844 1495.054688 C 82.375 1494.816406 83.144531 1494.542969 83.902344 1494.226562 C 84.660156 1493.914062 85.402344 1493.5625 86.125 1493.175781 C 86.847656 1492.789062 87.550781 1492.371094 88.234375 1491.914062 C 88.914062 1491.460938 89.574219 1490.972656 90.207031 1490.453125 C 90.839844 1489.933594 91.445312 1489.382812 92.027344 1488.804688 C 92.605469 1488.226562 93.15625 1487.621094 93.675781 1486.988281 C 94.195312 1486.355469 94.683594 1485.699219 95.140625 1485.019531 C 95.59375 1484.339844 96.015625 1483.636719 96.402344 1482.917969 C 96.789062 1482.195312 97.136719 1481.457031 97.453125 1480.699219 C 97.765625 1479.945312 98.039062 1479.175781 98.277344 1478.394531 C 98.515625 1477.609375 98.714844 1476.816406 98.875 1476.015625 C 99.03125 1475.214844 99.152344 1474.40625 99.230469 1473.589844 C 99.3125 1472.777344 99.351562 1471.960938 99.351562 1471.144531 Z M 99.351562 1471.144531 " fill-opacity="1" fill-rule="nonzero"/></g><g clip-path="url(#72f8b8c661)"><path fill="#1d1d1b" d="M 72.453125 1442.972656 L 72.453125 1356.957031 C 72.453125 1356.710938 72.5 1356.476562 72.59375 1356.25 C 72.6875 1356.019531 72.824219 1355.820312 72.996094 1355.648438 C 73.171875 1355.472656 73.375 1355.339844 73.601562 1355.246094 C 73.828125 1355.148438 74.066406 1355.101562 74.3125 1355.101562 C 74.5625 1355.101562 74.800781 1355.148438 75.027344 1355.246094 C 75.253906 1355.339844 75.457031 1355.472656 75.632812 1355.648438 C 75.804688 1355.820312 75.941406 1356.019531 76.035156 1356.25 C 76.128906 1356.476562 76.175781 1356.710938 76.175781 1356.957031 L 76.175781 1442.972656 C 76.175781 1443.21875 76.128906 1443.457031 76.035156 1443.683594 C 75.941406 1443.910156 75.804688 1444.113281 75.632812 1444.285156 C 75.457031 1444.460938 75.253906 1444.59375 75.027344 1444.6875 C 74.800781 1444.78125 74.5625 1444.828125 74.3125 1444.828125 C 74.066406 1444.828125 73.828125 1444.78125 73.601562 1444.6875 C 73.375 1444.59375 73.171875 1444.460938 72.996094 1444.285156 C 72.824219 1444.113281 72.6875 1443.910156 72.59375 1443.683594 C 72.5 1443.457031 72.453125 1443.21875 72.453125 1442.972656 Z M 72.453125 1442.972656 " fill-opacity="1" fill-rule="nonzero"/></g><path fill="#5eb229" d="M 74.3125 1136.855469 C 73.445312 1136.855469 72.582031 1136.769531 71.726562 1136.601562 C 70.871094 1136.429688 70.042969 1136.179688 69.238281 1135.847656 C 68.433594 1135.515625 67.667969 1135.109375 66.945312 1134.628906 C 66.222656 1134.144531 65.550781 1133.597656 64.933594 1132.984375 C 64.320312 1132.371094 63.769531 1131.703125 63.285156 1130.980469 C 62.800781 1130.261719 62.394531 1129.5 62.058594 1128.699219 C 61.726562 1127.894531 61.476562 1127.070312 61.304688 1126.21875 C 61.136719 1125.367188 61.050781 1124.507812 61.050781 1123.640625 C 61.050781 1122.773438 61.136719 1121.914062 61.304688 1121.0625 C 61.476562 1120.210938 61.726562 1119.386719 62.058594 1118.585938 C 62.394531 1117.78125 62.800781 1117.023438 63.285156 1116.300781 C 63.769531 1115.578125 64.320312 1114.910156 64.933594 1114.296875 C 65.550781 1113.683594 66.222656 1113.136719 66.945312 1112.65625 C 67.667969 1112.171875 68.433594 1111.765625 69.238281 1111.433594 C 70.042969 1111.101562 70.871094 1110.851562 71.726562 1110.683594 C 72.582031 1110.511719 73.445312 1110.429688 74.3125 1110.429688 C 75.183594 1110.429688 76.046875 1110.511719 76.902344 1110.683594 C 77.757812 1110.851562 78.585938 1111.101562 79.390625 1111.433594 C 80.195312 1111.765625 80.960938 1112.171875 81.683594 1112.65625 C 82.40625 1113.136719 83.078125 1113.683594 83.691406 1114.296875 C 84.308594 1114.910156 84.859375 1115.578125 85.34375 1116.300781 C 85.828125 1117.023438 86.234375 1117.78125 86.566406 1118.585938 C 86.902344 1119.386719 87.152344 1120.210938 87.324219 1121.0625 C 87.492188 1121.914062 87.578125 1122.773438 87.578125 1123.640625 C 87.578125 1124.507812 87.492188 1125.367188 87.324219 1126.21875 C 87.152344 1127.070312 86.902344 1127.894531 86.566406 1128.699219 C 86.234375 1129.5 85.828125 1130.261719 85.34375 1130.980469 C 84.859375 1131.703125 84.308594 1132.371094 83.691406 1132.984375 C 83.078125 1133.597656 82.40625 1134.144531 81.683594 1134.628906 C 80.960938 1135.109375 80.195312 1135.515625 79.390625 1135.847656 C 78.585938 1136.179688 77.757812 1136.429688 76.902344 1136.601562 C 76.046875 1136.769531 75.183594 1136.855469 74.3125 1136.855469 Z M 74.3125 1136.855469 " fill-opacity="1" fill-rule="nonzero"/><g clip-path="url(#6b96abff00)"><path fill="#1d1d1b" d="M 45.550781 1123.34375 C 45.554688 1122.40625 45.601562 1121.46875 45.695312 1120.535156 C 45.789062 1119.605469 45.929688 1118.675781 46.113281 1117.757812 C 46.300781 1116.839844 46.53125 1115.929688 46.804688 1115.03125 C 47.082031 1114.136719 47.398438 1113.253906 47.761719 1112.386719 C 48.121094 1111.523438 48.527344 1110.675781 48.972656 1109.847656 C 49.417969 1109.023438 49.902344 1108.21875 50.425781 1107.441406 C 50.949219 1106.660156 51.511719 1105.910156 52.109375 1105.1875 C 52.710938 1104.460938 53.34375 1103.769531 54.007812 1103.105469 C 54.675781 1102.445312 55.375 1101.816406 56.101562 1101.222656 C 56.832031 1100.628906 57.585938 1100.070312 58.371094 1099.550781 C 59.15625 1099.03125 59.960938 1098.550781 60.792969 1098.109375 C 61.625 1097.667969 62.476562 1097.269531 63.347656 1096.910156 C 64.214844 1096.554688 65.101562 1096.238281 66.003906 1095.96875 C 66.90625 1095.699219 67.816406 1095.472656 68.742188 1095.289062 C 69.664062 1095.109375 70.597656 1094.972656 71.535156 1094.882812 C 72.46875 1094.789062 73.410156 1094.746094 74.351562 1094.746094 C 75.292969 1094.746094 76.230469 1094.796875 77.167969 1094.886719 C 78.105469 1094.980469 79.035156 1095.121094 79.960938 1095.304688 C 80.882812 1095.488281 81.796875 1095.71875 82.695312 1095.992188 C 83.597656 1096.265625 84.480469 1096.582031 85.351562 1096.941406 C 86.222656 1097.300781 87.070312 1097.703125 87.902344 1098.144531 C 88.730469 1098.589844 89.535156 1099.070312 90.320312 1099.59375 C 91.101562 1100.113281 91.855469 1100.671875 92.582031 1101.269531 C 93.3125 1101.863281 94.007812 1102.496094 94.671875 1103.160156 C 95.335938 1103.824219 95.96875 1104.515625 96.566406 1105.242188 C 97.160156 1105.96875 97.722656 1106.722656 98.242188 1107.503906 C 98.765625 1108.28125 99.25 1109.085938 99.691406 1109.914062 C 100.136719 1110.742188 100.535156 1111.589844 100.894531 1112.457031 C 101.257812 1113.324219 101.570312 1114.207031 101.84375 1115.101562 C 102.117188 1116 102.34375 1116.910156 102.527344 1117.832031 C 102.710938 1118.75 102.847656 1119.675781 102.941406 1120.609375 C 103.03125 1121.542969 103.078125 1122.480469 103.078125 1123.417969 C 103.078125 1124.355469 103.03125 1125.292969 102.9375 1126.226562 C 102.84375 1127.160156 102.707031 1128.085938 102.519531 1129.003906 C 102.335938 1129.925781 102.109375 1130.835938 101.832031 1131.730469 C 101.558594 1132.628906 101.242188 1133.511719 100.882812 1134.378906 C 100.519531 1135.246094 100.117188 1136.089844 99.675781 1136.917969 C 99.230469 1137.746094 98.746094 1138.546875 98.222656 1139.328125 C 97.699219 1140.109375 97.140625 1140.859375 96.542969 1141.585938 C 95.945312 1142.308594 95.3125 1143.003906 94.644531 1143.667969 C 93.980469 1144.332031 93.28125 1144.960938 92.554688 1145.554688 C 91.828125 1146.148438 91.070312 1146.707031 90.289062 1147.226562 C 89.503906 1147.75 88.699219 1148.230469 87.867188 1148.671875 C 87.039062 1149.113281 86.1875 1149.515625 85.316406 1149.875 C 84.445312 1150.230469 83.5625 1150.546875 82.660156 1150.820312 C 81.757812 1151.09375 80.847656 1151.320312 79.921875 1151.503906 C 79 1151.6875 78.070312 1151.824219 77.132812 1151.914062 C 76.195312 1152.007812 75.257812 1152.054688 74.3125 1152.054688 C 73.371094 1152.050781 72.429688 1152.003906 71.492188 1151.910156 C 70.554688 1151.816406 69.625 1151.679688 68.699219 1151.496094 C 67.773438 1151.308594 66.859375 1151.082031 65.960938 1150.808594 C 65.058594 1150.535156 64.171875 1150.21875 63.300781 1149.855469 C 62.429688 1149.496094 61.578125 1149.09375 60.746094 1148.652344 C 59.917969 1148.207031 59.109375 1147.722656 58.324219 1147.199219 C 57.542969 1146.679688 56.785156 1146.117188 56.058594 1145.523438 C 55.332031 1144.925781 54.632812 1144.292969 53.96875 1143.628906 C 53.300781 1142.964844 52.667969 1142.269531 52.070312 1141.542969 C 51.472656 1140.816406 50.914062 1140.0625 50.390625 1139.28125 C 49.867188 1138.5 49.382812 1137.695312 48.941406 1136.867188 C 48.496094 1136.035156 48.09375 1135.1875 47.734375 1134.320312 C 47.375 1133.453125 47.058594 1132.570312 46.785156 1131.671875 C 46.511719 1130.769531 46.285156 1129.859375 46.101562 1128.9375 C 45.917969 1128.019531 45.78125 1127.089844 45.6875 1126.15625 C 45.597656 1125.21875 45.550781 1124.285156 45.550781 1123.34375 Z M 99.351562 1123.34375 C 99.347656 1122.527344 99.308594 1121.714844 99.226562 1120.902344 C 99.144531 1120.089844 99.019531 1119.28125 98.859375 1118.480469 C 98.699219 1117.679688 98.496094 1116.890625 98.257812 1116.109375 C 98.019531 1115.328125 97.742188 1114.5625 97.425781 1113.808594 C 97.109375 1113.054688 96.757812 1112.316406 96.371094 1111.597656 C 95.984375 1110.878906 95.5625 1110.179688 95.105469 1109.503906 C 94.648438 1108.824219 94.160156 1108.171875 93.636719 1107.539062 C 93.117188 1106.910156 92.566406 1106.308594 91.984375 1105.730469 C 91.40625 1105.15625 90.796875 1104.609375 90.164062 1104.089844 C 89.527344 1103.574219 88.871094 1103.089844 88.1875 1102.636719 C 87.503906 1102.183594 86.800781 1101.765625 86.078125 1101.382812 C 85.355469 1101 84.613281 1100.652344 83.855469 1100.339844 C 83.097656 1100.03125 82.328125 1099.757812 81.542969 1099.519531 C 80.757812 1099.285156 79.964844 1099.089844 79.160156 1098.929688 C 78.355469 1098.773438 77.546875 1098.652344 76.730469 1098.574219 C 75.914062 1098.496094 75.097656 1098.457031 74.277344 1098.457031 C 73.457031 1098.460938 72.640625 1098.5 71.824219 1098.582031 C 71.007812 1098.664062 70.199219 1098.785156 69.394531 1098.945312 C 68.59375 1099.105469 67.796875 1099.304688 67.015625 1099.542969 C 66.230469 1099.78125 65.460938 1100.054688 64.703125 1100.371094 C 63.945312 1100.683594 63.207031 1101.03125 62.484375 1101.417969 C 61.761719 1101.804688 61.058594 1102.222656 60.378906 1102.679688 C 59.699219 1103.132812 59.042969 1103.621094 58.410156 1104.136719 C 57.777344 1104.65625 57.167969 1105.207031 56.589844 1105.78125 C 56.011719 1106.359375 55.464844 1106.964844 54.945312 1107.597656 C 54.425781 1108.230469 53.9375 1108.886719 53.484375 1109.5625 C 53.027344 1110.242188 52.609375 1110.945312 52.222656 1111.664062 C 51.835938 1112.382812 51.488281 1113.121094 51.175781 1113.875 C 50.863281 1114.632812 50.585938 1115.398438 50.347656 1116.179688 C 50.113281 1116.960938 49.914062 1117.753906 49.753906 1118.554688 C 49.59375 1119.355469 49.476562 1120.160156 49.394531 1120.976562 C 49.316406 1121.789062 49.277344 1122.601562 49.277344 1123.417969 C 49.277344 1124.234375 49.320312 1125.050781 49.398438 1125.863281 C 49.480469 1126.675781 49.601562 1127.480469 49.761719 1128.28125 C 49.921875 1129.082031 50.121094 1129.875 50.359375 1130.65625 C 50.597656 1131.4375 50.875 1132.203125 51.1875 1132.957031 C 51.503906 1133.710938 51.851562 1134.449219 52.238281 1135.167969 C 52.625 1135.886719 53.046875 1136.585938 53.503906 1137.265625 C 53.960938 1137.945312 54.445312 1138.601562 54.96875 1139.230469 C 55.488281 1139.863281 56.039062 1140.464844 56.617188 1141.042969 C 57.195312 1141.621094 57.804688 1142.167969 58.4375 1142.683594 C 59.070312 1143.203125 59.730469 1143.6875 60.410156 1144.140625 C 61.09375 1144.59375 61.792969 1145.015625 62.515625 1145.398438 C 63.238281 1145.785156 63.980469 1146.132812 64.738281 1146.445312 C 65.496094 1146.757812 66.265625 1147.03125 67.050781 1147.269531 C 67.835938 1147.503906 68.628906 1147.703125 69.433594 1147.863281 C 70.234375 1148.023438 71.046875 1148.140625 71.863281 1148.222656 C 72.675781 1148.300781 73.496094 1148.339844 74.3125 1148.339844 C 75.136719 1148.339844 75.953125 1148.300781 76.769531 1148.21875 C 77.585938 1148.136719 78.398438 1148.015625 79.203125 1147.855469 C 80.007812 1147.695312 80.804688 1147.496094 81.589844 1147.257812 C 82.375 1147.019531 83.144531 1146.742188 83.902344 1146.425781 C 84.660156 1146.113281 85.402344 1145.761719 86.125 1145.378906 C 86.847656 1144.992188 87.550781 1144.570312 88.234375 1144.113281 C 88.914062 1143.660156 89.574219 1143.171875 90.207031 1142.652344 C 90.839844 1142.132812 91.445312 1141.585938 92.027344 1141.003906 C 92.605469 1140.425781 93.15625 1139.820312 93.675781 1139.1875 C 94.195312 1138.554688 94.683594 1137.898438 95.140625 1137.21875 C 95.59375 1136.539062 96.015625 1135.835938 96.402344 1135.117188 C 96.789062 1134.394531 97.136719 1133.65625 97.453125 1132.898438 C 97.765625 1132.144531 98.039062 1131.375 98.277344 1130.59375 C 98.515625 1129.808594 98.714844 1129.015625 98.875 1128.214844 C 99.03125 1127.414062 99.152344 1126.605469 99.230469 1125.792969 C 99.3125 1124.976562 99.351562 1124.160156 99.351562 1123.34375 Z M 99.351562 1123.34375 " fill-opacity="1" fill-rule="nonzero"/></g><g clip-path="url(#e67c25f48b)"><path fill="#1d1d1b" d="M 72.453125 1095.171875 L 72.453125 1009.160156 C 72.453125 1008.914062 72.5 1008.675781 72.59375 1008.449219 C 72.6875 1008.222656 72.824219 1008.019531 72.996094 1007.847656 C 73.171875 1007.671875 73.375 1007.539062 73.601562 1007.445312 C 73.828125 1007.351562 74.066406 1007.304688 74.3125 1007.304688 C 74.5625 1007.304688 74.800781 1007.351562 75.027344 1007.445312 C 75.253906 1007.539062 75.457031 1007.671875 75.632812 1007.847656 C 75.804688 1008.019531 75.941406 1008.222656 76.035156 1008.449219 C 76.128906 1008.675781 76.175781 1008.914062 76.175781 1009.160156 L 76.175781 1095.171875 C 76.175781 1095.417969 76.128906 1095.65625 76.035156 1095.882812 C 75.941406 1096.109375 75.804688 1096.3125 75.632812 1096.484375 C 75.457031 1096.660156 75.253906 1096.792969 75.027344 1096.886719 C 74.800781 1096.980469 74.5625 1097.03125 74.3125 1097.03125 C 74.066406 1097.03125 73.828125 1096.980469 73.601562 1096.886719 C 73.375 1096.792969 73.171875 1096.660156 72.996094 1096.484375 C 72.824219 1096.3125 72.6875 1096.109375 72.59375 1095.882812 C 72.5 1095.65625 72.453125 1095.417969 72.453125 1095.171875 Z M 72.453125 1095.171875 " fill-opacity="1" fill-rule="nonzero"/></g><path stroke-linecap="butt" transform="matrix(0.000000000000000046, 0.750423, -0.75, 0.000000000000000046, 76.195082, 83.081742)" fill="none" stroke-linejoin="miter" d="M 0.000384858 2.499692 L 304.838928 2.499692 " stroke="#1d1d1b" stroke-width="5" stroke-opacity="1" stroke-miterlimit="4"/><path stroke-linecap="butt" transform="matrix(0.000000000000000046, 0.74929, -0.75, 0.000000000000000046, 76.193303, 437.487902)" fill="none" stroke-linejoin="miter" d="M 0.000505722 2.502529 L 330.323452 2.502529 " stroke="#1d1d1b" stroke-width="5" stroke-opacity="1" stroke-miterlimit="4"/><path stroke-linecap="butt" transform="matrix(0.000000000000000046, 0.750423, -0.75, 0.000000000000000046, 76.195082, 804.403039)" fill="none" stroke-linejoin="miter" d="M -0.000926097 2.499692 L 304.837617 2.499692 " stroke="#1d1d1b" stroke-width="5" stroke-opacity="1" stroke-miterlimit="4"/><path stroke-linecap="butt" transform="matrix(0.000000000000000046, 0.750423, -0.75, 0.000000000000000046, 76.195082, 1152.203089)" fill="none" stroke-linejoin="miter" d="M 0.0000482969 2.499692 L 304.838592 2.499692 " stroke="#1d1d1b" stroke-width="5" stroke-opacity="1" stroke-miterlimit="4"/></svg>