<svg xmlns="http://www.w3.org/2000/svg" xmlns:xlink="http://www.w3.org/1999/xlink" width="200" zoomAndPan="magnify" viewBox="0 0 150 1499.999933" height="2000" preserveAspectRatio="xMidYMid meet" version="1.0"><defs><clipPath id="f85d3ace41"><path d="M 19.367188 0.00390625 L 130.792969 0.00390625 L 130.792969 111.164062 L 19.367188 111.164062 Z M 19.367188 0.00390625 " clip-rule="nonzero"/></clipPath><clipPath id="8be60c19fe"><path d="M 71 0.00390625 L 79 0.00390625 L 79 5 L 71 5 Z M 71 0.00390625 " clip-rule="nonzero"/></clipPath><clipPath id="adabbe80a3"><path d="M 19.367188 276 L 130.789062 276 L 130.789062 387.777344 L 19.367188 387.777344 Z M 19.367188 276 " clip-rule="nonzero"/></clipPath><clipPath id="8be6a567c8"><path d="M 71 107.152344 L 79 107.152344 L 79 282 L 71 282 Z M 71 107.152344 " clip-rule="nonzero"/></clipPath><clipPath id="fe82c0fded"><path d="M 19.367188 554 L 130.789062 554 L 130.789062 666.039062 L 19.367188 666.039062 Z M 19.367188 554 " clip-rule="nonzero"/></clipPath><clipPath id="1372689c34"><path d="M 71 385.417969 L 79 385.417969 L 79 560 L 71 560 Z M 71 385.417969 " clip-rule="nonzero"/></clipPath><clipPath id="0f09583708"><path d="M 19.367188 833 L 130.789062 833 L 130.789062 944.304688 L 19.367188 944.304688 Z M 19.367188 833 " clip-rule="nonzero"/></clipPath><clipPath id="95e3646a3c"><path d="M 71 663.679688 L 79 663.679688 L 79 838 L 71 838 Z M 71 663.679688 " clip-rule="nonzero"/></clipPath><clipPath id="c6f1ac6a99"><path d="M 19.367188 1111 L 130.789062 1111 L 130.789062 1222.566406 L 19.367188 1222.566406 Z M 19.367188 1111 " clip-rule="nonzero"/></clipPath><clipPath id="1b9ce1531a"><path d="M 71 941.941406 L 79 941.941406 L 79 1116 L 71 1116 Z M 71 941.941406 " clip-rule="nonzero"/></clipPath><clipPath id="ed4fd33dbc"><path d="M 19.367188 1388 L 130.789062 1388 L 130.789062 1499.890625 L 19.367188 1499.890625 Z M 19.367188 1388 " clip-rule="nonzero"/></clipPath><clipPath id="d6f369e335"><path d="M 71 1219.265625 L 79 1219.265625 L 79 1394 L 71 1394 Z M 71 1219.265625 " clip-rule="nonzero"/></clipPath></defs><path fill="#233dff" d="M 75.222656 81.695312 C 74.386719 81.695312 73.550781 81.65625 72.714844 81.574219 C 71.882812 81.492188 71.054688 81.367188 70.234375 81.203125 C 69.410156 81.039062 68.597656 80.835938 67.796875 80.59375 C 66.996094 80.351562 66.207031 80.066406 65.433594 79.746094 C 64.660156 79.425781 63.902344 79.066406 63.164062 78.671875 C 62.425781 78.277344 61.707031 77.84375 61.007812 77.378906 C 60.3125 76.914062 59.640625 76.414062 58.992188 75.882812 C 58.34375 75.351562 57.722656 74.789062 57.132812 74.195312 C 56.539062 73.601562 55.976562 72.980469 55.445312 72.332031 C 54.914062 71.683594 54.414062 71.007812 53.949219 70.3125 C 53.484375 69.613281 53.054688 68.894531 52.660156 68.15625 C 52.265625 67.417969 51.90625 66.660156 51.585938 65.882812 C 51.265625 65.109375 50.984375 64.320312 50.738281 63.515625 C 50.496094 62.714844 50.292969 61.902344 50.128906 61.078125 C 49.964844 60.253906 49.84375 59.425781 49.761719 58.589844 C 49.679688 57.757812 49.636719 56.917969 49.636719 56.082031 C 49.636719 55.242188 49.679688 54.40625 49.761719 53.570312 C 49.84375 52.734375 49.964844 51.90625 50.128906 51.082031 C 50.292969 50.261719 50.496094 49.449219 50.738281 48.644531 C 50.984375 47.84375 51.265625 47.054688 51.585938 46.277344 C 51.90625 45.503906 52.265625 44.746094 52.660156 44.003906 C 53.054688 43.265625 53.484375 42.546875 53.949219 41.847656 C 54.414062 41.152344 54.914062 40.480469 55.445312 39.832031 C 55.976562 39.183594 56.539062 38.5625 57.132812 37.96875 C 57.722656 37.375 58.34375 36.8125 58.992188 36.28125 C 59.640625 35.746094 60.3125 35.246094 61.007812 34.78125 C 61.707031 34.316406 62.425781 33.886719 63.164062 33.488281 C 63.902344 33.09375 64.660156 32.734375 65.433594 32.414062 C 66.207031 32.09375 66.996094 31.8125 67.796875 31.566406 C 68.597656 31.324219 69.410156 31.121094 70.234375 30.957031 C 71.054688 30.792969 71.882812 30.671875 72.714844 30.589844 C 73.550781 30.507812 74.386719 30.464844 75.222656 30.464844 C 76.0625 30.464844 76.898438 30.507812 77.734375 30.589844 C 78.566406 30.671875 79.394531 30.792969 80.214844 30.957031 C 81.039062 31.121094 81.851562 31.324219 82.652344 31.566406 C 83.453125 31.8125 84.242188 32.09375 85.015625 32.414062 C 85.789062 32.734375 86.546875 33.09375 87.285156 33.488281 C 88.023438 33.886719 88.742188 34.316406 89.441406 34.78125 C 90.136719 35.246094 90.808594 35.746094 91.457031 36.28125 C 92.105469 36.8125 92.722656 37.375 93.316406 37.96875 C 93.910156 38.5625 94.472656 39.183594 95.003906 39.832031 C 95.535156 40.480469 96.035156 41.152344 96.5 41.847656 C 96.964844 42.546875 97.394531 43.265625 97.789062 44.003906 C 98.183594 44.746094 98.542969 45.503906 98.863281 46.277344 C 99.183594 47.054688 99.464844 47.84375 99.710938 48.644531 C 99.953125 49.449219 100.15625 50.261719 100.320312 51.082031 C 100.484375 51.90625 100.605469 52.734375 100.6875 53.570312 C 100.769531 54.40625 100.8125 55.242188 100.8125 56.082031 C 100.8125 56.917969 100.769531 57.757812 100.6875 58.589844 C 100.605469 59.425781 100.484375 60.253906 100.320312 61.078125 C 100.15625 61.902344 99.953125 62.714844 99.710938 63.515625 C 99.464844 64.320312 99.183594 65.109375 98.863281 65.882812 C 98.542969 66.660156 98.183594 67.417969 97.789062 68.15625 C 97.394531 68.894531 96.964844 69.613281 96.5 70.3125 C 96.035156 71.007812 95.535156 71.683594 95.003906 72.332031 C 94.472656 72.980469 93.910156 73.601562 93.316406 74.195312 C 92.722656 74.789062 92.105469 75.351562 91.457031 75.882812 C 90.808594 76.414062 90.136719 76.914062 89.441406 77.378906 C 88.742188 77.84375 88.023438 78.277344 87.285156 78.671875 C 86.546875 79.066406 85.789062 79.425781 85.015625 79.746094 C 84.242188 80.066406 83.453125 80.351562 82.652344 80.59375 C 81.851562 80.835938 81.039062 81.039062 80.214844 81.203125 C 79.394531 81.367188 78.566406 81.492188 77.734375 81.574219 C 76.898438 81.65625 76.0625 81.695312 75.222656 81.695312 Z M 75.222656 81.695312 " fill-opacity="1" fill-rule="nonzero"/><g clip-path="url(#f85d3ace41)"><path fill="#1d1d1b" d="M 19.738281 55.503906 C 19.742188 53.6875 19.835938 51.871094 20.015625 50.0625 C 20.199219 48.253906 20.46875 46.457031 20.824219 44.675781 C 21.183594 42.890625 21.625 41.128906 22.15625 39.390625 C 22.6875 37.652344 23.300781 35.941406 24 34.265625 C 24.699219 32.585938 25.476562 30.945312 26.335938 29.34375 C 27.195312 27.738281 28.128906 26.183594 29.140625 24.671875 C 30.152344 23.164062 31.238281 21.707031 32.390625 20.300781 C 33.546875 18.898438 34.765625 17.554688 36.054688 16.269531 C 37.339844 14.988281 38.6875 13.769531 40.09375 12.617188 C 41.5 11.464844 42.957031 10.386719 44.46875 9.378906 C 45.980469 8.371094 47.539062 7.4375 49.140625 6.582031 C 50.746094 5.730469 52.386719 4.953125 54.066406 4.261719 C 55.746094 3.566406 57.453125 2.957031 59.191406 2.433594 C 60.933594 1.90625 62.691406 1.46875 64.472656 1.117188 C 66.257812 0.765625 68.050781 0.5 69.859375 0.324219 C 71.667969 0.148438 73.480469 0.0625 75.296875 0.0625 C 77.113281 0.0664062 78.925781 0.15625 80.730469 0.339844 C 82.539062 0.519531 84.335938 0.789062 86.117188 1.144531 C 87.894531 1.5 89.65625 1.945312 91.394531 2.476562 C 93.132812 3.003906 94.839844 3.617188 96.515625 4.316406 C 98.195312 5.015625 99.832031 5.792969 101.433594 6.652344 C 103.035156 7.511719 104.589844 8.445312 106.097656 9.457031 C 107.609375 10.46875 109.066406 11.554688 110.46875 12.707031 C 111.871094 13.863281 113.214844 15.085938 114.496094 16.371094 C 115.78125 17.660156 116.996094 19.007812 118.148438 20.414062 C 119.300781 21.820312 120.378906 23.28125 121.386719 24.792969 C 122.394531 26.304688 123.324219 27.863281 124.179688 29.46875 C 125.035156 31.074219 125.808594 32.714844 126.503906 34.398438 C 127.199219 36.078125 127.808594 37.789062 128.332031 39.527344 C 128.859375 41.269531 129.300781 43.03125 129.652344 44.816406 C 130.003906 46.597656 130.269531 48.394531 130.445312 50.207031 C 130.625 52.015625 130.710938 53.832031 130.710938 55.648438 C 130.710938 57.46875 130.617188 59.28125 130.441406 61.089844 C 130.261719 62.902344 129.992188 64.699219 129.636719 66.480469 C 129.28125 68.265625 128.839844 70.027344 128.3125 71.765625 C 127.785156 73.507812 127.171875 75.214844 126.476562 76.894531 C 125.78125 78.574219 125.003906 80.21875 124.148438 81.820312 C 123.289062 83.425781 122.355469 84.980469 121.347656 86.492188 C 120.335938 88.003906 119.253906 89.464844 118.101562 90.867188 C 116.949219 92.273438 115.730469 93.621094 114.445312 94.90625 C 113.160156 96.191406 111.816406 97.410156 110.414062 98.5625 C 109.007812 99.714844 107.550781 100.796875 106.039062 101.808594 C 104.527344 102.816406 102.972656 103.75 101.371094 104.609375 C 99.769531 105.464844 98.128906 106.242188 96.449219 106.9375 C 94.769531 107.632812 93.0625 108.246094 91.324219 108.773438 C 89.585938 109.300781 87.828125 109.742188 86.042969 110.09375 C 84.261719 110.449219 82.46875 110.714844 80.660156 110.894531 C 78.851562 111.074219 77.039062 111.164062 75.222656 111.164062 C 73.40625 111.160156 71.589844 111.066406 69.78125 110.886719 C 67.972656 110.707031 66.175781 110.4375 64.390625 110.082031 C 62.609375 109.722656 60.847656 109.277344 59.105469 108.75 C 57.367188 108.21875 55.65625 107.601562 53.976562 106.902344 C 52.296875 106.207031 50.65625 105.425781 49.054688 104.566406 C 47.449219 103.707031 45.894531 102.769531 44.382812 101.753906 C 42.871094 100.742188 41.414062 99.65625 40.007812 98.5 C 38.601562 97.34375 37.257812 96.121094 35.972656 94.832031 C 34.6875 93.542969 33.46875 92.195312 32.316406 90.785156 C 31.164062 89.378906 30.082031 87.917969 29.074219 86.402344 C 28.066406 84.886719 27.132812 83.324219 26.277344 81.71875 C 25.421875 80.113281 24.644531 78.46875 23.949219 76.785156 C 23.253906 75.101562 22.644531 73.390625 22.117188 71.644531 C 21.589844 69.902344 21.152344 68.136719 20.796875 66.351562 C 20.445312 64.566406 20.179688 62.765625 20.003906 60.953125 C 19.824219 59.140625 19.738281 57.324219 19.738281 55.503906 Z M 123.523438 55.503906 C 123.519531 53.921875 123.4375 52.34375 123.28125 50.769531 C 123.121094 49.195312 122.886719 47.628906 122.574219 46.078125 C 122.261719 44.527344 121.875 42.992188 121.414062 41.480469 C 120.953125 39.964844 120.417969 38.480469 119.808594 37.015625 C 119.199219 35.554688 118.523438 34.128906 117.773438 32.734375 C 117.027344 31.339844 116.210938 29.984375 115.332031 28.671875 C 114.449219 27.355469 113.507812 26.089844 112.5 24.867188 C 111.496094 23.644531 110.433594 22.476562 109.3125 21.359375 C 108.191406 20.242188 107.019531 19.179688 105.796875 18.179688 C 104.574219 17.175781 103.304688 16.238281 101.988281 15.359375 C 100.671875 14.484375 99.316406 13.671875 97.917969 12.929688 C 96.523438 12.1875 95.09375 11.511719 93.632812 10.910156 C 92.171875 10.304688 90.683594 9.777344 89.167969 9.320312 C 87.65625 8.863281 86.125 8.480469 84.574219 8.171875 C 83.019531 7.867188 81.457031 7.636719 79.886719 7.484375 C 78.3125 7.332031 76.734375 7.257812 75.152344 7.257812 C 73.570312 7.261719 71.996094 7.339844 70.421875 7.5 C 68.847656 7.65625 67.285156 7.890625 65.734375 8.203125 C 64.1875 8.511719 62.65625 8.898438 61.140625 9.359375 C 59.628906 9.820312 58.144531 10.355469 56.683594 10.964844 C 55.222656 11.570312 53.796875 12.25 52.402344 12.996094 C 51.011719 13.746094 49.65625 14.558594 48.34375 15.441406 C 47.027344 16.320312 45.761719 17.265625 44.539062 18.269531 C 43.320312 19.277344 42.152344 20.339844 41.035156 21.460938 C 39.917969 22.582031 38.859375 23.753906 37.855469 24.976562 C 36.855469 26.203125 35.914062 27.472656 35.039062 28.789062 C 34.160156 30.105469 33.351562 31.464844 32.605469 32.859375 C 31.863281 34.257812 31.1875 35.6875 30.585938 37.148438 C 29.980469 38.613281 29.449219 40.101562 28.992188 41.617188 C 28.535156 43.132812 28.152344 44.667969 27.847656 46.21875 C 27.539062 47.773438 27.308594 49.335938 27.15625 50.910156 C 27 52.488281 26.925781 54.066406 26.925781 55.648438 C 26.925781 57.230469 27.003906 58.8125 27.160156 60.386719 C 27.316406 61.960938 27.550781 63.523438 27.859375 65.078125 C 28.167969 66.628906 28.554688 68.164062 29.015625 69.675781 C 29.472656 71.191406 30.007812 72.679688 30.613281 74.140625 C 31.21875 75.605469 31.894531 77.03125 32.640625 78.429688 C 33.386719 79.824219 34.199219 81.179688 35.078125 82.496094 C 35.957031 83.8125 36.898438 85.082031 37.902344 86.304688 C 38.90625 87.527344 39.964844 88.699219 41.085938 89.816406 C 42.203125 90.9375 43.375 91.996094 44.597656 93 C 45.820312 94.003906 47.085938 94.945312 48.402344 95.824219 C 49.71875 96.703125 51.070312 97.515625 52.464844 98.261719 C 53.859375 99.007812 55.289062 99.683594 56.75 100.289062 C 58.210938 100.894531 59.699219 101.425781 61.210938 101.886719 C 62.722656 102.347656 64.253906 102.730469 65.804688 103.039062 C 67.355469 103.347656 68.917969 103.578125 70.492188 103.734375 C 72.066406 103.890625 73.644531 103.964844 75.222656 103.964844 C 76.808594 103.964844 78.386719 103.882812 79.964844 103.726562 C 81.539062 103.570312 83.101562 103.335938 84.65625 103.023438 C 86.207031 102.710938 87.742188 102.324219 89.257812 101.863281 C 90.769531 101.398438 92.257812 100.863281 93.722656 100.257812 C 95.183594 99.648438 96.613281 98.96875 98.007812 98.21875 C 99.402344 97.472656 100.757812 96.65625 102.074219 95.773438 C 103.390625 94.890625 104.660156 93.945312 105.882812 92.9375 C 107.105469 91.933594 108.277344 90.867188 109.394531 89.746094 C 110.511719 88.621094 111.574219 87.449219 112.578125 86.222656 C 113.578125 84.996094 114.519531 83.722656 115.398438 82.402344 C 116.277344 81.085938 117.089844 79.726562 117.832031 78.328125 C 118.578125 76.929688 119.253906 75.496094 119.859375 74.03125 C 120.464844 72.566406 120.996094 71.074219 121.453125 69.558594 C 121.910156 68.039062 122.292969 66.503906 122.601562 64.949219 C 122.910156 63.394531 123.140625 61.828125 123.292969 60.25 C 123.449219 58.671875 123.523438 57.089844 123.523438 55.503906 Z M 123.523438 55.503906 " fill-opacity="1" fill-rule="nonzero"/></g><g clip-path="url(#8be60c19fe)"><path fill="#1d1d1b" d="M 71.628906 0.890625 L 71.628906 -165.863281 C 71.628906 -166.339844 71.722656 -166.800781 71.90625 -167.242188 C 72.085938 -167.679688 72.347656 -168.070312 72.683594 -168.40625 C 73.019531 -168.746094 73.410156 -169.003906 73.847656 -169.1875 C 74.289062 -169.371094 74.746094 -169.460938 75.222656 -169.460938 C 75.699219 -169.460938 76.160156 -169.371094 76.601562 -169.1875 C 77.039062 -169.003906 77.429688 -168.746094 77.765625 -168.40625 C 78.101562 -168.070312 78.363281 -167.679688 78.542969 -167.242188 C 78.726562 -166.800781 78.816406 -166.339844 78.816406 -165.863281 L 78.816406 0.890625 C 78.816406 1.367188 78.726562 1.828125 78.542969 2.269531 C 78.363281 2.707031 78.101562 3.097656 77.765625 3.433594 C 77.429688 3.773438 77.039062 4.03125 76.601562 4.214844 C 76.160156 4.398438 75.699219 4.488281 75.222656 4.488281 C 74.746094 4.488281 74.289062 4.398438 73.847656 4.214844 C 73.410156 4.03125 73.019531 3.773438 72.683594 3.433594 C 72.347656 3.097656 72.085938 2.707031 71.90625 2.269531 C 71.722656 1.828125 71.628906 1.367188 71.628906 0.890625 Z M 71.628906 0.890625 " fill-opacity="1" fill-rule="nonzero"/></g><path fill="#5eb229" d="M 75.222656 358.3125 C 74.382812 358.3125 73.546875 358.269531 72.714844 358.1875 C 71.878906 358.105469 71.050781 357.984375 70.230469 357.820312 C 69.40625 357.65625 68.597656 357.453125 67.792969 357.210938 C 66.992188 356.964844 66.203125 356.683594 65.429688 356.363281 C 64.65625 356.042969 63.898438 355.683594 63.160156 355.289062 C 62.421875 354.890625 61.703125 354.460938 61.007812 353.996094 C 60.308594 353.527344 59.636719 353.03125 58.988281 352.496094 C 58.339844 351.964844 57.722656 351.402344 57.128906 350.808594 C 56.535156 350.214844 55.972656 349.59375 55.441406 348.945312 C 54.910156 348.296875 54.414062 347.625 53.945312 346.925781 C 53.480469 346.230469 53.050781 345.511719 52.65625 344.769531 C 52.261719 344.03125 51.902344 343.273438 51.582031 342.5 C 51.261719 341.722656 50.980469 340.933594 50.738281 340.132812 C 50.492188 339.328125 50.289062 338.515625 50.125 337.695312 C 49.960938 336.871094 49.839844 336.042969 49.757812 335.207031 C 49.675781 334.371094 49.632812 333.535156 49.632812 332.695312 C 49.632812 331.855469 49.675781 331.019531 49.757812 330.183594 C 49.839844 329.351562 49.960938 328.523438 50.125 327.699219 C 50.289062 326.875 50.492188 326.0625 50.738281 325.261719 C 50.980469 324.457031 51.261719 323.667969 51.582031 322.894531 C 51.902344 322.117188 52.261719 321.359375 52.65625 320.621094 C 53.050781 319.882812 53.480469 319.164062 53.945312 318.464844 C 54.414062 317.765625 54.910156 317.09375 55.441406 316.445312 C 55.972656 315.796875 56.535156 315.175781 57.128906 314.582031 C 57.722656 313.988281 58.339844 313.425781 58.988281 312.894531 C 59.636719 312.363281 60.308594 311.863281 61.007812 311.398438 C 61.703125 310.929688 62.421875 310.5 63.160156 310.105469 C 63.898438 309.710938 64.65625 309.351562 65.429688 309.03125 C 66.203125 308.710938 66.992188 308.425781 67.792969 308.183594 C 68.597656 307.941406 69.40625 307.734375 70.230469 307.574219 C 71.050781 307.410156 71.878906 307.285156 72.714844 307.203125 C 73.546875 307.121094 74.382812 307.082031 75.222656 307.082031 C 76.058594 307.082031 76.894531 307.121094 77.730469 307.203125 C 78.5625 307.285156 79.390625 307.410156 80.214844 307.574219 C 81.035156 307.734375 81.847656 307.941406 82.648438 308.183594 C 83.449219 308.425781 84.238281 308.710938 85.011719 309.03125 C 85.789062 309.351562 86.542969 309.710938 87.28125 310.105469 C 88.023438 310.5 88.738281 310.929688 89.4375 311.398438 C 90.132812 311.863281 90.804688 312.363281 91.453125 312.894531 C 92.101562 313.425781 92.722656 313.988281 93.3125 314.582031 C 93.90625 315.175781 94.46875 315.796875 95 316.445312 C 95.53125 317.09375 96.03125 317.765625 96.496094 318.464844 C 96.960938 319.164062 97.390625 319.882812 97.785156 320.621094 C 98.183594 321.359375 98.539062 322.117188 98.859375 322.894531 C 99.179688 323.667969 99.464844 324.457031 99.707031 325.261719 C 99.949219 326.0625 100.152344 326.875 100.316406 327.699219 C 100.480469 328.523438 100.601562 329.351562 100.683594 330.183594 C 100.765625 331.019531 100.808594 331.855469 100.808594 332.695312 C 100.808594 333.535156 100.765625 334.371094 100.683594 335.207031 C 100.601562 336.042969 100.480469 336.871094 100.316406 337.695312 C 100.152344 338.515625 99.949219 339.328125 99.707031 340.132812 C 99.464844 340.933594 99.179688 341.722656 98.859375 342.5 C 98.539062 343.273438 98.183594 344.03125 97.785156 344.769531 C 97.390625 345.511719 96.960938 346.230469 96.496094 346.925781 C 96.03125 347.625 95.53125 348.296875 95 348.945312 C 94.46875 349.59375 93.90625 350.214844 93.3125 350.808594 C 92.722656 351.402344 92.101562 351.964844 91.453125 352.496094 C 90.804688 353.03125 90.132812 353.527344 89.4375 353.996094 C 88.738281 354.460938 88.023438 354.890625 87.28125 355.289062 C 86.542969 355.683594 85.789062 356.042969 85.011719 356.363281 C 84.238281 356.683594 83.449219 356.964844 82.648438 357.210938 C 81.847656 357.453125 81.035156 357.65625 80.214844 357.820312 C 79.390625 357.984375 78.5625 358.105469 77.730469 358.1875 C 76.894531 358.269531 76.058594 358.3125 75.222656 358.3125 Z M 75.222656 358.3125 " fill-opacity="1" fill-rule="nonzero"/><g clip-path="url(#adabbe80a3)"><path fill="#1d1d1b" d="M 19.734375 332.121094 C 19.738281 330.300781 19.832031 328.488281 20.011719 326.679688 C 20.195312 324.867188 20.464844 323.074219 20.820312 321.289062 C 21.179688 319.507812 21.625 317.746094 22.152344 316.007812 C 22.683594 314.265625 23.296875 312.558594 23.996094 310.878906 C 24.695312 309.199219 25.472656 307.558594 26.332031 305.957031 C 27.191406 304.355469 28.128906 302.800781 29.140625 301.289062 C 30.152344 299.777344 31.234375 298.320312 32.386719 296.917969 C 33.542969 295.511719 34.765625 294.167969 36.050781 292.886719 C 37.335938 291.601562 38.683594 290.382812 40.089844 289.234375 C 41.496094 288.082031 42.953125 287 44.464844 285.992188 C 45.976562 284.984375 47.535156 284.054688 49.140625 283.199219 C 50.742188 282.34375 52.382812 281.570312 54.0625 280.875 C 55.742188 280.183594 57.449219 279.574219 59.191406 279.046875 C 60.929688 278.523438 62.6875 278.085938 64.472656 277.730469 C 66.253906 277.378906 68.046875 277.117188 69.855469 276.941406 C 71.664062 276.765625 73.476562 276.675781 75.292969 276.679688 C 77.109375 276.683594 78.921875 276.773438 80.730469 276.953125 C 82.535156 277.132812 84.332031 277.402344 86.113281 277.761719 C 87.894531 278.117188 89.652344 278.558594 91.390625 279.089844 C 93.128906 279.621094 94.835938 280.234375 96.511719 280.933594 C 98.191406 281.628906 99.828125 282.40625 101.429688 283.265625 C 103.03125 284.125 104.585938 285.0625 106.097656 286.074219 C 107.605469 287.085938 109.0625 288.167969 110.464844 289.324219 C 111.867188 290.480469 113.210938 291.699219 114.492188 292.988281 C 115.777344 294.273438 116.996094 295.621094 118.144531 297.027344 C 119.296875 298.433594 120.375 299.894531 121.382812 301.40625 C 122.390625 302.921875 123.324219 304.480469 124.179688 306.085938 C 125.03125 307.6875 125.808594 309.332031 126.5 311.011719 C 127.195312 312.691406 127.804688 314.402344 128.332031 316.144531 C 128.855469 317.886719 129.296875 319.648438 129.648438 321.429688 C 130.003906 323.214844 130.265625 325.011719 130.445312 326.820312 C 130.621094 328.632812 130.707031 330.445312 130.707031 332.265625 C 130.707031 334.082031 130.617188 335.898438 130.4375 337.707031 C 130.257812 339.515625 129.992188 341.3125 129.636719 343.097656 C 129.28125 344.878906 128.839844 346.640625 128.308594 348.382812 C 127.78125 350.121094 127.167969 351.832031 126.472656 353.511719 C 125.777344 355.191406 125 356.832031 124.144531 358.4375 C 123.285156 360.039062 122.355469 361.597656 121.34375 363.109375 C 120.335938 364.621094 119.253906 366.078125 118.101562 367.484375 C 116.945312 368.890625 115.726562 370.234375 114.441406 371.519531 C 113.160156 372.804688 111.8125 374.023438 110.410156 375.179688 C 109.003906 376.332031 107.546875 377.414062 106.035156 378.421875 C 104.527344 379.433594 102.96875 380.367188 101.367188 381.222656 C 99.765625 382.082031 98.125 382.855469 96.445312 383.550781 C 94.769531 384.25 93.058594 384.859375 91.320312 385.386719 C 89.582031 385.914062 87.824219 386.355469 86.042969 386.710938 C 84.261719 387.066406 82.464844 387.332031 80.65625 387.511719 C 78.851562 387.6875 77.039062 387.777344 75.222656 387.777344 C 73.402344 387.773438 71.589844 387.683594 69.777344 387.503906 C 67.96875 387.320312 66.171875 387.054688 64.386719 386.695312 C 62.605469 386.339844 60.84375 385.894531 59.101562 385.363281 C 57.363281 384.832031 55.652344 384.21875 53.972656 383.519531 C 52.292969 382.820312 50.652344 382.042969 49.050781 381.179688 C 47.445312 380.320312 45.890625 379.382812 44.378906 378.371094 C 42.867188 377.359375 41.410156 376.273438 40.003906 375.117188 C 38.597656 373.960938 37.253906 372.738281 35.96875 371.449219 C 34.683594 370.160156 33.464844 368.8125 32.3125 367.402344 C 31.160156 365.992188 30.082031 364.53125 29.070312 363.015625 C 28.0625 361.5 27.128906 359.941406 26.273438 358.335938 C 25.417969 356.726562 24.640625 355.082031 23.949219 353.398438 C 23.253906 351.71875 22.640625 350.003906 22.117188 348.261719 C 21.589844 346.519531 21.148438 344.753906 20.796875 342.96875 C 20.441406 341.183594 20.175781 339.382812 20 337.570312 C 19.820312 335.757812 19.734375 333.941406 19.734375 332.121094 Z M 123.519531 332.121094 C 123.515625 330.539062 123.4375 328.957031 123.277344 327.382812 C 123.117188 325.808594 122.882812 324.246094 122.570312 322.695312 C 122.261719 321.140625 121.875 319.609375 121.410156 318.09375 C 120.949219 316.582031 120.414062 315.09375 119.804688 313.632812 C 119.199219 312.171875 118.519531 310.742188 117.773438 309.347656 C 117.023438 307.953125 116.210938 306.601562 115.328125 305.285156 C 114.445312 303.972656 113.503906 302.703125 112.5 301.480469 C 111.492188 300.261719 110.429688 299.089844 109.308594 297.972656 C 108.191406 296.855469 107.019531 295.796875 105.792969 294.796875 C 104.570312 293.792969 103.300781 292.855469 101.984375 291.976562 C 100.667969 291.097656 99.3125 290.289062 97.917969 289.546875 C 96.519531 288.800781 95.089844 288.128906 93.628906 287.523438 C 92.167969 286.921875 90.679688 286.390625 89.167969 285.933594 C 87.652344 285.476562 86.121094 285.09375 84.570312 284.789062 C 83.019531 284.484375 81.457031 284.253906 79.882812 284.101562 C 78.308594 283.949219 76.730469 283.871094 75.148438 283.875 C 73.570312 283.878906 71.992188 283.957031 70.417969 284.113281 C 68.84375 284.273438 67.285156 284.507812 65.734375 284.816406 C 64.183594 285.128906 62.652344 285.515625 61.140625 285.976562 C 59.625 286.4375 58.140625 286.972656 56.679688 287.578125 C 55.21875 288.1875 53.792969 288.863281 52.398438 289.613281 C 51.007812 290.359375 49.652344 291.175781 48.339844 292.054688 C 47.027344 292.9375 45.757812 293.878906 44.539062 294.886719 C 43.316406 295.890625 42.148438 296.953125 41.03125 298.074219 C 39.914062 299.195312 38.855469 300.367188 37.851562 301.59375 C 36.851562 302.816406 35.914062 304.089844 35.035156 305.40625 C 34.15625 306.722656 33.347656 308.078125 32.605469 309.476562 C 31.859375 310.871094 31.1875 312.304688 30.582031 313.765625 C 29.976562 315.230469 29.449219 316.71875 28.988281 318.234375 C 28.53125 319.75 28.148438 321.28125 27.84375 322.835938 C 27.535156 324.386719 27.304688 325.953125 27.152344 327.527344 C 26.996094 329.101562 26.921875 330.679688 26.921875 332.265625 C 26.925781 333.847656 27.003906 335.425781 27.160156 337 C 27.316406 338.578125 27.546875 340.140625 27.855469 341.691406 C 28.167969 343.246094 28.550781 344.777344 29.011719 346.292969 C 29.472656 347.808594 30.003906 349.296875 30.609375 350.757812 C 31.214844 352.21875 31.890625 353.648438 32.636719 355.042969 C 33.382812 356.441406 34.195312 357.796875 35.074219 359.109375 C 35.953125 360.425781 36.894531 361.695312 37.898438 362.917969 C 38.902344 364.140625 39.964844 365.3125 41.082031 366.433594 C 42.199219 367.550781 43.371094 368.613281 44.59375 369.617188 C 45.816406 370.621094 47.085938 371.5625 48.398438 372.441406 C 49.714844 373.320312 51.070312 374.132812 52.464844 374.878906 C 53.859375 375.625 55.285156 376.300781 56.746094 376.90625 C 58.207031 377.511719 59.695312 378.042969 61.207031 378.503906 C 62.71875 378.960938 64.253906 379.34375 65.804688 379.652344 C 67.355469 379.960938 68.917969 380.195312 70.488281 380.347656 C 72.0625 380.503906 73.640625 380.582031 75.222656 380.582031 C 76.804688 380.578125 78.382812 380.5 79.960938 380.34375 C 81.535156 380.183594 83.101562 379.949219 84.652344 379.636719 C 86.203125 379.328125 87.738281 378.941406 89.253906 378.476562 C 90.769531 378.015625 92.257812 377.480469 93.71875 376.871094 C 95.179688 376.261719 96.609375 375.585938 98.003906 374.835938 C 99.398438 374.085938 100.757812 373.269531 102.070312 372.386719 C 103.386719 371.507812 104.65625 370.5625 105.878906 369.554688 C 107.101562 368.546875 108.273438 367.484375 109.390625 366.359375 C 110.507812 365.238281 111.570312 364.0625 112.574219 362.835938 C 113.578125 361.609375 114.515625 360.339844 115.394531 359.019531 C 116.273438 357.699219 117.085938 356.339844 117.832031 354.941406 C 118.574219 353.542969 119.25 352.113281 119.855469 350.648438 C 120.460938 349.179688 120.992188 347.691406 121.449219 346.171875 C 121.90625 344.65625 122.292969 343.121094 122.597656 341.5625 C 122.90625 340.007812 123.136719 338.441406 123.292969 336.863281 C 123.445312 335.289062 123.519531 333.707031 123.519531 332.121094 Z M 123.519531 332.121094 " fill-opacity="1" fill-rule="nonzero"/></g><g clip-path="url(#8be6a567c8)"><path fill="#1d1d1b" d="M 71.628906 277.507812 L 71.628906 110.75 C 71.628906 110.273438 71.71875 109.816406 71.902344 109.375 C 72.082031 108.933594 72.34375 108.546875 72.679688 108.207031 C 73.015625 107.871094 73.40625 107.609375 73.847656 107.425781 C 74.285156 107.246094 74.746094 107.152344 75.222656 107.152344 C 75.699219 107.152344 76.15625 107.246094 76.597656 107.425781 C 77.035156 107.609375 77.425781 107.871094 77.761719 108.207031 C 78.097656 108.546875 78.359375 108.933594 78.542969 109.375 C 78.722656 109.816406 78.816406 110.273438 78.816406 110.75 L 78.816406 277.507812 C 78.816406 277.984375 78.722656 278.441406 78.542969 278.882812 C 78.359375 279.324219 78.097656 279.714844 77.761719 280.050781 C 77.425781 280.386719 77.035156 280.648438 76.597656 280.832031 C 76.15625 281.011719 75.699219 281.105469 75.222656 281.105469 C 74.746094 281.105469 74.285156 281.011719 73.847656 280.832031 C 73.40625 280.648438 73.015625 280.386719 72.679688 280.050781 C 72.34375 279.714844 72.082031 279.324219 71.902344 278.882812 C 71.71875 278.441406 71.628906 277.984375 71.628906 277.507812 Z M 71.628906 277.507812 " fill-opacity="1" fill-rule="nonzero"/></g><path fill="#233dff" d="M 75.222656 636.574219 C 74.382812 636.574219 73.546875 636.535156 72.714844 636.453125 C 71.878906 636.371094 71.050781 636.246094 70.230469 636.082031 C 69.40625 635.917969 68.597656 635.714844 67.792969 635.472656 C 66.992188 635.230469 66.203125 634.945312 65.429688 634.625 C 64.65625 634.304688 63.898438 633.945312 63.160156 633.550781 C 62.421875 633.15625 61.703125 632.722656 61.007812 632.257812 C 60.308594 631.792969 59.636719 631.292969 58.988281 630.761719 C 58.339844 630.230469 57.722656 629.664062 57.128906 629.074219 C 56.535156 628.480469 55.972656 627.859375 55.441406 627.210938 C 54.910156 626.5625 54.414062 625.886719 53.945312 625.191406 C 53.480469 624.492188 53.050781 623.773438 52.65625 623.035156 C 52.261719 622.292969 51.902344 621.539062 51.582031 620.761719 C 51.261719 619.988281 50.980469 619.199219 50.738281 618.394531 C 50.492188 617.59375 50.289062 616.78125 50.125 615.957031 C 49.960938 615.132812 49.839844 614.304688 49.757812 613.46875 C 49.675781 612.636719 49.632812 611.796875 49.632812 610.960938 C 49.632812 610.121094 49.675781 609.285156 49.757812 608.449219 C 49.839844 607.613281 49.960938 606.785156 50.125 605.960938 C 50.289062 605.140625 50.492188 604.328125 50.738281 603.523438 C 50.980469 602.71875 51.261719 601.933594 51.582031 601.15625 C 51.902344 600.382812 52.261719 599.625 52.65625 598.882812 C 53.050781 598.144531 53.480469 597.425781 53.945312 596.726562 C 54.414062 596.03125 54.910156 595.355469 55.441406 594.707031 C 55.972656 594.058594 56.535156 593.441406 57.128906 592.847656 C 57.722656 592.253906 58.339844 591.691406 58.988281 591.15625 C 59.636719 590.625 60.308594 590.125 61.007812 589.660156 C 61.703125 589.195312 62.421875 588.765625 63.160156 588.367188 C 63.898438 587.972656 64.65625 587.613281 65.429688 587.292969 C 66.203125 586.972656 66.992188 586.691406 67.792969 586.445312 C 68.597656 586.203125 69.40625 586 70.230469 585.835938 C 71.050781 585.671875 71.878906 585.550781 72.714844 585.46875 C 73.546875 585.382812 74.382812 585.34375 75.222656 585.34375 C 76.058594 585.34375 76.894531 585.382812 77.730469 585.46875 C 78.5625 585.550781 79.390625 585.671875 80.214844 585.835938 C 81.035156 586 81.847656 586.203125 82.648438 586.445312 C 83.449219 586.691406 84.238281 586.972656 85.011719 587.292969 C 85.789062 587.613281 86.542969 587.972656 87.28125 588.367188 C 88.023438 588.765625 88.738281 589.195312 89.4375 589.660156 C 90.132812 590.125 90.804688 590.625 91.453125 591.15625 C 92.101562 591.691406 92.722656 592.253906 93.3125 592.847656 C 93.90625 593.441406 94.46875 594.058594 95 594.707031 C 95.53125 595.355469 96.03125 596.03125 96.496094 596.726562 C 96.960938 597.425781 97.390625 598.144531 97.785156 598.882812 C 98.183594 599.625 98.539062 600.382812 98.859375 601.15625 C 99.179688 601.933594 99.464844 602.71875 99.707031 603.523438 C 99.949219 604.328125 100.152344 605.140625 100.316406 605.960938 C 100.480469 606.785156 100.601562 607.613281 100.683594 608.449219 C 100.765625 609.285156 100.808594 610.121094 100.808594 610.960938 C 100.808594 611.796875 100.765625 612.636719 100.683594 613.46875 C 100.601562 614.304688 100.480469 615.132812 100.316406 615.957031 C 100.152344 616.78125 99.949219 617.59375 99.707031 618.394531 C 99.464844 619.199219 99.179688 619.988281 98.859375 620.761719 C 98.539062 621.539062 98.183594 622.292969 97.785156 623.035156 C 97.390625 623.773438 96.960938 624.492188 96.496094 625.191406 C 96.03125 625.886719 95.53125 626.5625 95 627.210938 C 94.46875 627.859375 93.90625 628.480469 93.3125 629.074219 C 92.722656 629.664062 92.101562 630.230469 91.453125 630.761719 C 90.804688 631.292969 90.132812 631.792969 89.4375 632.257812 C 88.738281 632.722656 88.023438 633.15625 87.28125 633.550781 C 86.542969 633.945312 85.789062 634.304688 85.011719 634.625 C 84.238281 634.945312 83.449219 635.230469 82.648438 635.472656 C 81.847656 635.714844 81.035156 635.917969 80.214844 636.082031 C 79.390625 636.246094 78.5625 636.371094 77.730469 636.453125 C 76.894531 636.535156 76.058594 636.574219 75.222656 636.574219 Z M 75.222656 636.574219 " fill-opacity="1" fill-rule="nonzero"/><g clip-path="url(#fe82c0fded)"><path fill="#1d1d1b" d="M 19.734375 610.382812 C 19.738281 608.566406 19.832031 606.75 20.011719 604.941406 C 20.195312 603.132812 20.464844 601.335938 20.820312 599.554688 C 21.179688 597.769531 21.625 596.007812 22.152344 594.269531 C 22.683594 592.53125 23.296875 590.820312 23.996094 589.140625 C 24.695312 587.464844 25.472656 585.824219 26.332031 584.222656 C 27.191406 582.617188 28.128906 581.0625 29.140625 579.550781 C 30.152344 578.042969 31.234375 576.585938 32.386719 575.179688 C 33.542969 573.777344 34.765625 572.433594 36.050781 571.148438 C 37.335938 569.863281 38.683594 568.648438 40.089844 567.496094 C 41.496094 566.34375 42.953125 565.265625 44.464844 564.257812 C 45.976562 563.25 47.535156 562.316406 49.140625 561.460938 C 50.742188 560.609375 52.382812 559.832031 54.0625 559.140625 C 55.742188 558.445312 57.449219 557.835938 59.191406 557.3125 C 60.929688 556.785156 62.6875 556.347656 64.472656 555.996094 C 66.253906 555.644531 68.046875 555.378906 69.855469 555.203125 C 71.664062 555.027344 73.476562 554.941406 75.292969 554.941406 C 77.109375 554.945312 78.921875 555.035156 80.730469 555.21875 C 82.535156 555.398438 84.332031 555.667969 86.113281 556.023438 C 87.894531 556.378906 89.652344 556.824219 91.390625 557.351562 C 93.128906 557.882812 94.835938 558.496094 96.511719 559.195312 C 98.191406 559.894531 99.828125 560.671875 101.429688 561.53125 C 103.03125 562.390625 104.585938 563.324219 106.097656 564.335938 C 107.605469 565.347656 109.0625 566.433594 110.464844 567.585938 C 111.867188 568.742188 113.210938 569.964844 114.492188 571.25 C 115.777344 572.539062 116.996094 573.886719 118.144531 575.292969 C 119.296875 576.699219 120.375 578.160156 121.382812 579.671875 C 122.390625 581.183594 123.324219 582.742188 124.179688 584.347656 C 125.03125 585.953125 125.808594 587.59375 126.5 589.277344 C 127.195312 590.957031 127.804688 592.667969 128.332031 594.40625 C 128.855469 596.148438 129.296875 597.910156 129.648438 599.695312 C 130.003906 601.476562 130.265625 603.273438 130.445312 605.085938 C 130.621094 606.894531 130.707031 608.710938 130.707031 610.527344 C 130.707031 612.347656 130.617188 614.160156 130.4375 615.96875 C 130.257812 617.78125 129.992188 619.574219 129.636719 621.359375 C 129.28125 623.144531 128.839844 624.90625 128.308594 626.644531 C 127.78125 628.382812 127.167969 630.09375 126.472656 631.773438 C 125.777344 633.453125 125 635.09375 124.144531 636.699219 C 123.285156 638.300781 122.355469 639.859375 121.34375 641.371094 C 120.335938 642.882812 119.253906 644.34375 118.101562 645.746094 C 116.945312 647.152344 115.726562 648.496094 114.441406 649.785156 C 113.160156 651.070312 111.8125 652.289062 110.410156 653.441406 C 109.003906 654.59375 107.546875 655.675781 106.035156 656.6875 C 104.527344 657.695312 102.96875 658.628906 101.367188 659.488281 C 99.765625 660.34375 98.125 661.121094 96.445312 661.816406 C 94.769531 662.511719 93.058594 663.125 91.320312 663.652344 C 89.582031 664.179688 87.824219 664.621094 86.042969 664.972656 C 84.261719 665.328125 82.464844 665.59375 80.65625 665.773438 C 78.851562 665.953125 77.039062 666.039062 75.222656 666.039062 C 73.402344 666.039062 71.589844 665.945312 69.777344 665.765625 C 67.96875 665.585938 66.171875 665.316406 64.386719 664.957031 C 62.605469 664.601562 60.84375 664.15625 59.101562 663.625 C 57.363281 663.097656 55.652344 662.480469 53.972656 661.78125 C 52.292969 661.085938 50.652344 660.304688 49.050781 659.445312 C 47.445312 658.585938 45.890625 657.648438 44.378906 656.632812 C 42.867188 655.621094 41.410156 654.535156 40.003906 653.378906 C 38.597656 652.222656 37.253906 651 35.96875 649.710938 C 34.683594 648.421875 33.464844 647.074219 32.3125 645.664062 C 31.160156 644.257812 30.082031 642.796875 29.070312 641.28125 C 28.0625 639.765625 27.128906 638.203125 26.273438 636.597656 C 25.417969 634.992188 24.640625 633.347656 23.949219 631.664062 C 23.253906 629.980469 22.640625 628.269531 22.117188 626.523438 C 21.589844 624.78125 21.148438 623.015625 20.796875 621.230469 C 20.441406 619.445312 20.175781 617.644531 20 615.832031 C 19.820312 614.019531 19.734375 612.203125 19.734375 610.382812 Z M 123.519531 610.382812 C 123.515625 608.800781 123.4375 607.222656 123.277344 605.648438 C 123.117188 604.070312 122.882812 602.507812 122.570312 600.957031 C 122.261719 599.40625 121.875 597.871094 121.410156 596.359375 C 120.949219 594.84375 120.414062 593.355469 119.804688 591.894531 C 119.199219 590.433594 118.519531 589.007812 117.773438 587.613281 C 117.023438 586.21875 116.210938 584.863281 115.328125 583.550781 C 114.445312 582.234375 113.503906 580.96875 112.5 579.746094 C 111.492188 578.523438 110.429688 577.355469 109.308594 576.238281 C 108.191406 575.121094 107.019531 574.058594 105.792969 573.058594 C 104.570312 572.054688 103.300781 571.117188 101.984375 570.238281 C 100.667969 569.363281 99.3125 568.550781 97.917969 567.808594 C 96.519531 567.066406 95.089844 566.390625 93.628906 565.789062 C 92.167969 565.183594 90.679688 564.65625 89.167969 564.199219 C 87.652344 563.742188 86.121094 563.359375 84.570312 563.050781 C 83.019531 562.746094 81.457031 562.515625 79.882812 562.363281 C 78.308594 562.210938 76.730469 562.136719 75.148438 562.136719 C 73.570312 562.140625 71.992188 562.21875 70.417969 562.378906 C 68.84375 562.535156 67.285156 562.769531 65.734375 563.082031 C 64.183594 563.390625 62.652344 563.777344 61.140625 564.238281 C 59.625 564.699219 58.140625 565.234375 56.679688 565.84375 C 55.21875 566.449219 53.792969 567.128906 52.398438 567.875 C 51.007812 568.625 49.652344 569.4375 48.339844 570.320312 C 47.027344 571.199219 45.757812 572.144531 44.539062 573.148438 C 43.316406 574.15625 42.148438 575.21875 41.03125 576.339844 C 39.914062 577.460938 38.855469 578.632812 37.851562 579.855469 C 36.851562 581.082031 35.914062 582.351562 35.035156 583.667969 C 34.15625 584.984375 33.347656 586.34375 32.605469 587.738281 C 31.859375 589.136719 31.1875 590.566406 30.582031 592.027344 C 29.976562 593.492188 29.449219 594.980469 28.988281 596.496094 C 28.53125 598.011719 28.148438 599.546875 27.84375 601.097656 C 27.535156 602.652344 27.304688 604.214844 27.152344 605.789062 C 26.996094 607.367188 26.921875 608.945312 26.921875 610.527344 C 26.925781 612.109375 27.003906 613.6875 27.160156 615.265625 C 27.316406 616.839844 27.546875 618.402344 27.855469 619.957031 C 28.167969 621.507812 28.550781 623.042969 29.011719 624.554688 C 29.472656 626.070312 30.003906 627.558594 30.609375 629.019531 C 31.214844 630.484375 31.890625 631.910156 32.636719 633.308594 C 33.382812 634.703125 34.195312 636.058594 35.074219 637.375 C 35.953125 638.691406 36.894531 639.960938 37.898438 641.183594 C 38.902344 642.40625 39.964844 643.578125 41.082031 644.695312 C 42.199219 645.8125 43.371094 646.875 44.59375 647.878906 C 45.816406 648.882812 47.085938 649.824219 48.398438 650.703125 C 49.714844 651.582031 51.070312 652.394531 52.464844 653.140625 C 53.859375 653.886719 55.285156 654.5625 56.746094 655.167969 C 58.207031 655.773438 59.695312 656.304688 61.207031 656.765625 C 62.71875 657.222656 64.253906 657.609375 65.804688 657.917969 C 67.355469 658.226562 68.917969 658.457031 70.488281 658.613281 C 72.0625 658.769531 73.640625 658.84375 75.222656 658.84375 C 76.804688 658.84375 78.382812 658.761719 79.960938 658.605469 C 81.535156 658.449219 83.101562 658.214844 84.652344 657.902344 C 86.203125 657.589844 87.738281 657.203125 89.253906 656.742188 C 90.769531 656.277344 92.257812 655.742188 93.71875 655.136719 C 95.179688 654.527344 96.609375 653.847656 98.003906 653.097656 C 99.398438 652.351562 100.757812 651.535156 102.070312 650.652344 C 103.386719 649.769531 104.65625 648.824219 105.878906 647.816406 C 107.101562 646.8125 108.273438 645.746094 109.390625 644.625 C 110.507812 643.5 111.570312 642.328125 112.574219 641.101562 C 113.578125 639.875 114.515625 638.601562 115.394531 637.28125 C 116.273438 635.964844 117.085938 634.605469 117.832031 633.207031 C 118.574219 631.808594 119.25 630.375 119.855469 628.910156 C 120.460938 627.445312 120.992188 625.953125 121.449219 624.4375 C 121.90625 622.917969 122.292969 621.382812 122.597656 619.828125 C 122.90625 618.273438 123.136719 616.707031 123.292969 615.128906 C 123.445312 613.550781 123.519531 611.96875 123.519531 610.382812 Z M 123.519531 610.382812 " fill-opacity="1" fill-rule="nonzero"/></g><g clip-path="url(#1372689c34)"><path fill="#1d1d1b" d="M 71.628906 555.769531 L 71.628906 389.015625 C 71.628906 388.539062 71.71875 388.078125 71.902344 387.636719 C 72.082031 387.195312 72.34375 386.808594 72.679688 386.472656 C 73.015625 386.132812 73.40625 385.875 73.847656 385.691406 C 74.285156 385.507812 74.746094 385.417969 75.222656 385.417969 C 75.699219 385.417969 76.15625 385.507812 76.597656 385.691406 C 77.035156 385.875 77.425781 386.132812 77.761719 386.472656 C 78.097656 386.808594 78.359375 387.195312 78.542969 387.636719 C 78.722656 388.078125 78.816406 388.539062 78.816406 389.015625 L 78.816406 555.769531 C 78.816406 556.246094 78.722656 556.707031 78.542969 557.148438 C 78.359375 557.585938 78.097656 557.976562 77.761719 558.3125 C 77.425781 558.652344 77.035156 558.910156 76.597656 559.09375 C 76.15625 559.277344 75.699219 559.367188 75.222656 559.367188 C 74.746094 559.367188 74.285156 559.277344 73.847656 559.09375 C 73.40625 558.910156 73.015625 558.652344 72.679688 558.3125 C 72.34375 557.976562 72.082031 557.585938 71.902344 557.148438 C 71.71875 556.707031 71.628906 556.246094 71.628906 555.769531 Z M 71.628906 555.769531 " fill-opacity="1" fill-rule="nonzero"/></g><path fill="#5eb229" d="M 75.222656 914.839844 C 74.382812 914.839844 73.546875 914.796875 72.714844 914.714844 C 71.878906 914.632812 71.050781 914.511719 70.230469 914.347656 C 69.40625 914.183594 68.597656 913.980469 67.792969 913.734375 C 66.992188 913.492188 66.203125 913.210938 65.429688 912.886719 C 64.65625 912.566406 63.898438 912.210938 63.160156 911.8125 C 62.421875 911.417969 61.703125 910.988281 61.007812 910.519531 C 60.308594 910.054688 59.636719 909.554688 58.988281 909.023438 C 58.339844 908.492188 57.722656 907.929688 57.128906 907.335938 C 56.535156 906.742188 55.972656 906.121094 55.441406 905.472656 C 54.910156 904.824219 54.414062 904.152344 53.945312 903.453125 C 53.480469 902.757812 53.050781 902.039062 52.65625 901.296875 C 52.261719 900.558594 51.902344 899.800781 51.582031 899.023438 C 51.261719 898.25 50.980469 897.460938 50.738281 896.660156 C 50.492188 895.855469 50.289062 895.042969 50.125 894.21875 C 49.960938 893.398438 49.839844 892.566406 49.757812 891.734375 C 49.675781 890.898438 49.632812 890.0625 49.632812 889.222656 C 49.632812 888.382812 49.675781 887.546875 49.757812 886.710938 C 49.839844 885.875 49.960938 885.046875 50.125 884.226562 C 50.289062 883.402344 50.492188 882.589844 50.738281 881.785156 C 50.980469 880.984375 51.261719 880.195312 51.582031 879.417969 C 51.902344 878.644531 52.261719 877.886719 52.65625 877.148438 C 53.050781 876.40625 53.480469 875.6875 53.945312 874.992188 C 54.414062 874.292969 54.910156 873.621094 55.441406 872.972656 C 55.972656 872.324219 56.535156 871.703125 57.128906 871.109375 C 57.722656 870.515625 58.339844 869.953125 58.988281 869.421875 C 59.636719 868.890625 60.308594 868.390625 61.007812 867.921875 C 61.703125 867.457031 62.421875 867.027344 63.160156 866.632812 C 63.898438 866.234375 64.65625 865.878906 65.429688 865.554688 C 66.203125 865.234375 66.992188 864.953125 67.792969 864.710938 C 68.597656 864.464844 69.40625 864.261719 70.230469 864.097656 C 71.050781 863.933594 71.878906 863.8125 72.714844 863.730469 C 73.546875 863.648438 74.382812 863.605469 75.222656 863.605469 C 76.058594 863.605469 76.894531 863.648438 77.730469 863.730469 C 78.5625 863.8125 79.390625 863.933594 80.214844 864.097656 C 81.035156 864.261719 81.847656 864.464844 82.648438 864.710938 C 83.449219 864.953125 84.238281 865.234375 85.011719 865.554688 C 85.789062 865.878906 86.542969 866.234375 87.28125 866.632812 C 88.023438 867.027344 88.738281 867.457031 89.4375 867.921875 C 90.132812 868.390625 90.804688 868.890625 91.453125 869.421875 C 92.101562 869.953125 92.722656 870.515625 93.3125 871.109375 C 93.90625 871.703125 94.46875 872.324219 95 872.972656 C 95.53125 873.621094 96.03125 874.292969 96.496094 874.992188 C 96.960938 875.6875 97.390625 876.40625 97.785156 877.148438 C 98.183594 877.886719 98.539062 878.644531 98.859375 879.417969 C 99.179688 880.195312 99.464844 880.984375 99.707031 881.785156 C 99.949219 882.589844 100.152344 883.402344 100.316406 884.226562 C 100.480469 885.046875 100.601562 885.875 100.683594 886.710938 C 100.765625 887.546875 100.808594 888.382812 100.808594 889.222656 C 100.808594 890.0625 100.765625 890.898438 100.683594 891.734375 C 100.601562 892.566406 100.480469 893.398438 100.316406 894.21875 C 100.152344 895.042969 99.949219 895.855469 99.707031 896.660156 C 99.464844 897.460938 99.179688 898.25 98.859375 899.023438 C 98.539062 899.800781 98.183594 900.558594 97.785156 901.296875 C 97.390625 902.039062 96.960938 902.757812 96.496094 903.453125 C 96.03125 904.152344 95.53125 904.824219 95 905.472656 C 94.46875 906.121094 93.90625 906.742188 93.3125 907.335938 C 92.722656 907.929688 92.101562 908.492188 91.453125 909.023438 C 90.804688 909.554688 90.132812 910.054688 89.4375 910.519531 C 88.738281 910.988281 88.023438 911.417969 87.28125 911.8125 C 86.542969 912.210938 85.789062 912.566406 85.011719 912.886719 C 84.238281 913.210938 83.449219 913.492188 82.648438 913.734375 C 81.847656 913.980469 81.035156 914.183594 80.214844 914.347656 C 79.390625 914.511719 78.5625 914.632812 77.730469 914.714844 C 76.894531 914.796875 76.058594 914.839844 75.222656 914.839844 Z M 75.222656 914.839844 " fill-opacity="1" fill-rule="nonzero"/><g clip-path="url(#0f09583708)"><path fill="#1d1d1b" d="M 19.734375 888.648438 C 19.738281 886.828125 19.832031 885.015625 20.011719 883.203125 C 20.195312 881.394531 20.464844 879.597656 20.820312 877.816406 C 21.179688 876.035156 21.625 874.273438 22.152344 872.53125 C 22.683594 870.792969 23.296875 869.085938 23.996094 867.40625 C 24.695312 865.726562 25.472656 864.085938 26.332031 862.484375 C 27.191406 860.882812 28.128906 859.324219 29.140625 857.816406 C 30.152344 856.304688 31.234375 854.847656 32.386719 853.445312 C 33.542969 852.039062 34.765625 850.695312 36.050781 849.414062 C 37.335938 848.128906 38.683594 846.910156 40.089844 845.757812 C 41.496094 844.609375 42.953125 843.527344 44.464844 842.519531 C 45.976562 841.511719 47.535156 840.582031 49.140625 839.726562 C 50.742188 838.871094 52.382812 838.097656 54.0625 837.402344 C 55.742188 836.710938 57.449219 836.101562 59.191406 835.574219 C 60.929688 835.050781 62.6875 834.609375 64.472656 834.257812 C 66.253906 833.90625 68.046875 833.640625 69.855469 833.464844 C 71.664062 833.289062 73.476562 833.203125 75.292969 833.207031 C 77.109375 833.207031 78.921875 833.300781 80.730469 833.480469 C 82.535156 833.660156 84.332031 833.929688 86.113281 834.285156 C 87.894531 834.644531 89.652344 835.085938 91.390625 835.617188 C 93.128906 836.148438 94.835938 836.761719 96.511719 837.457031 C 98.191406 838.15625 99.828125 838.933594 101.429688 839.792969 C 103.03125 840.652344 104.585938 841.589844 106.097656 842.601562 C 107.605469 843.613281 109.0625 844.695312 110.464844 845.851562 C 111.867188 847.003906 113.210938 848.226562 114.492188 849.515625 C 115.777344 850.800781 116.996094 852.148438 118.144531 853.554688 C 119.296875 854.960938 120.375 856.421875 121.382812 857.933594 C 122.390625 859.449219 123.324219 861.007812 124.179688 862.609375 C 125.03125 864.214844 125.808594 865.859375 126.5 867.539062 C 127.195312 869.21875 127.804688 870.929688 128.332031 872.671875 C 128.855469 874.410156 129.296875 876.171875 129.648438 877.957031 C 130.003906 879.742188 130.265625 881.539062 130.445312 883.347656 C 130.621094 885.15625 130.707031 886.972656 130.707031 888.789062 C 130.707031 890.609375 130.617188 892.421875 130.4375 894.234375 C 130.257812 896.042969 129.992188 897.839844 129.636719 899.621094 C 129.28125 901.40625 128.839844 903.167969 128.308594 904.90625 C 127.78125 906.648438 127.167969 908.359375 126.472656 910.039062 C 125.777344 911.71875 125 913.359375 124.144531 914.960938 C 123.285156 916.566406 122.355469 918.125 121.34375 919.636719 C 120.335938 921.148438 119.253906 922.605469 118.101562 924.011719 C 116.945312 925.414062 115.726562 926.761719 114.441406 928.046875 C 113.160156 929.332031 111.8125 930.550781 110.410156 931.703125 C 109.003906 932.859375 107.546875 933.941406 106.035156 934.949219 C 104.527344 935.960938 102.96875 936.894531 101.367188 937.75 C 99.765625 938.605469 98.125 939.382812 96.445312 940.078125 C 94.769531 940.773438 93.058594 941.386719 91.320312 941.914062 C 89.582031 942.441406 87.824219 942.882812 86.042969 943.238281 C 84.261719 943.59375 82.464844 943.859375 80.65625 944.035156 C 78.851562 944.214844 77.039062 944.304688 75.222656 944.304688 C 73.402344 944.300781 71.589844 944.210938 69.777344 944.03125 C 67.96875 943.847656 66.171875 943.578125 64.386719 943.222656 C 62.605469 942.863281 60.84375 942.421875 59.101562 941.890625 C 57.363281 941.359375 55.652344 940.746094 53.972656 940.046875 C 52.292969 939.347656 50.652344 938.566406 49.050781 937.707031 C 47.445312 936.847656 45.890625 935.910156 44.378906 934.898438 C 42.867188 933.882812 41.410156 932.800781 40.003906 931.644531 C 38.597656 930.488281 37.253906 929.261719 35.96875 927.976562 C 34.683594 926.6875 33.464844 925.335938 32.3125 923.929688 C 31.160156 922.519531 30.082031 921.058594 29.070312 919.542969 C 28.0625 918.027344 27.128906 916.46875 26.273438 914.859375 C 25.417969 913.253906 24.640625 911.609375 23.949219 909.925781 C 23.253906 908.242188 22.640625 906.53125 22.117188 904.789062 C 21.589844 903.046875 21.148438 901.28125 20.796875 899.496094 C 20.441406 897.707031 20.175781 895.910156 20 894.097656 C 19.820312 892.285156 19.734375 890.46875 19.734375 888.648438 Z M 123.519531 888.648438 C 123.515625 887.0625 123.4375 885.484375 123.277344 883.910156 C 123.117188 882.335938 122.882812 880.773438 122.570312 879.21875 C 122.261719 877.667969 121.875 876.136719 121.410156 874.621094 C 120.949219 873.109375 120.414062 871.621094 119.804688 870.160156 C 119.199219 868.699219 118.519531 867.269531 117.773438 865.875 C 117.023438 864.480469 116.210938 863.125 115.328125 861.8125 C 114.445312 860.5 113.503906 859.230469 112.5 858.007812 C 111.492188 856.785156 110.429688 855.617188 109.308594 854.5 C 108.191406 853.382812 107.019531 852.324219 105.792969 851.320312 C 104.570312 850.320312 103.300781 849.378906 101.984375 848.503906 C 100.667969 847.625 99.3125 846.816406 97.917969 846.070312 C 96.519531 845.328125 95.089844 844.652344 93.628906 844.050781 C 92.167969 843.449219 90.679688 842.917969 89.167969 842.460938 C 87.652344 842.003906 86.121094 841.621094 84.570312 841.316406 C 83.019531 841.007812 81.457031 840.78125 79.882812 840.625 C 78.308594 840.472656 76.730469 840.398438 75.148438 840.402344 C 73.570312 840.402344 71.992188 840.484375 70.417969 840.640625 C 68.84375 840.796875 67.285156 841.03125 65.734375 841.34375 C 64.183594 841.65625 62.652344 842.039062 61.140625 842.503906 C 59.625 842.964844 58.140625 843.5 56.679688 844.105469 C 55.21875 844.714844 53.792969 845.390625 52.398438 846.140625 C 51.007812 846.886719 49.652344 847.703125 48.339844 848.582031 C 47.027344 849.464844 45.757812 850.40625 44.539062 851.414062 C 43.316406 852.417969 42.148438 853.480469 41.03125 854.601562 C 39.914062 855.722656 38.855469 856.894531 37.851562 858.121094 C 36.851562 859.34375 35.914062 860.613281 35.035156 861.933594 C 34.15625 863.25 33.347656 864.605469 32.605469 866.003906 C 31.859375 867.398438 31.1875 868.828125 30.582031 870.292969 C 29.976562 871.753906 29.449219 873.246094 28.988281 874.757812 C 28.53125 876.273438 28.148438 877.808594 27.84375 879.359375 C 27.535156 880.914062 27.304688 882.476562 27.152344 884.054688 C 26.996094 885.628906 26.921875 887.207031 26.921875 888.789062 C 26.925781 890.375 27.003906 891.953125 27.160156 893.527344 C 27.316406 895.101562 27.546875 896.667969 27.855469 898.21875 C 28.167969 899.769531 28.550781 901.304688 29.011719 902.820312 C 29.472656 904.332031 30.003906 905.820312 30.609375 907.285156 C 31.214844 908.746094 31.890625 910.175781 32.636719 911.570312 C 33.382812 912.964844 34.195312 914.320312 35.074219 915.636719 C 35.953125 916.953125 36.894531 918.222656 37.898438 919.445312 C 38.902344 920.667969 39.964844 921.839844 41.082031 922.957031 C 42.199219 924.078125 43.371094 925.140625 44.59375 926.144531 C 45.816406 927.144531 47.085938 928.085938 48.398438 928.96875 C 49.714844 929.847656 51.070312 930.660156 52.464844 931.402344 C 53.859375 932.148438 55.285156 932.824219 56.746094 933.429688 C 58.207031 934.035156 59.695312 934.570312 61.207031 935.027344 C 62.71875 935.488281 64.253906 935.871094 65.804688 936.179688 C 67.355469 936.488281 68.917969 936.722656 70.488281 936.875 C 72.0625 937.03125 73.640625 937.109375 75.222656 937.109375 C 76.804688 937.105469 78.382812 937.027344 79.960938 936.867188 C 81.535156 936.710938 83.101562 936.476562 84.652344 936.164062 C 86.203125 935.851562 87.738281 935.464844 89.253906 935.003906 C 90.769531 934.542969 92.257812 934.007812 93.71875 933.398438 C 95.179688 932.789062 96.609375 932.109375 98.003906 931.363281 C 99.398438 930.613281 100.757812 929.796875 102.070312 928.914062 C 103.386719 928.03125 104.65625 927.085938 105.878906 926.082031 C 107.101562 925.074219 108.273438 924.007812 109.390625 922.886719 C 110.507812 921.765625 111.570312 920.589844 112.574219 919.363281 C 113.578125 918.136719 114.515625 916.863281 115.394531 915.546875 C 116.273438 914.226562 117.085938 912.867188 117.832031 911.46875 C 118.574219 910.070312 119.25 908.636719 119.855469 907.171875 C 120.460938 905.707031 120.992188 904.214844 121.449219 902.699219 C 121.90625 901.183594 122.292969 899.644531 122.597656 898.089844 C 122.90625 896.535156 123.136719 894.96875 123.292969 893.390625 C 123.445312 891.8125 123.519531 890.230469 123.519531 888.648438 Z M 123.519531 888.648438 " fill-opacity="1" fill-rule="nonzero"/></g><g clip-path="url(#95e3646a3c)"><path fill="#1d1d1b" d="M 71.628906 834.03125 L 71.628906 667.277344 C 71.628906 666.800781 71.71875 666.34375 71.902344 665.902344 C 72.082031 665.460938 72.34375 665.070312 72.679688 664.734375 C 73.015625 664.398438 73.40625 664.136719 73.847656 663.953125 C 74.285156 663.769531 74.746094 663.679688 75.222656 663.679688 C 75.699219 663.679688 76.15625 663.769531 76.597656 663.953125 C 77.035156 664.136719 77.425781 664.398438 77.761719 664.734375 C 78.097656 665.070312 78.359375 665.460938 78.542969 665.902344 C 78.722656 666.34375 78.816406 666.800781 78.816406 667.277344 L 78.816406 834.03125 C 78.816406 834.511719 78.722656 834.96875 78.542969 835.410156 C 78.359375 835.851562 78.097656 836.238281 77.761719 836.578125 C 77.425781 836.914062 77.035156 837.175781 76.597656 837.355469 C 76.15625 837.539062 75.699219 837.632812 75.222656 837.632812 C 74.746094 837.632812 74.285156 837.539062 73.847656 837.355469 C 73.40625 837.175781 73.015625 836.914062 72.679688 836.578125 C 72.34375 836.238281 72.082031 835.851562 71.902344 835.410156 C 71.71875 834.96875 71.628906 834.511719 71.628906 834.03125 Z M 71.628906 834.03125 " fill-opacity="1" fill-rule="nonzero"/></g><path fill="#233dff" d="M 75.222656 1193.101562 C 74.382812 1193.101562 73.546875 1193.0625 72.714844 1192.976562 C 71.878906 1192.894531 71.050781 1192.773438 70.230469 1192.609375 C 69.40625 1192.445312 68.597656 1192.242188 67.792969 1192 C 66.992188 1191.753906 66.203125 1191.472656 65.429688 1191.152344 C 64.65625 1190.832031 63.898438 1190.472656 63.160156 1190.078125 C 62.421875 1189.679688 61.703125 1189.25 61.007812 1188.785156 C 60.308594 1188.320312 59.636719 1187.820312 58.988281 1187.285156 C 58.339844 1186.753906 57.722656 1186.191406 57.128906 1185.597656 C 56.535156 1185.003906 55.972656 1184.386719 55.441406 1183.734375 C 54.910156 1183.085938 54.414062 1182.414062 53.945312 1181.71875 C 53.480469 1181.019531 53.050781 1180.300781 52.65625 1179.5625 C 52.261719 1178.820312 51.902344 1178.0625 51.582031 1177.289062 C 51.261719 1176.511719 50.980469 1175.722656 50.738281 1174.921875 C 50.492188 1174.117188 50.289062 1173.304688 50.125 1172.484375 C 49.960938 1171.660156 49.839844 1170.832031 49.757812 1169.996094 C 49.675781 1169.160156 49.632812 1168.324219 49.632812 1167.484375 C 49.632812 1166.648438 49.675781 1165.808594 49.757812 1164.976562 C 49.839844 1164.140625 49.960938 1163.3125 50.125 1162.488281 C 50.289062 1161.664062 50.492188 1160.851562 50.738281 1160.050781 C 50.980469 1159.246094 51.261719 1158.457031 51.582031 1157.683594 C 51.902344 1156.90625 52.261719 1156.148438 52.65625 1155.410156 C 53.050781 1154.671875 53.480469 1153.953125 53.945312 1153.253906 C 54.414062 1152.558594 54.910156 1151.882812 55.441406 1151.234375 C 55.972656 1150.585938 56.535156 1149.964844 57.128906 1149.371094 C 57.722656 1148.78125 58.339844 1148.214844 58.988281 1147.683594 C 59.636719 1147.152344 60.308594 1146.652344 61.007812 1146.1875 C 61.703125 1145.722656 62.421875 1145.289062 63.160156 1144.894531 C 63.898438 1144.5 64.65625 1144.140625 65.429688 1143.820312 C 66.203125 1143.5 66.992188 1143.214844 67.792969 1142.972656 C 68.597656 1142.730469 69.40625 1142.527344 70.230469 1142.363281 C 71.050781 1142.199219 71.878906 1142.074219 72.714844 1141.992188 C 73.546875 1141.910156 74.382812 1141.871094 75.222656 1141.871094 C 76.058594 1141.871094 76.894531 1141.910156 77.730469 1141.992188 C 78.5625 1142.074219 79.390625 1142.199219 80.214844 1142.363281 C 81.035156 1142.527344 81.847656 1142.730469 82.648438 1142.972656 C 83.449219 1143.214844 84.238281 1143.5 85.011719 1143.820312 C 85.789062 1144.140625 86.542969 1144.5 87.28125 1144.894531 C 88.023438 1145.289062 88.738281 1145.722656 89.4375 1146.1875 C 90.132812 1146.652344 90.804688 1147.152344 91.453125 1147.683594 C 92.101562 1148.214844 92.722656 1148.78125 93.3125 1149.371094 C 93.90625 1149.964844 94.46875 1150.585938 95 1151.234375 C 95.53125 1151.882812 96.03125 1152.558594 96.496094 1153.253906 C 96.960938 1153.953125 97.390625 1154.671875 97.785156 1155.410156 C 98.183594 1156.148438 98.539062 1156.90625 98.859375 1157.683594 C 99.179688 1158.457031 99.464844 1159.246094 99.707031 1160.050781 C 99.949219 1160.851562 100.152344 1161.664062 100.316406 1162.488281 C 100.480469 1163.3125 100.601562 1164.140625 100.683594 1164.976562 C 100.765625 1165.808594 100.808594 1166.648438 100.808594 1167.484375 C 100.808594 1168.324219 100.765625 1169.160156 100.683594 1169.996094 C 100.601562 1170.832031 100.480469 1171.660156 100.316406 1172.484375 C 100.152344 1173.304688 99.949219 1174.117188 99.707031 1174.921875 C 99.464844 1175.722656 99.179688 1176.511719 98.859375 1177.289062 C 98.539062 1178.0625 98.183594 1178.820312 97.785156 1179.5625 C 97.390625 1180.300781 96.960938 1181.019531 96.496094 1181.71875 C 96.03125 1182.414062 95.53125 1183.085938 95 1183.734375 C 94.46875 1184.386719 93.90625 1185.003906 93.3125 1185.597656 C 92.722656 1186.191406 92.101562 1186.753906 91.453125 1187.285156 C 90.804688 1187.820312 90.132812 1188.320312 89.4375 1188.785156 C 88.738281 1189.25 88.023438 1189.679688 87.28125 1190.078125 C 86.542969 1190.472656 85.789062 1190.832031 85.011719 1191.152344 C 84.238281 1191.472656 83.449219 1191.753906 82.648438 1192 C 81.847656 1192.242188 81.035156 1192.445312 80.214844 1192.609375 C 79.390625 1192.773438 78.5625 1192.894531 77.730469 1192.976562 C 76.894531 1193.0625 76.058594 1193.101562 75.222656 1193.101562 Z M 75.222656 1193.101562 " fill-opacity="1" fill-rule="nonzero"/><g clip-path="url(#c6f1ac6a99)"><path fill="#1d1d1b" d="M 19.734375 1166.910156 C 19.738281 1165.089844 19.832031 1163.277344 20.011719 1161.46875 C 20.195312 1159.660156 20.464844 1157.863281 20.820312 1156.078125 C 21.179688 1154.296875 21.625 1152.535156 22.152344 1150.796875 C 22.683594 1149.058594 23.296875 1147.347656 23.996094 1145.667969 C 24.695312 1143.988281 25.472656 1142.347656 26.332031 1140.746094 C 27.191406 1139.144531 28.128906 1137.589844 29.140625 1136.078125 C 30.152344 1134.566406 31.234375 1133.109375 32.386719 1131.707031 C 33.542969 1130.304688 34.765625 1128.960938 36.050781 1127.675781 C 37.335938 1126.390625 38.683594 1125.175781 40.089844 1124.023438 C 41.496094 1122.871094 42.953125 1121.792969 44.464844 1120.78125 C 45.976562 1119.773438 47.535156 1118.84375 49.140625 1117.988281 C 50.742188 1117.132812 52.382812 1116.359375 54.0625 1115.667969 C 55.742188 1114.972656 57.449219 1114.363281 59.191406 1113.839844 C 60.929688 1113.3125 62.6875 1112.875 64.472656 1112.519531 C 66.253906 1112.167969 68.046875 1111.90625 69.855469 1111.730469 C 71.664062 1111.554688 73.476562 1111.464844 75.292969 1111.46875 C 77.109375 1111.472656 78.921875 1111.5625 80.730469 1111.742188 C 82.535156 1111.921875 84.332031 1112.191406 86.113281 1112.550781 C 87.894531 1112.90625 89.652344 1113.351562 91.390625 1113.878906 C 93.128906 1114.410156 94.835938 1115.023438 96.511719 1115.722656 C 98.191406 1116.417969 99.828125 1117.199219 101.429688 1118.058594 C 103.03125 1118.914062 104.585938 1119.851562 106.097656 1120.863281 C 107.605469 1121.875 109.0625 1122.957031 110.464844 1124.113281 C 111.867188 1125.269531 113.210938 1126.488281 114.492188 1127.777344 C 115.777344 1129.0625 116.996094 1130.410156 118.144531 1131.816406 C 119.296875 1133.226562 120.375 1134.683594 121.382812 1136.199219 C 122.390625 1137.710938 123.324219 1139.269531 124.179688 1140.875 C 125.03125 1142.476562 125.808594 1144.121094 126.5 1145.800781 C 127.195312 1147.484375 127.804688 1149.191406 128.332031 1150.933594 C 128.855469 1152.675781 129.296875 1154.4375 129.648438 1156.21875 C 130.003906 1158.003906 130.265625 1159.800781 130.445312 1161.609375 C 130.621094 1163.421875 130.707031 1165.234375 130.707031 1167.054688 C 130.707031 1168.871094 130.617188 1170.6875 130.4375 1172.496094 C 130.257812 1174.304688 129.992188 1176.101562 129.636719 1177.886719 C 129.28125 1179.667969 128.839844 1181.429688 128.308594 1183.171875 C 127.78125 1184.910156 127.167969 1186.621094 126.472656 1188.300781 C 125.777344 1189.980469 125 1191.621094 124.144531 1193.226562 C 123.285156 1194.828125 122.355469 1196.386719 121.34375 1197.898438 C 120.335938 1199.410156 119.253906 1200.867188 118.101562 1202.273438 C 116.945312 1203.679688 115.726562 1205.023438 114.441406 1206.308594 C 113.160156 1207.59375 111.8125 1208.816406 110.410156 1209.96875 C 109.003906 1211.121094 107.546875 1212.203125 106.035156 1213.210938 C 104.527344 1214.222656 102.96875 1215.15625 101.367188 1216.011719 C 99.765625 1216.871094 98.125 1217.644531 96.445312 1218.34375 C 94.769531 1219.039062 93.058594 1219.648438 91.320312 1220.175781 C 89.582031 1220.703125 87.824219 1221.144531 86.042969 1221.5 C 84.261719 1221.855469 82.464844 1222.121094 80.65625 1222.300781 C 78.851562 1222.476562 77.039062 1222.566406 75.222656 1222.566406 C 73.402344 1222.566406 71.589844 1222.472656 69.777344 1222.292969 C 67.96875 1222.113281 66.171875 1221.84375 64.386719 1221.484375 C 62.605469 1221.128906 60.84375 1220.683594 59.101562 1220.152344 C 57.363281 1219.621094 55.652344 1219.007812 53.972656 1218.308594 C 52.292969 1217.609375 50.652344 1216.832031 49.050781 1215.972656 C 47.445312 1215.109375 45.890625 1214.175781 44.378906 1213.160156 C 42.867188 1212.148438 41.410156 1211.0625 40.003906 1209.90625 C 38.597656 1208.75 37.253906 1207.527344 35.96875 1206.238281 C 34.683594 1204.949219 33.464844 1203.601562 32.3125 1202.191406 C 31.160156 1200.78125 30.082031 1199.320312 29.070312 1197.804688 C 28.0625 1196.292969 27.128906 1194.730469 26.273438 1193.125 C 25.417969 1191.515625 24.640625 1189.871094 23.949219 1188.191406 C 23.253906 1186.507812 22.640625 1184.792969 22.117188 1183.050781 C 21.589844 1181.308594 21.148438 1179.542969 20.796875 1177.757812 C 20.441406 1175.972656 20.175781 1174.171875 20 1172.359375 C 19.820312 1170.546875 19.734375 1168.730469 19.734375 1166.910156 Z M 123.519531 1166.910156 C 123.515625 1165.328125 123.4375 1163.75 123.277344 1162.171875 C 123.117188 1160.597656 122.882812 1159.035156 122.570312 1157.484375 C 122.261719 1155.929688 121.875 1154.398438 121.410156 1152.886719 C 120.949219 1151.371094 120.414062 1149.882812 119.804688 1148.421875 C 119.199219 1146.960938 118.519531 1145.535156 117.773438 1144.140625 C 117.023438 1142.746094 116.210938 1141.390625 115.328125 1140.074219 C 114.445312 1138.761719 113.503906 1137.492188 112.5 1136.273438 C 111.492188 1135.050781 110.429688 1133.878906 109.308594 1132.761719 C 108.191406 1131.644531 107.019531 1130.585938 105.792969 1129.585938 C 104.570312 1128.582031 103.300781 1127.644531 101.984375 1126.765625 C 100.667969 1125.890625 99.3125 1125.078125 97.917969 1124.335938 C 96.519531 1123.589844 95.089844 1122.917969 93.628906 1122.3125 C 92.167969 1121.710938 90.679688 1121.179688 89.167969 1120.722656 C 87.652344 1120.265625 86.121094 1119.886719 84.570312 1119.578125 C 83.019531 1119.273438 81.457031 1119.042969 79.882812 1118.890625 C 78.308594 1118.738281 76.730469 1118.660156 75.148438 1118.664062 C 73.570312 1118.667969 71.992188 1118.746094 70.417969 1118.902344 C 68.84375 1119.0625 67.285156 1119.296875 65.734375 1119.605469 C 64.183594 1119.917969 62.652344 1120.304688 61.140625 1120.765625 C 59.625 1121.226562 58.140625 1121.761719 56.679688 1122.371094 C 55.21875 1122.976562 53.792969 1123.65625 52.398438 1124.402344 C 51.007812 1125.152344 49.652344 1125.964844 48.339844 1126.847656 C 47.027344 1127.726562 45.757812 1128.671875 44.539062 1129.675781 C 43.316406 1130.679688 42.148438 1131.746094 41.03125 1132.863281 C 39.914062 1133.984375 38.855469 1135.15625 37.851562 1136.382812 C 36.851562 1137.605469 35.914062 1138.878906 35.035156 1140.195312 C 34.15625 1141.511719 33.347656 1142.867188 32.605469 1144.265625 C 31.859375 1145.664062 31.1875 1147.09375 30.582031 1148.554688 C 29.976562 1150.019531 29.449219 1151.507812 28.988281 1153.023438 C 28.53125 1154.539062 28.148438 1156.070312 27.84375 1157.625 C 27.535156 1159.175781 27.304688 1160.742188 27.152344 1162.316406 C 26.996094 1163.890625 26.921875 1165.472656 26.921875 1167.054688 C 26.925781 1168.636719 27.003906 1170.214844 27.160156 1171.789062 C 27.316406 1173.367188 27.546875 1174.929688 27.855469 1176.480469 C 28.167969 1178.035156 28.550781 1179.566406 29.011719 1181.082031 C 29.472656 1182.597656 30.003906 1184.085938 30.609375 1185.546875 C 31.214844 1187.007812 31.890625 1188.4375 32.636719 1189.832031 C 33.382812 1191.230469 34.195312 1192.585938 35.074219 1193.902344 C 35.953125 1195.214844 36.894531 1196.484375 37.898438 1197.707031 C 38.902344 1198.933594 39.964844 1200.101562 41.082031 1201.222656 C 42.199219 1202.339844 43.371094 1203.402344 44.59375 1204.40625 C 45.816406 1205.410156 47.085938 1206.351562 48.398438 1207.230469 C 49.714844 1208.109375 51.070312 1208.921875 52.464844 1209.667969 C 53.859375 1210.414062 55.285156 1211.089844 56.746094 1211.695312 C 58.207031 1212.300781 59.695312 1212.832031 61.207031 1213.292969 C 62.71875 1213.75 64.253906 1214.136719 65.804688 1214.445312 C 67.355469 1214.753906 68.917969 1214.984375 70.488281 1215.140625 C 72.0625 1215.292969 73.640625 1215.371094 75.222656 1215.371094 C 76.804688 1215.371094 78.382812 1215.289062 79.960938 1215.132812 C 81.535156 1214.972656 83.101562 1214.738281 84.652344 1214.429688 C 86.203125 1214.117188 87.738281 1213.730469 89.253906 1213.265625 C 90.769531 1212.804688 92.257812 1212.269531 93.71875 1211.660156 C 95.179688 1211.054688 96.609375 1210.375 98.003906 1209.625 C 99.398438 1208.875 100.757812 1208.058594 102.070312 1207.179688 C 103.386719 1206.296875 104.65625 1205.351562 105.878906 1204.34375 C 107.101562 1203.335938 108.273438 1202.273438 109.390625 1201.148438 C 110.507812 1200.027344 111.570312 1198.851562 112.574219 1197.628906 C 113.578125 1196.402344 114.515625 1195.128906 115.394531 1193.808594 C 116.273438 1192.488281 117.085938 1191.132812 117.832031 1189.730469 C 118.574219 1188.332031 119.25 1186.902344 119.855469 1185.4375 C 120.460938 1183.972656 120.992188 1182.480469 121.449219 1180.960938 C 121.90625 1179.445312 122.292969 1177.910156 122.597656 1176.355469 C 122.90625 1174.796875 123.136719 1173.230469 123.292969 1171.65625 C 123.445312 1170.078125 123.519531 1168.496094 123.519531 1166.910156 Z M 123.519531 1166.910156 " fill-opacity="1" fill-rule="nonzero"/></g><g clip-path="url(#1b9ce1531a)"><path fill="#1d1d1b" d="M 71.628906 1112.296875 L 71.628906 945.542969 C 71.628906 945.0625 71.71875 944.605469 71.902344 944.164062 C 72.082031 943.722656 72.34375 943.335938 72.679688 942.996094 C 73.015625 942.660156 73.40625 942.398438 73.847656 942.21875 C 74.285156 942.035156 74.746094 941.941406 75.222656 941.941406 C 75.699219 941.941406 76.15625 942.035156 76.597656 942.21875 C 77.035156 942.398438 77.425781 942.660156 77.761719 942.996094 C 78.097656 943.335938 78.359375 943.722656 78.542969 944.164062 C 78.722656 944.605469 78.816406 945.0625 78.816406 945.542969 L 78.816406 1112.296875 C 78.816406 1112.773438 78.722656 1113.230469 78.542969 1113.671875 C 78.359375 1114.113281 78.097656 1114.503906 77.761719 1114.839844 C 77.425781 1115.175781 77.035156 1115.4375 76.597656 1115.621094 C 76.15625 1115.804688 75.699219 1115.894531 75.222656 1115.894531 C 74.746094 1115.894531 74.285156 1115.804688 73.847656 1115.621094 C 73.40625 1115.4375 73.015625 1115.175781 72.679688 1114.839844 C 72.34375 1114.503906 72.082031 1114.113281 71.902344 1113.671875 C 71.71875 1113.230469 71.628906 1112.773438 71.628906 1112.296875 Z M 71.628906 1112.296875 " fill-opacity="1" fill-rule="nonzero"/></g><path fill="#5eb229" d="M 75.222656 1470.425781 C 74.382812 1470.425781 73.546875 1470.382812 72.714844 1470.300781 C 71.878906 1470.21875 71.050781 1470.09375 70.230469 1469.933594 C 69.40625 1469.769531 68.597656 1469.566406 67.792969 1469.320312 C 66.992188 1469.078125 66.203125 1468.796875 65.429688 1468.472656 C 64.65625 1468.152344 63.898438 1467.792969 63.160156 1467.398438 C 62.421875 1467.003906 61.703125 1466.574219 61.007812 1466.105469 C 60.308594 1465.640625 59.636719 1465.140625 58.988281 1464.609375 C 58.339844 1464.078125 57.722656 1463.515625 57.128906 1462.921875 C 56.535156 1462.328125 55.972656 1461.707031 55.441406 1461.058594 C 54.910156 1460.410156 54.414062 1459.738281 53.945312 1459.039062 C 53.480469 1458.34375 53.050781 1457.625 52.65625 1456.882812 C 52.261719 1456.144531 51.902344 1455.386719 51.582031 1454.609375 C 51.261719 1453.835938 50.980469 1453.046875 50.738281 1452.242188 C 50.492188 1451.441406 50.289062 1450.628906 50.125 1449.804688 C 49.960938 1448.984375 49.839844 1448.152344 49.757812 1447.320312 C 49.675781 1446.484375 49.632812 1445.648438 49.632812 1444.808594 C 49.632812 1443.96875 49.675781 1443.132812 49.757812 1442.296875 C 49.839844 1441.460938 49.960938 1440.632812 50.125 1439.8125 C 50.289062 1438.988281 50.492188 1438.175781 50.738281 1437.371094 C 50.980469 1436.570312 51.261719 1435.78125 51.582031 1435.003906 C 51.902344 1434.230469 52.261719 1433.472656 52.65625 1432.734375 C 53.050781 1431.992188 53.480469 1431.273438 53.945312 1430.578125 C 54.414062 1429.878906 54.910156 1429.207031 55.441406 1428.558594 C 55.972656 1427.910156 56.535156 1427.289062 57.128906 1426.695312 C 57.722656 1426.101562 58.339844 1425.539062 58.988281 1425.007812 C 59.636719 1424.472656 60.308594 1423.976562 61.007812 1423.507812 C 61.703125 1423.042969 62.421875 1422.613281 63.160156 1422.21875 C 63.898438 1421.820312 64.65625 1421.464844 65.429688 1421.140625 C 66.203125 1420.820312 66.992188 1420.539062 67.792969 1420.296875 C 68.597656 1420.050781 69.40625 1419.847656 70.230469 1419.683594 C 71.050781 1419.519531 71.878906 1419.398438 72.714844 1419.316406 C 73.546875 1419.234375 74.382812 1419.191406 75.222656 1419.191406 C 76.058594 1419.191406 76.894531 1419.234375 77.730469 1419.316406 C 78.5625 1419.398438 79.390625 1419.519531 80.214844 1419.683594 C 81.035156 1419.847656 81.847656 1420.050781 82.648438 1420.296875 C 83.449219 1420.539062 84.238281 1420.820312 85.011719 1421.140625 C 85.789062 1421.464844 86.542969 1421.820312 87.28125 1422.21875 C 88.023438 1422.613281 88.738281 1423.042969 89.4375 1423.507812 C 90.132812 1423.976562 90.804688 1424.472656 91.453125 1425.007812 C 92.101562 1425.539062 92.722656 1426.101562 93.3125 1426.695312 C 93.90625 1427.289062 94.46875 1427.910156 95 1428.558594 C 95.53125 1429.207031 96.03125 1429.878906 96.496094 1430.578125 C 96.960938 1431.273438 97.390625 1431.992188 97.785156 1432.734375 C 98.183594 1433.472656 98.539062 1434.230469 98.859375 1435.003906 C 99.179688 1435.78125 99.464844 1436.570312 99.707031 1437.371094 C 99.949219 1438.175781 100.152344 1438.988281 100.316406 1439.8125 C 100.480469 1440.632812 100.601562 1441.460938 100.683594 1442.296875 C 100.765625 1443.132812 100.808594 1443.96875 100.808594 1444.808594 C 100.808594 1445.648438 100.765625 1446.484375 100.683594 1447.320312 C 100.601562 1448.152344 100.480469 1448.984375 100.316406 1449.804688 C 100.152344 1450.628906 99.949219 1451.441406 99.707031 1452.242188 C 99.464844 1453.046875 99.179688 1453.835938 98.859375 1454.609375 C 98.539062 1455.386719 98.183594 1456.144531 97.785156 1456.882812 C 97.390625 1457.625 96.960938 1458.34375 96.496094 1459.039062 C 96.03125 1459.738281 95.53125 1460.410156 95 1461.058594 C 94.46875 1461.707031 93.90625 1462.328125 93.3125 1462.921875 C 92.722656 1463.515625 92.101562 1464.078125 91.453125 1464.609375 C 90.804688 1465.140625 90.132812 1465.640625 89.4375 1466.105469 C 88.738281 1466.574219 88.023438 1467.003906 87.28125 1467.398438 C 86.542969 1467.792969 85.789062 1468.152344 85.011719 1468.472656 C 84.238281 1468.796875 83.449219 1469.078125 82.648438 1469.320312 C 81.847656 1469.566406 81.035156 1469.769531 80.214844 1469.933594 C 79.390625 1470.09375 78.5625 1470.21875 77.730469 1470.300781 C 76.894531 1470.382812 76.058594 1470.425781 75.222656 1470.425781 Z M 75.222656 1470.425781 " fill-opacity="1" fill-rule="nonzero"/><g clip-path="url(#ed4fd33dbc)"><path fill="#1d1d1b" d="M 19.734375 1444.234375 C 19.738281 1442.414062 19.832031 1440.601562 20.011719 1438.789062 C 20.195312 1436.980469 20.464844 1435.183594 20.820312 1433.402344 C 21.179688 1431.617188 21.625 1429.859375 22.152344 1428.117188 C 22.683594 1426.378906 23.296875 1424.671875 23.996094 1422.992188 C 24.695312 1421.3125 25.472656 1419.671875 26.332031 1418.070312 C 27.191406 1416.46875 28.128906 1414.910156 29.140625 1413.402344 C 30.152344 1411.890625 31.234375 1410.433594 32.386719 1409.027344 C 33.542969 1407.625 34.765625 1406.28125 36.050781 1404.996094 C 37.335938 1403.714844 38.683594 1402.496094 40.089844 1401.34375 C 41.496094 1400.195312 42.953125 1399.113281 44.464844 1398.105469 C 45.976562 1397.097656 47.535156 1396.167969 49.140625 1395.3125 C 50.742188 1394.457031 52.382812 1393.683594 54.0625 1392.988281 C 55.742188 1392.296875 57.449219 1391.6875 59.191406 1391.160156 C 60.929688 1390.636719 62.6875 1390.195312 64.472656 1389.84375 C 66.253906 1389.492188 68.046875 1389.226562 69.855469 1389.050781 C 71.664062 1388.875 73.476562 1388.789062 75.292969 1388.792969 C 77.109375 1388.792969 78.921875 1388.886719 80.730469 1389.066406 C 82.535156 1389.246094 84.332031 1389.515625 86.113281 1389.871094 C 87.894531 1390.230469 89.652344 1390.671875 91.390625 1391.203125 C 93.128906 1391.730469 94.835938 1392.347656 96.511719 1393.042969 C 98.191406 1393.742188 99.828125 1394.519531 101.429688 1395.378906 C 103.03125 1396.238281 104.585938 1397.171875 106.097656 1398.183594 C 107.605469 1399.199219 109.0625 1400.28125 110.464844 1401.4375 C 111.867188 1402.589844 113.210938 1403.8125 114.492188 1405.097656 C 115.777344 1406.386719 116.996094 1407.734375 118.144531 1409.140625 C 119.296875 1410.546875 120.375 1412.007812 121.382812 1413.519531 C 122.390625 1415.03125 123.324219 1416.589844 124.179688 1418.195312 C 125.03125 1419.800781 125.808594 1421.445312 126.5 1423.125 C 127.195312 1424.804688 127.804688 1426.515625 128.332031 1428.257812 C 128.855469 1429.996094 129.296875 1431.757812 129.648438 1433.542969 C 130.003906 1435.328125 130.265625 1437.125 130.445312 1438.933594 C 130.621094 1440.742188 130.707031 1442.558594 130.707031 1444.375 C 130.707031 1446.195312 130.617188 1448.007812 130.4375 1449.820312 C 130.257812 1451.628906 129.992188 1453.425781 129.636719 1455.207031 C 129.28125 1456.992188 128.839844 1458.753906 128.308594 1460.492188 C 127.78125 1462.234375 127.167969 1463.941406 126.472656 1465.621094 C 125.777344 1467.304688 125 1468.945312 124.144531 1470.546875 C 123.285156 1472.152344 122.355469 1473.707031 121.34375 1475.21875 C 120.335938 1476.730469 119.253906 1478.191406 118.101562 1479.597656 C 116.945312 1481 115.726562 1482.347656 114.441406 1483.632812 C 113.160156 1484.917969 111.8125 1486.136719 110.410156 1487.289062 C 109.003906 1488.445312 107.546875 1489.523438 106.035156 1490.535156 C 104.527344 1491.546875 102.96875 1492.480469 101.367188 1493.335938 C 99.765625 1494.191406 98.125 1494.96875 96.445312 1495.664062 C 94.769531 1496.359375 93.058594 1496.972656 91.320312 1497.5 C 89.582031 1498.027344 87.824219 1498.46875 86.042969 1498.824219 C 84.261719 1499.175781 82.464844 1499.445312 80.65625 1499.621094 C 78.851562 1499.800781 77.039062 1499.890625 75.222656 1499.890625 C 73.402344 1499.886719 71.589844 1499.796875 69.777344 1499.613281 C 67.96875 1499.433594 66.171875 1499.164062 64.386719 1498.808594 C 62.605469 1498.449219 60.84375 1498.007812 59.101562 1497.476562 C 57.363281 1496.945312 55.652344 1496.332031 53.972656 1495.632812 C 52.292969 1494.933594 50.652344 1494.152344 49.050781 1493.292969 C 47.445312 1492.433594 45.890625 1491.496094 44.378906 1490.484375 C 42.867188 1489.46875 41.410156 1488.386719 40.003906 1487.226562 C 38.597656 1486.070312 37.253906 1484.847656 35.96875 1483.558594 C 34.683594 1482.273438 33.464844 1480.921875 32.3125 1479.515625 C 31.160156 1478.105469 30.082031 1476.644531 29.070312 1475.128906 C 28.0625 1473.613281 27.128906 1472.054688 26.273438 1470.445312 C 25.417969 1468.839844 24.640625 1467.195312 23.949219 1465.511719 C 23.253906 1463.828125 22.640625 1462.117188 22.117188 1460.375 C 21.589844 1458.628906 21.148438 1456.867188 20.796875 1455.078125 C 20.441406 1453.292969 20.175781 1451.496094 20 1449.683594 C 19.820312 1447.871094 19.734375 1446.054688 19.734375 1444.234375 Z M 123.519531 1444.234375 C 123.515625 1442.648438 123.4375 1441.070312 123.277344 1439.496094 C 123.117188 1437.921875 122.882812 1436.359375 122.570312 1434.804688 C 122.261719 1433.253906 121.875 1431.722656 121.410156 1430.207031 C 120.949219 1428.695312 120.414062 1427.207031 119.804688 1425.746094 C 119.199219 1424.285156 118.519531 1422.855469 117.773438 1421.460938 C 117.023438 1420.066406 116.210938 1418.710938 115.328125 1417.398438 C 114.445312 1416.082031 113.503906 1414.816406 112.5 1413.59375 C 111.492188 1412.371094 110.429688 1411.203125 109.308594 1410.085938 C 108.191406 1408.96875 107.019531 1407.910156 105.792969 1406.90625 C 104.570312 1405.90625 103.300781 1404.964844 101.984375 1404.089844 C 100.667969 1403.210938 99.3125 1402.402344 97.917969 1401.65625 C 96.519531 1400.914062 95.089844 1400.238281 93.628906 1399.636719 C 92.167969 1399.035156 90.679688 1398.503906 89.167969 1398.046875 C 87.652344 1397.589844 86.121094 1397.207031 84.570312 1396.902344 C 83.019531 1396.59375 81.457031 1396.363281 79.882812 1396.210938 C 78.308594 1396.058594 76.730469 1395.984375 75.148438 1395.988281 C 73.570312 1395.988281 71.992188 1396.070312 70.417969 1396.226562 C 68.84375 1396.382812 67.285156 1396.617188 65.734375 1396.929688 C 64.183594 1397.238281 62.652344 1397.625 61.140625 1398.085938 C 59.625 1398.550781 58.140625 1399.082031 56.679688 1399.691406 C 55.21875 1400.300781 53.792969 1400.976562 52.398438 1401.726562 C 51.007812 1402.472656 49.652344 1403.289062 48.339844 1404.167969 C 47.027344 1405.050781 45.757812 1405.992188 44.539062 1407 C 43.316406 1408.003906 42.148438 1409.066406 41.03125 1410.1875 C 39.914062 1411.308594 38.855469 1412.480469 37.851562 1413.707031 C 36.851562 1414.929688 35.914062 1416.199219 35.035156 1417.519531 C 34.15625 1418.835938 33.347656 1420.191406 32.605469 1421.589844 C 31.859375 1422.984375 31.1875 1424.414062 30.582031 1425.878906 C 29.976562 1427.339844 29.449219 1428.828125 28.988281 1430.34375 C 28.53125 1431.859375 28.148438 1433.394531 27.84375 1434.945312 C 27.535156 1436.5 27.304688 1438.0625 27.152344 1439.640625 C 26.996094 1441.214844 26.921875 1442.792969 26.921875 1444.375 C 26.925781 1445.960938 27.003906 1447.539062 27.160156 1449.113281 C 27.316406 1450.6875 27.546875 1452.253906 27.855469 1453.804688 C 28.167969 1455.355469 28.550781 1456.890625 29.011719 1458.40625 C 29.472656 1459.917969 30.003906 1461.40625 30.609375 1462.871094 C 31.214844 1464.332031 31.890625 1465.761719 32.636719 1467.15625 C 33.382812 1468.550781 34.195312 1469.90625 35.074219 1471.222656 C 35.953125 1472.539062 36.894531 1473.808594 37.898438 1475.03125 C 38.902344 1476.253906 39.964844 1477.425781 41.082031 1478.542969 C 42.199219 1479.664062 43.371094 1480.722656 44.59375 1481.726562 C 45.816406 1482.730469 47.085938 1483.671875 48.398438 1484.550781 C 49.714844 1485.429688 51.070312 1486.242188 52.464844 1486.988281 C 53.859375 1487.734375 55.285156 1488.410156 56.746094 1489.015625 C 58.207031 1489.621094 59.695312 1490.15625 61.207031 1490.613281 C 62.71875 1491.074219 64.253906 1491.457031 65.804688 1491.765625 C 67.355469 1492.074219 68.917969 1492.304688 70.488281 1492.460938 C 72.0625 1492.617188 73.640625 1492.695312 75.222656 1492.695312 C 76.804688 1492.691406 78.382812 1492.613281 79.960938 1492.453125 C 81.535156 1492.296875 83.101562 1492.0625 84.652344 1491.75 C 86.203125 1491.4375 87.738281 1491.050781 89.253906 1490.589844 C 90.769531 1490.128906 92.257812 1489.59375 93.71875 1488.984375 C 95.179688 1488.375 96.609375 1487.695312 98.003906 1486.949219 C 99.398438 1486.199219 100.757812 1485.382812 102.070312 1484.5 C 103.386719 1483.617188 104.65625 1482.671875 105.878906 1481.667969 C 107.101562 1480.660156 108.273438 1479.59375 109.390625 1478.472656 C 110.507812 1477.351562 111.570312 1476.175781 112.574219 1474.949219 C 113.578125 1473.722656 114.515625 1472.449219 115.394531 1471.132812 C 116.273438 1469.8125 117.085938 1468.453125 117.832031 1467.054688 C 118.574219 1465.65625 119.25 1464.222656 119.855469 1462.757812 C 120.460938 1461.292969 120.992188 1459.800781 121.449219 1458.285156 C 121.90625 1456.765625 122.292969 1455.230469 122.597656 1453.675781 C 122.90625 1452.121094 123.136719 1450.554688 123.292969 1448.976562 C 123.445312 1447.398438 123.519531 1445.816406 123.519531 1444.234375 Z M 123.519531 1444.234375 " fill-opacity="1" fill-rule="nonzero"/></g><g clip-path="url(#d6f369e335)"><path fill="#1d1d1b" d="M 71.628906 1389.617188 L 71.628906 1222.863281 C 71.628906 1222.386719 71.71875 1221.925781 71.902344 1221.488281 C 72.082031 1221.046875 72.34375 1220.65625 72.679688 1220.320312 C 73.015625 1219.980469 73.40625 1219.722656 73.847656 1219.539062 C 74.285156 1219.355469 74.746094 1219.265625 75.222656 1219.265625 C 75.699219 1219.265625 76.15625 1219.355469 76.597656 1219.539062 C 77.035156 1219.722656 77.425781 1219.980469 77.761719 1220.320312 C 78.097656 1220.65625 78.359375 1221.046875 78.542969 1221.488281 C 78.722656 1221.925781 78.816406 1222.386719 78.816406 1222.863281 L 78.816406 1389.617188 C 78.816406 1390.097656 78.722656 1390.554688 78.542969 1390.996094 C 78.359375 1391.4375 78.097656 1391.824219 77.761719 1392.164062 C 77.425781 1392.5 77.035156 1392.761719 76.597656 1392.941406 C 76.15625 1393.125 75.699219 1393.214844 75.222656 1393.214844 C 74.746094 1393.214844 74.285156 1393.125 73.847656 1392.941406 C 73.40625 1392.761719 73.015625 1392.5 72.679688 1392.164062 C 72.34375 1391.824219 72.082031 1391.4375 71.902344 1390.996094 C 71.71875 1390.554688 71.628906 1390.097656 71.628906 1389.617188 Z M 71.628906 1389.617188 " fill-opacity="1" fill-rule="nonzero"/></g></svg>