<svg xmlns="http://www.w3.org/2000/svg" xmlns:xlink="http://www.w3.org/1999/xlink" width="1200" zoomAndPan="magnify" viewBox="0 0 900 899.99999" height="1200" preserveAspectRatio="xMidYMid meet" version="1.0"><path fill="#000000" d="M 359.929688 90 C 322.890625 90 292.585938 120.304688 292.585938 157.34375 C 292.585938 194.378906 322.890625 224.683594 359.929688 224.683594 C 396.96875 224.683594 427.273438 194.378906 427.273438 157.34375 C 427.273438 120.304688 396.96875 90 359.929688 90 Z M 359.929688 202.238281 C 335.238281 202.238281 315.035156 182.035156 315.035156 157.34375 C 315.035156 132.648438 335.238281 112.449219 359.929688 112.449219 C 384.621094 112.449219 404.824219 132.648438 404.824219 157.34375 C 404.824219 182.035156 384.621094 202.238281 359.929688 202.238281 Z M 359.929688 202.238281 " fill-opacity="1" fill-rule="nonzero"/><path fill="#000000" d="M 293.148438 536.703125 C 290.902344 542.875 283.046875 546.242188 276.875 543.4375 C 276.875 543.4375 154.535156 497.421875 154.535156 497.421875 C 148.363281 495.175781 144.996094 487.878906 147.242188 481.707031 L 231.417969 269.019531 C 241.519531 243.203125 266.210938 221.316406 295.394531 219.074219 C 289.78125 212.898438 284.730469 206.164062 280.804688 198.871094 C 250.5 206.164062 223.5625 228.613281 210.65625 260.601562 L 126.476562 473.289062 C 124.230469 480.023438 124.230469 485.636719 124.230469 492.371094 L 144.996094 775.769531 C 145.558594 785.308594 149.484375 793.726562 156.21875 799.898438 C 162.394531 805.511719 170.25 808.878906 178.667969 808.878906 C 179.226562 808.878906 196.625 808.878906 196.625 808.878906 C 213.460938 807.753906 227.492188 793.164062 228.613281 775.207031 L 240.398438 554.660156 L 268.457031 565.324219 C 272.386719 567.007812 276.875 567.566406 280.804688 567.566406 C 281.363281 567.566406 281.925781 567.566406 282.488281 567.566406 L 267.335938 774.644531 C 266.773438 780.820312 262.285156 785.867188 256.671875 786.429688 L 249.375 786.429688 C 247.691406 794.847656 243.765625 802.144531 238.714844 808.878906 C 239.273438 808.878906 257.234375 808.878906 257.792969 808.878906 C 274.628906 807.753906 288.660156 793.726562 289.78125 775.769531 L 305.496094 556.90625 C 308.863281 553.539062 311.667969 549.609375 313.351562 545.121094 L 336.921875 485.074219 L 316.15625 476.09375 Z M 206.726562 773.523438 C 206.164062 779.695312 201.675781 785.308594 196.0625 785.867188 C 196.0625 785.867188 179.789062 785.867188 179.789062 785.867188 C 176.984375 785.867188 174.175781 784.746094 171.933594 783.0625 C 169.6875 780.816406 168.003906 778.011719 168.003906 774.085938 L 148.925781 519.867188 L 219.074219 546.242188 Z M 206.726562 773.523438 " fill-opacity="1" fill-rule="nonzero"/><path fill="#000000" d="M 362.734375 361.613281 L 382.9375 371.152344 L 398.652344 331.871094 C 408.191406 308.300781 407.070312 280.804688 396.40625 256.109375 C 394.160156 251.058594 391.355469 246.570312 388.550781 242.082031 C 380.695312 244.886719 372.277344 246.007812 363.859375 246.570312 C 368.910156 252.183594 372.835938 258.355469 376.203125 265.652344 C 384.621094 284.171875 385.183594 305.496094 377.886719 324.015625 Z M 362.734375 361.613281 " fill-opacity="1" fill-rule="nonzero"/><path fill="#000000" d="M 325.136719 369.46875 L 322.890625 347.023438 C 322.332031 340.847656 316.71875 336.359375 310.546875 336.921875 C 304.371094 337.484375 299.882812 343.09375 300.445312 349.265625 C 300.445312 349.265625 302.6875 373.398438 302.6875 373.398438 C 303.25 380.132812 309.421875 386.867188 315.597656 389.671875 L 411.558594 434.566406 C 414.925781 427.832031 419.976562 421.660156 425.589844 416.609375 C 426.148438 416.609375 325.699219 369.46875 325.136719 369.46875 Z M 325.136719 369.46875 " fill-opacity="1" fill-rule="nonzero"/><path fill="#000000" d="M 404.824219 464.871094 L 279.679688 410.4375 C 276.875 409.3125 274.070312 406.507812 272.945312 403.140625 L 258.355469 339.726562 C 257.234375 333.554688 251.058594 329.625 244.886719 331.308594 C 238.714844 332.433594 234.785156 338.605469 236.46875 344.777344 C 236.46875 344.777344 251.058594 408.753906 251.058594 408.753906 C 253.304688 418.292969 261.722656 427.273438 270.703125 431.199219 L 413.242188 492.929688 C 412.121094 491.246094 404.824219 476.65625 404.824219 464.871094 Z M 404.824219 464.871094 " fill-opacity="1" fill-rule="nonzero"/><path fill="#000000" d="M 647.816406 409.875 C 647.816406 409.3125 662.96875 344.777344 662.96875 344.777344 C 664.09375 338.605469 660.726562 332.992188 654.550781 331.308594 C 648.378906 330.1875 642.207031 333.554688 641.082031 339.726562 L 626.492188 403.140625 C 625.371094 406.507812 622.5625 409.3125 619.757812 410.4375 C 619.757812 410.4375 469.921875 475.535156 469.921875 475.535156 C 462.625 478.902344 454.207031 476.09375 450.839844 468.800781 C 447.476562 460.941406 450.28125 451.964844 457.574219 448.597656 C 457.574219 448.597656 583.28125 389.671875 583.28125 389.671875 C 589.453125 386.867188 595.628906 380.132812 596.1875 373.398438 L 598.433594 349.265625 C 598.996094 343.09375 594.503906 337.484375 588.332031 336.921875 C 582.160156 336.359375 576.546875 340.847656 575.984375 347.023438 C 575.984375 347.023438 573.742188 369.46875 573.742188 369.46875 L 448.035156 428.394531 C 430.078125 437.375 422.222656 459.820312 430.640625 478.339844 C 439.058594 496.296875 461.503906 504.714844 479.460938 495.738281 L 628.175781 431.199219 C 637.714844 427.273438 645.011719 419.414062 647.816406 409.875 Z M 647.816406 409.875 " fill-opacity="1" fill-rule="nonzero"/><path fill="#000000" d="M 536.140625 247.132812 C 527.722656 246.570312 519.304688 245.449219 511.449219 242.640625 C 508.644531 247.132812 505.835938 251.621094 503.59375 256.671875 C 492.929688 280.804688 491.808594 308.300781 501.347656 332.433594 L 517.0625 371.714844 L 537.265625 362.175781 L 522.113281 324.574219 C 514.816406 306.617188 515.378906 285.292969 523.796875 266.210938 C 527.164062 258.917969 531.089844 252.742188 536.140625 247.132812 Z M 536.140625 247.132812 " fill-opacity="1" fill-rule="nonzero"/><path fill="#000000" d="M 772.960938 473.851562 L 688.785156 261.160156 C 675.875 228.613281 648.941406 206.164062 618.636719 199.429688 C 614.707031 206.726562 609.65625 213.460938 604.046875 219.632812 C 632.664062 222.441406 657.359375 244.324219 668.019531 270.140625 C 668.019531 270.140625 752.199219 482.828125 752.199219 482.828125 C 754.441406 489.003906 751.074219 495.738281 744.902344 498.542969 L 622.5625 544.558594 C 615.832031 546.804688 608.535156 544 606.289062 537.824219 L 582.160156 477.21875 L 561.394531 486.195312 L 584.964844 546.242188 C 586.648438 550.734375 589.453125 554.660156 592.820312 558.027344 L 608.535156 776.890625 C 609.65625 794.285156 623.6875 808.878906 640.523438 810 C 640.523438 810 660.726562 810 661.847656 809.4375 C 656.796875 802.703125 653.429688 795.410156 651.746094 787.550781 L 641.082031 787.550781 C 635.472656 786.992188 630.980469 781.941406 630.421875 775.769531 L 616.390625 567.007812 C 616.953125 567.007812 622.5625 568.128906 630.421875 564.761719 L 658.480469 554.101562 L 670.265625 774.644531 C 671.386719 792.601562 685.417969 807.195312 702.253906 808.316406 C 702.253906 808.316406 719.648438 808.316406 720.210938 808.316406 C 728.628906 808.316406 736.484375 805.511719 742.65625 799.335938 C 749.390625 793.164062 753.320312 784.746094 753.882812 775.207031 C 753.882812 775.207031 774.644531 491.808594 774.644531 491.808594 C 775.207031 490.125 775.769531 482.269531 772.960938 473.851562 Z M 731.433594 774.085938 C 730.871094 780.257812 726.382812 785.867188 719.648438 785.867188 C 719.648438 785.867188 703.375 785.867188 703.375 785.867188 C 697.761719 785.308594 693.273438 779.695312 692.710938 773.523438 L 680.367188 545.683594 L 750.515625 519.304688 C 750.515625 519.867188 731.433594 774.085938 731.433594 774.085938 Z M 731.433594 774.085938 " fill-opacity="1" fill-rule="nonzero"/><path fill="#000000" d="M 539.507812 224.683594 C 576.546875 224.683594 606.851562 194.378906 606.851562 157.34375 C 606.851562 120.304688 576.546875 90 539.507812 90 C 502.472656 90 472.167969 120.304688 472.167969 157.34375 C 472.167969 194.378906 502.472656 224.683594 539.507812 224.683594 Z M 539.507812 112.449219 C 564.199219 112.449219 584.402344 132.648438 584.402344 157.34375 C 584.402344 182.035156 564.199219 202.238281 539.507812 202.238281 C 514.816406 202.238281 494.613281 182.035156 494.613281 157.34375 C 494.613281 132.648438 514.816406 112.449219 539.507812 112.449219 Z M 539.507812 112.449219 " fill-opacity="1" fill-rule="nonzero"/></svg>