<svg xmlns="http://www.w3.org/2000/svg" xmlns:xlink="http://www.w3.org/1999/xlink" width="1200" zoomAndPan="magnify" viewBox="0 0 900 899.99999" height="1200" preserveAspectRatio="xMidYMid meet" version="1.0"><path fill="#f1f1f2" d="M 450 570 C 516.167969 570 570 516.167969 570 450 C 570 383.832031 516.167969 330 450 330 C 383.832031 330 330 383.832031 330 450 C 330 516.167969 383.832031 570 450 570 Z M 450 354 C 502.933594 354 546 397.066406 546 450 C 546 502.933594 502.933594 546 450 546 C 397.066406 546 354 502.933594 354 450 C 354 397.066406 397.066406 354 450 354 Z M 450 354 " fill-opacity="1" fill-rule="nonzero"/><path fill="#f1f1f2" d="M 339.695312 271.8125 C 337.441406 269.554688 334.402344 268.296875 331.210938 268.296875 C 328.019531 268.296875 324.972656 269.554688 322.726562 271.8125 L 271.8125 322.726562 C 269.554688 324.984375 268.296875 328.03125 268.296875 331.210938 C 268.296875 334.390625 269.554688 337.453125 271.8125 339.695312 L 293.484375 361.355469 C 286.175781 374.21875 280.511719 387.828125 276.589844 402 L 246 402 C 239.363281 402 234 407.375 234 414 L 234 486 C 234 492.625 239.363281 498 246 498 L 276.574219 498 C 280.5 512.195312 286.152344 525.816406 293.449219 538.667969 L 271.800781 560.316406 C 269.542969 562.570312 268.285156 565.621094 268.285156 568.800781 C 268.285156 571.980469 269.542969 575.039062 271.800781 577.285156 L 322.714844 628.199219 C 327.40625 632.890625 334.992188 632.890625 339.683594 628.199219 L 361.332031 606.5625 C 374.183594 613.871094 387.804688 619.523438 402 623.4375 L 402 654 C 402 660.625 407.363281 666 414 666 L 486 666 C 492.636719 666 498 660.625 498 654 L 498 623.425781 C 512.171875 619.5 525.78125 613.847656 538.65625 606.527344 L 560.316406 628.1875 C 562.570312 630.445312 565.609375 631.703125 568.800781 631.703125 C 571.992188 631.703125 575.039062 630.445312 577.285156 628.1875 L 628.199219 577.273438 C 630.457031 575.015625 631.714844 571.96875 631.714844 568.789062 C 631.714844 565.609375 630.457031 562.546875 628.199219 560.304688 L 606.527344 538.644531 C 613.835938 525.78125 619.5 512.171875 623.425781 498 L 654 498 C 660.636719 498 666 492.625 666 486 L 666 414 C 666 407.375 660.636719 402 654 402 L 623.425781 402 C 619.5 387.804688 613.847656 374.183594 606.550781 361.332031 L 628.199219 339.683594 C 630.457031 337.429688 631.714844 334.378906 631.714844 331.199219 C 631.714844 328.019531 630.457031 324.960938 628.199219 322.714844 L 577.285156 271.800781 C 572.59375 267.109375 565.007812 267.109375 560.316406 271.800781 L 538.667969 293.4375 C 525.816406 286.128906 512.195312 280.476562 498 276.5625 L 498 246 C 498 239.375 492.636719 234 486 234 L 414 234 C 407.363281 234 402 239.375 402 246 L 402 276.574219 C 387.828125 280.5 374.21875 286.152344 361.34375 293.472656 Z M 416.566406 297.683594 C 422.074219 296.484375 426 291.601562 426 285.960938 L 426 258 L 474 258 L 474 285.960938 C 474 291.601562 477.925781 296.472656 483.433594 297.683594 C 501.40625 301.621094 518.425781 308.675781 534.023438 318.683594 C 538.765625 321.71875 544.980469 321.058594 548.988281 317.0625 L 568.789062 297.265625 L 602.734375 331.210938 L 582.9375 351.011719 C 578.953125 354.996094 578.269531 361.222656 581.316406 365.976562 C 591.3125 381.5625 598.378906 398.59375 602.316406 416.578125 C 603.527344 422.074219 608.398438 426 614.039062 426 L 642 426 L 642 474 L 614.039062 474 C 608.398438 474 603.527344 477.925781 602.316406 483.433594 C 598.378906 501.371094 591.3125 518.386719 581.292969 534 C 578.242188 538.753906 578.929688 544.980469 582.910156 548.964844 L 602.734375 568.789062 L 568.789062 602.734375 L 548.976562 582.910156 C 544.980469 578.914062 538.75 578.257812 534.011719 581.292969 C 518.386719 591.3125 501.371094 598.390625 483.433594 602.304688 C 477.925781 603.515625 474 608.398438 474 614.039062 L 474 642 L 426 642 L 426 614.039062 C 426 608.398438 422.074219 603.527344 416.566406 602.316406 C 398.59375 598.378906 381.574219 591.324219 365.976562 581.316406 C 361.222656 578.269531 355.007812 578.929688 351.011719 582.9375 L 331.210938 602.734375 L 297.265625 568.789062 L 317.0625 548.988281 C 321.046875 545.003906 321.730469 538.777344 318.683594 534.023438 C 308.6875 518.4375 301.621094 501.40625 297.683594 483.421875 C 296.472656 477.925781 291.601562 474 285.960938 474 L 258 474 L 258 426 L 285.960938 426 C 291.601562 426 296.472656 422.074219 297.683594 416.566406 C 301.621094 398.628906 308.6875 381.613281 318.707031 366 C 321.757812 361.246094 321.070312 355.019531 317.089844 351.035156 L 297.265625 331.210938 L 331.210938 297.265625 L 351.023438 317.089844 C 355.03125 321.097656 361.261719 321.742188 365.988281 318.707031 C 381.613281 308.675781 398.628906 301.609375 416.566406 297.683594 Z M 416.566406 297.683594 " fill-opacity="1" fill-rule="nonzero"/><path fill="#f1f1f2" d="M 450 162 C 469.847656 162 486 145.847656 486 126 C 486 106.152344 469.847656 90 450 90 C 430.152344 90 414 106.152344 414 126 C 414 145.847656 430.152344 162 450 162 Z M 450 114 C 456.625 114 462 119.386719 462 126 C 462 132.613281 456.625 138 450 138 C 443.375 138 438 132.613281 438 126 C 438 119.386719 443.375 114 450 114 Z M 450 114 " fill-opacity="1" fill-rule="nonzero"/><path fill="#f1f1f2" d="M 450 738 C 430.152344 738 414 754.152344 414 774 C 414 793.847656 430.152344 810 450 810 C 469.847656 810 486 793.847656 486 774 C 486 754.152344 469.847656 738 450 738 Z M 450 786 C 443.375 786 438 780.613281 438 774 C 438 767.386719 443.375 762 450 762 C 456.625 762 462 767.386719 462 774 C 462 780.613281 456.625 786 450 786 Z M 450 786 " fill-opacity="1" fill-rule="nonzero"/><path fill="#f1f1f2" d="M 774 414 C 754.152344 414 738 430.152344 738 450 C 738 469.847656 754.152344 486 774 486 C 793.847656 486 810 469.847656 810 450 C 810 430.152344 793.847656 414 774 414 Z M 774 462 C 767.375 462 762 456.613281 762 450 C 762 443.386719 767.375 438 774 438 C 780.625 438 786 443.386719 786 450 C 786 456.613281 780.625 462 774 462 Z M 774 462 " fill-opacity="1" fill-rule="nonzero"/><path fill="#f1f1f2" d="M 126 486 C 145.847656 486 162 469.847656 162 450 C 162 430.152344 145.847656 414 126 414 C 106.152344 414 90 430.152344 90 450 C 90 469.847656 106.152344 486 126 486 Z M 126 438 C 132.625 438 138 443.386719 138 450 C 138 456.613281 132.625 462 126 462 C 119.375 462 114 456.613281 114 450 C 114 443.386719 119.375 438 126 438 Z M 126 438 " fill-opacity="1" fill-rule="nonzero"/><path fill="#f1f1f2" d="M 298.488281 177.40625 L 306.613281 201.792969 C 307.921875 205.738281 311.183594 208.714844 315.238281 209.675781 C 316.164062 209.890625 317.089844 210 318 210 C 321.144531 210 324.214844 208.765625 326.484375 206.484375 L 386.484375 146.484375 C 389.699219 143.269531 390.816406 138.515625 389.375 134.207031 C 387.949219 129.898438 384.191406 126.769531 379.691406 126.132812 L 295.691406 114.132812 C 291.515625 113.53125 287.4375 115.128906 284.785156 118.320312 C 282.109375 121.511719 281.292969 125.855469 282.613281 129.804688 L 290.785156 154.320312 C 201.972656 202.296875 138.3125 288.757812 119.761719 387.792969 L 143.339844 392.207031 C 160.320312 301.632812 217.921875 222.347656 298.488281 177.40625 Z M 352.546875 146.484375 L 323.257812 175.789062 L 311.519531 140.628906 Z M 352.546875 146.484375 " fill-opacity="1" fill-rule="nonzero"/><path fill="#f1f1f2" d="M 780.265625 512.21875 L 756.683594 507.792969 C 739.667969 598.441406 682.054688 677.734375 601.5 722.605469 L 593.363281 698.207031 C 592.054688 694.261719 588.792969 691.285156 584.734375 690.324219 C 580.691406 689.351562 576.445312 690.574219 573.492188 693.515625 L 513.492188 753.515625 C 510.277344 756.730469 509.160156 761.484375 510.601562 765.792969 C 512.027344 770.101562 515.785156 773.230469 520.285156 773.867188 L 604.285156 785.867188 C 604.871094 785.964844 605.4375 786 606 786 C 609.527344 786 612.910156 784.441406 615.214844 781.691406 C 617.890625 778.5 618.707031 774.15625 617.386719 770.207031 L 609.214844 745.691406 C 698.003906 697.777344 761.675781 611.316406 780.265625 512.21875 Z M 547.453125 753.515625 L 576.742188 724.210938 L 588.480469 759.371094 Z M 547.453125 753.515625 " fill-opacity="1" fill-rule="nonzero"/><path fill="#f1f1f2" d="M 722.605469 298.476562 L 698.195312 306.613281 C 694.246094 307.933594 691.273438 311.195312 690.3125 315.238281 C 689.363281 319.285156 690.5625 323.542969 693.515625 326.484375 L 753.515625 386.484375 C 755.796875 388.777344 758.867188 390 762 390 C 763.261719 390 764.554688 389.796875 765.792969 389.386719 C 770.101562 387.949219 773.230469 384.203125 773.878906 379.703125 L 785.878906 295.703125 C 786.46875 291.589844 784.882812 287.449219 781.679688 284.796875 C 778.476562 282.132812 774.132812 281.339844 770.195312 282.625 L 745.691406 290.796875 C 697.90625 202.03125 611.449219 138.371094 512.21875 119.722656 L 507.792969 143.316406 C 598.558594 160.367188 677.84375 217.980469 722.605469 298.476562 Z M 753.515625 352.546875 L 724.222656 323.242188 L 759.382812 311.519531 Z M 753.515625 352.546875 " fill-opacity="1" fill-rule="nonzero"/><path fill="#f1f1f2" d="M 209.6875 584.761719 C 210.636719 580.714844 209.4375 576.457031 206.484375 573.515625 L 146.484375 513.515625 C 143.269531 510.289062 138.527344 509.171875 134.207031 510.613281 C 129.898438 512.050781 126.769531 515.796875 126.121094 520.296875 L 114.121094 604.296875 C 113.53125 608.410156 115.117188 612.550781 118.320312 615.203125 C 120.503906 617.039062 123.238281 618 126 618 C 127.273438 618 128.554688 617.796875 129.792969 617.386719 L 154.296875 609.214844 C 202.152344 698.101562 288.625 761.761719 387.792969 780.277344 L 392.195312 756.683594 C 301.476562 739.753906 222.191406 682.140625 177.382812 601.511719 L 201.792969 593.375 C 205.753906 592.066406 208.726562 588.804688 209.6875 584.761719 Z M 146.484375 547.453125 L 175.777344 576.757812 L 140.617188 588.480469 Z M 146.484375 547.453125 " fill-opacity="1" fill-rule="nonzero"/></svg>