<svg xmlns="http://www.w3.org/2000/svg" xmlns:xlink="http://www.w3.org/1999/xlink" width="1200" zoomAndPan="magnify" viewBox="0 0 900 899.99999" height="1200" preserveAspectRatio="xMidYMid meet" version="1.0"><defs><clipPath id="id1"><path d="M 466 185.089844 L 677 185.089844 L 677 394 L 466 394 Z M 466 185.089844 " clip-rule="nonzero"/></clipPath><clipPath id="id2"><path d="M 90 390 L 151 390 L 151 459 L 90 459 Z M 90 390 " clip-rule="nonzero"/></clipPath><clipPath id="id3"><path d="M 358 405 L 676 405 L 676 714.589844 L 358 714.589844 Z M 358 405 " clip-rule="nonzero"/></clipPath></defs><path fill="#323335" d="M 635.023438 350.605469 L 638.082031 365.941406 L 794.449219 365.941406 L 794.449219 625.316406 L 407.085938 625.316406 L 407.085938 365.941406 L 615.902344 365.941406 L 603.191406 350.605469 L 391.554688 350.605469 L 391.554688 640.667969 L 809.984375 640.667969 L 809.984375 350.605469 L 635.023438 350.605469 " fill-opacity="1" fill-rule="nonzero"/><g clip-path="url(#id1)"><path fill="#323335" d="M 579.613281 314.757812 L 517.8125 314.757812 C 492.96875 314.757812 472.789062 294.828125 472.789062 270.304688 L 472.789062 235.390625 C 472.789062 210.875 492.96875 190.933594 517.8125 190.933594 L 625.496094 190.933594 C 650.289062 190.933594 670.40625 210.875 670.40625 235.390625 L 670.40625 270.304688 C 670.40625 294.828125 650.289062 314.757812 625.496094 314.757812 C 624.695312 314.757812 623.851562 315.144531 623.304688 315.808594 C 622.699219 316.464844 622.527344 317.355469 622.652344 318.183594 L 634.894531 379.742188 L 581.816406 315.8125 C 581.269531 315.148438 580.425781 314.757812 579.613281 314.757812 Z M 615.898438 365.945312 L 637.707031 392.230469 C 638.269531 392.917969 639.109375 393.292969 639.988281 393.292969 C 640.378906 393.292969 640.828125 393.195312 641.195312 392.996094 C 642.390625 392.441406 643.039062 391.148438 642.84375 389.835938 L 638.082031 365.945312 L 635.023438 350.605469 L 629.007812 320.386719 C 655.386719 318.601562 676.238281 296.808594 676.238281 270.304688 L 676.238281 235.390625 C 676.238281 207.710938 653.53125 185.167969 625.496094 185.167969 L 517.8125 185.167969 C 489.710938 185.167969 466.9375 207.710938 466.9375 235.390625 L 466.9375 270.304688 C 466.9375 297.992188 489.710938 320.527344 517.8125 320.527344 L 578.242188 320.527344 L 603.183594 350.605469 L 615.898438 365.945312 " fill-opacity="1" fill-rule="nonzero"/></g><path fill="#323335" d="M 631.089844 218.476562 L 515.035156 218.476562 L 515.035156 226.140625 L 631.089844 226.140625 L 631.089844 218.476562 " fill-opacity="1" fill-rule="nonzero"/><path fill="#323335" d="M 631.089844 246.125 L 515.035156 246.125 L 515.035156 253.804688 L 631.089844 253.804688 L 631.089844 246.125 " fill-opacity="1" fill-rule="nonzero"/><path fill="#323335" d="M 631.089844 273.761719 L 515.035156 273.761719 L 515.035156 281.425781 L 631.089844 281.425781 L 631.089844 273.761719 " fill-opacity="1" fill-rule="nonzero"/><path fill="#323335" d="M 685.507812 628.742188 L 685.507812 662.367188 L 722.492188 662.367188 L 722.492188 685.390625 L 555.515625 685.390625 L 555.515625 628.742188 L 685.507812 628.742188 " fill-opacity="1" fill-rule="nonzero"/><path fill="#323335" d="M 714.675781 462.203125 C 714.535156 462.203125 714.292969 462.160156 714.191406 462.085938 L 713.722656 461.867188 L 713.65625 462.210938 C 711.191406 475.199219 701.863281 483.996094 690.820312 483.996094 C 679.875 483.996094 670.472656 475.199219 667.96875 462.210938 L 667.886719 461.867188 L 667.539062 462.085938 C 667.316406 462.160156 667.222656 462.203125 666.960938 462.203125 C 665.167969 462.203125 661.605469 456.867188 661.277344 451.042969 C 660.808594 444.492188 660.894531 440.949219 661.585938 440.21875 C 661.632812 440.167969 661.691406 440.167969 661.847656 440.167969 C 662.367188 440.167969 663.378906 440.9375 664.308594 442.269531 L 665.496094 443.738281 L 664.902344 441.847656 C 664.285156 439.75 664.023438 437.902344 664.023438 436.292969 C 664.023438 419.882812 676.03125 406.621094 690.820312 406.621094 C 705.582031 406.621094 717.59375 419.882812 717.59375 436.292969 C 717.59375 437.902344 717.332031 439.75 716.695312 441.847656 L 716.207031 443.738281 L 717.296875 442.269531 C 718.242188 440.9375 719.242188 440.167969 719.910156 440.167969 C 719.945312 440.167969 719.964844 440.167969 720.019531 440.21875 C 720.714844 440.949219 720.929688 444.492188 720.339844 451.042969 C 720.003906 456.867188 716.582031 462.203125 714.675781 462.203125 " fill-opacity="1" fill-rule="nonzero"/><path fill="#323335" d="M 621.902344 562.058594 L 630.910156 502.730469 L 666.011719 487.671875 L 666.273438 487.941406 L 666.902344 487.8125 L 684.667969 514.691406 L 686.949219 497.75 L 682.984375 486.917969 L 682.539062 485.703125 C 685.183594 486.652344 687.96875 487.28125 690.816406 487.28125 C 693.648438 487.28125 696.527344 486.652344 699.199219 485.703125 L 698.628906 486.917969 L 694.65625 497.75 L 696.910156 514.585938 L 697.015625 515.464844 L 715.605469 487.671875 L 716.664062 487.941406 L 716.90625 487.671875 L 752 502.730469 L 761.023438 562.058594 L 621.902344 562.058594 " fill-opacity="1" fill-rule="nonzero"/><path fill="#323335" d="M 233.402344 361.410156 L 249.113281 355.128906 L 252.789062 350.53125 C 251.34375 348.75 250.042969 346.621094 249.628906 343.992188 L 249.46875 343.617188 L 249.339844 343.9375 C 249.292969 343.976562 249.253906 343.988281 249.144531 343.988281 C 248.363281 343.988281 246.769531 341.550781 246.640625 338.980469 C 246.433594 336.214844 246.433594 334.703125 246.769531 334.28125 C 246.789062 334.269531 246.796875 334.269531 246.816406 334.269531 C 247.125 334.269531 247.652344 334.703125 247.988281 335.085938 L 248.476562 335.746094 L 248.300781 335.023438 C 247.980469 334.175781 247.839844 333.410156 247.839844 332.707031 C 247.839844 325.53125 253.082031 319.664062 259.492188 319.664062 C 266.027344 319.664062 271.136719 325.53125 271.136719 332.707031 C 271.136719 333.410156 271.050781 334.175781 270.789062 335.023438 L 270.628906 335.746094 L 271.03125 335.085938 C 271.457031 334.703125 271.953125 334.269531 272.15625 334.269531 C 272.175781 334.269531 272.316406 334.269531 272.335938 334.28125 C 272.617188 334.703125 272.644531 336.214844 272.441406 338.980469 C 272.335938 341.550781 270.742188 343.988281 269.984375 343.988281 C 269.765625 343.988281 269.71875 343.976562 269.691406 343.9375 L 269.496094 343.617188 L 269.476562 343.992188 C 269.007812 346.277344 267.976562 348.605469 266.4375 350.105469 L 270.453125 355.128906 L 286.117188 361.394531 L 286.296875 361.410156 L 290.074219 387.449219 L 229.492188 387.449219 L 233.402344 361.410156 " fill-opacity="1" fill-rule="nonzero"/><path fill="#323335" d="M 140.34375 361.410156 L 156.066406 355.128906 L 159.941406 350.53125 C 158.316406 348.75 157.082031 346.621094 156.589844 343.992188 L 156.566406 343.617188 L 156.378906 343.9375 C 156.328125 343.976562 156.285156 343.988281 156.125 343.988281 C 155.328125 343.988281 153.734375 341.550781 153.621094 338.980469 C 153.425781 336.214844 153.453125 334.703125 153.734375 334.28125 C 153.75 334.269531 153.761719 334.269531 153.910156 334.269531 C 154.117188 334.269531 154.605469 334.703125 155.027344 335.085938 L 155.441406 335.746094 L 155.261719 335.023438 C 155.027344 334.175781 154.800781 333.410156 154.800781 332.707031 C 154.800781 325.53125 160.035156 319.664062 166.578125 319.664062 C 172.988281 319.664062 178.238281 325.53125 178.238281 332.707031 C 178.238281 333.410156 178.082031 334.175781 177.75 335.023438 L 177.589844 335.746094 L 178.0625 335.085938 C 178.417969 334.703125 178.933594 334.269531 179.25 334.269531 C 179.261719 334.269531 179.28125 334.269531 179.300781 334.28125 C 179.625 334.703125 179.625 336.214844 179.429688 338.980469 C 179.300781 341.550781 177.703125 343.988281 176.925781 343.988281 C 176.804688 343.988281 176.757812 343.976562 176.730469 343.9375 L 176.46875 343.617188 L 176.441406 343.992188 C 176.046875 346.277344 174.941406 348.605469 173.402344 350.105469 L 177.492188 355.128906 L 193.082031 361.394531 L 193.257812 361.410156 L 197.109375 387.449219 L 136.453125 387.449219 L 140.34375 361.410156 " fill-opacity="1" fill-rule="nonzero"/><path fill="#323335" d="M 279.984375 425.859375 L 295.652344 419.347656 L 299.375 414.765625 C 297.75 413.226562 296.625 410.847656 296.082031 408.199219 L 296.066406 408.058594 L 295.792969 408.121094 C 295.765625 408.15625 295.707031 408.179688 295.660156 408.179688 C 294.816406 408.179688 293.355469 406 293.09375 403.4375 C 292.960938 400.671875 293.019531 398.9375 293.355469 398.699219 C 293.382812 398.675781 293.382812 398.675781 293.402344 398.675781 C 293.664062 398.675781 294.09375 398.921875 294.460938 399.535156 L 294.976562 400.191406 L 294.761719 399.449219 C 294.441406 398.613281 294.347656 397.617188 294.347656 396.886719 C 294.347656 389.734375 299.664062 384.113281 306.066406 384.113281 C 312.480469 384.113281 317.71875 389.734375 317.71875 396.886719 C 317.71875 397.617188 317.625 398.613281 317.390625 399.449219 L 317.101562 400.191406 L 317.496094 399.535156 C 318.046875 398.921875 318.386719 398.675781 318.742188 398.675781 C 318.742188 398.675781 318.761719 398.675781 318.78125 398.699219 C 319.0625 398.9375 319.109375 400.671875 318.957031 403.4375 C 318.78125 406 317.328125 408.179688 316.4375 408.179688 C 316.371094 408.179688 316.324219 408.15625 316.144531 408.121094 L 316.03125 408.058594 L 316.03125 408.199219 C 315.460938 410.714844 314.429688 412.785156 313.03125 414.53125 L 317.035156 419.347656 L 332.707031 425.84375 L 336.667969 451.671875 L 275.992188 451.671875 L 279.984375 425.859375 " fill-opacity="1" fill-rule="nonzero"/><path fill="#323335" d="M 226.386719 477.796875 L 242.101562 471.273438 L 245.785156 466.691406 C 244.316406 465.140625 243.058594 462.777344 242.636719 460.121094 L 242.457031 460.003906 L 242.34375 460.089844 C 242.308594 460.105469 242.261719 460.113281 242.148438 460.113281 C 241.371094 460.113281 239.777344 457.917969 239.644531 455.359375 C 239.402344 452.375 239.421875 450.847656 239.777344 450.628906 C 239.785156 450.390625 239.804688 450.390625 239.824219 450.390625 C 240.09375 450.390625 240.648438 450.847656 240.996094 451.457031 L 241.464844 452.121094 L 241.304688 451.359375 C 240.996094 450.28125 240.808594 449.566406 240.808594 448.855469 C 240.808594 441.65625 246.066406 435.808594 252.492188 435.808594 C 259.015625 435.808594 264.125 441.65625 264.125 448.855469 C 264.125 449.566406 264.039062 450.28125 263.796875 451.359375 L 263.636719 452.121094 L 264.03125 451.457031 C 264.460938 450.847656 264.941406 450.390625 265.15625 450.390625 C 265.15625 450.390625 265.296875 450.390625 265.332031 450.628906 C 265.605469 450.847656 265.640625 452.375 265.410156 455.359375 C 265.316406 457.917969 263.75 460.113281 262.972656 460.113281 C 262.773438 460.113281 262.726562 460.105469 262.691406 460.089844 L 262.511719 460.003906 L 262.464844 460.121094 C 261.996094 462.632812 260.984375 464.710938 259.433594 466.441406 L 263.457031 471.273438 L 279.125 477.753906 L 279.304688 477.796875 L 283.070312 503.609375 L 222.46875 503.609375 L 226.386719 477.796875 " fill-opacity="1" fill-rule="nonzero"/><path fill="#323335" d="M 147.367188 477.796875 L 163.070312 471.273438 L 166.972656 466.691406 C 165.3125 465.140625 164.09375 462.777344 163.585938 460.121094 L 163.558594 460.003906 L 163.371094 460.089844 C 163.34375 460.105469 163.296875 460.113281 163.097656 460.113281 C 162.320312 460.113281 160.726562 457.917969 160.652344 455.359375 C 160.417969 452.375 160.445312 450.847656 160.726562 450.628906 C 160.746094 450.390625 160.765625 450.390625 160.90625 450.390625 C 161.101562 450.390625 161.609375 450.847656 162.039062 451.457031 L 162.414062 452.121094 L 162.273438 451.359375 C 162.03125 450.28125 161.925781 449.566406 161.925781 448.855469 C 161.925781 441.65625 167.035156 435.808594 173.582031 435.808594 C 179.984375 435.808594 185.25 441.65625 185.25 448.855469 C 185.25 449.566406 185.09375 450.28125 184.753906 451.359375 L 184.585938 452.121094 L 185.074219 451.457031 C 185.429688 450.847656 185.964844 450.390625 186.246094 450.390625 C 186.261719 450.390625 186.273438 450.390625 186.292969 450.628906 C 186.648438 450.847656 186.660156 452.375 186.425781 455.359375 C 186.292969 457.917969 184.699219 460.113281 183.921875 460.113281 C 183.808594 460.113281 183.769531 460.105469 183.722656 460.089844 L 183.59375 460.003906 L 183.433594 460.121094 C 183.039062 462.632812 181.941406 464.710938 180.414062 466.441406 L 184.484375 471.273438 L 200.101562 477.753906 L 200.261719 477.796875 L 204.105469 503.609375 L 143.449219 503.609375 L 147.367188 477.796875 " fill-opacity="1" fill-rule="nonzero"/><g clip-path="url(#id2)"><path fill="#323335" d="M 93.902344 432.554688 L 109.605469 426.28125 L 113.375 421.6875 C 111.714844 419.914062 110.625 417.773438 110.027344 415.132812 L 110.027344 414.765625 L 109.914062 415.089844 C 109.746094 415.125 109.699219 415.132812 109.652344 415.132812 C 108.722656 415.132812 107.261719 412.667969 107.101562 410.136719 C 106.972656 407.375 106.988281 405.851562 107.261719 405.398438 C 107.300781 405.382812 107.316406 405.382812 107.328125 405.382812 C 107.65625 405.382812 108.011719 405.847656 108.453125 406.230469 L 108.96875 406.894531 L 108.675781 406.15625 C 108.433594 405.292969 108.347656 404.570312 108.347656 403.597656 C 108.347656 396.652344 113.589844 390.8125 120.003906 390.8125 C 126.40625 390.8125 131.703125 396.652344 131.703125 403.597656 C 131.703125 404.570312 131.625 405.292969 131.300781 406.15625 L 131.082031 406.894531 L 131.609375 406.230469 C 131.972656 405.847656 132.40625 405.382812 132.648438 405.382812 C 132.667969 405.382812 132.6875 405.382812 132.703125 405.398438 C 133.070312 405.851562 133.109375 407.375 132.957031 410.136719 C 132.703125 412.667969 131.25 415.132812 130.410156 415.132812 C 130.34375 415.132812 130.324219 415.125 130.277344 415.089844 L 130.015625 414.765625 L 129.96875 415.132812 C 129.453125 417.421875 128.363281 419.707031 126.957031 421.210938 L 131.035156 426.28125 L 146.636719 432.539062 L 150.660156 458.601562 L 89.984375 458.601562 L 93.902344 432.554688 " fill-opacity="1" fill-rule="nonzero"/></g><path fill="#323335" d="M 186.949219 408.039062 L 202.644531 401.5 L 206.34375 396.898438 C 204.769531 395.398438 203.589844 392.992188 203.035156 390.371094 L 203.015625 390.214844 L 202.820312 390.3125 C 202.792969 390.339844 202.738281 390.371094 202.6875 390.371094 C 201.769531 390.371094 200.328125 388.152344 200.074219 385.617188 C 200 382.8125 200.027344 381.078125 200.316406 380.898438 C 200.328125 380.863281 200.34375 380.863281 200.363281 380.863281 C 200.703125 380.863281 201.058594 381.074219 201.433594 381.71875 L 202.003906 382.386719 L 201.714844 381.625 C 201.433594 380.539062 201.394531 379.800781 201.394531 379.074219 C 201.394531 371.910156 206.625 366.035156 213.039062 366.035156 C 219.441406 366.035156 224.671875 371.910156 224.671875 379.074219 C 224.671875 379.800781 224.625 380.539062 224.34375 381.625 L 224.054688 382.386719 L 224.625 381.71875 C 225.011719 381.074219 225.367188 380.863281 225.6875 380.863281 C 225.703125 380.863281 225.722656 380.863281 225.753906 380.898438 C 226.03125 381.078125 226.070312 382.8125 225.996094 385.617188 C 225.742188 388.152344 224.289062 390.371094 223.378906 390.371094 C 223.304688 390.371094 223.265625 390.339844 223.222656 390.3125 L 223.042969 390.214844 L 223.003906 390.371094 C 222.488281 392.902344 221.410156 394.96875 219.996094 396.710938 L 224 401.5 L 239.671875 408.019531 L 243.628906 433.824219 L 183.019531 433.824219 L 186.949219 408.039062 " fill-opacity="1" fill-rule="nonzero"/><g clip-path="url(#id3)"><path fill="#323335" d="M 517.359375 409.464844 L 515.917969 409.378906 C 488.339844 409.378906 465.953125 434.480469 465.953125 465.371094 C 465.953125 467.964844 466.40625 470.914062 467.214844 474.347656 L 470.660156 488.078125 L 461.589844 478.824219 L 461.328125 479.46875 L 459.863281 478.535156 C 459.667969 481.234375 459.636719 486.175781 460.273438 494.996094 C 460.898438 504.480469 465.808594 511.800781 467.6875 513.472656 L 468.714844 512.582031 L 473.316406 514.5625 L 473.738281 516.945312 C 475.863281 528.082031 480.792969 537.84375 487.988281 545.164062 L 490.40625 547.617188 L 470.214844 572.167969 L 398.316406 601.875 L 358.644531 714.515625 L 675.863281 714.515625 L 636.074219 601.875 L 564.242188 572.167969 L 544.066406 547.617188 L 546.488281 545.164062 C 553.691406 537.84375 558.621094 528.082031 560.71875 516.886719 L 560.957031 514.445312 L 563.503906 513.792969 L 565.265625 512.492188 L 566.550781 513.46875 C 568.773438 511.671875 573.539062 504.378906 574.140625 494.960938 C 574.785156 486.144531 574.785156 481.214844 574.660156 478.582031 L 573.429688 479.238281 L 573.152344 478.59375 L 563.828125 488.078125 L 567.21875 474.347656 C 568.085938 470.914062 568.472656 467.964844 568.472656 465.371094 C 568.472656 434.480469 546.074219 409.378906 518.527344 409.378906 L 518.527344 405.546875 L 517.359375 409.464844 " fill-opacity="1" fill-rule="nonzero"/></g><path fill="#323335" d="M 585.160156 473.457031 L 585.160156 507.402344 C 585.160156 514.917969 566.660156 521.269531 558.917969 521.269531 L 558.917969 459.570312 C 566.660156 459.570312 585.160156 465.933594 585.160156 473.457031 " fill-opacity="1" fill-rule="nonzero"/><path fill="#323335" d="M 452.582031 499.457031 L 460.351562 499.457031 L 460.351562 450.777344 C 460.351562 426.03125 481.972656 405.9375 508.582031 405.9375 L 525.921875 405.9375 C 552.472656 405.9375 574.089844 426.03125 574.089844 450.777344 L 574.089844 499.457031 L 581.851562 499.457031 L 581.851562 450.777344 C 581.851562 421.800781 556.777344 398.265625 525.921875 398.265625 L 508.582031 398.265625 C 477.746094 398.265625 452.582031 421.800781 452.582031 450.777344 L 452.582031 499.457031 " fill-opacity="1" fill-rule="nonzero"/><path fill="#323335" d="M 449.46875 473.457031 L 449.46875 507.402344 C 449.46875 514.914062 467.832031 521.269531 475.585938 521.269531 L 475.585938 459.570312 C 467.832031 459.570312 449.46875 465.933594 449.46875 473.457031 " fill-opacity="1" fill-rule="nonzero"/><path fill="#323335" d="M 365.25 625.796875 C 365.25 625.796875 363.601562 626.851562 361.070312 628.410156 C 358.578125 629.917969 355.050781 632.28125 351.332031 633.996094 C 347.683594 635.761719 343.742188 637.574219 340.726562 638.753906 C 337.738281 639.820312 335.703125 640.53125 335.703125 640.53125 L 337.886719 630.234375 L 336.894531 630.03125 C 314.984375 625.371094 294.347656 614.316406 278.617188 598.148438 C 262.921875 581.925781 253.105469 559.613281 253.015625 536.742188 L 267.902344 536.726562 C 268.042969 555.671875 275.992188 574.109375 289.386719 588.023438 C 302.890625 601.832031 320.863281 611.601562 340.109375 615.699219 L 341.042969 615.875 L 343.304688 605.582031 C 343.304688 605.582031 344.410156 606.976562 346.144531 609.078125 C 347.90625 611.109375 350.496094 613.585938 353.226562 616.214844 C 355.960938 618.914062 358.933594 621.015625 361.25 622.828125 C 363.667969 624.605469 365.25 625.796875 365.25 625.796875 " fill-opacity="1" fill-rule="nonzero"/><path fill="#323335" d="M 310.40625 287.238281 C 310.40625 287.238281 310.3125 285.277344 310.152344 282.355469 C 310.089844 279.46875 309.722656 275.261719 310.136719 271.25 C 310.40625 267.207031 310.746094 262.957031 311.203125 259.800781 C 311.8125 256.65625 312.191406 254.558594 312.191406 254.558594 L 320.128906 261.585938 L 320.84375 260.824219 C 335.777344 244.375 355.792969 232.21875 377.851562 226.726562 C 399.84375 221.332031 424.316406 223.945312 444.519531 235.195312 L 437.128906 247.960938 C 420.421875 238.730469 400.25 236.429688 381.359375 241 C 362.460938 245.742188 344.945312 256.25 331.773438 270.738281 L 331.171875 271.421875 L 339.078125 278.449219 C 339.078125 278.449219 337.257812 278.757812 334.585938 279.164062 C 331.933594 279.699219 328.492188 280.640625 324.808594 281.679688 C 321.039062 282.667969 317.738281 284.214844 314.953125 285.285156 C 312.21875 286.449219 310.40625 287.238281 310.40625 287.238281 " fill-opacity="1" fill-rule="nonzero"/></svg>