<svg xmlns="http://www.w3.org/2000/svg" xmlns:xlink="http://www.w3.org/1999/xlink" width="1200" zoomAndPan="magnify" viewBox="0 0 900 899.99999" height="1200" preserveAspectRatio="xMidYMid meet" version="1.0"><defs><clipPath id="id1"><path d="M 610 327.195312 L 809.925781 327.195312 L 809.925781 572.65625 L 610 572.65625 Z M 610 327.195312 " clip-rule="nonzero"/></clipPath><clipPath id="id2"><path d="M 211.003906 595 L 678.589844 595 L 678.589844 736.027344 L 211.003906 736.027344 Z M 211.003906 595 " clip-rule="nonzero"/></clipPath><clipPath id="id3"><path d="M 221 163.800781 L 689 163.800781 L 689 305 L 221 305 Z M 221 163.800781 " clip-rule="nonzero"/></clipPath></defs><path fill="#2E8BC0" d="M 545.390625 545.273438 C 519.910156 570.75 486.03125 584.777344 450 584.777344 C 413.964844 584.777344 380.09375 570.75 354.617188 545.273438 C 329.132812 519.804688 315.101562 485.9375 315.101562 449.910156 C 315.101562 413.886719 329.132812 380.019531 354.617188 354.550781 C 380.09375 329.074219 413.964844 315.046875 450 315.046875 C 486.03125 315.046875 519.910156 329.074219 545.390625 354.550781 C 570.867188 380.019531 584.898438 413.886719 584.898438 449.910156 C 584.898438 485.9375 570.867188 519.804688 545.390625 545.273438 Z M 450 298.046875 C 366.105469 298.046875 298.097656 366.039062 298.097656 449.910156 C 298.097656 533.785156 366.105469 601.777344 450 601.777344 C 533.898438 601.777344 601.90625 533.785156 601.90625 449.910156 C 601.90625 366.039062 533.898438 298.046875 450 298.046875 " fill-opacity="1" fill-rule="nonzero"/><path fill="#2E8BC0" d="M 490.609375 483.132812 C 490.113281 484.96875 488.285156 490.578125 483.28125 496.109375 C 478.839844 501.019531 471.058594 506.726562 458.273438 508.3125 L 458.273438 530.695312 C 458.273438 534.644531 455.070312 537.839844 451.125 537.839844 C 447.175781 537.839844 443.980469 534.644531 443.980469 530.695312 L 443.980469 508.222656 C 425.167969 505.597656 411.296875 493.570312 410.640625 493 C 407.683594 490.390625 407.398438 485.878906 410.003906 482.917969 C 412.613281 479.953125 417.128906 479.675781 420.09375 482.277344 C 420.21875 482.386719 434.265625 494.453125 451.125 494.453125 C 473.226562 494.453125 476.753906 479.644531 476.789062 479.496094 C 476.890625 479.023438 476.929688 478.828125 477.117188 478.417969 C 477.300781 477.832031 478.296875 474.179688 475.992188 469.726562 C 473.558594 465.023438 466.933594 458.363281 449.171875 453.328125 C 431.507812 448.316406 420.378906 440.324219 416.085938 429.582031 C 412.261719 420.003906 415.175781 410.644531 417.566406 406.484375 C 418.835938 404.125 426.046875 392.242188 443.980469 389.652344 L 443.980469 369.128906 C 443.980469 365.179688 447.175781 361.984375 451.125 361.984375 C 455.070312 361.984375 458.273438 365.179688 458.273438 369.128906 L 458.273438 389.699219 C 476.152344 392.460938 486.8125 404.738281 487.308594 405.324219 C 489.863281 408.328125 489.496094 412.839844 486.492188 415.398438 C 485.148438 416.539062 483.503906 417.097656 481.863281 417.097656 C 479.855469 417.097656 477.855469 416.25 476.445312 414.605469 C 476.230469 414.363281 466.4375 403.433594 451.125 403.433594 C 435.308594 403.433594 430.308594 412.941406 430.265625 413.039062 C 430.148438 413.269531 430.117188 413.355469 429.988281 413.558594 C 429.699219 414.101562 427.1875 419.050781 429.421875 424.4375 C 432.015625 430.691406 440.195312 435.929688 453.074219 439.578125 C 471.640625 444.851562 483.734375 452.992188 488.996094 463.773438 C 493.476562 472.960938 491.398438 480.832031 490.609375 483.132812 Z M 538.785156 361.152344 C 515.070312 337.441406 483.535156 324.382812 450 324.382812 C 416.460938 324.382812 384.929688 337.441406 361.21875 361.152344 C 337.5 384.859375 324.445312 416.382812 324.445312 449.910156 C 324.445312 483.441406 337.5 514.964844 361.21875 538.671875 C 384.929688 562.382812 416.460938 575.441406 450 575.441406 C 483.535156 575.441406 515.070312 562.382812 538.785156 538.671875 C 562.496094 514.964844 575.5625 483.441406 575.5625 449.910156 C 575.5625 416.382812 562.496094 384.859375 538.785156 361.152344 " fill-opacity="1" fill-rule="nonzero"/><g clip-path="url(#id1)"><path fill="#2E8BC0" d="M 687.757812 508.953125 C 655.144531 508.953125 628.703125 482.515625 628.703125 449.910156 C 628.703125 417.308594 655.144531 390.871094 687.757812 390.871094 C 720.371094 390.871094 746.808594 417.308594 746.808594 449.910156 C 746.808594 482.515625 720.371094 508.953125 687.757812 508.953125 Z M 781.675781 449.910156 C 781.675781 433.503906 794.019531 419.988281 809.925781 418.117188 C 807.007812 406.84375 802.546875 396.0625 796.632812 386.03125 C 784.058594 395.949219 765.777344 395.117188 754.167969 383.515625 C 742.566406 371.914062 741.734375 353.636719 751.65625 341.0625 C 741.621094 335.152344 730.835938 330.691406 719.558594 327.773438 C 717.6875 343.675781 704.167969 356.015625 687.757812 356.015625 C 671.347656 356.015625 657.828125 343.675781 655.957031 327.773438 C 644.679688 330.691406 633.894531 335.152344 623.855469 341.0625 C 633.78125 353.636719 632.949219 371.914062 621.347656 383.515625 C 618.125 386.738281 614.394531 389.121094 610.414062 390.683594 C 617.414062 409.605469 620.960938 429.488281 620.960938 449.910156 C 620.960938 470.335938 617.414062 490.21875 610.414062 509.140625 C 614.394531 510.703125 618.125 513.085938 621.347656 516.308594 C 632.949219 527.910156 633.78125 546.1875 623.855469 558.761719 C 633.894531 564.671875 644.679688 569.132812 655.957031 572.050781 C 657.828125 556.148438 671.347656 543.808594 687.757812 543.808594 C 704.167969 543.808594 717.6875 556.148438 719.558594 572.050781 C 730.835938 569.132812 741.621094 564.671875 751.65625 558.761719 C 741.734375 546.1875 742.566406 527.910156 754.167969 516.308594 C 765.777344 504.707031 784.058594 503.875 796.632812 513.792969 C 802.546875 503.761719 807.007812 492.980469 809.925781 481.707031 C 794.019531 479.835938 781.675781 466.320312 781.675781 449.910156 " fill-opacity="1" fill-rule="nonzero"/></g><path fill="#2E8BC0" d="M 212.25 508.953125 C 179.628906 508.953125 153.191406 482.515625 153.191406 449.910156 C 153.191406 417.308594 179.628906 390.871094 212.25 390.871094 C 244.863281 390.871094 271.300781 417.308594 271.300781 449.910156 C 271.300781 482.515625 244.863281 508.953125 212.25 508.953125 Z M 289.59375 390.683594 C 285.613281 389.125 281.875 386.738281 278.65625 383.515625 C 267.054688 371.914062 266.222656 353.636719 276.144531 341.0625 C 266.109375 335.152344 255.324219 330.691406 244.046875 327.773438 C 242.175781 343.675781 228.65625 356.015625 212.25 356.015625 C 195.839844 356.015625 182.316406 343.675781 180.445312 327.773438 C 169.167969 330.691406 158.382812 335.152344 148.347656 341.0625 C 158.269531 353.636719 157.441406 371.914062 145.835938 383.515625 C 134.230469 395.117188 115.941406 395.949219 103.371094 386.03125 C 97.457031 396.0625 92.988281 406.84375 90.074219 418.117188 C 105.980469 419.988281 118.324219 433.503906 118.324219 449.910156 C 118.324219 466.320312 105.980469 479.835938 90.074219 481.707031 C 92.988281 492.980469 97.457031 503.761719 103.371094 513.792969 C 115.941406 503.875 134.230469 504.707031 145.835938 516.308594 C 157.441406 527.910156 158.269531 546.1875 148.347656 558.761719 C 158.382812 564.671875 169.167969 569.132812 180.445312 572.050781 C 182.316406 556.148438 195.839844 543.808594 212.25 543.808594 C 228.65625 543.808594 242.175781 556.148438 244.046875 572.050781 C 255.324219 569.132812 266.109375 564.671875 276.144531 558.761719 C 266.222656 546.1875 267.054688 527.910156 278.65625 516.308594 C 281.875 513.085938 285.613281 510.699219 289.59375 509.140625 C 282.585938 490.21875 279.042969 470.335938 279.042969 449.910156 C 279.042969 429.488281 282.585938 409.605469 289.59375 390.683594 " fill-opacity="1" fill-rule="nonzero"/><g clip-path="url(#id2)"><path fill="#2E8BC0" d="M 606.621094 660.378906 C 587.566406 674.585938 566.761719 686.089844 544.53125 694.675781 C 514.402344 706.316406 482.601562 712.214844 450 712.214844 C 362.035156 712.214844 280.355469 668.460938 231.511719 595.175781 L 211.6875 608.378906 C 264.960938 688.308594 354.050781 736.027344 450 736.027344 C 485.550781 736.027344 520.242188 729.589844 553.117188 716.890625 C 579.226562 706.804688 603.535156 693.035156 625.589844 675.863281 L 640.769531 708.800781 L 678.402344 601.777344 L 575.472656 649.515625 L 606.621094 660.378906 " fill-opacity="1" fill-rule="nonzero"/></g><g clip-path="url(#id3)"><path fill="#2E8BC0" d="M 293.378906 239.445312 C 312.433594 225.238281 333.238281 213.734375 355.46875 205.148438 C 385.59375 193.507812 417.398438 187.609375 450 187.609375 C 537.964844 187.609375 619.644531 231.363281 668.488281 304.648438 L 688.3125 291.445312 C 635.039062 211.515625 545.949219 163.796875 450 163.796875 C 414.453125 163.796875 379.761719 170.234375 346.886719 182.933594 C 320.769531 193.023438 296.464844 206.789062 274.410156 223.960938 L 259.230469 191.023438 L 221.597656 298.046875 L 324.53125 250.308594 L 293.378906 239.445312 " fill-opacity="1" fill-rule="nonzero"/></g></svg>