<svg xmlns="http://www.w3.org/2000/svg" xmlns:xlink="http://www.w3.org/1999/xlink" width="1200" zoomAndPan="magnify" viewBox="0 0 900 899.99999" height="1200" preserveAspectRatio="xMidYMid meet" version="1.0"><path fill="#f1f1f2" d="M 402 131.128906 C 372.941406 131.128906 350.230469 152.277344 345.59375 179.929688 C 351.75 175.878906 358.800781 173.347656 366.28125 172.726562 C 366.433594 172.726562 366.511719 172.6875 366.707031 172.6875 C 367.605469 172.570312 368.773438 172.570312 369.785156 172.570312 C 384.277344 172.570312 397.132812 179.539062 405.585938 190.367188 C 406.480469 191.496094 407.414062 192.820312 408.273438 194.105469 C 408.699219 194.769531 409.167969 195.46875 409.402344 196.132812 C 412.480469 201.46875 414.582031 207.464844 415.519531 213.851562 C 415.984375 216.226562 415.984375 218.679688 415.984375 221.132812 C 415.984375 221.210938 415.984375 221.289062 415.984375 221.367188 C 415.90625 224.71875 415.285156 228.066406 414.386719 231.378906 C 413.960938 232.738281 413.492188 234.027344 413.0625 235.347656 C 410.726562 241.347656 407.21875 247.304688 403.207031 253.34375 C 396.039062 264.089844 386.808594 274.917969 377.691406 284.734375 C 375.394531 287.1875 373.175781 289.5625 370.992188 291.78125 C 370.953125 291.820312 370.953125 291.859375 370.914062 291.859375 C 368.65625 294.117188 366.707031 296.144531 364.722656 298.128906 C 363.824219 299.027344 363.125 299.6875 362.304688 300.46875 C 361.410156 301.402344 360.28125 302.296875 359.460938 303.230469 C 351.945312 310.476562 346.414062 315.421875 343.648438 317.835938 L 343.648438 450.328125 C 343.648438 479.148438 364.058594 502.75 391.367188 507.65625 L 391.367188 408.191406 C 391.367188 379.332031 414.816406 355.886719 443.679688 355.886719 L 621.078125 355.886719 C 649.945312 355.886719 673.394531 379.332031 673.394531 408.191406 L 673.394531 507.65625 C 700.703125 502.75 721.113281 479.148438 721.113281 450.328125 L 721.113281 189.511719 C 721.113281 157.070312 695.25 131.207031 662.800781 131.207031 Z M 641.957031 147.332031 C 677.445312 147.332031 706.195312 176.386719 706.195312 212.097656 L 706.195312 219.1875 C 706.195312 223.394531 702.804688 226.78125 698.636719 226.78125 C 694.46875 226.78125 691.082031 223.394531 691.082031 219.1875 L 691.082031 212.097656 C 691.082031 184.410156 669.265625 162.402344 641.957031 162.402344 C 637.714844 162.558594 634.167969 159.132812 634.167969 154.847656 C 634.167969 150.605469 637.714844 147.175781 641.957031 147.332031 Z M 303.289062 187.640625 C 286.34375 187.640625 272.398438 202.089844 272.125 220.628906 C 274.777344 238.542969 291.371094 261.132812 308.082031 278.34375 C 320.820312 291.507812 330.871094 299.726562 336.128906 303.933594 C 338.386719 301.90625 343.765625 297.390625 351.125 290.261719 C 351.359375 290.03125 351.59375 289.835938 352.023438 289.601562 C 353.152344 288.472656 354.28125 287.574219 355.292969 286.367188 C 356.890625 284.8125 358.449219 283.253906 360.085938 281.578125 C 360.320312 281.34375 360.515625 281.109375 360.746094 280.917969 C 362.773438 278.851562 364.761719 276.710938 366.824219 274.488281 C 375.628906 265.105469 384.355469 254.707031 390.78125 245.046875 C 391.714844 243.917969 392.378906 242.632812 393.078125 241.464844 C 394.445312 239.128906 395.769531 236.828125 396.859375 234.609375 C 399.546875 229.15625 401.066406 224.367188 401.144531 221.09375 C 401.144531 217.007812 400.480469 213.074219 399.117188 209.488281 C 398.6875 208.359375 398.457031 207.464844 397.988281 206.492188 C 395.730469 201.621094 392.496094 197.457031 388.484375 194.261719 C 388.054688 194.066406 387.585938 193.601562 387.355469 193.367188 C 382.367188 189.820312 376.367188 187.757812 369.980469 187.757812 C 369.316406 187.757812 368.65625 187.796875 367.953125 187.875 C 367.292969 187.914062 366.589844 187.992188 365.929688 188.070312 C 357.320312 189.199219 349.488281 194.261719 344.386719 202.089844 C 343.917969 202.753906 343.726562 203.21875 343.257812 203.882812 C 342.476562 205.246094 341.308594 206.335938 339.90625 206.996094 C 339.671875 207.074219 339.480469 207.152344 339.246094 207.191406 C 336.558594 208.164062 333.597656 207.542969 331.492188 205.632812 C 331.335938 205.476562 331.21875 205.324219 331.066406 205.167969 C 330.714844 204.816406 330.402344 204.464844 330.167969 204.039062 C 330.167969 204.113281 330.050781 203.921875 329.703125 203.375 C 329.664062 203.296875 329.664062 203.257812 329.625 203.179688 C 323.820312 193.523438 313.925781 187.835938 303.367188 187.796875 Z M 532.417969 189.003906 C 575.542969 189.003906 610.640625 224.09375 610.640625 267.207031 C 610.640625 310.28125 575.542969 345.410156 532.417969 345.410156 C 489.296875 345.410156 454.199219 310.28125 454.199219 267.207031 C 454.199219 224.09375 489.296875 189.003906 532.417969 189.003906 Z M 532.417969 204.074219 C 497.476562 204.074219 469.3125 232.234375 469.3125 267.207031 C 469.3125 302.140625 497.476562 330.300781 532.417969 330.300781 C 567.363281 330.300781 595.527344 302.140625 595.527344 267.207031 C 595.527344 232.234375 567.363281 204.074219 532.417969 204.074219 Z M 698.519531 232.816406 C 702.804688 232.738281 706.273438 236.207031 706.195312 240.453125 C 706.195312 244.65625 702.804688 248.007812 698.636719 248.007812 C 694.46875 248.007812 691.082031 244.65625 691.082031 240.453125 C 691.042969 236.324219 694.351562 232.894531 698.519531 232.816406 Z M 443.71875 370.917969 C 422.996094 370.917969 406.480469 387.394531 406.480469 408.152344 L 406.480469 508.59375 L 658.359375 508.59375 L 658.359375 408.152344 C 658.359375 387.394531 641.882812 370.917969 621.117188 370.917969 Z M 285.878906 531.027344 L 209.605469 551.511719 L 252.453125 711.851562 L 303.953125 698.609375 C 305.238281 697.984375 306.640625 697.753906 308.082031 697.945312 C 308.742188 697.984375 309.445312 698.140625 310.105469 698.375 L 549.597656 762.753906 C 550.144531 762.832031 550.648438 762.988281 551.195312 763.21875 C 560.503906 766.570312 571.101562 765.945312 580.449219 760.53125 L 786.558594 641.164062 C 803.425781 631.390625 809.113281 610.164062 799.375 593.222656 C 794.503906 584.730469 786.753906 579.125 778.144531 576.824219 C 771.324219 575.035156 764.003906 575.269531 757.03125 577.722656 C 757.03125 577.761719 757.03125 577.761719 756.992188 577.761719 C 756.09375 578.1875 755.199219 578.421875 754.304688 578.890625 C 754.265625 578.890625 754.265625 578.929688 754.226562 578.929688 C 753.328125 579.394531 752.394531 579.824219 751.617188 580.292969 L 560.777344 690.820312 C 559.023438 691.792969 556.960938 692.066406 555.011719 691.519531 L 507.527344 678.746094 C 507.488281 678.746094 507.410156 678.707031 507.371094 678.707031 L 490.152344 674.074219 C 490.074219 674.035156 490.039062 674.035156 490 674.035156 L 437.175781 659.820312 L 372.082031 642.332031 C 372.003906 642.332031 371.929688 642.292969 371.851562 642.292969 L 371.382812 642.175781 C 367.253906 641.164062 364.722656 636.957031 365.851562 632.867188 C 366.941406 628.742188 371.226562 626.363281 375.316406 627.609375 L 375.785156 627.726562 C 375.824219 627.765625 375.863281 627.765625 375.902344 627.765625 L 493.894531 659.46875 C 512.667969 664.492188 531.5625 653.550781 536.625 634.660156 C 541.691406 615.734375 530.707031 596.726562 511.890625 591.664062 Z M 173.300781 532.15625 C 172.171875 532.195312 170.808594 532.351562 169.597656 532.816406 L 105.441406 550.070312 C 95.585938 552.71875 89.585938 563.507812 92.703125 575.074219 L 139.644531 750.835938 C 142.722656 762.441406 153.316406 768.789062 163.132812 766.140625 L 227.289062 748.886719 C 237.144531 746.238281 243.105469 735.453125 240.027344 723.847656 C 239.832031 723.339844 239.679688 722.792969 239.5625 722.289062 L 193.050781 548.042969 C 190.324219 537.917969 181.910156 531.804688 173.261719 532.195312 Z M 722.59375 562.882812 C 721.035156 562.84375 719.246094 562.921875 717.53125 563.117188 C 713.050781 563.546875 708.570312 565.140625 704.363281 567.558594 L 529.1875 669.050781 L 556.105469 676.253906 L 741.332031 568.957031 C 738.097656 566.699219 734.59375 565.023438 730.890625 564.011719 C 728.203125 563.351562 725.398438 562.882812 722.59375 562.882812 Z M 722.59375 562.882812 " fill-opacity="1" fill-rule="nonzero"/></svg>