<svg xmlns="http://www.w3.org/2000/svg" xmlns:xlink="http://www.w3.org/1999/xlink" width="1200" zoomAndPan="magnify" viewBox="0 0 900 899.99999" height="1200" preserveAspectRatio="xMidYMid meet" version="1.0"><defs><clipPath id="id1"><path d="M 121.5 98 L 778.5 98 L 778.5 618 L 121.5 618 Z M 121.5 98 " clip-rule="nonzero"/></clipPath></defs><path fill="#4f64ff" d="M 284.949219 800.894531 C 282.328125 800.894531 279.703125 800.246094 277.296875 798.949219 L 233.746094 776.0625 L 190.222656 798.949219 C 184.671875 801.910156 177.976562 801.417969 172.917969 797.746094 C 167.859375 794.078125 165.332031 787.816406 166.378906 781.675781 L 174.675781 733.1875 L 139.453125 698.828125 C 134.980469 694.476562 133.375 687.96875 135.289062 682.015625 C 137.199219 676.0625 142.351562 671.714844 148.550781 670.820312 L 197.253906 663.757812 L 219 619.648438 C 224.554688 608.449219 242.90625 608.449219 248.457031 619.648438 L 270.265625 663.757812 L 318.910156 670.789062 C 325.109375 671.683594 330.230469 676.03125 332.171875 681.984375 C 334.113281 687.9375 332.480469 694.445312 328.007812 698.796875 L 292.78125 733.15625 L 301.109375 781.644531 C 302.160156 787.785156 299.628906 794.046875 294.570312 797.6875 C 291.734375 799.8125 288.339844 800.894531 284.949219 800.894531 Z M 233.746094 741.117188 C 236.335938 741.117188 238.988281 741.734375 241.394531 742.996094 L 263.140625 754.441406 L 258.976562 730.226562 C 258.050781 724.921875 259.839844 719.460938 263.695312 715.667969 L 281.277344 698.550781 L 257.003906 695.003906 C 251.667969 694.230469 247.039062 690.839844 244.632812 686.027344 L 233.746094 663.972656 L 222.886719 686.027344 C 220.480469 690.839844 215.855469 694.230469 210.519531 695.003906 L 186.214844 698.550781 L 203.792969 715.667969 C 207.648438 719.460938 209.4375 724.859375 208.515625 730.226562 L 204.410156 754.441406 L 226.125 742.996094 C 228.5 741.734375 231.125 741.117188 233.746094 741.117188 Z M 233.746094 741.117188 " fill-opacity="1" fill-rule="nonzero"/><path fill="#4f64ff" d="M 501.328125 800.894531 C 498.703125 800.894531 496.082031 800.246094 493.675781 798.949219 L 450.125 776.0625 L 406.601562 798.949219 C 401.078125 801.910156 394.355469 801.417969 389.296875 797.746094 C 384.207031 794.078125 381.679688 787.816406 382.757812 781.675781 L 391.054688 733.1875 L 355.828125 698.828125 C 351.328125 694.476562 349.753906 687.96875 351.664062 682.015625 C 353.578125 676.0625 358.730469 671.714844 364.929688 670.820312 L 413.632812 663.757812 L 435.378906 619.648438 C 440.902344 608.449219 459.285156 608.449219 464.835938 619.648438 L 486.644531 663.757812 L 535.285156 670.820312 C 541.488281 671.714844 546.605469 676.0625 548.550781 682.015625 C 550.460938 687.96875 548.859375 694.476562 544.386719 698.828125 L 509.160156 733.1875 L 517.519531 781.675781 C 518.570312 787.816406 516.039062 794.078125 510.980469 797.714844 C 508.113281 799.8125 504.71875 800.894531 501.328125 800.894531 Z M 450.125 741.117188 C 452.746094 741.117188 455.367188 741.734375 457.773438 742.996094 L 479.488281 754.441406 L 475.324219 730.226562 C 474.429688 724.921875 476.1875 719.460938 480.042969 715.667969 L 497.625 698.550781 L 473.351562 695.003906 C 468.011719 694.230469 463.386719 690.839844 461.011719 686.027344 L 450.125 663.972656 L 439.265625 686.027344 C 436.859375 690.839844 432.234375 694.230469 426.898438 695.003906 L 402.589844 698.550781 L 420.140625 715.667969 C 423.996094 719.460938 425.785156 724.859375 424.859375 730.226562 L 420.789062 754.441406 L 442.503906 742.996094 C 444.878906 741.734375 447.5 741.117188 450.125 741.117188 Z M 450.125 741.117188 " fill-opacity="1" fill-rule="nonzero"/><g clip-path="url(#id1)"><path fill="#4f64ff" d="M 189.542969 605.121094 C 192.753906 598.613281 197.5625 593.492188 203.054688 589.140625 C 172.332031 542.503906 154.320312 486.859375 154.320312 426.988281 C 154.320312 263.882812 287.015625 131.183594 450.09375 131.183594 C 613.203125 131.183594 745.898438 263.882812 745.898438 426.988281 C 745.898438 486.859375 727.882812 542.597656 697.160156 589.203125 C 702.652344 593.492188 707.464844 598.613281 710.671875 605.121094 L 717.058594 617.953125 C 755.738281 564.097656 778.746094 498.242188 778.746094 426.988281 C 778.777344 245.773438 631.339844 98.367188 450.125 98.367188 C 268.910156 98.367188 121.5 245.773438 121.5 426.988281 C 121.5 498.242188 144.542969 564.035156 183.191406 617.953125 Z M 189.542969 605.121094 " fill-opacity="1" fill-rule="nonzero"/></g><path fill="#4f64ff" d="M 717.734375 800.894531 C 715.113281 800.894531 712.492188 800.246094 710.085938 798.949219 L 666.53125 776.0625 L 623.011719 798.949219 C 617.488281 801.910156 610.765625 801.417969 605.707031 797.746094 C 600.617188 794.078125 598.085938 787.816406 599.167969 781.675781 L 607.464844 733.1875 L 572.238281 698.828125 C 567.765625 694.476562 566.164062 687.96875 568.074219 682.015625 C 570.019531 676.0625 575.136719 671.714844 581.339844 670.820312 L 630.011719 663.757812 L 651.757812 619.648438 C 657.308594 608.449219 675.691406 608.449219 681.214844 619.648438 L 703.023438 663.757812 L 751.664062 670.820312 C 757.863281 671.714844 762.984375 676.0625 764.929688 682.015625 C 766.871094 687.96875 765.265625 694.476562 760.765625 698.828125 L 725.539062 733.1875 L 733.867188 781.675781 C 734.914062 787.816406 732.386719 794.078125 727.328125 797.714844 C 724.519531 799.8125 721.128906 800.894531 717.734375 800.894531 Z M 666.53125 741.117188 C 669.152344 741.117188 671.777344 741.734375 674.183594 742.996094 L 695.925781 754.441406 L 691.761719 730.226562 C 690.839844 724.921875 692.628906 719.460938 696.484375 715.667969 L 714.066406 698.550781 L 689.789062 695.003906 C 684.453125 694.230469 679.828125 690.839844 677.421875 686.027344 L 666.53125 663.972656 L 655.675781 686.027344 C 653.269531 690.839844 648.640625 694.230469 643.304688 695.003906 L 619 698.550781 L 636.582031 715.667969 C 640.4375 719.460938 642.226562 724.859375 641.300781 730.226562 L 637.167969 754.441406 L 658.882812 742.996094 C 661.289062 741.734375 663.878906 741.117188 666.53125 741.117188 Z M 666.53125 741.117188 " fill-opacity="1" fill-rule="nonzero"/><path fill="#4f64ff" d="M 661.90625 431.585938 C 661.90625 420.695312 657.464844 410.917969 650.429688 403.332031 C 655.796875 396.175781 658.820312 387.632812 658.820312 378.65625 C 658.789062 354.996094 638.496094 335.8125 613.570312 335.8125 C 613.570312 335.8125 613.570312 335.8125 613.539062 335.8125 L 489.113281 335.84375 C 491.824219 321.5625 495.003906 303.609375 495.589844 295.773438 C 498.027344 262.152344 501.019531 220.328125 466.78125 213.542969 C 435.65625 207.15625 415.886719 224.304688 406.695312 265.886719 C 400.894531 292.105469 386.769531 317.984375 375.632812 335.6875 C 372.085938 327.113281 363.695312 321.097656 353.792969 321.097656 L 291.640625 321.097656 C 278.5625 321.097656 267.984375 331.710938 267.984375 344.789062 L 267.984375 549.535156 C 267.984375 562.617188 278.5625 573.226562 291.640625 573.226562 L 353.824219 573.226562 C 366.441406 573.226562 376.496094 563.292969 377.207031 550.925781 C 391.300781 565.019531 413.480469 580.195312 444.941406 580.195312 L 582.480469 580.195312 C 607.402344 580.195312 627.730469 560.980469 627.761719 537.292969 C 627.761719 530.414062 625.847656 524.027344 622.792969 518.261719 C 633.527344 510.425781 640.53125 498.242188 640.53125 484.421875 C 640.53125 479.179688 639.542969 474.152344 637.691406 469.496094 C 652.066406 462.308594 661.90625 447.996094 661.90625 431.585938 Z M 322.703125 537.351562 C 311.445312 537.351562 302.34375 528.191406 302.34375 516.996094 C 302.34375 505.738281 311.445312 496.574219 322.703125 496.574219 C 333.960938 496.574219 343.058594 505.738281 343.058594 516.996094 C 343.089844 528.191406 333.960938 537.351562 322.703125 537.351562 Z M 616.59375 441.578125 L 595.25 441.578125 L 576.28125 441.640625 C 567.210938 441.640625 559.871094 448.980469 559.902344 458.082031 C 559.902344 467.117188 567.273438 474.460938 576.3125 474.460938 L 576.339844 474.460938 L 595.25 474.429688 C 601.972656 474.460938 607.679688 479.023438 607.679688 484.390625 C 607.679688 489.945312 602.128906 494.449219 595.28125 494.449219 L 582.601562 494.449219 C 582.570312 494.449219 582.542969 494.449219 582.480469 494.449219 L 566.71875 494.449219 C 557.648438 494.449219 550.308594 501.789062 550.277344 510.828125 C 550.277344 519.925781 557.617188 527.265625 566.6875 527.265625 L 582.511719 527.265625 C 589.203125 527.328125 594.847656 531.894531 594.878906 537.261719 C 594.878906 542.6875 589.171875 547.316406 582.449219 547.316406 L 444.910156 547.316406 C 413.601562 547.316406 395.375 523.566406 389.789062 515.019531 L 389.789062 373.441406 C 400 359.59375 428.964844 317.488281 438.773438 273.011719 C 445.496094 242.722656 453.394531 244.324219 461.164062 245.589844 C 462.585938 247.410156 465.546875 255.769531 462.832031 293.429688 C 462.214844 301.789062 456.507812 331.925781 453.054688 349.011719 C 452.066406 353.855469 453.300781 358.851562 456.445312 362.648438 C 459.5625 366.472656 464.21875 368.660156 469.15625 368.660156 L 613.539062 368.660156 C 620.265625 368.660156 625.941406 373.226562 625.941406 378.65625 C 625.941406 381.554688 624.429688 383.652344 623.164062 384.917969 C 620.789062 387.261719 617.335938 388.648438 613.539062 388.648438 C 613.539062 388.648438 613.507812 388.648438 613.507812 388.648438 L 585.78125 388.648438 C 576.710938 388.648438 569.339844 395.992188 569.339844 405.027344 C 569.339844 414.128906 576.679688 421.46875 585.75 421.46875 L 616.59375 421.5 C 623.320312 421.5 628.992188 426.09375 628.992188 431.492188 C 629.054688 437.046875 623.472656 441.578125 616.59375 441.578125 Z M 616.59375 441.578125 " fill-opacity="1" fill-rule="nonzero"/></svg>