<svg xmlns="http://www.w3.org/2000/svg" xmlns:xlink="http://www.w3.org/1999/xlink" width="1200" zoomAndPan="magnify" viewBox="0 0 900 899.99999" height="1200" preserveAspectRatio="xMidYMid meet" version="1.0"><defs><clipPath id="id1"><path d="M 177.460938 94.320312 L 722 94.320312 L 722 804 L 177.460938 804 Z M 177.460938 94.320312 " clip-rule="nonzero"/></clipPath></defs><g clip-path="url(#id1)"><path fill="#4f64ff" d="M 718.175781 415.433594 L 671.550781 340.5625 C 671.550781 311.167969 667.667969 284.546875 661.007812 257.925781 C 661.007812 257.925781 661.007812 257.375 661.007812 257.375 C 628.8125 159.761719 536.671875 94.320312 431.214844 94.320312 C 293.558594 94.320312 177.554688 215.777344 177.554688 359.417969 C 177.554688 432.074219 204.195312 488.640625 263.03125 542.992188 C 287.453125 565.175781 301.332031 597.34375 301.332031 631.175781 L 301.332031 632.839844 C 301.332031 671.660156 283.570312 708.820312 253.59375 732.113281 L 186.988281 784.246094 C 181.992188 788.128906 181.4375 794.78125 185.324219 799.773438 C 189.210938 804.765625 195.871094 805.320312 200.867188 801.4375 L 267.472656 749.304688 C 302.441406 721.574219 323.53125 677.761719 323.53125 632.839844 L 323.53125 631.175781 C 323.53125 591.242188 306.882812 552.976562 278.019531 526.910156 C 224.175781 476.996094 199.753906 425.417969 199.753906 359.417969 C 199.753906 227.980469 305.769531 116.503906 431.214844 116.503906 C 527.238281 116.503906 610.496094 175.292969 639.359375 263.472656 C 644.910156 283.992188 647.683594 305.070312 648.796875 327.253906 L 621.597656 327.253906 C 615.492188 327.253906 610.496094 332.246094 610.496094 338.34375 C 610.496094 344.445312 615.492188 349.4375 621.597656 349.4375 L 651.015625 349.4375 C 651.015625 349.4375 699.304688 427.082031 699.304688 427.082031 C 699.304688 427.636719 699.304688 428.191406 698.75 428.191406 C 698.75 428.191406 636.582031 427.082031 636.582031 427.082031 C 630.476562 427.082031 625.484375 432.074219 625.484375 438.171875 L 625.484375 530.792969 C 625.484375 556.859375 604.945312 577.933594 579.96875 577.933594 C 579.96875 577.933594 534.453125 577.933594 534.453125 577.933594 C 528.347656 577.933594 523.351562 582.925781 523.351562 589.023438 L 523.351562 673.324219 C 523.351562 708.265625 540.003906 740.429688 568.3125 759.84375 C 568.3125 759.84375 629.921875 801.992188 629.921875 801.992188 C 634.917969 805.320312 642.132812 804.210938 645.464844 799.21875 C 648.796875 794.226562 647.683594 787.019531 642.691406 783.691406 L 581.078125 741.539062 C 558.875 726.011719 545.554688 700.5 545.554688 673.324219 L 545.554688 600.117188 L 579.96875 600.117188 C 617.15625 600.117188 647.683594 569.058594 647.683594 530.792969 L 647.683594 449.820312 L 698.195312 450.929688 C 698.195312 450.929688 698.75 450.929688 698.75 450.929688 C 707.074219 450.929688 714.292969 446.492188 718.175781 439.28125 C 722.617188 431.519531 722.617188 422.644531 718.175781 415.433594 Z M 718.175781 415.433594 " fill-opacity="1" fill-rule="nonzero"/></g><path fill="#4f64ff" d="M 535.007812 440.390625 C 581.078125 394.359375 577.191406 318.933594 577.191406 315.605469 C 576.636719 310.058594 572.199219 305.625 566.648438 305.070312 C 565.535156 305.070312 551.660156 304.515625 532.789062 306.734375 C 531.679688 270.128906 521.6875 241.84375 521.132812 240.179688 C 520.023438 237.40625 517.800781 235.1875 515.582031 234.078125 C 512.804688 232.96875 510.03125 232.96875 507.257812 233.523438 C 505.589844 234.078125 480.058594 244.0625 453.414062 264.582031 C 437.875 237.960938 420.667969 220.214844 419.558594 219.105469 C 415.117188 214.667969 408.457031 214.667969 404.015625 219.105469 C 402.90625 220.214844 385.699219 237.40625 370.15625 264.582031 C 343.515625 243.507812 317.980469 234.078125 316.316406 233.523438 C 313.542969 232.414062 310.210938 232.414062 307.992188 234.078125 C 305.214844 235.1875 302.996094 237.40625 302.441406 240.179688 C 301.886719 241.84375 291.894531 270.683594 290.785156 306.734375 C 271.914062 304.515625 258.035156 305.070312 256.925781 305.070312 C 251.375 305.625 246.933594 310.058594 246.378906 315.605469 C 246.378906 318.933594 242.496094 394.359375 288.5625 440.390625 C 327.417969 479.214844 387.917969 482.542969 407.347656 482.542969 C 409.566406 482.542969 411.230469 482.542969 412.339844 482.542969 C 412.339844 482.542969 412.898438 482.542969 412.898438 482.542969 C 412.898438 482.542969 413.453125 482.542969 413.453125 482.542969 C 414.5625 482.542969 416.226562 482.542969 418.445312 482.542969 C 435.652344 482.542969 496.15625 479.214844 535.007812 440.390625 Z M 503.371094 259.589844 C 506.144531 271.238281 510.03125 290.09375 510.585938 311.167969 C 498.929688 313.941406 486.71875 317.824219 475.0625 323.925781 C 472.289062 310.058594 468.402344 297.304688 462.851562 285.101562 C 477.839844 272.902344 493.378906 264.027344 503.371094 259.589844 Z M 317.980469 259.589844 C 327.972656 264.582031 342.960938 272.902344 358.5 285.65625 C 353.503906 297.304688 349.066406 310.613281 346.289062 324.480469 C 334.632812 318.378906 322.421875 314.496094 310.765625 311.722656 C 311.320312 289.539062 315.207031 270.683594 317.980469 259.589844 Z M 301.886719 424.863281 C 272.46875 394.914062 267.472656 348.328125 266.363281 327.253906 C 283.011719 327.808594 316.316406 331.136719 344.070312 347.773438 C 344.070312 348.328125 344.070312 348.882812 344.070312 349.4375 C 344.070312 396.023438 368.492188 436.507812 385.699219 459.25 C 361.832031 457.03125 326.308594 448.710938 301.886719 424.863281 Z M 410.675781 454.8125 C 396.246094 437.617188 366.273438 396.578125 366.273438 349.4375 C 366.273438 302.296875 396.246094 261.253906 410.675781 244.0625 C 425.109375 261.253906 455.082031 302.296875 455.082031 349.4375 C 455.082031 396.578125 425.109375 437.617188 410.675781 454.8125 Z M 435.652344 459.25 C 452.859375 436.507812 477.28125 396.023438 477.28125 349.4375 C 477.28125 348.882812 477.28125 348.328125 477.28125 347.773438 C 505.035156 331.136719 538.339844 327.808594 554.992188 327.253906 C 554.4375 347.773438 549.441406 394.914062 519.46875 424.863281 C 495.042969 448.710938 459.519531 457.03125 435.652344 459.25 Z M 435.652344 459.25 " fill-opacity="1" fill-rule="nonzero"/></svg>