<svg xmlns="http://www.w3.org/2000/svg" xmlns:xlink="http://www.w3.org/1999/xlink" width="1200" zoomAndPan="magnify" viewBox="0 0 900 899.99999" height="1200" preserveAspectRatio="xMidYMid meet" version="1.0"><defs><clipPath id="id1"><path d="M 730 506 L 757.949219 506 L 757.949219 534 L 730 534 Z M 730 506 " clip-rule="nonzero"/></clipPath><clipPath id="id2"><path d="M 142.199219 105 L 323 105 L 323 304 L 142.199219 304 Z M 142.199219 105 " clip-rule="nonzero"/></clipPath></defs><path fill="#323335" d="M 756.777344 561.09375 L 730.847656 558.855469 C 722.554688 654.4375 667.125 739.082031 582.46875 785.339844 L 594.964844 808.21875 C 687.261719 757.734375 747.78125 665.367188 756.777344 561.09375 " fill-opacity="1" fill-rule="nonzero"/><g clip-path="url(#id1)"><path fill="#323335" d="M 730.792969 509.085938 C 731.5625 517.273438 731.914062 525.65625 731.914062 533.945312 L 757.949219 533.945312 C 757.949219 524.898438 757.546875 515.75 756.726562 506.746094 L 730.792969 509.085938 " fill-opacity="1" fill-rule="nonzero"/></g><path fill="#323335" d="M 432.5 597.132812 L 432.5 612.035156 L 458.535156 612.035156 L 458.535156 597.132812 C 473.585938 592.355469 484.574219 578.480469 484.574219 561.863281 C 484.574219 547.726562 476.695312 534.960938 464.03125 528.660156 L 438.660156 515.945312 C 434.84375 514.070312 432.5 510.257812 432.5 506.027344 C 432.5 499.886719 437.488281 494.902344 443.632812 494.902344 L 447.40625 494.902344 C 453.550781 494.902344 458.535156 499.886719 458.535156 506.027344 L 458.535156 507.914062 L 484.574219 507.914062 L 484.574219 506.027344 C 484.574219 489.410156 473.585938 475.535156 458.535156 470.757812 L 458.535156 455.855469 L 432.5 455.855469 L 432.5 470.757812 C 417.453125 475.535156 406.464844 489.410156 406.464844 506.027344 C 406.464844 520.164062 414.339844 532.929688 427.007812 539.230469 L 452.378906 551.945312 C 456.195312 553.820312 458.535156 557.632812 458.535156 561.863281 C 458.535156 568.003906 453.550781 572.988281 447.40625 572.988281 L 443.632812 572.988281 C 437.488281 572.988281 432.5 568.003906 432.5 561.863281 L 432.5 559.976562 L 406.464844 559.976562 L 406.464844 561.863281 C 406.464844 578.480469 417.453125 592.355469 432.5 597.132812 " fill-opacity="1" fill-rule="nonzero"/><path fill="#323335" d="M 380.429688 520.929688 L 354.394531 520.929688 L 354.394531 546.960938 L 380.429688 546.960938 L 380.429688 520.929688 " fill-opacity="1" fill-rule="nonzero"/><path fill="#323335" d="M 536.644531 520.929688 L 510.609375 520.929688 L 510.609375 546.960938 L 536.644531 546.960938 L 536.644531 520.929688 " fill-opacity="1" fill-rule="nonzero"/><path fill="#323335" d="M 667.996094 299.679688 L 562.679688 299.679688 L 562.679688 325.710938 L 675.726562 325.710938 C 677.550781 334.195312 678.566406 342.941406 679.179688 351.738281 L 509.191406 351.738281 C 526.113281 335.171875 536.644531 312.136719 536.644531 286.664062 C 536.644531 250.417969 515.28125 219.144531 484.574219 204.464844 L 484.574219 159.613281 C 571.9375 172.578125 641.453125 227.539062 667.996094 299.679688 Z M 692.859375 403.796875 L 198.175781 403.796875 C 191.003906 403.796875 185.160156 397.953125 185.160156 390.78125 C 185.160156 383.613281 191.003906 377.769531 198.175781 377.769531 L 692.859375 377.769531 C 700.03125 377.769531 705.878906 383.613281 705.878906 390.78125 C 705.878906 397.953125 700.03125 403.796875 692.859375 403.796875 Z M 296.214844 429.828125 L 594.820312 429.828125 C 616.429688 460.582031 627.769531 496.476562 627.769531 533.945312 C 627.769531 634.40625 546.003906 716.152344 445.519531 716.152344 C 345.03125 716.152344 263.265625 634.40625 263.265625 533.945312 C 263.265625 496.476562 274.605469 460.582031 296.214844 429.828125 Z M 679.84375 533.945312 C 679.84375 663.128906 574.734375 768.210938 445.519531 768.210938 C 316.300781 768.210938 211.195312 663.128906 211.195312 533.945312 C 211.195312 497.855469 219.632812 462.011719 235.605469 429.828125 L 265.507812 429.828125 C 247.046875 461.453125 237.230469 496.984375 237.230469 533.945312 C 237.230469 648.789062 330.648438 742.179688 445.519531 742.179688 C 560.390625 742.179688 653.804688 648.789062 653.804688 533.945312 C 653.804688 496.984375 643.992188 461.453125 625.53125 429.828125 L 655.433594 429.828125 C 671.40625 462.011719 679.84375 497.855469 679.84375 533.945312 Z M 406.464844 159.613281 L 406.464844 204.464844 C 375.753906 219.144531 354.394531 250.417969 354.394531 286.664062 C 354.394531 312.136719 364.925781 335.171875 381.847656 351.738281 L 211.859375 351.738281 C 212.472656 342.941406 213.488281 334.195312 215.308594 325.710938 L 328.355469 325.710938 L 328.355469 299.679688 L 223.042969 299.679688 C 249.585938 227.539062 319.101562 172.578125 406.464844 159.613281 Z M 445.519531 117.472656 C 452.691406 117.472656 458.535156 123.320312 458.535156 130.488281 L 458.535156 196.628906 C 454.265625 195.964844 449.945312 195.5625 445.519531 195.5625 C 441.09375 195.5625 436.769531 195.964844 432.5 196.628906 L 432.5 130.488281 C 432.5 123.320312 438.347656 117.472656 445.519531 117.472656 Z M 445.519531 351.738281 C 409.613281 351.738281 380.429688 322.558594 380.429688 286.664062 C 380.429688 250.769531 409.613281 221.589844 445.519531 221.589844 C 481.421875 221.589844 510.609375 250.769531 510.609375 286.664062 C 510.609375 322.558594 481.421875 351.738281 445.519531 351.738281 Z M 445.519531 91.445312 C 423.960938 91.445312 406.464844 108.933594 406.464844 130.488281 L 406.464844 133.386719 C 283.511719 149.960938 191.367188 242.023438 185.71875 353.972656 C 170.304688 359.207031 159.125 373.652344 159.125 390.777344 C 159.125 412.332031 176.621094 429.824219 198.175781 429.824219 L 206.976562 429.824219 C 192.734375 462.515625 185.160156 498.097656 185.160156 533.941406 C 185.160156 677.453125 301.96875 794.234375 445.519531 794.234375 C 589.066406 794.234375 705.878906 677.453125 705.878906 533.941406 C 705.878906 498.097656 698.300781 462.515625 684.058594 429.824219 L 692.859375 429.824219 C 714.417969 429.824219 731.914062 412.332031 731.914062 390.777344 C 731.914062 373.652344 720.730469 359.207031 705.316406 353.972656 C 699.667969 242.019531 607.527344 149.953125 484.574219 133.386719 L 484.574219 130.484375 C 484.574219 108.929688 467.078125 91.441406 445.519531 91.441406 " fill-opacity="1" fill-rule="nonzero"/><path fill="#323335" d="M 445.519531 299.679688 C 438.347656 299.679688 432.5 293.835938 432.5 286.664062 C 432.5 279.492188 438.347656 273.648438 445.519531 273.648438 C 452.691406 273.648438 458.535156 279.492188 458.535156 286.664062 C 458.535156 293.835938 452.691406 299.679688 445.519531 299.679688 Z M 445.519531 247.621094 C 423.960938 247.621094 406.464844 265.113281 406.464844 286.664062 C 406.464844 308.21875 423.960938 325.710938 445.519531 325.710938 C 467.078125 325.710938 484.574219 308.21875 484.574219 286.664062 C 484.574219 265.113281 467.078125 247.621094 445.519531 247.621094 " fill-opacity="1" fill-rule="nonzero"/><g clip-path="url(#id2)"><path fill="#323335" d="M 322.460938 129.421875 L 312.1875 105.527344 C 226.453125 142.332031 164.410156 211.882812 141.992188 296.320312 L 167.15625 303.039062 C 187.503906 226.367188 244.144531 163.078125 322.460938 129.421875 " fill-opacity="1" fill-rule="nonzero"/></g></svg>