<svg xmlns="http://www.w3.org/2000/svg" xmlns:xlink="http://www.w3.org/1999/xlink" width="1200" zoomAndPan="magnify" viewBox="0 0 900 899.99999" height="1200" preserveAspectRatio="xMidYMid meet" version="1.0"><defs><clipPath id="id1"><path d="M 90 411 L 751 411 L 751 690 L 90 690 Z M 90 411 " clip-rule="nonzero"/></clipPath></defs><path fill="#f1f1f2" d="M 299.859375 714.417969 L 198.746094 714.417969 C 193.703125 714.417969 189.613281 718.5 189.613281 723.546875 L 189.613281 800.480469 C 189.613281 805.527344 193.703125 809.613281 198.746094 809.613281 L 299.859375 809.613281 C 304.902344 809.613281 308.992188 805.527344 308.992188 800.480469 L 308.992188 723.546875 C 308.992188 718.503906 304.902344 714.417969 299.859375 714.417969 Z M 299.859375 714.417969 " fill-opacity="1" fill-rule="nonzero"/><path fill="#f1f1f2" d="M 498.976562 673.644531 L 397.863281 673.644531 C 392.824219 673.644531 388.734375 677.734375 388.734375 682.777344 L 388.734375 800.484375 C 388.734375 805.527344 392.820312 809.613281 397.863281 809.613281 L 498.976562 809.613281 C 504.019531 809.613281 508.109375 805.53125 508.109375 800.484375 L 508.109375 682.777344 C 508.105469 677.734375 504.019531 673.644531 498.976562 673.644531 Z M 498.976562 673.644531 " fill-opacity="1" fill-rule="nonzero"/><path fill="#f1f1f2" d="M 698.09375 564.535156 L 596.980469 564.535156 C 591.9375 564.535156 587.851562 568.625 587.851562 573.664062 L 587.851562 800.484375 C 587.851562 805.527344 591.9375 809.613281 596.980469 809.613281 L 698.09375 809.613281 C 703.136719 809.613281 707.226562 805.53125 707.226562 800.484375 L 707.226562 573.664062 C 707.226562 568.625 703.136719 564.535156 698.09375 564.535156 Z M 698.09375 564.535156 " fill-opacity="1" fill-rule="nonzero"/><path fill="#f1f1f2" d="M 329.988281 304.464844 C 329.988281 314.554688 344.410156 322.617188 346.898438 331.921875 C 349.472656 341.550781 341.085938 355.730469 345.964844 364.15625 C 350.910156 372.710938 367.425781 372.5 374.367188 379.445312 C 381.308594 386.382812 381.097656 402.902344 389.652344 407.847656 C 398.082031 412.726562 412.257812 404.335938 421.890625 406.914062 C 431.195312 409.398438 439.253906 423.828125 449.347656 423.828125 C 459.4375 423.828125 467.496094 409.398438 476.800781 406.914062 C 486.429688 404.335938 500.613281 412.726562 509.039062 407.851562 C 517.589844 402.898438 517.386719 386.382812 524.324219 379.441406 C 531.265625 372.503906 547.78125 372.710938 552.730469 364.15625 C 557.609375 355.726562 549.21875 341.550781 551.796875 331.917969 C 554.285156 322.613281 568.707031 314.554688 568.707031 304.460938 C 568.707031 294.375 554.285156 286.3125 551.796875 277.003906 C 549.21875 267.378906 557.609375 253.199219 552.730469 244.773438 C 547.78125 236.21875 531.269531 236.421875 524.328125 229.484375 C 517.386719 222.542969 517.59375 206.023438 509.042969 201.078125 C 500.613281 196.199219 486.433594 204.585938 476.800781 202.011719 C 467.5 199.523438 459.4375 185.097656 449.347656 185.097656 C 439.253906 185.097656 431.195312 199.523438 421.890625 202.011719 C 412.261719 204.585938 398.082031 196.199219 389.652344 201.078125 C 381.101562 206.027344 381.308594 222.542969 374.367188 229.484375 C 367.429688 236.425781 350.910156 236.214844 345.964844 244.769531 C 341.085938 253.195312 349.472656 267.375 346.898438 277.007812 C 344.410156 286.3125 329.988281 294.375 329.988281 304.464844 Z M 415.042969 281.820312 C 415.042969 267.226562 425.691406 257.0625 442.835938 254.390625 L 442.835938 236.867188 L 459.230469 236.867188 L 459.230469 254.167969 C 470.902344 255.691406 479.367188 260.960938 486.351562 268.007812 L 474.109375 282.183594 C 466.140625 276.574219 459.933594 273.628906 450.578125 273.628906 C 442.976562 273.628906 438.761719 276.511719 438.761719 281.484375 C 438.761719 293.589844 488.148438 292.085938 488.148438 322.90625 C 488.148438 337.046875 477.960938 348.347656 459.230469 351.5 L 459.230469 372.058594 L 442.835938 372.058594 L 442.835938 352.070312 C 431.785156 350.839844 419.070312 346.050781 410.546875 338.6875 L 421.347656 321.914062 C 431.964844 328.53125 441.195312 332.445312 451.832031 332.445312 C 460.09375 332.445312 464.429688 329.53125 464.429688 324.636719 C 464.429688 310.40625 415.042969 312.925781 415.042969 281.820312 Z M 415.042969 281.820312 " fill-opacity="1" fill-rule="nonzero"/><path fill="#f1f1f2" d="M 439.984375 90.242188 L 458.304688 90.242188 L 458.304688 138.277344 L 439.984375 138.277344 Z M 439.984375 90.242188 " fill-opacity="1" fill-rule="nonzero"/><path fill="#f1f1f2" d="M 522.230469 104.0625 L 539.117188 111.171875 L 520.46875 155.445312 L 503.582031 148.332031 Z M 522.230469 104.0625 " fill-opacity="1" fill-rule="nonzero"/><path fill="#f1f1f2" d="M 376.453125 104.050781 L 395.089844 148.328125 L 378.203125 155.4375 L 359.566406 111.160156 Z M 376.453125 104.050781 " fill-opacity="1" fill-rule="nonzero"/><path fill="#f1f1f2" d="M 802.699219 388.417969 L 766.292969 372.703125 C 762.582031 371.109375 758.285156 371.898438 755.382812 374.703125 C 752.480469 377.511719 751.558594 381.792969 753.039062 385.542969 L 760.527344 404.550781 L 760.519531 404.550781 L 767.25 421.605469 L 774.847656 440.886719 C 776.351562 444.707031 780.042969 447.21875 784.144531 447.21875 C 784.179688 447.21875 784.21875 447.21875 784.257812 447.21875 C 788.402344 447.167969 792.089844 444.570312 793.523438 440.679688 L 808.117188 401.046875 C 809.953125 396.070312 807.570312 390.519531 802.699219 388.417969 Z M 802.699219 388.417969 " fill-opacity="1" fill-rule="nonzero"/><g clip-path="url(#id1)"><path fill="#f1f1f2" d="M 677.402344 439.265625 C 670.773438 429.933594 659.847656 423.84375 647.554688 423.84375 C 627.296875 423.84375 610.84375 440.300781 610.84375 460.519531 C 610.84375 462.183594 610.945312 463.851562 611.210938 465.484375 L 478.1875 518.183594 C 471.527344 508.925781 460.667969 502.894531 448.410156 502.894531 C 428.1875 502.894531 411.730469 519.351562 411.730469 539.570312 C 411.730469 541.203125 411.832031 542.800781 412.0625 544.402344 L 279.34375 597 C 272.679688 587.542969 261.6875 581.378906 249.296875 581.378906 C 229.074219 581.378906 212.617188 597.835938 212.617188 618.054688 C 212.617188 619.820312 212.75 621.589844 213.015625 623.285156 L 89.960938 672.058594 L 96.6875 689.113281 L 220.078125 640.207031 C 226.773438 649.035156 237.371094 654.765625 249.296875 654.765625 C 269.546875 654.765625 286.007812 638.277344 286.007812 618.054688 C 286.007812 616.71875 285.941406 615.425781 285.773438 614.15625 L 418.925781 561.390625 C 425.625 570.417969 436.351562 576.28125 448.410156 576.28125 C 468.660156 576.28125 485.121094 559.820312 485.121094 539.566406 C 485.121094 538.101562 485.019531 536.671875 484.851562 535.273438 L 618.136719 482.433594 C 624.832031 491.398438 635.527344 497.191406 647.550781 497.191406 C 667.773438 497.191406 684.230469 480.738281 684.230469 460.515625 C 684.230469 459.117188 684.164062 457.71875 683.964844 456.351562 C 683.523438 452.183594 682.304688 448.261719 680.542969 444.640625 C 682.304688 448.261719 683.523438 452.183594 683.964844 456.351562 L 750.320312 428.671875 L 743.625 411.613281 Z M 267.351562 621.488281 C 265.753906 629.984375 258.257812 636.445312 249.296875 636.445312 C 245.265625 636.445312 241.535156 635.144531 238.535156 632.914062 C 233.9375 629.578125 230.941406 624.152344 230.941406 618.054688 C 230.941406 617.421875 230.972656 616.789062 231.039062 616.152344 C 232.007812 606.929688 239.800781 599.699219 249.296875 599.699219 C 253.855469 599.699219 258.054688 601.398438 261.285156 604.160156 C 265.21875 607.527344 267.683594 612.492188 267.683594 618.054688 C 267.683594 619.222656 267.585938 620.390625 267.351562 621.488281 Z M 466.53125 542.535156 C 465.128906 551.261719 457.535156 557.957031 448.410156 557.957031 C 444.210938 557.957031 440.34375 556.527344 437.25 554.128906 C 432.882812 550.796875 430.050781 545.5 430.050781 539.566406 C 430.050781 538.769531 430.117188 537.96875 430.21875 537.203125 C 431.386719 528.175781 439.078125 521.210938 448.410156 521.210938 C 452.835938 521.210938 456.871094 522.777344 460.066406 525.375 C 464.164062 528.738281 466.796875 533.875 466.796875 539.566406 C 466.796875 540.570312 466.730469 541.570312 466.53125 542.535156 Z M 665.644531 463.617188 C 664.179688 472.277344 656.617188 478.875 647.554688 478.875 C 643.421875 478.875 639.59375 477.511719 636.527344 475.175781 C 632.066406 471.847656 629.164062 466.515625 629.164062 460.515625 C 629.164062 459.785156 629.199219 459.019531 629.300781 458.316406 C 630.398438 449.226562 638.160156 442.164062 647.554688 442.164062 C 652.019531 442.164062 656.117188 443.761719 659.3125 446.429688 C 663.34375 449.792969 665.910156 454.851562 665.910156 460.515625 C 665.910156 461.585938 665.808594 462.617188 665.644531 463.617188 Z M 665.644531 463.617188 " fill-opacity="1" fill-rule="nonzero"/></g></svg>