<svg xmlns="http://www.w3.org/2000/svg" xmlns:xlink="http://www.w3.org/1999/xlink" width="1200" zoomAndPan="magnify" viewBox="0 0 900 899.99999" height="1200" preserveAspectRatio="xMidYMid meet" version="1.0"><defs><clipPath id="id1"><path d="M 660 242 L 796.800781 242 L 796.800781 376 L 660 376 Z M 660 242 " clip-rule="nonzero"/></clipPath><clipPath id="id2"><path d="M 103.050781 90 L 780 90 L 780 810 L 103.050781 810 Z M 103.050781 90 " clip-rule="nonzero"/></clipPath></defs><path fill="#7ec154" d="M 559.703125 293.042969 C 567.742188 306.890625 565.34375 324.398438 553.871094 335.617188 C 551.457031 337.976562 548.746094 339.964844 545.789062 341.53125 C 541.296875 343.925781 536.175781 345.316406 530.988281 345.550781 C 521.054688 345.992188 511.347656 342.167969 504.398438 335.058594 C 500.0625 330.617188 496.972656 325.097656 495.472656 319.105469 C 492.476562 307.078125 496.113281 294.230469 504.957031 285.578125 C 514.550781 276.191406 528.898438 273.105469 541.511719 277.722656 L 549.363281 256.253906 C 528.53125 248.632812 504.828125 253.726562 488.972656 269.234375 C 474.355469 283.535156 468.347656 304.757812 473.300781 324.636719 C 475.785156 334.570312 480.882812 343.699219 488.058594 351.035156 C 498.949219 362.175781 513.90625 368.4375 529.441406 368.4375 C 530.292969 368.4375 531.148438 368.417969 532 368.382812 C 540.570312 367.996094 549.050781 365.6875 556.503906 361.710938 C 561.378906 359.132812 565.863281 355.847656 569.84375 351.957031 C 588.800781 333.417969 592.753906 304.46875 579.460938 281.5625 Z M 559.703125 293.042969 " fill-opacity="1" fill-rule="nonzero"/><g clip-path="url(#id1)"><path fill="#7ec154" d="M 761.390625 242.507812 C 741.902344 242.507812 726.042969 258.371094 726.042969 277.863281 C 726.042969 293.355469 736.074219 306.523438 749.964844 311.289062 L 749.964844 352.539062 L 660.125 352.539062 L 660.125 375.394531 L 772.816406 375.394531 L 772.816406 311.289062 C 786.710938 306.523438 796.742188 293.355469 796.742188 277.863281 C 796.738281 258.371094 780.878906 242.507812 761.390625 242.507812 Z M 761.390625 290.363281 C 754.503906 290.363281 748.898438 284.757812 748.898438 277.863281 C 748.898438 270.96875 754.5 265.363281 761.390625 265.363281 C 768.285156 265.363281 773.886719 270.96875 773.886719 277.863281 C 773.886719 284.757812 768.28125 290.363281 761.390625 290.363281 Z M 761.390625 290.363281 " fill-opacity="1" fill-rule="nonzero"/></g><g clip-path="url(#id2)"><path fill="#7ec154" d="M 631.628906 345.613281 L 666.464844 333.46875 L 667.226562 327.515625 C 667.972656 321.738281 668.355469 315.847656 668.355469 310.015625 C 668.355469 304.175781 667.972656 298.285156 667.226562 292.507812 L 666.464844 286.550781 L 631.628906 274.410156 C 630.152344 270.191406 628.414062 266.070312 626.425781 262.078125 L 642.285156 229.40625 L 638.539062 224.667969 C 636.492188 222.085938 634.34375 219.585938 632.117188 217.152344 L 632.117188 182.136719 L 710.347656 182.136719 C 715.113281 196.03125 728.273438 206.0625 743.765625 206.0625 C 763.253906 206.0625 779.113281 190.203125 779.113281 170.707031 C 779.113281 151.210938 763.257812 135.351562 743.765625 135.351562 C 728.273438 135.351562 715.113281 145.382812 710.347656 159.277344 L 609.265625 159.277344 L 609.265625 196.878906 L 608.390625 196.214844 L 575.027344 211.746094 C 570.949219 209.800781 566.738281 208.09375 562.433594 206.648438 L 550.035156 172.535156 L 543.96875 171.785156 C 542.933594 171.664062 541.898438 171.558594 540.859375 171.457031 L 540.859375 113.878906 L 412.910156 113.878906 C 408.144531 99.984375 394.980469 89.953125 379.496094 89.953125 C 360.007812 89.953125 344.148438 105.8125 344.148438 125.308594 C 344.148438 144.804688 360.007812 160.664062 379.496094 160.664062 C 394.984375 160.664062 408.144531 150.632812 412.910156 136.738281 L 518.007812 136.738281 L 518.007812 170.9375 C 514.71875 171.117188 511.453125 171.390625 508.203125 171.789062 L 502.125 172.539062 L 489.742188 206.652344 C 485.417969 208.097656 481.207031 209.800781 477.128906 211.75 L 443.769531 196.21875 L 438.945312 199.902344 C 437.964844 200.648438 437.003906 201.410156 436.046875 202.175781 C 434.957031 201.902344 433.875 201.601562 432.78125 201.34375 C 415.988281 197.355469 398.582031 195.304688 380.820312 195.304688 C 356.898438 195.304688 333.335938 199.085938 310.789062 206.550781 C 279.152344 217 249.582031 234.886719 225.269531 258.269531 C 208.527344 274.320312 194.292969 292.796875 182.980469 313.230469 C 163.960938 347.539062 153.800781 386.597656 153.578125 426.183594 C 153.5625 426.640625 153.5625 427.117188 153.5625 427.609375 C 153.5625 442.066406 154.867188 456.523438 157.464844 470.601562 L 115.410156 569.664062 L 103.113281 598.664062 L 170.917969 617.191406 L 208.730469 736.578125 L 303.257812 736.578125 L 326.074219 810.050781 L 606.515625 729.707031 L 571.382812 554.035156 C 581.304688 538.410156 589.347656 521.710938 595.285156 504.355469 C 601.933594 485.042969 606.023438 464.835938 607.449219 444.308594 C 607.839844 438.824219 608.046875 433.210938 608.046875 427.609375 C 608.046875 427.234375 608.046875 426.878906 608.027344 426.523438 C 608.046875 426.21875 608.027344 425.914062 608.027344 425.609375 C 608.023438 424.941406 607.996094 424.285156 607.988281 423.621094 L 608.394531 423.808594 L 613.234375 420.125 C 622.679688 412.949219 631.199219 404.609375 638.542969 395.359375 L 642.289062 390.621094 L 626.425781 357.949219 C 628.414062 353.953125 630.152344 349.832031 631.628906 345.613281 Z M 743.765625 158.210938 C 750.652344 158.210938 756.261719 163.816406 756.261719 170.707031 C 756.261719 177.601562 750.65625 183.207031 743.765625 183.207031 C 736.871094 183.207031 731.265625 177.601562 731.265625 170.707031 C 731.265625 163.816406 736.871094 158.210938 743.765625 158.210938 Z M 379.496094 137.808594 C 372.605469 137.808594 367.003906 132.203125 367.003906 125.308594 C 367.003906 118.417969 372.605469 112.8125 379.496094 112.8125 C 386.386719 112.8125 391.992188 118.417969 391.992188 125.308594 C 391.992188 132.199219 386.386719 137.808594 379.496094 137.808594 Z M 587.140625 442.878906 C 585.835938 461.644531 582.101562 480.089844 576.03125 497.734375 C 570.292969 514.5 562.425781 530.566406 552.636719 545.535156 C 552.433594 545.839844 552.230469 546.144531 552.027344 546.46875 L 549.804688 549.925781 L 582.867188 715.296875 L 339.617188 784.980469 L 324.578125 736.566406 L 365.789062 736.566406 L 365.789062 716.210938 L 310.753906 716.210938 L 310.753906 716.214844 L 223.644531 716.214844 L 186.984375 600.476562 L 130.933594 585.152344 L 178.601562 472.894531 L 177.972656 469.566406 C 177.875 469.042969 177.769531 468.511719 177.6875 467.972656 L 177.636719 467.769531 C 175.175781 454.632812 173.921875 441.113281 173.921875 427.609375 L 173.921875 426.84375 L 173.9375 426.453125 C 174.109375 390.210938 183.386719 354.476562 200.792969 323.101562 C 211.109375 304.472656 224.085938 287.605469 239.371094 272.945312 C 250.433594 262.308594 262.699219 252.921875 275.792969 245 C 288.871094 237.074219 302.785156 230.625 317.167969 225.875 C 337.660156 219.089844 359.070312 215.664062 380.820312 215.664062 C 392.8125 215.664062 404.636719 216.695312 416.1875 218.71875 C 416.898438 218.839844 417.605469 218.988281 418.308594 219.117188 C 417.339844 220.222656 416.375 221.328125 415.441406 222.460938 C 414.8125 223.191406 414.214844 223.921875 413.636719 224.667969 L 409.871094 229.40625 L 425.734375 262.078125 C 423.761719 266.070312 422.003906 270.191406 420.53125 274.410156 L 385.695312 286.550781 L 384.933594 292.507812 C 384.859375 293.085938 384.804688 293.667969 384.734375 294.246094 L 325.832031 294.246094 C 321.066406 280.347656 307.902344 270.316406 292.414062 270.316406 C 272.925781 270.316406 257.070312 286.179688 257.070312 305.675781 C 257.070312 325.167969 272.925781 341.03125 292.414062 341.03125 C 307.902344 341.03125 321.066406 331 325.832031 317.101562 L 384.015625 317.101562 C 384.195312 320.589844 384.488281 324.074219 384.929688 327.515625 L 385.691406 333.472656 L 420.527344 345.613281 C 422.003906 349.832031 423.761719 353.953125 425.730469 357.949219 L 414.363281 381.363281 L 368.066406 381.363281 L 368.066406 461.300781 C 354.171875 466.066406 344.144531 479.230469 344.144531 494.722656 C 344.144531 514.214844 360.003906 530.078125 379.492188 530.078125 C 398.980469 530.078125 414.839844 514.21875 414.839844 494.722656 C 414.839844 479.230469 404.808594 466.066406 390.917969 461.300781 L 390.917969 404.21875 L 420.886719 404.21875 L 420.886719 403.777344 C 426.410156 409.71875 432.445312 415.203125 438.9375 420.125 L 443.761719 423.808594 L 477.125 408.277344 C 481.203125 410.226562 485.410156 411.929688 489.734375 413.375 L 502.117188 447.492188 L 508.195312 448.238281 C 514.097656 448.96875 520.113281 449.324219 526.082031 449.324219 C 532.050781 449.324219 538.066406 448.964844 543.96875 448.238281 L 550.035156 447.492188 L 562.433594 413.375 C 566.742188 411.929688 570.953125 410.226562 575.027344 408.277344 L 582.699219 411.847656 L 587.222656 413.953125 C 587.277344 414.875 587.347656 415.792969 587.390625 416.71875 C 587.542969 419.753906 587.648438 422.808594 587.664062 425.863281 L 587.664062 426.066406 C 587.683594 426.589844 587.683594 427.082031 587.683594 427.613281 C 587.683594 432.734375 587.496094 437.875 587.140625 442.878906 Z M 304.914062 305.675781 C 304.914062 312.566406 299.308594 318.171875 292.417969 318.171875 C 285.527344 318.171875 279.921875 312.566406 279.921875 305.675781 C 279.921875 298.78125 285.527344 293.175781 292.417969 293.175781 C 299.308594 293.175781 304.914062 298.78125 304.914062 305.675781 Z M 391.992188 494.71875 C 391.992188 501.613281 386.386719 507.21875 379.496094 507.21875 C 372.605469 507.21875 367.003906 501.613281 367.003906 494.71875 C 367.003906 488.421875 371.6875 483.210938 377.75 482.359375 L 381.242188 482.359375 C 387.308594 483.210938 391.992188 488.421875 391.992188 494.71875 Z M 605.722656 401.003906 L 601.683594 399.121094 L 580.300781 389.15625 L 574.53125 386.480469 L 570.074219 388.863281 C 564.375 391.929688 558.257812 394.398438 551.929688 396.214844 L 547.054688 397.613281 L 535.46875 429.503906 C 529.222656 429.957031 522.9375 429.957031 516.707031 429.503906 L 505.121094 397.613281 L 500.246094 396.214844 C 493.902344 394.398438 487.804688 391.929688 482.101562 388.863281 L 477.640625 386.480469 L 446.453125 401.003906 C 441.695312 397 437.253906 392.664062 433.175781 388.003906 L 447.992188 357.460938 L 445.554688 353.09375 C 442.441406 347.496094 439.902344 341.523438 438.050781 335.308594 L 436.621094 330.535156 L 404.054688 319.207031 C 403.824219 316.140625 403.707031 313.074219 403.707031 310.019531 C 403.707031 306.953125 403.824219 303.886719 404.054688 300.820312 L 436.621094 289.492188 L 438.050781 284.71875 C 439.90625 278.503906 442.441406 272.53125 445.554688 266.929688 L 447.992188 262.566406 L 433.175781 232.023438 C 434.535156 230.480469 435.929688 228.96875 437.371094 227.492188 C 440.238281 224.523438 443.269531 221.699219 446.453125 219.023438 L 477.640625 233.546875 L 482.101562 231.160156 C 484.285156 229.996094 486.5625 228.890625 488.863281 227.898438 C 492.542969 226.292969 496.339844 224.929688 500.25 223.8125 L 505.125 222.414062 L 516.710938 190.523438 C 522.957031 190.054688 529.222656 190.054688 535.472656 190.523438 L 547.058594 222.414062 L 551.933594 223.8125 C 558.261719 225.628906 564.378906 228.113281 570.078125 231.160156 L 574.535156 233.546875 L 605.730469 219.023438 C 610.484375 223.03125 614.925781 227.363281 619.003906 232.023438 L 604.171875 262.582031 L 606.609375 266.929688 C 609.742188 272.53125 612.261719 278.503906 614.113281 284.71875 L 615.539062 289.492188 L 648.109375 300.820312 C 648.339844 303.886719 648.472656 306.953125 648.472656 310.019531 C 648.472656 313.074219 648.339844 316.140625 648.109375 319.207031 L 615.539062 330.535156 L 614.113281 335.308594 C 612.257812 341.523438 609.738281 347.496094 606.609375 353.09375 L 604.171875 357.445312 L 619.003906 388.003906 C 614.921875 392.660156 610.480469 396.996094 605.722656 401.003906 Z M 605.722656 401.003906 " fill-opacity="1" fill-rule="nonzero"/></g></svg>